<svg xmlns="http://www.w3.org/2000/svg" viewBox="0 0 180 56" role="img" aria-labelledby="title">
  <title>CallRail</title>
  <rect width="180" height="56" rx="16" fill="#FFFFFF"/>
  <circle cx="35" cy="28" r="16" fill="#16A34A"/>
  <path d="M28 22c2-2 4-2 5 0l2 3c1 1 1 3 0 4l-2 2c2 4 5 7 9 9l2-2c1-1 3-1 4 0l3 2c2 2 2 4 0 6l-2 2c-2 2-5 2-8 1-6-2-11-6-16-11-5-5-9-10-11-16-1-3-1-6 1-8l2-2Z" fill="#FFFFFF"/>
  <text x="82" y="24" fill="#163042" font-family="Arial, sans-serif" font-size="15" font-weight="700">CallRail</text>
  <text x="82" y="39" fill="#5F7280" font-family="Arial, sans-serif" font-size="10" font-weight="600">Call attribution</text>
</svg>
