<?xml version="1.0" encoding="UTF-8"?>
<svg xmlns="http://www.w3.org/2000/svg" width="1200" height="412" viewBox="0 0 1200 412" fill="none">
  <g clip-path="url(#clip0_301_341)">
    <path d="M0 144.402H63.8503C79.6581 144.402 89.5937 147.994 96.2587 154.658C100.322 158.72 103.271 164.592 103.271 172.42V172.742C103.271 186.268 95.1189 194.567 82.9039 198.803C97.5719 203.039 107.012 210.867 107.012 226.499V226.821C107.012 245.054 92.0218 258.407 63.1814 258.407H0V144.402ZM65.8077 181.066C65.8077 176.012 61.7443 173.237 53.5927 173.237H37.1407V189.191H53.7661C61.9177 189.191 65.8077 186.416 65.8077 181.363V181.041V181.066ZM56.3677 212.651H37.1407V229.596H56.1943C64.4946 229.596 68.7314 226.177 68.7314 221.297V220.975C68.7314 216.094 64.668 212.676 56.3429 212.676L56.3677 212.651Z" fill="#231F20"></path>
    <path d="M131.615 144.401H228.865V175.665H169.078V187.234H224.802V214.756H169.078V227.143H229.683V258.406H131.615V144.401Z" fill="#231F20"></path>
    <path d="M266.006 144.401H363.256V175.665H303.469V187.234H359.192V214.756H303.469V227.143H364.073V258.406H266.006V144.401Z" fill="#231F20"></path>
    <path d="M400.396 144.401H438.503V184.633H473.365V144.401H511.472V258.406H473.365V217.531H438.503V258.406H400.396V144.401Z" fill="#231F20"></path>
    <path d="M550.892 144.401H588.999V258.406H550.892V144.401Z" fill="#231F20"></path>
    <path d="M613.603 144.401H656.293L678.444 208.415L700.595 144.401H742.616L696.358 259.224H659.861L613.603 144.401Z" fill="#231F20"></path>
    <path d="M766.897 144.401H864.147V175.665H804.36V187.234H860.084V214.756H804.36V227.143H864.965V258.406H766.897V144.401Z" fill="#231F20"></path>
    <path d="M0 294.971H51.3132C81.6155 294.971 102.304 308.497 102.304 335.524V335.847C102.304 363.369 81.2934 378.035 50.4955 378.035H38.107V408.976H0V294.971ZM48.3895 350.859C58.1764 350.859 64.6928 346.449 64.6928 338.324V338.002C64.6928 329.703 58.6719 325.467 48.5629 325.467H38.1318V350.884H48.3895V350.859Z" fill="#231F20"></path>
    <path d="M129.981 294.971H168.088V376.4H221.681V408.976H129.956V294.971H129.981Z" fill="#231F20"></path>
    <path d="M245.316 357.845V294.971H284.092V357.349C284.092 371.519 291.426 377.539 301.684 377.539C311.942 377.539 319.276 371.99 319.276 358.167V294.971H358.052V357.027C358.052 395.946 335.406 411.255 301.362 411.255C267.318 411.255 245.316 395.624 245.316 357.845Z" fill="#231F20"></path>
    <path d="M389.643 294.971H429.385L453.815 335.029L478.245 294.971H517.987V408.976H480.029V352.469L453.815 393.022H453.171L426.957 352.469V408.976H389.643V294.971Z" fill="#231F20"></path>
    <path d="M550.57 294.971H614.42C630.228 294.971 640.163 298.563 646.828 305.227C650.892 309.29 653.84 315.161 653.84 322.989V323.311C653.84 336.837 645.689 345.136 633.474 349.373C648.142 353.609 657.582 361.437 657.582 377.069V377.391C657.582 395.624 642.592 408.976 613.751 408.976H550.545V294.971H550.57ZM616.377 331.635C616.377 326.581 612.314 323.807 604.162 323.807H587.71V339.761H604.336C612.487 339.761 616.377 336.986 616.377 331.932V331.61V331.635ZM606.937 363.221H587.71V380.165H606.764C615.064 380.165 619.301 376.747 619.301 371.866V371.544C619.301 366.664 615.238 363.245 606.913 363.245L606.937 363.221Z" fill="#231F20"></path>
    <path d="M685.777 294.971H723.884V408.976H685.777V294.971Z" fill="#231F20"></path>
    <path d="M760.06 294.971H795.738L836.298 345.31V294.971H874.083V408.976H840.213L797.869 356.358V408.976H760.084V294.971H760.06Z" fill="#231F20"></path>
    <path d="M904.039 352.321V351.998C904.039 317.96 930.922 292.543 966.923 292.543C986.472 292.543 1002.28 299.059 1014.64 309.81L993.311 335.549C985.828 329.207 977.503 325.615 968.063 325.615C953.246 325.615 942.493 337.011 942.493 352.494V352.816C942.493 368.943 953.742 380.017 969.698 380.017C976.214 380.017 979.807 379.026 982.731 377.415V366.02H963.182V341.594H1018.41V394.36C1006.02 404.467 988.752 411.453 968.063 411.453C932.557 411.453 904.039 387.671 904.039 352.321Z" fill="#231F20"></path>
    <path d="M1109.42 8.37335C1105.53 7.80357 1100.15 10.2313 1099.58 14.1454C1099.36 15.7309 1099.68 17.2668 1100.4 18.555C1097.72 20.2891 1085.04 28.6128 1082.56 31.7342C1079.81 35.2272 1077.63 34.7317 1077.63 34.7317C1077.63 34.7317 1080.1 36.1438 1080.35 36.1686C1080.6 36.1933 1084.34 37.2833 1083.72 34.484C1083.2 32.2297 1095.27 24.8226 1101.61 20.1653C1102.65 21.2057 1104.01 21.9737 1105.6 22.1966C1109.49 22.7664 1115.11 18.5798 1115.68 14.6904C1116.25 10.8011 1113.31 8.91835 1109.42 8.34857V8.37335Z" fill="#E2E1E1"></path>
    <path d="M1082.04 38.1506C1081.22 38.1506 1080.48 37.9772 1080.1 37.9028C1079.78 37.8533 1079.53 37.8285 1076.76 36.243C1075.99 35.8219 1075.67 34.8805 1075.99 34.063C1076.31 33.2455 1077.18 32.7996 1078.02 32.973C1077.97 32.973 1079.31 32.973 1081.19 30.5948C1083.5 27.6716 1093.06 21.2059 1098.19 17.8368C1097.77 16.5486 1097.65 15.1861 1097.84 13.8236C1098.19 11.4454 1099.83 9.38921 1102.43 7.97715C1104.68 6.76328 1107.38 6.24305 1109.69 6.5651C1115.19 7.35783 1118.09 10.4792 1117.44 14.8888C1117.1 17.1927 1115.46 19.5957 1112.96 21.4784C1110.46 23.3611 1107.66 24.2282 1105.35 23.8814C1103.96 23.6832 1102.68 23.163 1101.54 22.3454C1100.15 23.3364 1098.61 24.4016 1096.98 25.5164C1093.01 28.2414 1086.47 32.7501 1085.51 34.3851C1085.73 35.8715 1085.11 36.7385 1084.71 37.1349C1083.97 37.8781 1082.95 38.101 1082.04 38.101V38.1506ZM1102.18 18.5056C1102.43 18.58 1102.68 18.7286 1102.87 18.9268C1103.72 19.7691 1104.76 20.2893 1105.87 20.4627C1107.21 20.6609 1109.14 19.992 1110.85 18.7038C1112.56 17.4156 1113.75 15.7806 1113.95 14.4429C1114.12 13.2042 1113.85 12.3124 1113.06 11.594C1112.24 10.8756 1110.9 10.3554 1109.17 10.1076C1107.61 9.88467 1105.67 10.281 1104.11 11.1233C1102.53 11.9656 1101.54 13.1547 1101.36 14.3686C1101.19 15.5081 1101.41 16.6477 1101.98 17.6881C1102.13 17.9359 1102.18 18.2084 1102.21 18.4809L1102.18 18.5056Z" fill="#231F20"></path>
    <path d="M1109.41 8.37359C1105.52 7.80381 1100.15 10.2316 1099.58 14.1457C1099.36 15.7311 1099.68 17.2671 1100.4 18.5553C1097.72 20.2894 1085.03 28.6131 1082.56 31.7344C1079.81 35.2274 1077.63 34.732 1077.63 34.732C1077.63 34.732 1080.1 36.144 1080.35 36.1688C1080.6 36.1936 1084.34 37.2836 1083.72 34.4842C1083.2 32.2299 1095.27 24.8228 1101.61 20.1655C1102.65 21.206 1104.01 21.9739 1105.6 22.1969C1109.49 22.7667 1115.11 18.58 1115.68 14.6907C1116.25 10.8013 1113.3 8.91859 1109.41 8.34882V8.37359Z" fill="#E2E1E1"></path>
    <path d="M1116.38 84.9716C1116.38 84.9716 1127.85 69.9592 1141.95 79.5959C1156.04 89.2325 1155.87 112.965 1155.87 112.965C1155.87 112.965 1128.91 160.752 1096.6 167.267C1092.12 168.184 1079.31 168.332 1076.44 167.168C1073.54 166.004 1072.64 110.661 1072.72 109.918C1072.79 109.175 1116.38 84.9468 1116.38 84.9468V84.9716Z" fill="#231F20"></path>
    <path d="M1113.36 93.8652C1117.39 89.4308 1126.04 75.1369 1138.85 83.956C1151.64 92.7504 1151.12 112.172 1151.12 112.172C1151.12 112.172 1130.97 155.401 1097.6 164.072C1093.56 165.112 1081.89 165.063 1079.26 163.997C1076.64 162.932 1076.98 120.942 1077.65 120.744C1103.27 113.361 1109.32 98.3243 1113.38 93.89L1113.36 93.8652Z" fill="#E2E1E1"></path>
    <path d="M1081.49 130.306C1081.49 130.306 1088.16 133.303 1098.09 121.635C1098.09 121.635 1096.9 127.63 1091.63 132.61C1091.63 132.61 1114.27 119.827 1125.59 98.6956C1125.59 98.6956 1118.09 120.818 1101.19 130.876C1101.19 130.876 1129.16 117.176 1140.16 102.758C1140.16 102.758 1125.74 124.781 1099.31 137.539L1132.43 131.544C1132.43 131.544 1100.87 146.26 1094.45 147.82C1088.03 149.381 1081.07 146.111 1081.07 146.111L1081.52 130.331L1081.49 130.306Z" fill="#EAEAEA"></path>
    <path d="M970.811 145.541C953.591 143.015 922.744 134.418 909.637 105.137C900.965 85.7644 900.172 65.2772 907.382 47.4655C913.354 32.7256 922.645 24.6248 928.765 22.1723C935.232 19.5712 944.969 16.3011 954.706 17.7132C963.948 19.0757 971.208 24.2037 976.287 32.9981C980.103 39.6372 982.853 48.382 985.777 57.6223C990.658 73.1302 996.183 90.6942 1007.26 98.7454L1007.53 98.9436L1007.93 99.2904L1008.18 99.5133C1015.83 107.515 1021.58 113.262 1022.35 113.882L1022.45 114.6L1023.04 114.674L1024.45 116.532L1024.75 117.053L1025.22 118.167L1025.4 118.762C1026.11 123.271 1023.86 125.302 1016.43 132.09C1014.96 133.427 1011.54 136.524 1011.02 137.218C1008.42 140.612 1003.91 141.825 996.134 143.659C991.798 144.699 990.435 145.095 990.088 145.269L990.014 145.12L989.964 145.294L988.205 146.161L987.709 146.334L986.669 146.582L986.148 146.656C985.901 146.656 979.682 146.805 970.811 145.492V145.541Z" fill="#231F20"></path>
    <path d="M969.126 138.084C953.219 135.756 924.75 127.853 912.783 100.925C904.829 83.039 904.086 64.1373 910.702 47.7376C916.103 34.3602 924.354 27.0522 929.755 24.897C935.652 22.5188 944.522 19.5213 953.219 20.7847C961.271 21.949 967.59 26.4824 972.025 34.1868C975.518 40.281 978.095 48.5056 980.82 57.2256C985.553 72.3619 990.93 89.5295 1002.1 97.655L1002.28 97.7789L1002.57 98.0514L1002.72 98.2C1009.88 105.706 1015.56 111.429 1016.4 112.073L1016.65 112.42L1017.99 114.179L1018.43 115.244C1018.9 118.291 1018.85 120.273 1012.16 126.392C1010.23 128.15 1008.42 129.563 1007.8 130.355C1005.82 132.956 999.23 134.715 992.367 136.35C990.731 136.747 986.866 137.663 986.073 138.084C986.123 138.084 986.148 138.035 986.172 138.01L985.949 138.084L984.264 138.927L983.273 139.174C983.026 139.174 977.277 139.298 969.101 138.109L969.126 138.084Z" fill="#E2E1E1"></path>
    <path d="M987.785 140.884C987.785 140.884 961.868 183.444 986.05 195.806C1010.21 208.168 1037.66 207.672 1037.66 207.672C1037.66 207.672 1064.22 191.545 1065.21 188.498C1066.2 185.451 1066.62 175.467 1066.62 175.467L1080.1 155.352C1080.1 155.352 1086.74 128.498 1078.34 123.593C1078.34 123.593 1049.58 121.363 1043.9 115.096C1038.23 108.853 1033.94 105.087 1033.94 105.087C1033.94 105.087 1016.92 113.064 1015.68 121.388C1014.42 129.712 1000.5 136.623 1000.5 136.623L987.809 140.884H987.785Z" fill="#F8D93B"></path>
    <path d="M993.31 120.793C993.31 120.793 998.785 122.23 1006.81 122.081C1012.76 121.957 1020.07 120.694 1023.93 121.264C1025.97 121.561 1026.71 123.047 1026.59 124.038C1026.21 126.937 1023.07 127.209 1019.57 127.333C1018.28 127.383 1017.29 128.72 1019.2 129.959C1021.08 131.198 1039.39 149.158 1051.41 151.511C1051.41 151.511 1053 151.685 1058.97 154.286C1064.94 156.887 1072.42 155.103 1075.69 154.757C1078.96 154.41 1079.66 154.534 1080.25 150.347C1080.87 146.16 1082.01 141.107 1082.18 135.037C1082.18 135.037 1082.28 130.95 1082.71 133.501C1083.13 136.053 1083.08 141.28 1085.55 142.791C1088.03 144.302 1094.65 149.158 1097.22 147.151C1098.19 146.408 1100.12 150.842 1102.2 149.653C1104.29 148.489 1105.1 151.734 1104.83 152.973C1104.56 154.236 1103.57 156.937 1100.79 156.961C1098.02 156.986 1098.54 157.556 1097.1 156.664C1095.66 155.772 1093.31 155.103 1090.83 153.914C1088.13 152.626 1082.98 151.189 1082.56 153.072C1082.14 154.955 1080.52 162.065 1078 166.672C1075.47 171.255 1068.46 182.131 1065.53 186.317C1065.53 186.317 1035.98 189.216 1014.35 167.688C992.715 146.16 999.033 137.837 999.033 137.837C999.033 137.837 992.418 138.109 990.782 141.057C989.147 144.005 974.826 164.517 984.563 180.124C994.301 195.731 1017.44 204.501 1032.38 204.079C1047.32 203.658 1060.53 189.761 1062.19 188.522C1063.75 187.358 1075.74 169.893 1073.17 174.6C1069.45 182.973 1068.41 184.137 1065.26 189.018C1058.6 199.274 1040.39 209.207 1034.32 211.09C1023.93 214.311 1012.78 216.515 1001.91 215.673C979.41 213.939 962.388 190.083 964.99 168.332C965.634 163.056 966.427 157.209 969.202 152.552C973.785 144.823 976.882 143.832 976.882 143.832C976.882 143.832 975.272 142.965 973.711 142.494C972.125 141.999 966.873 140.785 973.017 140.785C979.162 140.785 986.273 140.636 981.813 138.679C977.328 136.722 977.75 136.301 981.615 136.598C985.455 136.92 993.805 138.06 989.395 134.269C985.579 130.975 995.416 135.607 1000.74 132.932C1006.07 130.256 1010.9 128.274 1006.84 128.795C1003.44 129.216 991.798 129.018 989.643 128.869C987.487 128.72 994.722 122.998 993.31 120.694V120.793Z" fill="#242022"></path>
    <path d="M1096.7 149.034C1096.78 148.564 1097.05 144.229 1101.26 143.386C1105.45 142.519 1110.6 141.627 1111.92 139.15C1113.23 136.648 1116.08 135.608 1115.56 125.525C1115.04 115.442 1128.42 117.622 1130.9 121.066C1137.61 130.281 1130.18 141.503 1130.18 141.503L1146.63 156.342C1146.63 156.342 1152.18 161.049 1149.28 165.484C1146.38 169.918 1139.35 170.067 1140.63 173.089C1141.92 176.111 1142.02 180.793 1139.17 182.453C1136.3 184.113 1131.64 187.854 1124.6 181.636C1117.54 175.418 1110.18 171.627 1110.18 171.627C1110.18 171.627 1093.04 160.925 1096.6 156.342C1099.7 152.354 1096.7 149.084 1096.7 149.084V149.034Z" fill="#252323"></path>
    <path d="M1020.96 108.977C1025.82 105.707 1029.26 104.344 1032.51 104.716C1030.5 101.594 1028.05 99.3895 1025.84 92.0072C1023.81 85.2937 1022.52 80.3639 1024.01 70.9502C1025.74 59.9015 1031.74 50.2896 1040.44 43.7744C1056.71 31.5861 1082.46 24.501 1099.7 38.7207C1101.93 40.5539 1104.11 42.5357 1105.55 45.0625C1107.8 49.0262 1114.37 50.2896 1114.37 55.9626C1114.37 58.2913 1124.8 64.9304 1117.54 70.3557C1115.19 72.1146 1116.43 77.5398 1116.35 80.2153C1116.25 83.5349 1115.96 86.8792 1115.41 90.1492C1113.78 99.885 1108.27 112.049 1099.97 118.167C1092.69 123.543 1085.48 125.55 1081.22 125.575C1084.29 130.034 1084.09 144.105 1081.81 139.918C1081.34 132.635 1080.95 124.534 1074.28 125.872C1067.62 127.21 1043.56 122.874 1033.99 107.738C1033.99 107.738 1019.6 107.193 1016.7 122.23L1014.67 122.75C1014.67 122.75 1016.1 112.222 1020.94 108.952L1020.96 108.977Z" fill="#282128"></path>
    <path d="M876.362 126.64C877.031 130.43 880.426 133.18 883.25 135.533C890.857 141.9 900.644 144.724 908.448 150.818C910.084 152.007 911.669 153.295 913.156 154.831L912.933 155.302C902.304 154.46 893.83 148.266 885.901 141.726C882.829 139.026 879.781 136.029 877.651 132.536C876.585 130.777 875.619 128.795 875.842 126.541L876.362 126.64Z" fill="#E5E5E5"></path>
    <path d="M976.857 105.087C976.61 104.22 959.637 74.1949 961.669 46.697C961.669 46.697 954.93 83.46 971.183 106.127C971.183 106.127 942.021 77.3906 936.867 38.3237C936.867 38.3237 938.453 75.7308 958.993 98.5715L949.627 104.121C949.627 104.121 922.472 82.147 917.467 76.2263C917.467 76.2263 938.131 103.031 952.402 110.537C952.402 110.537 937.734 116.928 925.916 108.505C925.916 108.505 928.245 113.138 948.884 117.944C969.548 122.75 976.857 105.112 976.857 105.112V105.087Z" fill="#EAEAEA"></path>
    <path d="M892.293 107.787C891.773 111.602 894.152 115.244 896.134 118.341C901.436 126.739 909.885 132.412 915.46 140.587C916.649 142.222 917.764 143.931 918.706 145.863L918.359 146.26C908.498 142.222 902.303 133.725 896.778 125.079C894.697 121.586 892.69 117.796 891.724 113.807C891.253 111.801 890.931 109.621 891.823 107.564L892.293 107.812V107.787Z" fill="#E5E5E5"></path>
    <path d="M958.423 98.2748L953.765 105.236L949.801 119.728C949.801 119.728 957.506 119.629 956.714 123.84C955.673 129.39 960.604 132.263 962.313 132.858C964.023 133.452 967.69 134.666 972.051 134.27C976.411 133.898 985.207 131.322 985.281 129.216C985.306 128.25 987.462 124.831 987.586 121.091C987.71 116.755 986.719 113.312 986.719 113.312L974.28 108.456C974.28 108.456 973.636 108.556 972.645 107.466C971.654 106.376 958.423 98.25 958.423 98.25V98.2748Z" fill="#242123"></path>
    <path d="M976.684 121.66C976.684 121.66 969.97 117.672 974.975 110.215C974.975 110.215 976.362 105.756 975.123 101.867C973.909 98.0023 979.757 90.3722 984.341 89.3566C988.924 88.3656 993.904 85.9131 996.06 91.3632C998.216 96.8132 991.947 98.6216 989.569 101.793C987.19 104.963 984.811 107.044 986.1 112.123C987.388 117.201 988.206 125.005 983.746 128.176C979.311 131.347 969.053 136.772 961.843 130.678C954.658 124.608 957.879 110.612 962.859 108.531L965.436 107.218C965.436 107.218 963.28 107.614 961.224 109.051C959.167 110.488 951.759 104.196 950.396 101.248C949.231 98.7455 947.423 96.293 946.977 93.5184C946.803 92.4532 946.927 91.3136 947.547 90.4466C948.786 88.6629 951.313 88.2665 953.32 88.1427C957.507 87.8702 962.239 89.4309 964.172 93.4441C965.733 96.6893 967.071 100.058 968.632 103.304C969.127 104.344 969.648 105.434 970.366 106.376C971.035 107.218 972.101 107.639 972.15 108.828C972.249 111.033 970.936 113.039 971.432 115.269C972.125 118.44 972.72 120.298 976.66 121.685L976.684 121.66Z" fill="white"></path>
    <path d="M959.093 111.305C959.093 111.305 948.736 101.198 939.717 102.932C930.698 104.666 934.787 112.891 941.575 116.656C941.575 116.656 949.331 119.356 954.459 118.539C954.459 118.539 955.773 118.539 955.797 118.415C955.822 118.291 957.135 111.801 959.093 111.305Z" fill="white"></path>
    <path d="M948.712 119.282C944.921 118.737 941.502 117.548 941.279 117.474C936.967 115.096 933.053 110.686 933.697 106.772C933.969 105.087 935.208 102.907 939.544 102.065C948.935 100.257 959.267 110.24 959.713 110.661L960.109 110.042L959.316 112.123C958.424 112.346 957.111 116.161 956.69 118.514C956.566 119.406 955.55 119.381 954.46 119.381C952.726 119.654 950.669 119.53 948.736 119.257L948.712 119.282ZM941.997 115.888C941.997 115.888 949.505 118.44 954.311 117.672C954.584 117.672 954.856 117.672 955.055 117.672C955.377 116.26 956.244 112.841 957.681 111.256C955.154 109.026 946.952 102.461 939.866 103.824C938.008 104.171 935.753 105.038 935.431 107.094C935.01 109.769 937.884 113.634 941.997 115.913V115.888Z" fill="#231F20"></path>
    <path d="M939.048 123.271C939.048 123.271 933.201 124.955 936.372 130.207C939.519 135.459 951.437 131.768 951.437 131.768C951.437 131.768 957.16 129.712 957.334 128.993C957.507 128.275 955.475 123.593 955.649 121.586C955.822 119.58 947.918 119.654 946.159 120.546C944.4 121.437 940.634 121.933 939.073 123.271H939.048Z" fill="white"></path>
    <path d="M941.922 133.65C939.668 133.328 937.636 132.436 936.521 130.578C935.431 128.77 935.183 127.11 935.753 125.649C936.571 123.543 938.875 122.626 939.544 122.403C940.634 121.561 942.344 121.066 944.004 120.595C945.044 120.298 946.035 120.025 946.655 119.678C948.389 118.787 954.559 118.638 956.566 119.976C957.383 120.521 957.458 121.214 957.433 121.586C957.334 122.577 958.003 124.682 958.473 126.194C958.994 127.878 959.217 128.572 959.093 129.092C958.994 129.513 958.82 130.281 952.626 132.511C952.254 132.635 946.605 134.344 941.922 133.65ZM954.088 120.917C952.031 120.62 948.563 120.669 947.448 121.239C946.655 121.635 945.589 121.957 944.474 122.28C942.988 122.701 941.328 123.171 940.535 123.865L940.213 124.038C940.213 124.038 938.032 124.707 937.388 126.318C937.016 127.234 937.239 128.374 938.032 129.687C940.337 133.502 948.959 131.817 952.081 130.876C954.162 130.133 956.64 129.092 957.334 128.621C957.259 128.275 956.987 127.457 956.764 126.763C956.194 124.905 955.525 122.8 955.649 121.462C955.475 121.239 954.881 121.066 954.088 120.942V120.917Z" fill="#231F20"></path>
    <path d="M987.065 114.724C987.065 114.724 988.899 123.221 985.182 127.656C981.466 132.09 989.147 130.232 990.509 128.176C991.897 126.12 995.143 121.314 991.352 116.557C987.536 111.801 986.545 113.386 987.065 114.724Z" fill="white"></path>
    <path d="M990.287 102.313C990.931 101.446 991.922 100.678 992.988 99.8353C995.49 97.8783 998.612 95.4505 996.878 91.0409C994.796 85.7148 990.287 86.9039 986.323 87.9691C985.604 88.1673 984.885 88.3407 984.167 88.5141C980.822 89.2573 977.403 92.8246 975.668 95.8221C974.256 98.2499 973.761 100.504 974.281 102.139C975.396 105.632 974.281 108.481 974.281 108.481C974.281 108.481 972.249 106.92 971.679 106.4C971.456 106.202 971.258 106.029 971.06 105.781C970.986 105.682 970.887 105.558 970.812 105.459L970.738 105.36C970.242 104.641 969.846 103.774 969.425 102.882C968.681 101.322 967.988 99.7115 967.294 98.126C966.551 96.4167 965.782 94.7073 964.99 93.0228C962.735 88.3407 957.284 86.9782 953.295 87.2259C951.238 87.3498 948.339 87.7709 946.853 89.9014C946.159 90.8923 945.911 92.2053 946.134 93.6421C946.481 95.723 947.472 97.5562 948.463 99.3399C948.884 100.083 949.281 100.851 949.628 101.594C950.842 104.22 956.243 109.1 959.489 109.967C959.613 109.992 959.712 110.017 959.811 110.042C958.498 111.825 957.482 114.377 957.036 117.325C956.144 123.122 957.755 128.374 961.298 131.371C963.181 132.957 965.287 133.824 967.517 134.146C972.77 134.914 978.617 132.659 983.325 129.513C983.325 129.736 983.325 129.934 983.399 130.157C983.548 130.504 983.944 131.099 985.059 131.223C985.183 131.223 985.332 131.223 985.455 131.223C987.338 131.223 990.262 130.083 991.253 128.621C992.616 126.59 996.233 121.239 992.021 115.987C989.866 113.287 988.255 112.172 987.091 112.544C987.041 112.321 986.992 112.098 986.942 111.924C985.926 107.887 987.363 106.053 989.37 103.502C989.667 103.13 989.965 102.734 990.262 102.337L990.287 102.313ZM951.214 100.851C950.842 100.058 950.421 99.2903 950 98.4976C949.108 96.8378 948.166 95.1285 947.869 93.3696C947.77 92.8246 947.72 91.7593 948.29 90.9418C949.355 89.4307 951.709 89.1334 953.419 89.0096C954.286 88.96 955.252 89.0096 956.218 89.1334C959.068 89.5546 962.016 90.9171 963.404 93.8155C964.197 95.4753 964.94 97.1846 965.683 98.8692C966.377 100.479 967.096 102.09 967.889 103.774C968.186 104.418 968.508 105.087 968.88 105.731L965.287 106.375C965.287 106.375 962.908 106.821 960.728 108.332C960.654 108.382 960.406 108.432 959.91 108.283C957.234 107.564 952.205 103.056 951.189 100.876L951.214 100.851ZM990.659 117.102C994.053 121.338 991.179 125.599 989.791 127.655C988.999 128.844 985.604 129.786 985.059 129.538C985.059 129.538 985.059 129.166 985.852 128.2C989.816 123.493 988.007 114.897 987.933 114.526L987.884 114.377C988.329 114.625 989.197 115.294 990.659 117.102ZM987.983 102.412C985.951 105.013 984.018 107.49 985.232 112.346C985.753 114.451 986.719 118.663 986.422 122.354C986.149 124.088 985.604 125.773 984.514 127.086C984.241 127.408 983.969 127.804 983.746 128.2C981.541 129.761 969.003 136.425 961.546 130.108C958.473 127.507 957.086 122.849 957.879 117.672C958.498 113.659 960.827 109.398 962.884 108.531C962.884 108.531 967.269 106.301 969.672 106.871C969.945 106.945 971.555 107.069 972.051 108.506C972.299 109.224 972.051 111.057 971.704 111.801C972.324 112.692 973.538 111.751 974.281 111.132C975.891 109.794 976.783 104.096 975.991 101.594C975.619 100.43 976.065 98.6462 977.205 96.6892C979.063 93.4687 982.16 90.7437 984.539 90.2234C985.282 90.05 986.025 89.8766 986.769 89.6784C991.08 88.5389 993.78 88.0186 995.242 91.7098C996.407 94.6826 994.772 96.2432 991.897 98.4728C990.782 99.3399 989.643 100.232 988.85 101.272C988.553 101.669 988.255 102.04 987.958 102.412H987.983Z" fill="#231F20"></path>
    <path d="M1113.11 81.5774C1113.11 81.5774 1107.98 90.5204 1096.8 92.7995C1096.8 92.7995 1088.78 93.8152 1086.17 88.0927C1084.04 83.4106 1081.81 87.1017 1080.65 89.257C1077.77 94.6327 1054.93 97.1595 1050.12 79.6203C1049.95 78.9515 1049.16 73.6996 1049.16 73.6996C1049.16 73.6996 1044.72 74.3932 1044.99 70.1571C1045.27 65.9209 1047.99 64.2859 1047.99 64.2859C1047.99 64.2859 1047.79 61.1893 1049.45 57.8202C1051.11 54.451 1057.31 41.6682 1068.86 41.6682C1080.4 41.6682 1082.66 50.7599 1082.66 50.7599C1082.66 50.7599 1083.45 52.494 1084.41 52.9894C1085.38 53.4849 1085.95 54.352 1085.95 54.352C1085.95 54.352 1086.35 53.584 1087.04 52.494C1087.54 51.7013 1086.92 50.5865 1087.71 49.5956C1089.44 47.4651 1093.09 45.4337 1095.76 44.7153C1095.76 44.7153 1098.12 44.1207 1099.48 44.2694C1100.84 44.418 1095.32 39.1166 1092.15 38.3487C1085.95 36.8871 1080.3 34.4841 1073.84 34.2611C1066.87 34.0382 1060.16 36.8127 1053.99 39.7359C1047.99 42.6096 1043.09 45.5823 1038.28 50.1653C1038.28 50.1653 1021.53 66.1686 1028.17 85.7392C1034.84 105.31 1042.12 109.15 1048.02 113.807C1054.04 118.563 1066.23 122.428 1075.2 121.858C1076.19 121.809 1075.97 121.214 1074.95 121.041C1070.02 120.174 1065.76 118.762 1063.26 117.672C1049.13 111.528 1036.22 94.7318 1036.79 72.9069C1036.79 72.9069 1034.59 73.6501 1032.63 72.4114C1032.63 72.4114 1036.3 70.1818 1040.36 71.4948C1040.36 71.4948 1040.53 72.4114 1038.65 73.3776C1038.65 73.3776 1038.16 78.5055 1040.14 85.5658C1042.37 93.4684 1047.67 105.632 1064.97 114.6C1082.28 123.567 1094.28 117.102 1100.92 111.131C1107.56 105.186 1114.79 89.7277 1113.11 81.5031V81.5774ZM1081.42 95.4998C1080.3 96.8375 1076.39 101.965 1076.36 98.2248C1076.36 98.2248 1078.79 96.1686 1079.76 93.8648C1080.72 91.5609 1082.53 94.1373 1081.42 95.4998ZM1088.03 97.1596C1084.86 93.9143 1085.36 93.2702 1085.9 93.1216C1085.9 93.1216 1087.83 92.1554 1089.72 95.0291C1091.6 97.9027 1091.2 100.38 1088.03 97.1596Z" fill="#F8D93B"></path>
    <path d="M1056.09 52.2712C1058.27 49.5957 1060.78 46.9698 1063.92 45.4338C1069.55 42.6345 1076.83 45.0375 1080.18 50.215C1080.55 50.7848 1080.95 51.5775 1080.23 52.073C1079.86 52.3207 1079.41 52.395 1079.01 52.618C1078.82 52.7418 1078.62 52.9153 1078.59 53.1382C1078.52 53.8319 1083.2 54.8475 1083.75 55.0953C1084.61 55.5164 1083.84 55.9623 1083.32 56.111C1081.09 56.7055 1070.84 57.4487 1065.86 59.5048C1060.88 61.5362 1050.72 68.7204 1049.7 69.3892C1048.69 70.0581 1046.46 69.959 1048.22 67.7295C1049.08 66.6394 1050.07 65.599 1051.29 64.8806C1052.85 63.9392 1054.76 63.6915 1056.17 62.4776C1057.04 61.7096 1058.03 60.3224 1056.05 60.7435C1052.87 61.4371 1050.27 62.7749 1052.18 58.4396C1052.77 57.0523 1053.52 55.7394 1054.43 54.5255C1054.95 53.8071 1055.55 53.0639 1056.17 52.3207L1056.09 52.2712Z" fill="#FFB300"></path>
    <path d="M1050.89 72.4363C1050.5 74.0218 1051.36 76.078 1051.68 77.6139C1053.99 88.5883 1063.73 90.2976 1063.73 90.2976C1063.73 90.2976 1060.01 84.476 1063.03 75.5329C1066.06 66.5899 1073.12 62.9979 1082.01 64.3604C1083 64.509 1083.52 65.3513 1084.24 64.3851C1085.16 63.1713 1085.43 60.5206 1084.34 59.3315C1082.93 57.746 1079.16 58.9351 1077.35 59.1828C1072.79 59.8021 1068.36 61.1647 1064.22 63.1217C1061.69 64.3108 1059.34 65.8467 1057.01 67.4074C1055.8 68.2249 1054.58 69.0424 1053.34 69.8104C1052.13 70.5784 1051.16 71.2472 1050.87 72.3868L1050.89 72.4363Z" fill="#F6F8F7"></path>
    <path d="M1084.27 69.8846C1084.27 69.8846 1081.74 68.8194 1081.49 68.7946C1080.85 68.7203 1080.2 68.7451 1079.58 68.7946C1077.7 69.0176 1075.87 69.7856 1074.21 70.6774C1067.05 74.5667 1067.34 80.2397 1067.29 80.6609C1067.12 81.8747 1067.1 83.1382 1067.29 84.352C1067.44 85.3182 1068.76 88.5882 1069.25 89.4305C1069.75 90.2727 1066.77 90.8673 1065.61 90.248C1065.14 89.4552 1063.85 85.8136 1063.85 82.6675C1063.85 80.859 1064.37 78.3322 1064.96 76.6477C1066.1 73.4024 1068.01 70.2562 1070.81 68.2001C1073.88 65.9705 1078.05 64.8805 1081.76 65.8219C1083.32 66.2183 1086.17 68.0515 1084.29 69.8351L1084.27 69.8846Z" fill="#F9F187"></path>
    <path d="M1089.3 67.9525C1089.3 67.9525 1098.12 66.6891 1101.73 70.8014C1105.4 74.9633 1104.95 78.5801 1104.43 83.9558C1104.31 85.0954 1103.12 87.4736 1102.13 88.1672C1101.21 88.8113 1099.95 89.4307 1098.88 89.8518C1098.24 90.0995 1097.84 90.05 1098.04 89.3068C1098.34 88.0929 1099.06 86.9286 1099.53 85.7643C1100.05 84.4761 1100.57 83.1879 1100.79 81.8254C1103.22 68.0764 1088.82 69.9591 1087.66 70.1573C1087.66 70.1573 1087.96 68.1012 1089.27 67.9525H1089.3Z" fill="#F9F187"></path>
    <path d="M1076.73 76.5238C1077.03 76.2265 1077.28 75.8302 1077.68 75.4834C1079.14 74.1704 1082.18 75.6568 1083.8 75.4338C1085.21 75.2356 1085.5 74.2447 1084.22 72.9813C1082.9 71.6931 1080.67 71.272 1078.89 71.371C1076.61 71.4949 1074.45 73.6502 1074.58 75.9788C1074.58 76.2018 1074.63 76.4247 1074.73 76.6229C1074.9 76.945 1075.25 77.044 1075.59 77.044C1076.14 77.044 1076.46 76.8211 1076.73 76.5486V76.5238Z" fill="white"></path>
    <path d="M1094.52 75.8551C1095.09 76.2267 1095.27 77.5892 1095.94 77.7626C1096.63 77.936 1097.13 77.4901 1097.55 76.8956C1097.99 76.2763 1097.84 75.4587 1097.55 74.7403C1097.27 74.0467 1096.23 73.3283 1095.51 73.0805C1094.2 72.6594 1092.81 72.5603 1091.45 72.6842C1090.71 72.7585 1089.89 72.9319 1089.49 73.576C1089.22 73.9971 1089.22 74.5422 1089.35 75.0128C1089.59 76.2019 1093.26 75.0128 1094.52 75.8303V75.8551Z" fill="white"></path>
    <path d="M1091.35 49.9177C1091.35 49.9177 1098.29 45.3099 1103.07 47.2917C1107.85 49.2983 1110.63 53.6831 1110.95 55.0209C1111.27 56.3586 1112.96 57.2257 1106.86 56.9284C1106.37 56.9284 1104.43 56.6559 1104.51 57.4982C1104.56 58.1175 1106.24 58.7616 1106.69 58.9598C1109.64 60.3718 1112.76 61.0159 1115.46 62.973C1116.48 63.7162 1117.52 64.7814 1117.32 66.0201C1117.27 66.3917 1117.07 66.7633 1116.75 66.9862C1115.95 67.5312 1114.89 66.9119 1114.12 66.3173C1111.77 64.5089 1109.31 62.8739 1106.74 61.4371C1105.42 60.6939 1104.09 60.0002 1102.72 59.3561C1101.83 58.935 1100.17 57.7955 1099.16 57.9936C1097.92 58.2414 1100 61.1398 1097.5 61.0407C1096.31 60.9912 1095.22 60.6196 1094.7 59.4552C1094.27 58.5139 1094.65 57.3248 1093.61 56.8293C1092.89 56.5073 1091.9 56.7054 1091.13 56.7798C1089.57 56.9532 1088.13 57.5725 1086.89 56.3091C1086.72 56.1357 1086.57 55.9127 1086.64 55.6898C1086.72 55.5411 1086.89 55.442 1087.04 55.3925C1089.22 54.6493 1092 54.9961 1094.27 54.6741C1095.34 54.5254 1097.67 54.0547 1095.37 53.4602C1091.52 52.4693 1086.99 52.7666 1091.3 49.9177H1091.35Z" fill="#FFB300"></path>
    <path d="M1098.81 147.969C1098.81 147.969 1099.08 146.482 1100.02 145.591C1101.39 144.278 1103.79 143.46 1105.28 144.525C1107.78 146.334 1110.46 150.397 1109.49 154.435C1108.75 157.556 1105.48 163.204 1103 162.411C1100.52 161.619 1097.32 158.349 1098.39 156.515C1099.45 154.682 1098.81 147.969 1098.81 147.969Z" fill="white"></path>
    <path d="M1107.65 144.228C1107.65 144.228 1116.87 140.141 1117.37 132.759C1117.74 127.284 1116.1 120.768 1121.01 120.248C1125.92 119.728 1129.61 120.273 1131.29 126.07C1132.98 131.867 1130.45 139.398 1127.45 141.206C1127.45 141.206 1126.98 142.494 1130.77 144.08C1133.5 145.219 1122.64 156.615 1122.64 156.615L1114.02 170.612C1114.02 170.612 1102.75 165.905 1106.49 163.477C1109.96 161.223 1112.29 155.054 1112.26 152.602C1112.21 148.192 1109.17 145.839 1107.65 144.228Z" fill="white"></path>
    <path d="M1136.89 154.212C1136.89 154.212 1150.44 158.696 1147.22 165.335C1147.22 165.335 1142.54 171.231 1134.86 168.109C1134.86 168.109 1141.92 174.996 1139.32 179.331C1136.72 183.642 1127.23 183.716 1123.14 176.012C1119.08 168.307 1122.4 164.046 1128.29 165.161C1128.29 165.161 1126.19 161.222 1128.64 157.952C1131.12 154.682 1133.65 152.899 1136.89 154.212Z" fill="white"></path>
    <path d="M1133.1 182.7C1133.1 182.7 1132.9 182.7 1132.8 182.7C1128.59 182.577 1124.85 180.149 1122.77 176.235C1120.61 172.172 1120.32 168.753 1121.93 166.598C1123.07 165.062 1125.1 164.344 1127.58 164.641C1127.06 163.278 1126.34 160.33 1128.29 157.705C1130.3 155.054 1133.1 152.205 1137.04 153.84C1137.56 154.013 1145.81 156.837 1147.74 161.42C1148.31 162.808 1148.29 164.195 1147.6 165.582C1147.5 165.706 1143.26 170.933 1136.35 169.125C1138.3 171.379 1141.77 176.16 1139.69 179.604C1138.5 181.561 1136 182.75 1133.1 182.75V182.7ZM1126.51 165.434C1124.8 165.434 1123.41 166.003 1122.6 167.093C1121.23 168.951 1121.56 172.122 1123.51 175.814C1125.45 179.455 1128.91 181.709 1132.78 181.809C1135.48 181.858 1137.86 180.842 1138.9 179.108C1141.3 175.145 1134.59 168.506 1134.51 168.431L1132.9 166.871L1134.98 167.713C1142.27 170.661 1146.65 165.285 1146.83 165.062C1147.35 163.997 1147.37 162.857 1146.9 161.718C1145.12 157.457 1136.79 154.657 1136.72 154.633H1136.69C1134.02 153.518 1131.69 154.583 1128.96 158.2C1126.71 161.198 1128.64 164.913 1128.64 164.938L1129.09 165.756L1128.17 165.582C1127.58 165.458 1127.03 165.409 1126.49 165.409L1126.51 165.434Z" fill="#231F20"></path>
    <path d="M937.537 3.98894C958.201 -5.87068 986.273 2.77507 989.123 27.7214C977.973 6.51578 959.836 2.84939 937.537 3.98894Z" fill="#E5E5E5"></path>
    <path d="M1134.61 67.8039C1147.27 59.6536 1160.53 68.547 1160.16 83.0887C1159.14 81.1317 1158.42 79.026 1157.31 77.168C1152.75 67.8534 1144.35 65.9954 1134.64 67.8039H1134.61Z" fill="#E5E5E5"></path>
    <path d="M1143.98 60.3971C1151.44 55.9876 1162.14 59.0099 1164.32 67.9033C1164.62 69.0429 1164.77 70.2072 1164.87 71.322C1164.25 70.3311 1163.82 69.2906 1163.26 68.3492C1159.41 61.0165 1151.68 59.4062 1143.98 60.3971Z" fill="#E5E5E5"></path>
    <path d="M1113.3 14.3442C1112.93 16.9206 1108.52 20.1906 1105.97 19.819C1103.39 19.4475 1101.61 17.0445 1101.98 14.4681C1102.35 11.8917 1106.49 10.3558 1109.07 10.7522C1111.64 11.1238 1113.68 11.7679 1113.3 14.3442Z" fill="#F8D93B"></path>
    <path d="M1086.92 59.5295C1087.14 59.3561 1087.46 59.3561 1087.78 59.3313C1089.2 59.1579 1090.63 59.1332 1092.05 59.2075C1098.12 59.5295 1103.89 61.8829 1109.04 64.9548C1113.21 67.4321 1115.26 70.8507 1113.01 75.6319C1111.55 78.7285 1109.96 82.1224 1107.63 84.674C1105.4 87.1265 1105.7 83.8813 1106.07 82.1967C1107.71 74.6162 1104.11 69.5873 1100.17 67.5312C1098.34 66.5898 1096.18 66.2678 1094.13 66.1439C1092.84 66.0448 1091.48 66.0448 1090.16 66.1439C1088.97 66.2182 1087.69 66.8623 1087.09 65.5493C1086.89 65.1034 1086.77 64.6575 1086.64 64.1868C1086.47 63.4684 1086.35 62.7005 1086.35 61.9573C1086.35 61.3132 1086.35 60.1984 1086.77 59.6534C1086.79 59.6038 1086.84 59.5543 1086.89 59.5295H1086.92Z" fill="#F2F1F3"></path>
    <path d="M1058.69 37.3582C1057.8 32.8495 1055.55 19.7199 1045.19 16.6976C1032.73 13.056 1026.66 27.8454 1027.8 32.7752C1027.8 32.7752 1034.71 35.6984 1033.2 41.1732C1031.71 46.6728 1021.16 52.3954 1019.32 42.4367C1019.32 42.4367 1019.08 37.6307 1024.45 34.0139C1024.45 34.0139 1027.2 11.6439 1043.46 14.7901C1057.63 17.5399 1060.4 32.7009 1060.88 36.5655C1060.95 37.1105 1060.75 37.6555 1060.35 38.0518C1060.35 38.0518 1058.92 38.6712 1058.65 37.3582H1058.69Z" fill="#231F20"></path>
    <path d="M1024.55 49.6454C1024.55 49.6454 1024.35 49.6454 1024.26 49.6454C1022.62 49.5711 1018.73 48.7784 1017.61 42.7586V42.5356C1017.57 42.3127 1017.37 37.0856 1022.84 33.0228C1023.31 30.1492 1025.39 20.2895 1032.06 15.4341C1035.4 13.0063 1039.37 12.2136 1043.8 13.0806C1058.94 16.0286 1062.04 31.6355 1062.63 36.3672C1062.78 37.4572 1062.41 38.5472 1061.62 39.3151L1061.37 39.5629L1061.05 39.6867C1060.8 39.7858 1059.51 40.2813 1058.3 39.662C1057.58 39.2904 1057.08 38.5967 1056.91 37.7297L1056.81 37.259C1055.87 32.4035 1053.64 21.0327 1044.65 18.4068C1040.71 17.2672 1037.24 18.0848 1034.31 20.8593C1030.97 24.0303 1029.31 29.0096 1029.38 31.6108C1032.28 33.1715 1036.22 36.6892 1034.86 41.6686C1033.72 45.8552 1028.74 49.6702 1024.48 49.6702L1024.55 49.6454ZM1021.13 42.2631C1021.63 44.7404 1022.72 46.0286 1024.4 46.1029C1024.45 46.1029 1024.5 46.1029 1024.55 46.1029C1027.2 46.1029 1030.8 43.3283 1031.51 40.7024C1032.6 36.7388 1027.18 34.4101 1027.13 34.3853L1026.29 33.9394C1026.26 34.1128 1026.24 34.2119 1026.24 34.2119L1026.14 35.0047L1025.47 35.4506C1021.41 38.2004 1021.13 41.5942 1021.11 42.2383L1021.13 42.2631Z" fill="#231F20"></path>
    <path d="M1058.67 37.1598C1057.88 31.9079 1054.98 19.5462 1045.22 16.6974C1032.75 13.0557 1026.68 27.8452 1027.82 32.775C1027.82 32.775 1034.74 35.6982 1033.23 41.173C1031.74 46.6726 1021.18 52.3951 1019.35 42.4364C1019.35 42.4364 1019.1 37.6305 1024.48 34.0136C1024.48 34.0136 1027.23 11.6437 1043.48 14.7898C1057.66 17.5396 1060.43 32.7007 1060.9 36.5652C1060.98 37.1102 1060.78 37.6552 1060.38 38.0516C1060.38 38.0516 1058.87 38.6214 1058.65 37.1598H1058.67Z" fill="#E2E1E1"></path>
    <path d="M1030.61 41.8648C1031.66 39.0431 1030.63 36.0569 1028.31 35.1949C1025.98 34.3329 1023.25 35.9215 1022.2 38.7433C1021.16 41.565 1022.19 44.5513 1024.51 45.4133C1026.83 46.2753 1029.56 44.6866 1030.61 41.8648Z" fill="#F8D93B"></path>
    <path d="M1155.45 129.538C1153.72 130.083 1154.66 131.322 1154.66 131.322C1154.66 131.322 1156.32 133.353 1158.82 135.731C1161.32 138.109 1161.94 137.639 1162.04 137.292C1162.14 136.97 1162.24 136.004 1162.24 136.004L1155.47 129.538H1155.45ZM1164.17 132.957L1158.13 126.887C1158.13 126.887 1157.18 126.689 1156.69 127.482C1156.22 128.275 1156.91 128.894 1156.86 129.117C1156.81 129.34 1161.94 134.195 1162.14 134.394C1162.34 134.592 1163.63 135.31 1164.39 134.716C1165.16 134.121 1164.12 132.957 1164.12 132.957H1164.17ZM1147.62 135.781C1144.42 133.403 1140.98 130.058 1138.77 132.313L1110.97 172.147C1110.97 172.147 1109.04 177.449 1112.11 179.257C1115.21 181.066 1119.65 176.953 1120.14 176.433C1120.64 175.888 1140.16 149.505 1140.16 149.505C1140.16 149.505 1150.82 138.159 1147.62 135.781ZM1152.01 139.125C1149.78 137.019 1149.43 139.447 1149.43 139.447C1149.43 139.447 1142.47 149.183 1142.32 149.307C1140.58 150.892 1143.21 151.462 1144.03 151.413C1144.85 151.363 1152.7 147.721 1154.66 144.996C1156.61 142.271 1154.24 141.256 1151.98 139.125H1152.01ZM1172.52 114.773L1158.3 103.105L1139.77 126.045L1155.9 139.224C1155.9 139.224 1158.77 138.481 1158.1 136.772C1157.43 135.062 1151.61 132.932 1151.66 131.099C1151.71 129.266 1159.41 119.901 1159.41 119.901C1159.41 119.901 1160.43 117.746 1163.03 120.422C1165.63 123.097 1167.52 125.327 1167.57 125.005C1167.62 124.683 1169.25 119.084 1173.78 119.604C1178.32 120.124 1182.01 122.626 1182.01 122.626L1184.31 120.298L1174.97 112.346L1172.55 114.749L1172.52 114.773ZM1197.35 105.905C1197.15 99.5628 1190.81 84.4266 1182.51 85.1202C1174.21 85.8139 1162.04 101.867 1162.04 101.867L1172.6 109.992C1172.6 109.992 1180.15 96.7635 1186.22 101.644C1192.29 106.549 1197.52 112.247 1197.32 105.88L1197.35 105.905ZM1161.02 125.153C1161.02 125.153 1159.41 123.939 1158.87 124.831C1158.32 125.723 1158.7 126.07 1158.7 126.07L1164.69 132.015C1164.69 132.015 1165.58 132.659 1166.13 131.693C1166.67 130.727 1161.02 125.128 1161.02 125.128V125.153ZM1167.74 127.408C1165.66 125.55 1162.26 122.676 1162.26 122.676C1162.26 122.676 1159.96 121.908 1160.93 123.469C1160.93 123.469 1164.52 126.986 1166.25 128.844C1168.01 130.702 1169.82 129.241 1167.74 127.383V127.408Z" fill="#242022"></path>
    <path d="M1113.85 182.379C1112.83 182.379 1111.77 182.131 1110.75 181.536C1106.81 179.232 1107.46 173.956 1108.45 171.231C1108.52 171.008 1108.62 170.81 1108.77 170.636L1136.59 130.801C1136.59 130.801 1136.77 130.578 1136.87 130.479C1137.61 129.687 1138.43 129.241 1139.22 129.042L1138.08 128.126C1136.94 127.209 1136.79 125.55 1137.71 124.41L1156.24 101.47C1156.69 100.925 1157.33 100.578 1158.03 100.504C1158.6 100.455 1159.14 100.578 1159.61 100.851C1159.69 100.653 1159.81 100.479 1159.93 100.306C1161.25 98.5718 1173.07 83.2869 1182.28 82.519C1185.16 82.2712 1187.96 83.3365 1190.58 85.6899C1196.41 90.8674 1199.83 100.9 1199.97 105.855C1200 106.846 1200.1 109.868 1197.67 111.033C1194.82 112.42 1191.92 109.943 1187.51 106.202C1186.57 105.409 1185.58 104.567 1184.59 103.749C1184.04 103.303 1183.55 103.18 1182.93 103.279C1180.55 103.725 1177.58 107.292 1175.84 109.868C1176.14 109.967 1176.44 110.141 1176.68 110.364L1186.02 118.316C1186.59 118.787 1186.92 119.48 1186.97 120.223C1186.99 120.967 1186.72 121.685 1186.2 122.205L1183.89 124.534C1183 125.45 1181.59 125.574 1180.52 124.856C1180.5 124.856 1177.3 122.701 1173.49 122.279C1171.28 122.057 1170.24 125.327 1170.17 125.599C1170.14 125.748 1170.09 125.872 1170.04 126.02C1171.53 127.655 1171.38 129.216 1171.23 129.835C1170.94 131.049 1170.02 131.99 1168.8 132.313C1168.8 132.313 1168.8 132.313 1168.78 132.313C1168.71 132.585 1168.58 132.833 1168.43 133.08C1168.16 133.576 1167.79 133.997 1167.37 134.294C1167.37 134.369 1167.37 134.468 1167.37 134.542C1167.27 135.483 1166.8 136.301 1166.03 136.871C1165.61 137.193 1165.16 137.391 1164.72 137.49C1164.67 137.738 1164.62 137.961 1164.57 138.134C1164.25 139.15 1163.43 139.893 1162.41 140.141C1161.57 140.364 1160.73 140.215 1159.93 139.843C1159.27 140.636 1158.4 141.132 1157.68 141.429C1158.27 142.791 1158.3 144.501 1156.84 146.532C1154.53 149.753 1146.01 153.939 1144.23 154.038C1143.53 154.088 1141.97 153.939 1140.76 153.147C1128.76 169.373 1122.5 177.796 1122.1 178.192C1122.05 178.242 1118.14 182.354 1113.87 182.354L1113.85 182.379ZM1113.35 173.361C1112.96 174.699 1112.78 176.606 1113.45 177.003C1114.39 177.548 1117.12 175.789 1118.21 174.649C1118.85 173.857 1130.42 158.225 1138.06 147.944C1138.13 147.87 1138.18 147.771 1138.25 147.696C1141.82 143.906 1145.07 139.323 1145.54 137.515C1145.24 137.292 1144.92 137.044 1144.62 136.796C1143.53 135.954 1141.57 134.418 1140.71 134.245L1113.38 173.361H1113.35ZM1150.99 141.801C1149.33 144.129 1148.09 145.863 1147.15 147.176C1149.33 146.012 1151.76 144.501 1152.5 143.485C1152.55 143.411 1152.6 143.336 1152.62 143.287C1152.38 143.014 1151.88 142.593 1151.49 142.271C1151.31 142.123 1151.14 141.974 1150.96 141.825L1150.99 141.801ZM1143.48 125.673L1149.13 130.281C1149.48 129.018 1150.92 126.07 1157.23 118.39C1157.75 117.573 1158.7 116.706 1160.03 116.483C1161.67 116.21 1163.33 116.904 1164.94 118.564C1165.61 119.257 1166.23 119.901 1166.77 120.496C1167.81 119.034 1169.35 117.647 1171.36 117.127C1171.18 117.028 1171.01 116.929 1170.84 116.805L1158.67 106.846L1143.46 125.673H1143.48ZM1174.01 116.978C1174.01 116.978 1174.06 116.978 1174.08 116.978C1175.1 117.102 1176.04 117.3 1176.96 117.548L1175.1 115.962L1174.4 116.656C1174.4 116.656 1174.16 116.879 1174.03 116.978H1174.01ZM1165.81 101.421L1171.98 106.152C1174.03 103.254 1177.75 98.8443 1181.96 98.0516C1184.12 97.6552 1186.17 98.1754 1187.93 99.5875C1188.97 100.43 1189.99 101.297 1190.95 102.114C1192.12 103.105 1193.53 104.294 1194.65 105.137C1194.18 100.95 1191.18 93.2704 1187.06 89.604C1185.55 88.2663 1184.09 87.6469 1182.73 87.746C1178.12 88.1424 1170.54 95.6238 1165.78 101.396L1165.81 101.421Z" fill="#242022"></path>
    <path d="M1138.78 132.338L1110.98 172.172C1110.98 172.172 1109.04 177.474 1112.12 179.282C1115.21 181.091 1119.65 176.978 1120.14 176.458C1120.64 175.913 1140.16 149.53 1140.16 149.53C1140.16 149.53 1150.82 138.184 1147.62 135.806C1144.42 133.428 1140.98 130.083 1138.78 132.338Z" fill="#A3A4AA"></path>
    <path d="M1139.49 136.846C1139.49 136.846 1119 163.799 1115.16 171.206C1115.16 171.206 1138.5 142.123 1139.49 136.846Z" fill="#231F20"></path>
    <path d="M1143.33 138.977C1143.33 138.977 1119.52 168.803 1118.33 173.758C1118.33 173.758 1142.47 143.089 1143.33 138.977Z" fill="#231F20"></path>
    <path d="M1155.92 139.249C1155.92 139.249 1158.8 138.506 1158.13 136.796C1157.46 135.087 1151.64 132.957 1151.68 131.123C1151.73 129.29 1159.44 119.926 1159.44 119.926C1159.44 119.926 1160.46 117.771 1163.06 120.446C1165.66 123.122 1167.54 125.351 1167.59 125.029C1167.64 124.707 1169.28 119.109 1173.81 119.629C1178.34 120.149 1182.04 122.651 1182.04 122.651L1184.34 120.322L1175 112.37L1172.57 114.773L1158.35 103.105L1139.82 126.045L1155.95 139.224L1155.92 139.249Z" fill="#A6A5AA"></path>
    <path d="M1160.93 123.493C1160.93 123.493 1164.52 127.011 1166.25 128.869C1167.99 130.727 1169.82 129.266 1167.74 127.408C1165.66 125.55 1162.26 122.676 1162.26 122.676C1162.26 122.676 1159.96 121.908 1160.93 123.469V123.493Z" fill="#A6A5AA"></path>
    <path d="M1158.7 126.095L1164.69 132.04C1164.69 132.04 1165.58 132.684 1166.13 131.718C1166.67 130.752 1161.03 125.153 1161.03 125.153C1161.03 125.153 1159.41 123.94 1158.87 124.831C1158.32 125.723 1158.7 126.07 1158.7 126.07V126.095Z" fill="#A6A5AA"></path>
    <path d="M1158.13 126.863L1164.17 132.932C1164.17 132.932 1165.21 134.121 1164.45 134.691C1163.68 135.261 1162.39 134.567 1162.19 134.369C1161.99 134.171 1156.86 129.315 1156.91 129.092C1156.96 128.869 1156.24 128.25 1156.74 127.457C1157.24 126.664 1158.18 126.863 1158.18 126.863H1158.13Z" fill="#A6A5AA"></path>
    <path d="M1155.45 129.538L1162.21 136.004C1162.21 136.004 1162.14 136.97 1162.02 137.292C1161.89 137.614 1161.27 138.109 1158.8 135.731C1156.29 133.353 1154.63 131.321 1154.63 131.321C1154.63 131.321 1153.69 130.083 1155.43 129.538H1155.45Z" fill="#A6A5AA"></path>
    <path d="M1142.32 149.332C1142.44 149.208 1149.43 139.472 1149.43 139.472C1149.43 139.472 1149.78 137.044 1152.01 139.15C1154.24 141.256 1156.61 142.296 1154.68 145.021C1152.75 147.746 1144.85 151.388 1144.05 151.437C1143.26 151.487 1140.61 150.942 1142.34 149.332H1142.32Z" fill="#BCB8BD"></path>
    <path d="M1145.51 124.162C1145.47 124.46 1155.67 114.179 1157.53 108.555C1157.53 108.555 1145.96 121.165 1145.51 124.162Z" fill="#231F20"></path>
    <path d="M1162.07 101.892L1172.62 110.017C1172.62 110.017 1180.18 96.7885 1186.25 101.669C1192.32 106.574 1197.55 112.272 1197.35 105.905C1197.15 99.5631 1190.81 84.4268 1182.51 85.1205C1174.21 85.8141 1162.04 101.867 1162.04 101.867L1162.07 101.892Z" fill="#A6A5AA"></path>
    <path d="M1168.95 100.058C1168.95 100.058 1173.24 89.6042 1179.16 91.7346L1180.3 92.3044L1179.43 93.1467C1179.43 93.1467 1175.37 92.5026 1168.95 100.034V100.058Z" fill="#231F20"></path>
    <path d="M1180.2 97.7792C1180.35 97.581 1183.6 95.0541 1183.6 95.0541C1183.6 95.0541 1185.78 91.908 1189.2 95.8716C1192.62 99.8353 1192.72 102.61 1192.72 102.61C1192.72 102.61 1187.83 97.6553 1185.58 97.6801C1183.33 97.7048 1180.2 97.7792 1180.2 97.7792Z" fill="#231F20"></path>
    <path d="M1038.8 205.641C1038.8 205.641 1048.79 219.439 1042.99 234.6L1048.56 235.418C1048.56 235.418 1056.67 223.774 1047.4 201.578L1038.8 205.641Z" fill="#231F20"></path>
    <path d="M995.415 177.499C995.415 177.499 974.998 182.775 963.576 204.229C952.154 225.707 965.484 221.768 965.484 221.768C965.484 221.768 965.98 199.323 998.14 185.773C1003.47 183.518 1001.09 176.458 995.415 177.474V177.499Z" fill="#231F20"></path>
    <path d="M960.902 209.852C952.156 208.564 921.928 230.612 923.835 253.675C925.545 274.361 955.129 265.021 957.458 257.193C959.787 249.365 970.491 223.18 970.491 223.18C970.491 223.18 969.648 211.14 960.902 209.852Z" fill="#231F20"></path>
    <path d="M1049.53 226.747C1040.71 225.459 1037.44 231.404 1037.44 231.404C1037.44 231.404 1033.84 271.784 1048.14 278.77C1062.41 285.756 1075.99 273.865 1073.51 258.754C1071.68 247.655 1058.35 228.035 1049.53 226.747Z" fill="#231F20"></path>
    <path d="M947.175 219.29C947.175 219.29 923.761 235.244 927.601 256.549C927.601 256.549 932.829 233.956 947.175 219.29Z" fill="#999C9A"></path>
    <path d="M1040.16 240.174C1040.16 240.174 1038.45 269.059 1053.24 277.21C1045.93 267.3 1040.16 240.174 1040.16 240.174Z" fill="#999C9A"></path>
    <path d="M1028.99 35.5496C1029.83 36.8873 1030.03 38.77 1029.36 40.5785C1028.32 43.4026 1025.57 44.988 1023.27 44.121C1023.02 44.0219 1022.79 43.898 1022.57 43.7742C1023.04 44.5174 1023.69 45.1119 1024.5 45.4092C1026.83 46.2762 1029.56 44.6908 1030.6 41.8667C1031.54 39.3398 1030.8 36.6891 1028.99 35.5496Z" fill="#FFB300"></path>
    <path d="M1112.86 12.2634C1112.39 14.815 1108.08 18.0107 1105.55 17.6392C1103.91 17.3914 1102.6 16.351 1101.96 14.9637C1101.86 17.3419 1103.54 19.4723 1105.97 19.8439C1108.55 20.2155 1112.93 16.9455 1113.3 14.3691C1113.43 13.4525 1113.25 12.7837 1112.86 12.2882V12.2634Z" fill="#FFB300"></path>
    <path d="M980.028 187.16C980.028 187.16 970.291 194.121 964.766 204.897C964.766 204.897 978.517 190.083 980.028 187.16Z" fill="#999C9A"></path>
  </g>
  <defs>
    <clipPath id="clip0_301_341">
      <rect width="1200" height="411.429" fill="white"></rect>
    </clipPath>
  </defs>
</svg>
