<?xml version="1.0" encoding="UTF-8"?>
<svg xmlns="http://www.w3.org/2000/svg" width="1200" height="339" viewBox="0 0 1200 339" fill="none">
  <path fill-rule="evenodd" clip-rule="evenodd" d="M408.001 242.061C406.63 241.454 404.854 240.96 402.651 240.533C400.449 240.106 397.841 239.903 394.829 239.881C391.165 239.881 387.838 240.263 384.804 241.027C381.792 241.792 379.139 242.848 376.846 244.219C374.554 245.568 372.688 247.164 371.249 248.962C369.788 250.76 368.799 252.716 368.26 254.829C367.518 257.774 368.102 260.448 370.035 262.854C371.969 265.259 375.183 267.349 379.724 269.148C381.702 269.889 383.298 270.631 384.511 271.305C385.725 272.002 386.557 272.722 387.029 273.486C387.501 274.25 387.591 275.127 387.344 276.116C386.962 277.599 385.928 278.813 384.197 279.712C382.488 280.611 380.106 281.084 377.094 281.106C375.385 281.106 373.744 280.971 372.126 280.746C370.508 280.499 369.001 280.184 367.63 279.802C366.259 279.42 365.045 278.993 364.034 278.543L359.178 287.984C360.055 288.411 361.269 288.839 362.797 289.221C364.326 289.603 366.057 289.917 367.99 290.165C369.923 290.412 371.969 290.524 374.104 290.547C379.207 290.524 383.725 289.85 387.613 288.546C391.502 287.243 394.694 285.444 397.144 283.129C399.594 280.836 401.213 278.161 402 275.149C402.539 273.104 402.539 271.193 402 269.44C401.46 267.686 400.336 266.068 398.628 264.607C396.897 263.146 394.514 261.82 391.48 260.651C389.164 259.752 387.344 258.965 385.995 258.268C384.669 257.571 383.747 256.897 383.275 256.2C382.781 255.503 382.668 254.717 382.916 253.817C383.118 252.986 383.612 252.244 384.399 251.57C385.186 250.873 386.242 250.333 387.546 249.906C388.872 249.502 390.468 249.299 392.311 249.277C393.997 249.277 395.503 249.389 396.852 249.614C398.178 249.839 399.347 250.086 400.359 250.401C401.37 250.715 402.202 251.03 402.899 251.345L407.956 242.084L408.001 242.061Z" fill="#10384D"></path>
  <path fill-rule="evenodd" clip-rule="evenodd" d="M477.549 249.075C479.392 249.075 480.876 249.524 482.045 250.356C483.213 251.165 484.068 252.311 484.63 253.772C485.169 255.234 485.439 256.919 485.416 258.808C485.394 260.718 485.102 262.741 484.54 264.922C483.708 268.159 482.584 271.013 481.123 273.463C479.662 275.914 477.954 277.847 475.953 279.24C473.975 280.634 471.75 281.331 469.322 281.353C466.894 281.331 465.029 280.634 463.68 279.24C462.331 277.869 461.544 275.959 461.297 273.531C461.05 271.103 461.342 268.293 462.151 265.124C462.691 262.989 463.433 260.943 464.377 259.032C465.321 257.122 466.445 255.413 467.748 253.93C469.052 252.424 470.513 251.255 472.154 250.401C473.795 249.547 475.571 249.097 477.482 249.075H477.549ZM480.314 239.813C476.065 239.836 472.109 240.51 468.445 241.837C464.804 243.163 461.522 244.983 458.645 247.321C455.768 249.659 453.34 252.379 451.362 255.436C449.384 258.515 447.945 261.797 447.068 265.281C446.192 268.698 445.922 271.935 446.214 274.947C446.506 277.982 447.428 280.679 448.979 283.017C450.53 285.354 452.755 287.198 455.655 288.546C458.555 289.873 462.174 290.569 466.512 290.592C470.513 290.592 474.267 290.052 477.819 288.951C481.348 287.85 484.562 286.209 487.462 284.006C490.362 281.825 492.857 279.105 494.947 275.846C497.038 272.587 498.634 268.833 499.735 264.517C500.364 262.112 500.657 259.707 500.657 257.347C500.657 254.986 500.252 252.738 499.51 250.626C498.768 248.535 497.577 246.669 495.959 245.051C494.34 243.432 492.25 242.151 489.665 241.23C487.08 240.308 483.955 239.813 480.291 239.813H480.314Z" fill="#10384D"></path>
  <path fill-rule="evenodd" clip-rule="evenodd" d="M576.678 280.409H555.773L565.911 240.51H551.548L539.005 289.917H574.273L576.678 280.409Z" fill="#10384D"></path>
  <path fill-rule="evenodd" clip-rule="evenodd" d="M677.448 240.6H663.085L655.509 270.429C654.835 273.036 653.959 275.149 652.88 276.745C651.778 278.341 650.497 279.533 649.036 280.275C647.575 280.994 645.911 281.353 644.091 281.353C641.416 281.353 639.527 280.499 638.471 278.724C637.414 276.97 637.347 274.205 638.269 270.407L645.844 240.578H631.48L624.242 269.058C622.421 276.183 622.916 281.556 625.748 285.175C628.581 288.771 633.84 290.592 641.483 290.592C649.058 290.592 655.285 288.771 660.162 285.197C665.04 281.601 668.367 276.273 670.188 269.193L677.448 240.578V240.6Z" fill="#10384D"></path>
  <path fill-rule="evenodd" clip-rule="evenodd" d="M764.529 240.51H721.438L718.921 250.356H733.217L723.169 289.917H737.533L747.58 250.356H762.034L764.529 240.51Z" fill="#10384D"></path>
  <path fill-rule="evenodd" clip-rule="evenodd" d="M796.223 289.917H810.587L823.13 240.51H808.766L796.223 289.917Z" fill="#10384D"></path>
  <path fill-rule="evenodd" clip-rule="evenodd" d="M892.992 249.075C894.835 249.075 896.341 249.524 897.488 250.356C898.657 251.165 899.511 252.311 900.073 253.772C900.612 255.234 900.882 256.919 900.859 258.808C900.837 260.718 900.545 262.741 900.005 264.922C899.174 268.159 898.027 271.013 896.589 273.463C895.128 275.914 893.419 277.847 891.441 279.24C889.463 280.634 887.26 281.331 884.833 281.353C882.405 281.331 880.539 280.634 879.19 279.24C877.864 277.869 877.055 275.959 876.808 273.531C876.561 271.103 876.853 268.293 877.684 265.124C878.224 262.989 878.966 260.943 879.91 259.032C880.854 257.122 881.978 255.413 883.282 253.93C884.585 252.424 886.046 251.255 887.687 250.401C889.328 249.547 891.104 249.097 893.015 249.075H892.992ZM895.757 239.813C891.509 239.836 887.552 240.51 883.888 241.837C880.224 243.163 876.965 244.983 874.088 247.321C871.188 249.659 868.761 252.379 866.805 255.436C864.827 258.515 863.411 261.797 862.512 265.281C861.635 268.698 861.365 271.935 861.657 274.947C861.95 277.982 862.871 280.679 864.422 283.017C865.973 285.354 868.199 287.198 871.098 288.546C873.998 289.873 877.617 290.569 881.955 290.592C885.956 290.592 889.71 290.052 893.239 288.951C896.768 287.85 899.983 286.209 902.883 284.006C905.782 281.825 908.277 279.105 910.368 275.846C912.458 272.587 914.054 268.833 915.156 264.517C915.785 262.112 916.077 259.707 916.077 257.347C916.077 254.986 915.695 252.738 914.931 250.626C914.167 248.535 912.998 246.669 911.379 245.051C909.761 243.432 907.67 242.151 905.085 241.23C902.523 240.308 899.376 239.813 895.712 239.813H895.757Z" fill="#10384D"></path>
  <path fill-rule="evenodd" clip-rule="evenodd" d="M1013.59 240.51H1000.71L997.719 252.266C997.022 255.009 996.392 257.661 995.853 260.246C995.291 262.831 994.819 265.281 994.414 267.597C994.01 269.912 993.695 272.025 993.448 273.958H993.268C992.908 272.272 992.459 270.496 991.964 268.653C991.47 266.81 990.93 264.967 990.346 263.168C989.784 261.37 989.177 259.729 988.592 258.246L982.299 240.533H966.946L954.403 289.94H967.306L970.385 277.802C971.509 273.373 972.453 269.327 973.262 265.596C974.072 261.887 974.723 258.583 975.263 255.706H975.578C975.915 257.414 976.342 259.235 976.836 261.145C977.353 263.056 977.893 264.944 978.477 266.81C979.084 268.676 979.646 270.406 980.253 272.002L986.727 289.962H1001L1013.54 240.555L1013.59 240.51Z" fill="#10384D"></path>
  <path fill-rule="evenodd" clip-rule="evenodd" d="M1096.33 242.061C1094.96 241.454 1093.18 240.96 1091 240.533C1088.8 240.106 1086.19 239.903 1083.18 239.881C1079.52 239.881 1076.17 240.263 1073.16 241.027C1070.14 241.792 1067.49 242.848 1065.22 244.219C1062.93 245.568 1061.06 247.164 1059.62 248.962C1058.16 250.76 1057.17 252.716 1056.61 254.829C1055.87 257.774 1056.48 260.448 1058.39 262.854C1060.32 265.259 1063.53 267.349 1068.08 269.148C1070.05 269.889 1071.65 270.631 1072.86 271.305C1074.08 272.002 1074.91 272.722 1075.38 273.486C1075.83 274.25 1075.94 275.127 1075.7 276.116C1075.31 277.599 1074.28 278.813 1072.55 279.712C1070.84 280.611 1068.46 281.084 1065.42 281.106C1063.74 281.106 1062.07 280.971 1060.46 280.746C1058.84 280.499 1057.33 280.184 1055.96 279.802C1054.57 279.42 1053.37 278.993 1052.36 278.543L1047.51 287.984C1048.38 288.411 1049.6 288.839 1051.13 289.221C1052.66 289.603 1054.39 289.917 1056.32 290.165C1058.25 290.412 1060.3 290.524 1062.43 290.547C1067.54 290.524 1072.05 289.85 1075.94 288.546C1079.83 287.243 1083.02 285.444 1085.47 283.129C1087.95 280.836 1089.54 278.161 1090.33 275.149C1090.87 273.104 1090.87 271.193 1090.33 269.44C1089.81 267.686 1088.67 266.068 1086.96 264.607C1085.23 263.146 1082.84 261.82 1079.81 260.651C1077.49 259.752 1075.67 258.965 1074.32 258.268C1072.98 257.571 1072.08 256.897 1071.6 256.2C1071.13 255.503 1071.02 254.717 1071.24 253.817C1071.45 252.986 1071.94 252.244 1072.73 251.57C1073.52 250.873 1074.55 250.333 1075.88 249.906C1077.2 249.502 1078.8 249.299 1080.66 249.277C1082.35 249.277 1083.86 249.389 1085.18 249.614C1086.51 249.839 1087.7 250.086 1088.71 250.401C1089.72 250.715 1090.55 251.03 1091.25 251.345L1096.29 242.084L1096.33 242.061Z" fill="#10384D"></path>
  <path d="M447.338 184.068C446.259 188.99 443.539 193.059 439.179 196.251C434.818 199.465 430.12 201.061 425.04 201.061C420.274 201.061 416.745 199.802 414.453 197.262C412.16 194.745 411.261 191.306 411.778 186.99C411.823 186.54 411.912 186.091 412.047 185.641C412.182 185.191 412.272 184.674 412.362 184.068L434.908 79.2963C435.694 75.4301 437.358 72.2606 439.875 69.8105C442.393 67.3604 445.068 66.1241 447.945 66.1241H484.809L488.069 51.1985H446.911C441.516 51.1985 436.346 51.9852 431.401 53.5362C426.456 55.0872 421.983 57.2451 418.004 60.01C414.025 62.7523 410.676 66.1016 407.979 70.0577C405.281 74.0139 403.393 78.3522 402.337 83.1176L380.735 184.045C380.69 184.495 380.578 184.944 380.443 185.371C380.308 185.821 380.218 186.27 380.173 186.697C379.139 195.194 381.747 202.14 387.973 207.58C394.222 213.02 404.54 215.717 418.971 215.717C423.579 215.717 428.322 214.863 433.199 213.154C438.1 211.446 442.618 209.131 446.776 206.231C450.935 203.331 454.509 199.982 457.521 196.183C460.51 192.384 462.444 188.338 463.298 184L447.361 184.045V184L447.338 184.068Z" fill="#10384D"></path>
  <path d="M592.143 84.1516C592.278 83.6346 592.39 83.0726 592.458 82.4657C592.997 77.9926 592.525 73.8341 591.019 69.9678C589.513 66.1016 587.153 62.7973 583.916 60.0324C580.679 57.2676 576.746 55.1097 572.093 53.5587C567.44 51.9852 562.18 51.2209 556.313 51.2209H546.085C539.904 51.2209 533.969 52.0751 528.282 53.7835C522.595 55.4918 517.538 57.9195 513.132 61.0439C508.704 64.1684 504.972 67.8549 501.915 72.1033C498.858 76.3517 496.79 80.9372 495.711 85.8375L475.256 181.19C475.009 181.932 474.807 183.056 474.604 184.54C474.042 189.148 474.514 193.373 476.043 197.15C477.549 200.949 479.887 204.231 483.056 206.973C486.203 209.715 490.159 211.896 494.88 213.447C499.6 214.998 504.838 215.784 510.547 215.784H521.022C527.203 215.784 533.115 214.93 538.712 213.222C544.309 211.513 549.322 209.131 553.728 206.074C558.134 203.017 561.887 199.375 564.945 195.127C568.002 190.878 570.07 186.225 571.171 181.168L591.851 85.815C591.918 85.2081 592.031 84.6686 592.166 84.1291L592.143 84.1516ZM561.056 80.4427L560.921 81.5666L538.69 185.663C537.836 189.979 535.498 193.643 531.632 196.61C527.788 199.6 523.562 201.084 518.976 201.084C514.391 201.084 511.064 199.735 508.524 197.06C506.006 194.385 504.972 191.103 505.445 187.237C505.489 186.945 505.557 186.675 505.669 186.45C505.782 186.225 505.849 185.978 505.894 185.663L528.35 81.5666C529.182 77.4081 531.564 73.7891 535.498 70.7321C539.432 67.675 543.635 66.1465 548.063 66.1465C552.177 66.1465 555.504 67.5626 557.999 70.3949C560.516 73.2272 561.528 76.5764 561.056 80.4427Z" fill="#10384D"></path>
  <path d="M964.495 84.1516C964.63 83.6346 964.743 83.0726 964.81 82.4657C965.35 77.9926 964.878 73.8341 963.372 69.9678C961.865 66.1016 959.483 62.7973 956.268 60.0324C953.032 57.2676 949.098 55.1097 944.445 53.5587C939.792 51.9852 934.532 51.2209 928.665 51.2209H918.415C912.233 51.2209 906.299 52.0751 900.612 53.7835C894.925 55.4918 889.89 57.9195 885.462 61.0439C881.034 64.1684 877.28 67.8549 874.245 72.1033C871.188 76.3517 869.12 80.9372 868.041 85.8375L847.586 181.19C847.339 181.932 847.136 183.056 846.957 184.54C846.395 189.148 846.867 193.373 848.395 197.15C849.924 200.949 852.239 204.231 855.408 206.973C858.555 209.715 862.512 211.896 867.232 213.447C871.952 214.998 877.19 215.784 882.899 215.784H893.374C899.556 215.784 905.445 214.93 911.042 213.222C911.739 212.997 912.436 212.795 913.11 212.547C917.876 210.907 922.191 208.749 926.058 206.074C930.486 203.017 934.195 199.375 937.274 195.127C940.331 190.878 942.399 186.225 943.501 181.168L964.181 85.815C964.248 85.2081 964.361 84.6686 964.495 84.1291V84.1516ZM891.329 201.061C886.9 201.061 883.416 199.712 880.899 197.037C878.381 194.363 877.347 191.081 877.819 187.214C877.864 186.922 877.932 186.653 878.044 186.428C878.156 186.203 878.201 185.956 878.246 185.641L900.702 81.5441C901.534 77.3856 903.917 73.7666 907.85 70.7096C911.784 67.6526 915.987 66.124 920.416 66.124C924.529 66.124 927.856 67.5402 930.351 70.3724C932.869 73.2047 933.88 76.5539 933.408 80.4202L933.273 81.5441L911.042 185.641C910.21 189.957 907.85 193.621 904.006 196.588C900.14 199.577 895.937 201.061 891.329 201.061Z" fill="#10384D"></path>
  <path d="M738.634 193.913L761.27 86.5121L761.674 83.1628C762.281 78.2401 761.787 73.8568 760.191 69.9905C758.595 66.1243 756.122 62.775 752.728 59.9427C749.356 57.1105 745.13 54.9526 740.073 53.469C735.015 51.9854 729.395 51.2437 723.214 51.2437H608.552L605.36 65.922L605.293 66.2142H614.576L582.275 215.785H614.149L646.046 67.428V67.2931H659.87C668.434 67.2931 672.166 71.9012 671.019 81.1397C670.952 81.7467 670.84 82.3086 670.705 82.8256C670.547 83.3426 670.435 83.972 670.345 84.7138L641.977 215.785H673.852L706.018 67.2931H719.82C728.069 67.2931 731.643 71.8337 730.519 80.915C730.429 81.6567 730.317 82.2861 730.182 82.8031C730.047 83.3201 729.935 83.9495 729.822 84.6913L706.895 192.542C706.827 192.992 706.737 193.396 706.625 193.778C706.512 194.16 706.4 194.565 706.355 195.015C705.501 202.005 707.119 207.22 711.233 210.637C715.324 214.076 721.123 215.762 728.564 215.762H741.646L744.883 200.837C740.14 200.657 738.049 198.364 738.589 193.891L738.634 193.913Z" fill="#10384D"></path>
  <path d="M1082.89 51.446L1079.65 66.1468H1079.67H1102.42H1102.49L1070.19 215.785H1102.06L1134.14 66.1468H1134.16H1156.98L1160.19 51.446H1082.89Z" fill="#10384D"></path>
  <path d="M802.697 126.051L815.712 66.169V66.1465H865.906L868.918 51.2209H787.097L751.537 215.784H783.411L799.438 140.999H834.167L837.426 126.051H802.742H802.697Z" fill="#10384D"></path>
  <path d="M1053.82 126.029C1053.82 126.029 1053.91 125.939 1053.98 125.894C1055.24 124.927 1056.43 123.826 1057.58 122.635C1065.58 114.183 1070.82 99.9991 1073.25 80.0384C1074.19 72.2159 1072.3 65.8771 1067.56 61.0442C1066.88 60.3474 1066.14 59.6956 1065.36 59.0437C1058.99 53.9861 1049.8 51.4685 1037.75 51.4685H980.433L977.218 66.1918H986.502L954.47 215.605L954.178 215.83H986.052L1003.14 136.346H1020.26C1025.5 136.346 1027.79 139.021 1027.12 144.394L1017.18 192.61C1016.96 193.216 1016.76 194.093 1016.62 195.284C1014.96 208.974 1022.35 215.807 1038.85 215.807H1052.41L1055.67 200.859C1050.45 200.859 1048.09 198.701 1048.61 194.385L1058.81 145.922C1058.9 145.338 1058.99 144.776 1059.13 144.236C1059.26 143.719 1059.35 143.315 1059.4 143.022L1059.51 142.123C1060.39 134.975 1058.5 129.625 1053.85 126.051L1053.82 126.029ZM1006.37 121.286L1018.31 66.1918V66.1468H1032.36C1035.84 66.1468 1038.4 67.1583 1040.07 69.1589C1041.73 71.1595 1042.36 73.6546 1042 76.6442L1035.06 110.182C1033.35 117.622 1029.17 121.353 1022.51 121.353H1006.33V121.286H1006.37Z" fill="#10384D"></path>
  <path fill-rule="evenodd" clip-rule="evenodd" d="M200.347 330.828C182.634 336.335 162.673 338.493 144.488 338.493C125.561 338.493 107.376 335.369 90.4953 329.21C61.2511 318.555 37.3117 299.246 21.3072 273.374C-0.788931 237.701 -5.8915 193.351 6.89864 148.462C19.6888 103.64 48.7981 63.6515 88.8994 35.8459C129.001 8.04027 175.306 -4.23286 219.251 1.29679C228.692 2.48814 237.975 4.51118 246.877 7.34344H273.895H1200L1196.43 24.1347H282.123C297.138 34.5422 312.041 49.4003 321.797 65.2025C367.315 138.774 336.992 245.343 254.182 302.73C249.192 306.192 240.133 311.654 234.963 314.621H1143.51L1138.25 330.806H203.201M247.753 296.571C207.63 325.321 159.886 336.695 116.817 327.749C81.0994 320.331 51.3606 299.426 33.0633 268.878C12.743 234.936 8.04503 192.677 19.8461 149.878C31.6697 107.035 58.5987 68.799 95.6878 42.2297C126.955 19.8189 161.976 7.97284 196.93 7.97284C203.359 7.97284 209.81 8.37745 216.104 9.20914C256.61 14.4691 290.102 36.0257 310.4 69.9229C352.39 140.055 324.292 241.724 247.753 296.571Z" fill="#10384D"></path>
  <path d="M245.708 164.444L293.969 186.743L265.511 162.826L316.672 151.07L266.096 151.137L297.161 120.409L246.247 154.127L216.509 148.53L236.941 120.994L293.519 107.619L253.912 107.889L293.249 68.7318L247.619 99.2573L257.801 58.7964L231.389 113.374L201.178 127.4L203.629 95.5484L247.057 51.9405L211.339 76.0148L224.151 24.562L200.616 73.6995L186.23 38.8807L194.12 93.5028L174.879 121.713L158.47 97.6388L172.451 40.4766L154.064 79.1168L135.609 34.8795L142.937 83.9721L109.422 67.9451L148.647 101.932L147.5 138.414L157.728 114.857L173.732 123.421L171.979 125.984L174.766 123.961L177.374 125.355L175.868 123.152L193.019 110.744L199.358 128.232L196.615 129.513L199.762 129.356L200.796 132.21L201.021 129.311L220.465 128.412L214.733 148.192L212.035 147.675L214.351 149.451L213.429 152.688L215.295 150.171L229.658 161.185L213.946 175.706L212.328 173.593L212.935 176.627L210.394 179.01L213.182 177.841L216.936 196.633L192.794 201.106L226.444 209.401L247.753 259.213L241.504 220.011L284.955 240.556L248.787 209.693L289.046 200.657L232.895 200.297L215.025 177.1L245.708 164.444Z" fill="#10384D"></path>
  <path d="M186.77 219.809C212.8 208.39 230.985 286.929 230.985 286.929C232.041 291.514 231.524 291.762 229.838 287.468C229.838 287.468 207.72 231.52 191.917 238.466C176.115 245.411 186.388 306.597 186.388 306.597C187.175 311.295 186.658 311.497 185.219 307.069C185.219 307.069 160.718 231.228 186.77 219.809Z" fill="#10384D"></path>
  <path d="M152.153 223.854C177.284 229.339 144.174 311.857 144.174 311.857C142.241 316.667 141.724 316.577 143.05 311.654C143.05 311.654 160.133 247.277 144.893 243.95C129.653 240.623 101.15 302.438 101.15 302.438C98.9699 307.181 98.4753 307.046 100.049 302.169C100.049 302.169 127.045 218.392 152.153 223.854Z" fill="#10384D"></path>
  <path d="M125.314 206.434C139.88 226.709 68.3091 281.421 68.3091 281.421C64.1282 284.613 63.836 284.209 67.6348 280.545C67.6348 280.545 117.267 232.554 108.433 220.258C99.6214 207.962 43.5156 246.715 43.5156 246.715C39.2223 249.682 38.9525 249.255 42.9087 245.793C42.9087 245.793 110.771 186.226 125.292 206.456L125.314 206.434Z" fill="#10384D"></path>
  <path d="M116.548 174.357C114.997 201.601 32.7261 207.783 32.7261 207.783C27.9382 208.142 27.9607 207.603 32.771 206.569C32.771 206.569 95.6427 193.172 96.5868 176.673C97.5309 160.174 35.5359 161.342 35.5359 161.342C30.7929 161.432 30.8379 160.893 35.6482 160.129C35.6482 160.129 118.099 147.181 116.548 174.357Z" fill="#10384D"></path>
  <path d="M129.091 139.876C112.097 163.658 50.5964 119.533 50.5964 119.533C47.0224 116.971 47.3595 116.498 51.3382 118.454C51.3382 118.454 103.353 144.304 113.67 129.896C123.965 115.509 79.6159 79.1171 79.6159 79.1171C76.2441 76.3523 76.5813 75.8802 80.4026 78.0831C80.4026 78.0831 146.084 116.116 129.113 139.853L129.091 139.876Z" fill="#10384D"></path>
  <path d="M139.768 116.718C139.363 117.043 138.936 117.367 138.531 117.714C109.557 142.128 101.128 183.613 119.807 210.366C138.531 237.188 177.351 238.995 206.393 214.327C206.82 213.979 207.203 213.609 207.607 213.238L139.768 116.718Z" fill="#10384D"></path>
  <path d="M224.758 121.605C206.281 95.4544 168.54 93.4161 139.768 116.741L207.607 213.261C235.593 188.546 243.28 147.826 224.758 121.605Z" fill="#10384D"></path>
</svg>
