<?xml version="1.0" encoding="UTF-8"?>
<svg xmlns="http://www.w3.org/2000/svg" width="3427" height="1857" viewBox="0 0 3427 1857" fill="none">
  <path d="M3427 928.494C3427 1441.26 2659.81 1856.99 1713.54 1856.99C767.261 1856.99 0 1441.26 0 928.494C0 415.725 767.184 0 1713.46 0C2659.74 0 3426.92 415.725 3426.92 928.494H3427ZM1678.32 104.318C933.147 104.318 329.069 473.301 329.069 928.494C329.069 1383.69 933.147 1752.67 1678.32 1752.67C2423.5 1752.67 3027.57 1383.69 3027.57 928.494C3027.57 473.301 2423.5 104.318 1678.32 104.318Z" fill="#10384D"></path>
  <path d="M723.058 915.269C723.058 966.444 726.411 997.648 775.529 997.648C824.648 997.648 829.949 971.748 832.678 925.878L942.922 926.425C942.922 970.266 932.943 1111.93 775.529 1111.93C618.116 1111.93 608.838 994.294 608.838 950.452V784.29C608.838 740.448 618.116 622.808 775.529 622.808C932.943 622.808 942.922 751.525 942.922 795.367L830.417 794.743C827.766 748.873 824.726 737.093 775.607 737.093C726.489 737.093 723.136 768.297 723.136 819.472V915.191L723.058 915.269Z" fill="#10384D"></path>
  <path d="M1313.49 1100H1196.23L1196 945.381C1196 932.587 1185.63 922.212 1172.84 922.212H1108.13V1100H992.587V634.822H1158.65C1288.86 634.822 1320.75 716.499 1322.38 756.284C1324.33 801.764 1319.11 850.911 1272.48 872.441V873.924C1296.65 873.924 1313.57 918.077 1313.57 1008.65V1100.08L1313.49 1100ZM1108.05 749.809V817.288H1162.47C1194.36 817.288 1198.65 800.984 1198.65 787.176C1198.65 757.61 1194.36 749.107 1162.47 749.809H1108.05Z" fill="#10384D"></path>
  <path d="M1604.31 983.216H1506.46L1476.21 1099.92H1359.65L1473.87 641.219H1633.62L1753.69 1099.92H1628.56M1556.75 783.51L1528.52 882.895H1584.19L1556.75 783.51Z" fill="#10384D"></path>
  <path d="M1903.38 634.822V1100H1790.49V634.822H1903.38Z" fill="#10384D"></path>
  <path d="M2185.31 804.884C2182.66 759.014 2177.36 733.115 2128.16 733.115C2078.96 733.115 2075.69 764.319 2075.69 815.494V911.212C2075.69 962.387 2079.04 993.591 2128.16 993.591C2177.28 993.591 2180.63 962.387 2180.63 929.779H2122.16V836.712H2294.85V946.395C2294.85 990.237 2285.57 1107.88 2128.16 1107.88C1970.75 1107.88 1961.47 990.237 1961.47 946.395V780.233C1961.47 736.391 1970.75 618.751 2128.16 618.751C2285.57 618.751 2295.55 736.391 2295.55 780.233L2185.31 804.806V804.884Z" fill="#10384D"></path>
  <path d="M2447.67 624.524V718.917C2447.67 771.496 2415.08 794.665 2355.12 796.381V762.759C2365.96 752.305 2366.74 756.05 2367.36 738.108L2333.45 738.888V624.602H2447.67V624.524Z" fill="#10384D"></path>
  <path d="M2677.9 790.453C2691.31 749.731 2666.59 732.257 2634 732.257C2608.12 732.257 2592.99 754.1 2595.64 769.39C2628.23 839.599 2818.16 817.288 2818.16 972.763C2818.16 992.734 2795.55 1110.3 2638.21 1110.3C2480.88 1110.3 2470.28 997.258 2470.28 938.828L2582.78 937.346C2586.05 985.167 2605.7 996.01 2638.21 996.01C2670.73 996.01 2683.59 976.741 2679.61 958.799C2666.98 902.319 2470.28 917.922 2474.88 762.135C2475.5 742.164 2486.18 624.603 2634.94 624.603C2774.42 624.603 2792.59 719.307 2786.82 791.779L2677.9 790.531V790.453Z" fill="#10384D"></path>
  <path d="M2407.37 1237.57H2368.02V1229.65C2368.02 1222.91 2367.62 1218.66 2366.81 1216.9C2366.08 1215.07 2364.17 1214.16 2361.1 1214.16C2358.61 1214.16 2356.74 1215 2355.49 1216.68C2354.25 1218.3 2353.62 1220.75 2353.62 1224.05C2353.62 1228.52 2353.92 1231.81 2354.5 1233.94C2355.16 1235.99 2357.03 1238.26 2360.11 1240.75C2363.26 1243.24 2369.67 1246.87 2379.34 1251.63C2392.24 1257.94 2400.7 1263.87 2404.73 1269.44C2408.76 1275.01 2410.77 1283.1 2410.77 1293.73C2410.77 1305.6 2409.24 1314.57 2406.16 1320.65C2403.08 1326.66 2397.92 1331.32 2390.66 1334.61C2383.48 1337.84 2374.8 1339.45 2364.61 1339.45C2353.33 1339.45 2343.66 1337.69 2335.6 1334.17C2327.61 1330.66 2322.12 1325.89 2319.11 1319.88C2316.11 1313.88 2314.61 1304.79 2314.61 1292.63V1285.59H2353.95V1294.83C2353.95 1302.67 2354.43 1307.76 2355.38 1310.1C2356.41 1312.45 2358.39 1313.62 2361.32 1313.62C2364.47 1313.62 2366.67 1312.85 2367.91 1311.31C2369.16 1309.7 2369.78 1306.37 2369.78 1301.31C2369.78 1294.35 2368.97 1289.99 2367.36 1288.23C2365.68 1286.47 2357.07 1281.27 2341.53 1272.63C2328.49 1265.3 2320.54 1258.67 2317.68 1252.73C2314.83 1246.72 2313.4 1239.62 2313.4 1231.41C2313.4 1219.76 2314.94 1211.19 2318.01 1205.69C2321.09 1200.13 2326.29 1195.84 2333.62 1192.83C2341.02 1189.83 2349.59 1188.33 2359.34 1188.33C2369.01 1188.33 2377.22 1189.57 2383.96 1192.07C2390.77 1194.48 2395.97 1197.71 2399.56 1201.74C2403.23 1205.77 2405.43 1209.5 2406.16 1212.95C2406.96 1216.39 2407.37 1221.78 2407.37 1229.1V1237.57Z" fill="#10384D"></path>
  <path d="M2216.55 1266.47H2159.07V1298.01C2159.07 1304.61 2159.54 1308.86 2160.49 1310.76C2161.45 1312.67 2163.28 1313.62 2165.99 1313.62C2169.36 1313.62 2171.59 1312.37 2172.69 1309.88C2173.87 1307.32 2174.45 1302.41 2174.45 1295.16V1275.92H2216.55V1286.69C2216.55 1295.71 2215.96 1302.63 2214.79 1307.47C2213.69 1312.3 2211.05 1317.47 2206.87 1322.96C2202.7 1328.46 2197.39 1332.6 2190.94 1335.38C2184.56 1338.09 2176.54 1339.45 2166.87 1339.45C2157.49 1339.45 2149.21 1338.09 2142.03 1335.38C2134.85 1332.67 2129.24 1328.97 2125.21 1324.28C2121.26 1319.52 2118.51 1314.32 2116.97 1308.67C2115.43 1302.96 2114.66 1294.68 2114.66 1283.84V1241.3C2114.66 1228.55 2116.39 1218.52 2119.83 1211.19C2123.27 1203.79 2128.91 1198.15 2136.75 1194.26C2144.59 1190.31 2153.61 1188.33 2163.79 1188.33C2176.25 1188.33 2186.51 1190.71 2194.56 1195.47C2202.7 1200.16 2208.38 1206.43 2211.6 1214.27C2214.9 1222.03 2216.55 1232.99 2216.55 1247.13V1266.47ZM2172.03 1242.73V1232.07C2172.03 1224.52 2171.63 1219.65 2170.83 1217.45C2170.02 1215.26 2168.37 1214.16 2165.88 1214.16C2162.8 1214.16 2160.9 1215.11 2160.16 1217.01C2159.43 1218.85 2159.07 1223.86 2159.07 1232.07V1242.73H2172.03Z" fill="#10384D"></path>
  <path d="M2017.15 1246.03H1975.28V1229.21C1975.28 1223.35 1974.8 1219.4 1973.85 1217.34C1972.9 1215.22 1971.14 1214.16 1968.57 1214.16C1966.01 1214.16 1964.29 1215.07 1963.41 1216.9C1962.53 1218.74 1962.09 1222.84 1962.09 1229.21V1298.01C1962.09 1303.22 1962.75 1307.14 1964.07 1309.77C1965.39 1312.34 1967.33 1313.62 1969.89 1313.62C1972.9 1313.62 1974.91 1312.26 1975.94 1309.55C1977.04 1306.84 1977.59 1301.71 1977.59 1294.17V1276.8H2017.15C2017.08 1288.45 2016.64 1297.21 2015.83 1303.07C2015.1 1308.86 2012.65 1314.83 2008.47 1320.98C2004.37 1327.07 1998.98 1331.68 1992.31 1334.83C1985.65 1337.91 1977.4 1339.45 1967.58 1339.45C1955.06 1339.45 1945.13 1337.32 1937.8 1333.07C1930.47 1328.75 1925.27 1322.74 1922.19 1315.05C1919.19 1307.28 1917.69 1296.29 1917.69 1282.08V1240.64C1917.69 1228.26 1918.93 1218.92 1921.42 1212.62C1923.92 1206.32 1929.23 1200.71 1937.36 1195.8C1945.49 1190.82 1955.38 1188.33 1967.03 1188.33C1978.61 1188.33 1988.5 1190.78 1996.71 1195.69C2004.92 1200.6 2010.37 1206.79 2013.08 1214.27C2015.8 1221.74 2017.15 1232.33 2017.15 1246.03Z" fill="#10384D"></path>
  <path d="M1817.43 1158.87V1182.06H1771.71V1158.87H1817.43ZM1817.43 1190.97V1336.81H1771.71V1190.97H1817.43Z" fill="#10384D"></path>
  <path d="M1679.47 1190.97L1658.7 1336.81H1600.78L1578.47 1190.97H1618.14L1630.56 1297.35C1631.52 1289.59 1633.13 1270.54 1635.4 1240.2C1636.72 1223.28 1638.18 1206.87 1639.79 1190.97H1679.47Z" fill="#10384D"></path>
  <path d="M1465.9 1190.97L1464.14 1210.09C1470.59 1196.39 1479.93 1189.13 1492.17 1188.33V1239.65C1484.03 1239.65 1478.06 1240.75 1474.25 1242.95C1470.44 1245.15 1468.1 1248.23 1467.22 1252.18C1466.34 1256.07 1465.9 1265.08 1465.9 1279.22V1336.81H1421.5V1190.97H1465.9Z" fill="#10384D"></path>
  <path d="M1321.35 1266.47H1263.87V1298.01C1263.87 1304.61 1264.34 1308.86 1265.3 1310.76C1266.25 1312.67 1268.08 1313.62 1270.79 1313.62C1274.16 1313.62 1276.4 1312.37 1277.49 1309.88C1278.67 1307.32 1279.25 1302.41 1279.25 1295.16V1275.92H1321.35V1286.69C1321.35 1295.71 1320.76 1302.63 1319.59 1307.47C1318.49 1312.3 1315.85 1317.47 1311.68 1322.96C1307.5 1328.46 1302.19 1332.6 1295.74 1335.38C1289.36 1338.09 1281.34 1339.45 1271.67 1339.45C1262.29 1339.45 1254.01 1338.09 1246.83 1335.38C1239.65 1332.67 1234.05 1328.97 1230.02 1324.28C1226.06 1319.52 1223.31 1314.32 1221.77 1308.67C1220.23 1302.96 1219.46 1294.68 1219.46 1283.84V1241.3C1219.46 1228.55 1221.19 1218.52 1224.63 1211.19C1228.07 1203.79 1233.72 1198.15 1241.56 1194.26C1249.4 1190.31 1258.41 1188.33 1268.59 1188.33C1281.05 1188.33 1291.31 1190.71 1299.37 1195.47C1307.5 1200.16 1313.18 1206.43 1316.4 1214.27C1319.7 1222.03 1321.35 1232.99 1321.35 1247.13V1266.47ZM1276.84 1242.73V1232.07C1276.84 1224.52 1276.43 1219.65 1275.63 1217.45C1274.82 1215.26 1273.17 1214.16 1270.68 1214.16C1267.6 1214.16 1265.7 1215.11 1264.97 1217.01C1264.23 1218.85 1263.87 1223.86 1263.87 1232.07V1242.73H1276.84Z" fill="#10384D"></path>
  <path d="M1118.11 1212.73H1075.13V1199.54C1075.13 1193.38 1074.58 1189.46 1073.49 1187.78C1072.39 1186.09 1070.55 1185.25 1067.99 1185.25C1065.21 1185.25 1063.08 1186.39 1061.62 1188.66C1060.22 1190.93 1059.53 1194.37 1059.53 1198.99C1059.53 1204.92 1060.33 1209.39 1061.95 1212.4C1063.48 1215.4 1067.84 1219.03 1075.02 1223.28C1095.61 1235.51 1108.58 1245.55 1113.93 1253.39C1119.28 1261.23 1121.95 1273.87 1121.95 1291.31C1121.95 1303.99 1120.45 1313.33 1117.45 1319.34C1114.52 1325.34 1108.8 1330.4 1100.3 1334.5C1091.8 1338.53 1081.91 1340.55 1070.63 1340.55C1058.24 1340.55 1047.66 1338.2 1038.87 1333.51C1030.15 1328.82 1024.43 1322.85 1021.72 1315.6C1019.01 1308.35 1017.65 1298.05 1017.65 1284.72V1273.07H1060.63V1294.72C1060.63 1301.38 1061.21 1305.67 1062.38 1307.58C1063.63 1309.48 1065.79 1310.43 1068.87 1310.43C1071.95 1310.43 1074.22 1309.22 1075.68 1306.81C1077.22 1304.39 1077.99 1300.8 1077.99 1296.04C1077.99 1285.56 1076.56 1278.71 1073.7 1275.48C1070.77 1272.26 1063.56 1266.87 1052.05 1259.33C1040.55 1251.71 1032.93 1246.18 1029.19 1242.73C1025.46 1239.29 1022.34 1234.53 1019.85 1228.44C1017.43 1222.36 1016.22 1214.6 1016.22 1205.14C1016.22 1191.52 1017.95 1181.55 1021.39 1175.25C1024.91 1168.95 1030.55 1164.04 1038.32 1160.52C1046.08 1156.93 1055.46 1155.14 1066.45 1155.14C1078.47 1155.14 1088.69 1157.08 1097.11 1160.96C1105.61 1164.85 1111.22 1169.75 1113.93 1175.69C1116.71 1181.55 1118.11 1191.55 1118.11 1205.69V1212.73Z" fill="#10384D"></path>
</svg>
