<?xml version="1.0" encoding="UTF-8"?>
<svg xmlns="http://www.w3.org/2000/svg" width="998" height="354" viewBox="0 0 998 354" fill="none">
  <g clip-path="url(#clip0_594_3602)">
    <path d="M408.457 62.0697V132.77C408.457 145.229 402.72 153.945 391.36 154.888V159.246H430.261V154.888C413.507 150.988 412.821 140.528 412.821 120.381V68.1137L450.835 159.246L455.241 159.175L493.642 64.7559V143.843C493.356 152.888 487.533 154.888 478.219 154.888V159.246H528.18V154.888C515.06 154.888 512.756 151.345 512.756 138.471V74.4722C512.756 62.3269 512.642 55.0397 525.161 55.0397H528.18V50.353H495.316L460.778 132.441L425.897 50.353H391.202L391.045 54.954C395.952 54.954 399.915 55.4683 402.076 56.1828C403.692 56.8258 408.457 60.1693 408.457 62.084V62.0697ZM495.988 145.829C495.931 131.984 495.988 118.124 495.988 104.278V76.4726C495.988 68.3709 494.214 55.1969 502.026 55.0254C499.923 60.798 501.025 73.5863 501.025 81.8308V137.456C501.025 142.114 501.11 146.787 500.066 150.245C498.664 154.874 496.632 154.888 490.952 154.888C493.928 152.974 496.017 153.059 495.988 145.844V145.829ZM416.555 154.874H401.461C406.711 151.959 408.543 148.701 410.174 145.829C411.476 149.802 413.15 152.388 416.54 154.874H416.555ZM417.184 60.7265C419.631 64.213 421.233 68.4138 422.921 72.7433L449.576 136.456C450.992 139.728 453.725 145.315 453.725 149.516C453.725 151.445 453.21 153.688 452.051 154.545L413.736 64.1701C409.415 57.9546 409.902 59.512 404.766 55.0397C412.592 55.0397 413.894 56.0399 417.184 60.7265Z" fill="#10384D"></path>
    <path d="M682.44 64.7416L682.712 133.541C682.526 139.7 680.838 147.344 675.473 151.259C673.083 153.145 668.562 154.874 664.342 154.874V159.232H705.26V154.874C700.825 154.774 696.232 153.245 693.385 151.331C688.363 147.958 688.836 145.744 687.891 141.814C687.677 139.014 687.619 136.227 687.405 133.427L686.947 69.9856L763.791 161.59H768.827L768.784 77.2585C768.784 73.4291 768.956 70.1856 769.414 68.571C771.775 60.3408 775.981 55.0397 786.382 55.0397V50.353H744.805L744.977 54.5539C751.186 55.4683 757.124 56.8115 761.116 62.2126C763.562 65.5132 764.463 71.3287 764.506 77.287L764.878 130.526L695.503 50.3673H663.984V55.054H666.001C672.211 55.054 679.979 61.1123 682.426 64.7702L682.44 64.7416ZM691.511 154.874H674.414C679.708 152.288 682.011 150.13 683.814 144.486C684.801 149.13 687.777 152.874 691.525 154.874H691.511ZM755.536 54.6968H771.631C768.555 56.6257 766.295 60.0979 765.265 64.413C762.875 58.8405 760.3 56.9829 755.536 54.6968ZM691.153 63.0699L758.283 140.743C762.632 146.244 765.937 147.816 765.937 157.217L681.854 60.2979C680.781 59.2262 679.922 58.226 678.749 57.3687C677.633 56.54 675.887 55.7398 675.058 55.0254C684.701 55.0254 687.018 57.4259 691.153 63.0699Z" fill="#10384D"></path>
    <path d="M309.522 154.874C302.655 154.874 297.118 148.944 297.118 142.143C297.118 136.799 298.162 133.084 299.922 129.198L304.829 118.353H340.712L350.498 144.215C351.171 145.987 352.101 148.973 351.085 150.931C349.296 153.917 343.917 154.874 339.71 154.874V159.232H385.322V154.874C379.885 153.688 373.805 151.545 371 143.058L337.579 62.527C336.334 60.298 334.732 53.2823 334.345 49.3243H328.308L308.521 55.6971V59.7122C317.191 59.6264 319.595 62.0698 319.595 66.0849L291.095 138.457C287.632 145.372 283.04 154.103 273.654 154.874V159.232H309.537V154.874H309.522ZM315.903 58.4262C321.483 57.5974 325.961 60.1408 327.735 65.9991L357.666 143.929C358.281 145.615 358.396 147.887 358.095 149.53C357.637 153.245 354.561 154.889 350.441 154.889C352.988 153.617 354.132 151.902 354.132 149.53C354.132 147.616 353.76 145.272 353.045 143.5C347.379 128.226 334.445 93.2761 327.635 78.5017C326.405 75.8154 324.001 69.7713 323.085 66.9708C321.04 61.8554 318.951 59.7264 315.903 58.4405V58.4262ZM322.299 71.6574L338.609 113.237L306.017 113.266L322.299 71.6574ZM283.097 154.874C287.847 152.117 289.778 149.059 292.482 143.815C292.568 148.444 293.598 151.188 297.175 154.874H283.097Z" fill="#10384D"></path>
    <path d="M597.927 161.247C607.799 161.247 618.945 158.732 627.372 153.474C630.29 151.645 632.179 150.688 634.883 148.573C636.943 146.973 639.375 144.458 641.278 142.557C652.423 131.484 655.943 116.352 655.943 101.263C655.943 86.1746 646.171 68.7996 637.902 62.3412C625.984 53.0393 615.954 48.3384 594.908 48.3384C588.012 48.3384 577.954 50.7389 572.875 52.7964C561.53 57.3116 550.241 67.9995 545.749 79.3018C539.382 95.2621 538.08 114.066 545.72 129.983C555.692 150.773 574.692 161.247 597.927 161.247ZM633.81 73.4577C640.377 84.1456 641.521 98.7628 641.521 110.98C641.521 123.196 635.942 142.915 624.081 149.173C633.094 137.856 636.814 124.425 636.814 110.122C636.814 97.4626 635.384 88.1178 630.119 76.4726C624.896 64.8989 619.46 60.5408 610.675 54.3539C620.275 54.5682 629.303 66.1277 633.81 73.4577ZM594.908 52.6821C621.162 52.6821 634.139 82.6024 634.139 109.979C634.339 122.268 631.12 138.385 621.978 147.43C616.884 152.474 610.89 156.889 600.932 156.889C561.258 156.889 552.402 91.2327 570.744 65.0846C575.15 58.7976 584.25 52.6964 594.894 52.6964L594.908 52.6821ZM549.984 76.8155C553.146 71.4002 559.956 62.8985 567.081 58.7119C560.714 65.7419 555.192 72.1575 551.744 80.9164C548.682 88.6894 547.966 96.3909 547.966 104.607C547.966 118.353 551.858 128.697 557.424 137.042C563.418 146.03 571.201 151.688 579.485 156.875C571.144 154.546 559.856 146.03 554.762 140.028C546.149 129.898 543.274 117.824 543.274 104.936C543.274 93.4046 545.72 84.1027 549.984 76.8013V76.8155Z" fill="#10384D"></path>
    <path d="M96.5736 63.4128V145.501C96.5736 153.574 89.234 154.888 81.1505 154.888V159.246H141.184C175.592 159.246 201.217 139.428 201.217 105.307C201.217 87.7749 194.721 75.1866 185.879 66.3563C177.767 58.2546 163.274 50.353 147.236 50.353H80.8357V54.7253C83.2679 54.9825 96.6022 53.3393 96.6022 63.4128H96.5736ZM178.626 72.2432C185.908 85.3172 187.796 96.2194 186.795 111.994C185.693 129.34 175.921 151.974 153.931 154.545C154.833 153.76 158.581 151.745 159.912 151.145C165.391 148.659 171.043 142.143 174.248 137.328C179.212 129.898 181.759 119.538 181.759 107.307V102.278C181.759 91.6328 177.982 79.9447 174.047 73.129C171.772 69.1854 168.868 66.2277 165.42 63.3271C162.043 60.4836 160.098 58.4975 154.604 56.0399C164.29 56.2542 174.906 65.5704 178.626 72.2432ZM116.361 70.1142C116.361 58.3975 118.635 55.0397 130.439 55.0397H134.13C162.101 55.0397 179.441 76.2868 179.069 103.292C178.654 133.77 164.805 154.888 131.784 154.888H128.436C120.409 154.888 116.361 151.059 116.361 142.829V70.1284V70.1142ZM104.3 70.4428V143.486C104.3 150.445 101.595 154.874 94.5706 154.874C99.9215 150.23 99.2634 148.03 99.2634 138.457V66.4134C99.2634 57.8117 97.8756 59.312 94.5706 55.0254C103.742 55.0254 104.3 61.441 104.3 70.4428Z" fill="#10384D"></path>
    <path d="M265.928 154.874H264.927C255.341 154.874 249.833 151.888 249.833 142.143L250.162 62.7412C250.62 58.2118 253.095 57.3116 256.071 56.2542C257.559 55.7541 261.851 54.6253 266.257 54.7682V50.353H214.279V54.5967C215.839 54.5967 223.794 54.9397 226.698 57.0544C229.674 59.3263 230.375 64.0844 230.375 69.1282V141.829C230.375 145.629 229.788 149.63 227.785 151.645C226.283 153.159 221.433 154.903 218.643 154.903H214.279V159.261H265.928V154.903V154.874ZM238.101 148.173C238.101 153.217 232.678 154.874 227.699 154.874C229.688 151.902 233.065 152.917 233.065 146.158V63.3985C233.065 59.0405 229.874 57.083 228.372 55.0254C234.867 55.0254 238.101 57.6831 238.101 64.0701V148.173Z" fill="#10384D"></path>
    <path d="M881.239 155.489C884.458 153.86 887.791 153.131 891.039 151.202C893.958 149.473 897.263 147.716 899.666 145.415C909.052 136.456 917.178 124.468 917.178 106.293V104.278C917.178 87.532 910.339 74.8294 901.841 66.3277C894.444 58.9405 878.992 50.3245 864.528 50.3245H796.783V55.0111C800.217 55.0111 805.968 55.9113 808.186 57.0115C812.063 58.9548 812.535 60.7551 812.535 66.3991V141.786C812.535 151.516 809.273 154.86 799.788 154.86H796.769V159.218H856.802C864.456 159.218 876.345 157.946 881.224 155.474L881.239 155.489ZM893.986 71.1715C899.409 80.6306 902.757 90.2754 902.757 102.278C902.757 115.766 901.598 128.283 893.829 139.943C889.651 146.215 881.296 153.202 868.877 154.888C880.723 147.916 883.356 146.201 889.866 137.671C897.949 127.083 897.706 112.608 897.706 99.9488C897.878 90.4468 894.358 80.702 889.279 72.186C884.329 63.8558 877.032 59.8692 869.535 55.7256C877.333 55.897 890.009 64.2844 893.958 71.1858L893.986 71.1715ZM820.261 143.486C820.261 150.616 817.6 154.874 810.532 154.874C812.907 151.631 815.225 151.888 815.225 144.829V67.0993C815.225 60.1693 814.653 58.6547 810.861 55.3683C819.403 55.3683 820.247 61.4839 820.247 69.7712V143.486H820.261ZM843.739 154.874C840.391 154.874 835.513 152.988 833.939 150.93C832.108 148.53 831.993 143.315 831.993 139.128V72.4575C831.993 61.2838 832.98 55.0397 844.397 55.0397H852.782C864.428 55.0397 878.205 62.2554 883.17 68.9139C886.933 73.9721 888.778 76.6012 891.354 82.8453C892.956 86.7461 895.045 96.2766 895.045 101.606V109.979C895.045 116.123 893.357 123.711 891.554 128.269C889.351 133.856 886.776 137.842 882.884 141.729C876.059 148.544 865.601 154.874 852.109 154.874H843.725H843.739Z" fill="#10384D"></path>
    <path d="M53.6806 208.685C53.5376 208.685 38.7582 219.73 37.5278 220.802L22.0474 233.59V234.247L94.7423 299.246H95.5722L168.253 234.162V233.333L135.79 208.685H53.6806ZM120.352 212.529L116.547 215.144L111.482 212.543H120.352V212.529ZM124.144 235.819L142.285 235.933L111.153 266.34L124.144 235.819ZM105.859 268.511L97.6324 235.862L120.152 235.819L105.859 268.511ZM101.166 231.818L116.976 220.044L139.223 231.747L101.152 231.818H101.166ZM101.266 212.572L112.769 218.258L95.0428 231.118L78.0315 218.258L88.8621 212.6L101.266 212.572ZM66.4427 235.819L79.1761 266.311L48.0007 235.948L66.4427 235.819ZM51.8922 231.904L74.0684 220.316L88.8192 231.833L51.9065 231.904H51.8922ZM70.8779 235.819H92.5104C91.6234 239.634 85.7717 267.468 84.7416 268.226L70.8779 235.819ZM81.2793 212.6L74.9841 215.858L71.207 212.614H81.2649L81.2793 212.6ZM51.9781 215.615L55.0398 212.657H64.0247L70.8064 218.044L46.2552 230.761L51.9781 215.615ZM45.6829 219.83L41.2477 231.933H29.716L45.6686 219.83H45.6829ZM29.5014 235.876H41.6769L56.7424 260.067L29.5014 235.876ZM68.5458 270.569L53.9525 247.45L83.0104 276.042L89.3771 289.073L68.5458 270.569ZM95.0428 294.102L87.9893 275.327L95.0428 243.864L102.511 275.441L95.0428 294.117V294.102ZM101.123 289.001L107.161 276.199L135.847 247.979L121.311 271.226L101.123 289.016V289.001ZM133.83 259.895L148.552 235.719L161.028 235.69L133.83 259.881V259.895ZM160.04 231.718H148.824L144.202 219.616L160.026 231.718H160.04ZM143.158 228.832L120.696 217.287L127.105 212.529H134.631L138.565 215.615L143.158 228.846V228.832Z" fill="#10384D"></path>
    <path d="M861.394 208.685C861.251 208.685 846.472 219.73 845.242 220.802L829.761 233.59V234.247L902.456 299.246H903.286L975.967 234.162V233.333L943.504 208.685H861.394ZM928.066 212.529L924.26 215.144L919.196 212.543H928.066V212.529ZM931.858 235.819L949.999 235.933L918.867 266.34L931.858 235.819ZM913.573 268.511L905.346 235.862L927.866 235.819L913.573 268.511ZM908.88 231.818L924.69 220.044L946.937 231.747L908.866 231.818H908.88ZM908.98 212.572L920.483 218.258L902.757 231.118L885.745 218.258L896.576 212.6L908.98 212.572ZM874.156 235.819L886.89 266.311L855.714 235.948L874.156 235.819ZM859.606 231.904L881.782 220.316L896.533 231.833L859.62 231.904H859.606ZM878.592 235.819H900.224C899.337 239.634 893.486 267.468 892.455 268.226L878.592 235.819ZM888.993 212.6L882.698 215.858L878.921 212.614H888.979L888.993 212.6ZM859.692 215.615L862.754 212.657H871.739L878.52 218.044L853.969 230.761L859.692 215.615ZM853.397 219.83L848.961 231.933H837.43L853.382 219.83H853.397ZM837.201 235.876H849.376L864.442 260.067L837.201 235.876ZM876.26 270.569L861.666 247.45L890.724 276.042L897.091 289.073L876.26 270.569ZM902.742 294.102L895.689 275.327L902.742 243.864L910.211 275.441L902.742 294.117V294.102ZM908.823 289.001L914.861 276.199L943.546 247.979L929.01 271.226L908.823 289.016V289.001ZM941.544 259.895L956.266 235.719L968.741 235.69L941.544 259.881V259.895ZM967.74 231.718H956.523L951.902 219.616L967.726 231.718H967.74ZM950.872 228.832L928.409 217.287L934.819 212.529H942.345L946.279 215.615L950.872 228.846V228.832Z" fill="#10384D"></path>
    <path d="M216.64 202.412V214.315H228.186V202.412H235.182V233.39H228.186V220.43H216.64V233.39H209.601V202.412H216.64Z" fill="#10384D"></path>
    <path d="M271.265 220.287H259.862V227.632H272.61V233.376H252.823V202.398H271.966V208.142H259.862V214.572H271.265V220.273V220.287Z" fill="#10384D"></path>
    <path d="M296.145 225.431L293.927 233.39H286.659L296.145 202.412H305.344L314.959 233.39H307.419L305.03 225.431H296.145ZM304.014 220.187L302.082 213.615C301.539 211.786 300.981 209.485 300.523 207.642H300.437C299.979 209.485 299.521 211.829 299.006 213.615L297.161 220.187H304.014Z" fill="#10384D"></path>
    <path d="M332.786 208.299H324.459V202.412H348.295V208.299H339.825V233.39H332.786V208.299Z" fill="#10384D"></path>
    <path d="M370.585 202.412V233.39H363.546V202.412H370.585Z" fill="#10384D"></path>
    <path d="M388.169 233.39V202.412H396.353L402.791 213.772C404.637 217.03 406.468 220.902 407.856 224.388H407.999C407.541 220.302 407.398 216.115 407.398 211.486V202.427H413.836V233.404H406.468L399.844 221.459C397.998 218.158 395.981 214.158 394.464 210.528L394.321 210.571C394.507 214.658 394.593 219.03 394.593 224.074V233.404H388.155L388.169 233.39Z" fill="#10384D"></path>
    <path d="M457.344 231.961C455.184 232.704 451.092 233.719 446.986 233.719C441.32 233.719 437.228 232.29 434.381 229.532C431.52 226.874 429.96 222.816 430.003 218.273C430.046 207.985 437.543 202.098 447.715 202.098C451.721 202.098 454.798 202.87 456.328 203.613L454.855 209.214C453.152 208.485 451.035 207.885 447.63 207.885C441.778 207.885 437.371 211.186 437.371 217.901C437.371 224.617 441.377 228.06 447.129 228.06C448.746 228.06 450.033 227.875 450.577 227.603V221.116H445.784V215.644H457.33V231.961H457.344Z" fill="#10384D"></path>
    <path d="M189.313 256.123C191.445 255.766 194.435 255.48 198.656 255.48C202.876 255.48 205.952 256.295 207.984 257.924C209.93 259.467 211.246 261.996 211.246 264.982C211.246 267.968 210.244 270.512 208.442 272.226C206.081 274.441 202.59 275.441 198.513 275.441C197.611 275.441 196.796 275.398 196.152 275.313V286.215H189.313V256.123ZM196.166 269.969C196.753 270.112 197.482 270.155 198.484 270.155C202.161 270.155 204.421 268.297 204.421 265.168C204.421 262.367 202.476 260.695 199.028 260.695C197.625 260.695 196.667 260.824 196.166 260.967V269.969Z" fill="#10384D"></path>
    <path d="M223.321 255.723H230.26V280.428H242.407V286.215H223.336V255.723H223.321Z" fill="#10384D"></path>
    <path d="M259.633 255.723V273.284C259.633 278.528 261.636 281.2 265.17 281.2C268.704 281.2 270.793 278.656 270.793 273.284V255.723H277.674V272.827C277.674 282.243 272.91 286.729 264.941 286.729C256.972 286.729 252.708 282.471 252.708 272.741V255.737H259.633V255.723Z" fill="#10384D"></path>
    <path d="M317.148 274.541C317.005 270.869 316.876 266.44 316.876 262.01H316.747C315.789 265.897 314.53 270.255 313.342 273.812L309.622 285.715H304.228L300.966 273.898C299.965 270.326 298.935 265.982 298.205 261.996H298.119C297.933 266.111 297.805 270.812 297.576 274.627L297.032 286.215H290.651L292.597 255.723H301.796L304.786 265.897C305.745 269.426 306.689 273.227 307.362 276.799H307.505C308.363 273.269 309.408 269.254 310.409 265.854L313.671 255.723H322.685L324.359 286.215H317.606L317.148 274.541Z" fill="#10384D"></path>
    <path d="M337.307 256.123C339.124 255.766 342.786 255.48 346.234 255.48C350.441 255.48 353.03 255.895 355.248 257.195C357.38 258.324 358.925 260.41 358.925 263.167C358.925 265.925 357.337 268.426 353.889 269.683V269.769C357.38 270.726 359.955 273.341 359.955 277.285C359.955 280.042 358.682 282.214 356.779 283.757C354.561 285.529 350.841 286.515 344.775 286.515C341.37 286.515 338.838 286.286 337.292 286.058V256.095L337.307 256.123ZM344.146 267.797H346.406C350.026 267.797 351.986 266.311 351.986 264.039C351.986 261.767 350.212 260.51 347.093 260.51C345.605 260.51 344.747 260.595 344.146 260.695V267.797ZM344.146 281.328C344.832 281.414 345.634 281.414 346.821 281.414C349.94 281.414 352.716 280.242 352.716 277.027C352.716 273.812 349.954 272.726 346.506 272.726H344.146V281.328Z" fill="#10384D"></path>
    <path d="M379.284 255.723V286.215H372.345V255.723H379.284Z" fill="#10384D"></path>
    <path d="M392.948 286.215V255.723H401.017L407.355 266.897C409.172 270.112 410.975 273.912 412.334 277.356H412.477C412.019 273.327 411.89 269.212 411.89 264.639V255.723H418.228V286.215H410.989L404.465 274.455C402.648 271.198 400.659 267.268 399.157 263.682L399.028 263.725C399.214 267.754 399.3 272.055 399.3 277.027V286.215H392.962H392.948Z" fill="#10384D"></path>
    <path d="M457.387 284.815C455.255 285.543 451.221 286.529 447.186 286.529C441.606 286.529 437.586 285.129 434.768 282.4C431.963 279.785 430.418 275.799 430.461 271.312C430.504 261.167 437.901 255.38 447.902 255.38C451.85 255.38 454.884 256.152 456.371 256.88L454.926 262.41C453.252 261.681 451.164 261.096 447.816 261.096C442.064 261.096 437.715 264.353 437.715 270.955C437.715 277.556 441.649 280.957 447.315 280.957C448.903 280.957 450.176 280.771 450.72 280.5V274.127H446.013V268.74H457.387V284.8V284.815Z" fill="#10384D"></path>
    <path d="M569.928 273.47H558.525V280.828H571.273V286.572H551.486V255.594H570.629V261.338H558.525V267.768H569.928V273.47Z" fill="#10384D"></path>
    <path d="M585.737 255.594H592.776V280.685H605.109V286.572H585.737V255.594Z" fill="#10384D"></path>
    <path d="M637.372 273.47H625.969V280.828H638.717V286.572H618.93V255.594H638.073V261.338H625.969V267.768H637.372V273.47Z" fill="#10384D"></path>
    <path d="M675.958 285.701C674.671 286.344 671.766 287.029 668.004 287.029C657.287 287.029 651.765 280.357 651.765 271.541C651.765 260.967 659.305 255.094 668.69 255.094C672.324 255.094 675.086 255.823 676.33 256.466L674.9 262.024C673.469 261.424 671.495 260.881 669.005 260.881C663.44 260.881 659.119 264.239 659.119 271.126C659.119 277.327 662.796 281.242 669.062 281.242C671.18 281.242 673.526 280.785 674.9 280.228L675.958 285.701Z" fill="#10384D"></path>
    <path d="M696.861 261.467H688.534V255.58H712.37V261.467H703.9V286.558H696.861V261.467Z" fill="#10384D"></path>
    <path d="M725.776 256.009C728.022 255.637 731.385 255.366 735.119 255.366C739.726 255.366 742.945 256.052 745.148 257.795C746.994 259.267 747.995 261.424 747.995 264.282C747.995 268.24 745.191 270.94 742.516 271.912V272.055C744.676 272.927 745.878 274.998 746.65 277.842C747.623 281.328 748.582 285.372 749.183 286.572H742.001C741.5 285.701 740.756 283.171 739.84 279.356C739.01 275.498 737.68 274.441 734.818 274.398H732.701V286.572H725.748V256.023L725.776 256.009ZM732.729 269.34H735.491C738.982 269.34 741.056 267.583 741.056 264.882C741.056 262.024 739.125 260.61 735.906 260.567C734.203 260.567 733.245 260.695 732.729 260.796V269.354V269.34Z" fill="#10384D"></path>
    <path d="M769.785 255.594V286.572H762.746V255.594H769.785Z" fill="#10384D"></path>
    <path d="M808.315 285.701C807.027 286.344 804.123 287.029 800.36 287.029C789.644 287.029 784.121 280.357 784.121 271.541C784.121 260.967 791.661 255.094 801.047 255.094C804.681 255.094 807.442 255.823 808.687 256.466L807.256 262.024C805.825 261.424 803.851 260.881 801.361 260.881C795.796 260.881 791.475 264.239 791.475 271.126C791.475 277.327 795.152 281.242 801.419 281.242C803.536 281.242 805.882 280.785 807.256 280.228L808.315 285.701Z" fill="#10384D"></path>
    <path d="M575.679 232.518C574.392 233.161 571.487 233.847 567.725 233.847C557.008 233.847 551.486 227.189 551.486 218.358C551.486 207.785 559.026 201.898 568.411 201.898C572.045 201.898 574.807 202.641 576.051 203.284L574.621 208.842C573.19 208.242 571.216 207.685 568.726 207.685C563.161 207.685 558.84 211.043 558.84 217.944C558.84 224.145 562.517 228.046 568.783 228.046C570.901 228.046 573.247 227.589 574.621 227.032L575.679 232.504V232.518Z" fill="#10384D"></path>
    <path d="M615.139 217.573C615.139 227.732 608.972 233.89 599.916 233.89C590.859 233.89 585.337 226.946 585.337 218.13C585.337 208.857 591.274 201.912 600.431 201.912C609.587 201.912 615.153 209.042 615.153 217.587L615.139 217.573ZM592.719 218.001C592.719 224.06 595.581 228.332 600.259 228.332C604.938 228.332 607.713 223.831 607.713 217.816C607.713 212.257 605.052 207.471 600.216 207.471C595.38 207.471 592.719 211.971 592.719 218.001Z" fill="#10384D"></path>
    <path d="M655.971 217.573C655.971 227.732 649.805 233.89 640.748 233.89C631.692 233.89 626.169 226.946 626.169 218.13C626.169 208.857 632.107 201.912 641.264 201.912C650.42 201.912 655.986 209.042 655.986 217.587L655.971 217.573ZM633.566 218.001C633.566 224.06 636.428 228.332 641.106 228.332C645.785 228.332 648.56 223.831 648.56 217.816C648.56 212.257 645.899 207.471 641.063 207.471C636.227 207.471 633.566 211.971 633.566 218.001Z" fill="#10384D"></path>
    <path d="M668.419 202.412H675.458V227.503H687.791V233.39H668.419V202.412Z" fill="#10384D"></path>
    <path d="M706.805 202.412V233.39H699.766V202.412H706.805Z" fill="#10384D"></path>
    <path d="M720.711 233.39V202.412H728.895L735.333 213.772C737.179 217.03 739.01 220.902 740.398 224.388H740.541C740.083 220.302 739.94 216.115 739.94 211.486V202.427H746.378V233.404H739.01L732.386 221.459C730.54 218.158 728.523 214.158 727.007 210.528L726.863 210.571C727.049 214.658 727.135 219.03 727.135 224.074V233.404H720.697L720.711 233.39Z" fill="#10384D"></path>
    <path d="M786.21 231.961C784.05 232.704 779.958 233.719 775.852 233.719C770.186 233.719 766.094 232.29 763.247 229.532C760.385 226.874 758.826 222.816 758.869 218.273C758.912 207.985 766.409 202.098 776.581 202.098C780.587 202.098 783.663 202.87 785.194 203.613L783.721 209.214C782.018 208.485 779.9 207.885 776.495 207.885C770.644 207.885 766.237 211.186 766.237 217.901C766.237 224.617 770.243 228.06 775.995 228.06C777.611 228.06 778.899 227.875 779.443 227.603V221.116H774.65V215.644H786.196V231.961H786.21Z" fill="#10384D"></path>
    <path d="M518.665 205.213H497.49L491.009 212.9L508.178 233.276L524.946 212.843L518.651 205.199L518.665 205.213ZM512.756 213.872L508.178 227.203L503.643 213.872H512.756ZM504.53 211.957L508.006 208.299L511.74 211.957H504.53ZM509.566 207.128H516.505L513.901 211.386L509.551 207.128H509.566ZM502.441 211.371L499.694 207.128H506.475L502.441 211.371ZM500.538 211.957H494.314L497.834 207.771L500.538 211.957ZM501.611 213.872L506.547 228.36L494.343 213.872H501.611ZM514.788 213.872H521.641L509.852 228.218L514.774 213.872H514.788ZM515.804 211.957L518.322 207.813L521.727 211.957H515.789H515.804Z" fill="#10384D"></path>
    <path d="M518.665 258.367H497.49L491.009 266.054L508.178 286.429L524.946 265.997L518.651 258.352L518.665 258.367ZM512.756 267.04L508.178 280.371L503.643 267.04H512.756ZM504.53 265.125L508.006 261.467L511.74 265.125H504.53ZM509.566 260.295H516.505L513.901 264.553L509.551 260.295H509.566ZM502.441 264.539L499.694 260.295H506.475L502.441 264.539ZM500.538 265.125H494.314L497.834 260.938L500.538 265.125ZM501.611 267.04L506.547 281.528L494.343 267.04H501.611ZM514.788 267.04H521.641L509.852 281.385L514.774 267.04H514.788ZM515.804 265.125L518.322 260.981L521.727 265.125H515.789H515.804Z" fill="#10384D"></path>
    <path d="M998 354H0V0H998V354ZM7.66867 346.341H990.317V7.65869H7.66867V346.341Z" fill="#10384D"></path>
  </g>
  <defs>
    <clipPath id="clip0_594_3602">
      <rect width="998" height="354" fill="white"></rect>
    </clipPath>
  </defs>
</svg>
