<?xml version="1.0" encoding="UTF-8"?>
<svg xmlns="http://www.w3.org/2000/svg" width="1961" height="1305" viewBox="0 0 1961 1305" fill="none">
  <g clip-path="url(#clip0_648_113)">
    <path d="M1295.2 0.0685395C1503.99 3.32307 1771.13 62.0418 1895.96 245.495C2018.02 424.837 1952.23 632.99 1830.68 791.229C1615.73 1071.08 1219.03 1247 874.617 1292.39C654.9 1321.34 386.08 1306.54 195.387 1183.59C43.1414 1085.4 -28.8524 932.613 10.7253 752.654C12.3701 745.152 14.5974 735.593 16.8248 728.331C17.236 726.995 16.1394 726.001 18.5723 726.412C5.20843 805.686 18.1612 886.535 57.9102 956.182C158.654 1132.82 400.403 1196.81 591.096 1202.16C851.932 1209.49 1116.61 1134.43 1340.64 1004.73L1355.96 1004.01C1356.75 1001.75 1358.8 993.49 1360.58 992.599C1362.37 992.325 1361.89 993.079 1361.47 994.312C1360.48 997.532 1358.7 1000.62 1358.49 1004.08H1399.99C1401.6 1002.33 1406.23 989.344 1405.34 988.454L1383.13 989.276C1383.13 988.385 1382.89 987.563 1383.51 986.775C1385.19 984.48 1402.97 987.563 1404.92 985.199C1406.5 983.315 1408.04 974.065 1409.41 971.222L1393.79 972.044C1393.44 971.222 1395.71 970.4 1395.84 970.4H1411.88C1413.49 966.734 1414.31 960.156 1416.13 956.97C1417.02 955.429 1418.15 955.874 1418.46 955.634L1402.01 1004.11H1420.93L1427.09 986.844L1432.51 1004.01L1449.71 1003.7L1461.6 972.044H1475.17L1464.48 1004.08H1483.39L1494.15 972.489C1496.07 969.509 1507.45 972.284 1508.82 971.119C1509.44 970.571 1512.73 957.621 1513.82 955.6H1448.48L1441.9 972.866L1435.63 955.703L1418.49 955.6C1430.83 944.843 1446.73 935.319 1459.99 925.179C1463.45 922.541 1467.01 917.505 1471.5 916.957C1474.83 916.546 1488.5 917.71 1489.87 916.82C1492.99 911.441 1496.38 893.832 1501.93 891.503C1503.51 890.852 1503.1 892.531 1503.37 893.319C1506.18 901.027 1507.83 909.18 1510.67 916.854L1533.59 916.58L1560.67 845.049L1554.91 844.226C1571.97 827.063 1589.45 810.242 1605.49 792.051C1607.82 789.413 1610.9 786.124 1612.48 783.007C1693 776.943 1769.35 742.034 1803.34 665.227C1817.63 632.921 1825.96 593.764 1804.68 562.521C1803.82 561.253 1802.52 558.478 1800.74 558.65C1791.55 538.163 1773.91 527.783 1754.92 518.567C1750.5 516.409 1753.59 515.929 1753.83 513.84C1754.85 504.864 1757.22 495.923 1757.94 486.741C1758.11 484.412 1757.83 482.082 1757.94 479.753L1866.49 465.433C1871.6 442.411 1873.14 416.786 1864.13 394.552C1861.76 388.729 1857.24 379.239 1851.66 376.224C1835.31 342.069 1791.83 330.078 1758.35 326.927C1752.01 326.344 1745.53 326.241 1739.16 325.967C1684.61 178.999 1540.65 98.8351 1396.39 60.1233C1378.64 55.3614 1359.08 50.0171 1341.46 46.8311C1312.37 41.5896 1272.38 33.0935 1242.84 34.3268C1242.47 34.3268 1242.57 32.9222 1241.95 32.7852C1230.85 30.2158 1202.82 30.2843 1191.07 31.038C1190.66 31.038 1191.1 29.5992 1189.53 29.4279C1162.18 26.0706 1127.91 32.1 1099.82 29.4621C1024.12 33.4018 946.816 41.2812 873.383 58.6844C869.888 58.5817 850.082 64.3028 848.711 63.6176C848.334 63.4463 847.683 62.5556 847.889 62.3843C881.299 53.9568 914.503 44.7413 948.187 37.3073C1048.42 15.1764 1150.74 1.88423 1253.64 0.787963L1255.63 -0.0684935C1268.75 0.0685395 1281.94 -0.274043 1295.1 -0.0684935L1295.2 0.0685395ZM1581.29 892.359H1595.27C1592.7 896.47 1578.11 899.382 1575.5 895.922C1571.36 890.372 1579.37 872.935 1584.21 868.55C1590.1 863.205 1604.25 859.54 1601.07 871.839L1628.17 867.728C1631.46 844.398 1611.41 841.657 1593.36 844.021C1574.34 846.487 1558.57 860.259 1551.58 877.868C1538.05 911.989 1561.35 923.397 1591.85 915.621C1596.82 914.353 1612 908.598 1614.39 904.452C1617.51 899.074 1621.9 885.302 1624.09 878.827C1624.47 877.765 1626.25 873.175 1625.74 872.661L1589.28 873.586C1587.26 874.271 1583.35 889.687 1581.36 892.359H1581.29Z" fill="#10384D"></path>
    <path d="M325.188 335.286C324.88 333.881 325.634 333.641 326.456 332.853C331.288 328.126 341.259 321.685 347.153 317.368C609.326 124.529 1000.89 15.9643 1324.16 74.2376C1476.78 101.747 1641.4 176.293 1706.23 326.241C1696.05 325.967 1685.94 327.612 1675.8 328.365C1644.79 283.453 1603.64 246.968 1557.34 218.294C1501.49 183.693 1437.17 160.842 1373.02 146.317C1161.19 98.3211 927.695 134.669 727.168 217.437C547.646 291.503 375.08 411.579 273.48 579.855L239.282 674.648L237.638 677.114H222.423L346.536 335.32H325.154L325.188 335.286Z" fill="#10384D"></path>
    <path d="M227.769 1007.4C237.672 1006.23 249.357 998.354 252.03 988.522C253.572 989.207 251.927 992.53 252.064 994.552C253.263 1011.95 278.004 1009.63 289.003 1003.66C372.99 1098.35 498.611 1146.01 621.662 1165.02C655.414 1170.23 690.16 1173.72 724.255 1175.06C736.454 1175.54 748.722 1174.24 760.852 1175.85L750.572 1177.49C568.514 1194.24 343.692 1174.13 191.721 1063.96C40.6057 954.367 7.29873 783.726 84.9807 616.546C107.528 568.036 147.209 504.556 184.182 465.912C184.833 465.227 187.883 461.767 188.705 462.658L79.3611 767.488H409.004L435.321 691.092H451.769L418.77 781.363L210.156 782.39C209.436 803.939 210.739 825.453 214.165 846.727C205.359 871.359 194.907 895.443 187.06 920.348H236.37C242.435 936.004 251.104 950.427 259.842 964.678C261.145 968.789 257.478 973.723 256.895 977.834L255.456 967.385C251.104 954.127 227.324 960.259 216.735 959.06L200.185 1007.43C208.922 1006.68 219.202 1008.43 227.735 1007.43L227.769 1007.4ZM113.079 920.314H139.396L149.265 893.216H164.89L155.844 920.314H180.927L208.477 847.995H182.16C181.578 851.078 174.142 871.839 172.703 871.839H158.311C157.831 868.241 167.083 849.399 165.712 848.029L139.499 848.954L113.113 920.348L113.079 920.314Z" fill="#10384D"></path>
    <path d="M1439.88 732.956L1439.05 733.778C1438.37 732.716 1436.04 731.722 1436.59 729.667C1438.2 730.078 1438.92 732.031 1439.88 732.956Z" fill="#10384D"></path>
    <path d="M1208.89 686.947L1184.52 752.551L852.926 753.476L999.655 346.762L1002.09 345.906C1108.31 346.077 1214.4 344.501 1320.66 345.152L1296.3 410.757L1061.03 413.052L1024.74 514.388L1241.75 513.566L1218.65 579.204L1001.44 580.232L962.27 686.947H1208.89Z" fill="#10384D"></path>
    <path d="M1479.35 345.152C1471.81 366.837 1464.58 388.9 1456.12 410.277C1440.63 449.366 1419.66 483.418 1388.51 511.955H1335.5L1363.46 485.268C1380.8 465.878 1397.04 444.981 1406.19 420.315L1370.04 420.726L1396.36 345.152H1479.38H1479.35Z" fill="#10384D"></path>
    <path d="M1236.02 688.591L1203.44 779.821C1100.19 780.609 996.879 778.656 893.6 779.752C891.065 779.752 888.837 780.609 886.267 780.643C872.424 780.814 858.546 780.437 844.702 780.609C846.107 777.526 848.609 766.426 851.658 765.809L1193.5 765.056L1221.15 688.591H1235.96H1236.02Z" fill="#10384D"></path>
    <path d="M1347.8 347.619L1315.66 437.923L1080.32 437.958L1056.4 502.089H1042.83L1070.04 424.117L1304.52 423.089L1332.21 347.619H1347.8Z" fill="#10384D"></path>
    <path d="M1269.71 516.066L1236.71 606.337L1019.5 606.405L993.932 675.47H980.774C980.774 675.47 979.198 674.305 979.849 673.757L1009.25 592.599L1226.43 591.709L1254.12 516.101H1269.74L1269.71 516.066Z" fill="#10384D"></path>
    <path d="M925.262 345.974L900.899 412.401L667.133 412.915L630.16 515.244L847.169 514.422L824.039 579.581L606.858 581.089L605.077 583.418L568.035 686.09L568.103 688.591L814.307 687.803L790.492 753.134L458.348 754.333L604.802 346.899L925.262 345.974Z" fill="#10384D"></path>
    <path d="M841.447 690.235L809.373 780.609H450.946C452.111 777.971 454.03 769.166 455.469 767.454C456.12 766.666 456.943 766.563 457.902 766.597C571.324 766.46 684.849 767.316 798.168 765.706L825.821 690.235H841.447Z" fill="#10384D"></path>
    <path d="M952.401 348.441L920.397 438.437L685.774 439.602L663.056 502.911H647.43L675.494 424.974L910.459 424.802L936.776 348.441H952.401Z" fill="#10384D"></path>
    <path d="M874.308 516.889L842.132 607.159L624.917 607.193L599.354 676.292H584.962L614.671 593.387L831.886 592.531L859.916 516.889H874.308Z" fill="#10384D"></path>
    <path d="M1507.28 346.796C1486.68 400.616 1472.33 458.341 1435.73 504.11C1425.69 516.683 1414.28 528.194 1402.46 539.054H1313.26L1319.02 532.887L1329.33 525.111L1392.45 524.117C1407.8 510.825 1422.26 495.1 1433.98 478.519C1461.94 438.985 1475.58 391.949 1491.69 346.796H1507.31H1507.28Z" fill="#10384D"></path>
    <path d="M1387.28 432.236L1379.05 447.036H1361.78L1366.72 432.236H1387.28Z" fill="#10384D"></path>
    <path d="M368.741 688.591C387.074 688.591 405.475 688.591 423.807 688.591L400.3 754.367L96.6655 755.121L243.394 347.584H328.478C326.902 354.436 324.263 361.082 321.933 367.728C285.234 471.736 244.662 574.648 209.265 679.102C208.271 681.979 207.62 684.823 206.798 687.735C206.764 687.872 204.947 688.591 206.387 689.379L368.741 688.557V688.591Z" fill="#10384D"></path>
    <path d="M368.741 688.591L206.387 689.413C204.948 688.625 206.764 687.906 206.798 687.769C207.655 689.139 209.916 688.591 211.321 688.591C263.783 689.139 316.314 688.488 368.741 688.591Z" fill="#10384D"></path>
    <path d="M1759.65 437.17C1759.51 435.525 1759.99 433.504 1759.65 431.997C1759.51 431.414 1758.28 431.414 1758.11 430.763C1757.39 428.16 1756.63 422.233 1755.5 420.383C1754.37 418.533 1743.03 407.194 1741.39 406.577C1738.64 405.515 1735.01 404.796 1731.96 403.699C1724.56 401.027 1719.63 399.143 1710.79 398.561C1674.09 396.128 1624.91 402.432 1605.83 438.266C1591.92 464.439 1597.67 482.082 1624.88 493.456C1669.97 512.264 1766.47 515.484 1789.43 563.172C1805.43 596.471 1784.9 648.098 1764.93 676.19C1732.51 721.822 1678.61 745.391 1624.3 753.373C1574.41 760.705 1481.1 762.52 1445.22 720.657C1427.64 700.136 1424.18 671.942 1428.47 645.94L1515.54 632.716C1515.84 633.607 1514.71 634.497 1514.71 634.771V647.927C1514.71 704.761 1616.79 697.224 1651.81 685.542C1676.79 677.217 1700.71 654.915 1705.37 628.16C1705.68 626.378 1705.75 619.321 1705.37 617.711C1705.24 617.094 1704.04 617.094 1703.83 616.512C1698.04 601.13 1689.64 596.025 1675.22 590.236C1636.36 574.614 1593.01 571.702 1553.95 555.498C1541.54 548.783 1523.86 538.334 1516.19 525.693C1506.08 509.043 1508.61 478.759 1513.86 460.602C1530.96 401.336 1580.54 363.172 1638.66 347.893C1684.64 335.765 1788.54 330.318 1826.64 362.487C1849.36 381.671 1849.91 412.298 1845.93 439.636C1817.29 443.439 1788.61 446.968 1760.03 451.147C1757.9 451.455 1759.17 448.989 1759.65 447.893C1760.06 447.79 1760.4 447.447 1760.47 447.07C1760.78 444.912 1760.68 440.287 1760.47 438.026C1760.44 437.649 1760.03 437.307 1759.65 437.204V437.17Z" fill="#10384D"></path>
    <path d="M1800.77 558.786C1802.59 558.615 1803.85 561.356 1804.71 562.658C1825.99 593.867 1817.66 633.058 1803.37 665.364C1769.38 742.137 1693.07 777.046 1612.51 783.144C1557.07 787.323 1472.81 785.713 1439.05 733.846L1439.88 733.024C1477.81 769.372 1545.72 772.592 1595.65 769.167C1683.34 763.137 1764.17 727.029 1796.66 641.417C1806.84 614.593 1813.21 586.638 1800.77 558.821V558.786Z" fill="#10384D"></path>
    <path d="M1720.21 425.659C1698.55 423.295 1667.03 426.755 1647.84 437.547C1631.97 446.488 1623.85 459.712 1620.32 477.423C1614.26 474.203 1610.04 469.852 1610.49 462.521C1613.4 415.347 1675.97 407.879 1712.36 411.716C1726.34 413.189 1743.58 416.82 1746.49 433.059C1741.28 430.729 1736.28 429.564 1730.87 428.126C1727.1 427.132 1724.73 426.173 1720.18 425.659H1720.21Z" fill="#10384D"></path>
    <path d="M1758.01 479.89H1755.54L1757.22 464.302L1857.45 451.113C1859.54 436.553 1861.66 421.959 1860.74 407.159C1860.15 397.91 1855.8 384.892 1851.69 376.327C1857.28 379.342 1861.8 388.831 1864.16 394.655C1873.21 416.889 1871.63 442.48 1866.53 465.536L1757.97 479.856L1758.01 479.89Z" fill="#10384D"></path>
    <path d="M1693.07 621.205C1689.68 622.336 1688.1 618.704 1686.7 617.951C1681.59 615.21 1672.54 612.641 1666.75 610.962C1629.3 599.862 1537.67 587.495 1517.45 549.057C1516.87 547.927 1515.98 547.207 1516.32 545.666L1535.79 559.472C1569.88 578.348 1609.25 583.418 1646.37 593.559C1662.57 597.978 1687.86 603.151 1693.04 621.239L1693.07 621.205Z" fill="#10384D"></path>
    <path d="M1539.35 631.928L1536.88 655.326L1538.12 668.893C1529.48 666.906 1523.79 636.758 1528.01 633.744C1528.49 633.401 1538.94 631.517 1539.32 631.928H1539.35Z" fill="#10384D"></path>
    <path d="M1730.9 428.125L1730.49 474.956C1728.98 473.997 1729.46 472.627 1729.22 471.291C1727.51 460.637 1726.58 449.64 1724.25 439.294C1723.33 435.217 1720.55 430.215 1720.21 425.693C1724.77 426.207 1727.13 427.166 1730.9 428.16V428.125Z" fill="#10384D"></path>
    <path d="M1759.65 447.858C1759.79 447.516 1760.16 447.242 1760.47 447.036C1760.4 447.413 1760.06 447.756 1759.65 447.858Z" fill="#10384D"></path>
    <path d="M1760.47 437.992C1760.1 437.923 1759.68 437.547 1759.65 437.17C1760.03 437.272 1760.44 437.615 1760.47 437.992Z" fill="#10384D"></path>
    <path d="M419.73 917.025L443.648 850.53L463.18 850.564L474.796 885.782L487.132 850.461H506.87L482.061 916.066L462.563 916.922L452.18 881.705L438.611 917.025H419.73Z" fill="#10384D"></path>
    <path d="M1013.22 915.381L1038 848.954H1057.53L1067.47 884.172L1081.45 848.851H1100.36L1075.73 915.038C1072.68 915.347 1057.57 916.237 1056.37 914.627C1052.56 904.555 1051.05 891.811 1046.98 882.116C1046.63 881.294 1046.39 880.198 1045.3 880.129L1031.73 915.449H1013.22V915.381Z" fill="#10384D"></path>
    <path d="M1363.43 914.559L1388.07 848.372C1391.25 848.098 1406.02 847.138 1407.43 848.817L1418.49 883.349L1432.06 848.029H1450.57L1425.79 914.456C1422.5 914.148 1408.11 915.586 1406.57 913.771L1396.29 879.238L1382.31 914.559H1363.39H1363.43Z" fill="#10384D"></path>
    <path d="M1469.48 913.736L1494.12 848.406L1512.93 848.132C1514.41 849.057 1521.02 876.875 1522.87 881.328C1523.21 882.15 1523.45 883.247 1524.55 883.315L1537.26 848.783C1537.91 848.098 1548.95 847.241 1551.21 847.138C1552.41 847.07 1557.17 846.453 1556.52 848.303L1531.85 913.599H1512.32L1502.34 878.382L1488.36 913.702H1469.45L1469.48 913.736Z" fill="#10384D"></path>
    <path d="M1087.24 915.381L1111.23 850.222L1111.88 849.228C1113.35 848.235 1143.68 848.475 1147.69 848.817C1175.1 851.181 1160.43 887.906 1149.3 900.616C1142.31 908.598 1129.66 915.381 1118.87 915.381H1087.21H1087.24ZM1112.7 899.759C1126.85 901.404 1133.5 896.95 1138.57 884.137C1143.88 870.708 1144.43 860.739 1126.24 864.439L1112.67 899.759H1112.7Z" fill="#10384D"></path>
    <path d="M572.627 878.382C569.748 882.63 563.923 905.138 561.353 907.193C559.366 908.769 548.572 913.36 545.693 914.353C532.638 918.704 506.355 921.787 501.455 904.727C496.555 887.666 512.044 862.932 527.121 854.71C541.273 846.967 578.966 842.137 575.814 867.625C571.462 867.625 558.303 871.941 555.014 871.051C554.26 870.845 553.849 866.563 552.684 865.432C547.989 861.013 537.881 864.953 533.597 868.516C527.429 873.654 517.663 892.805 523.66 899.759C529.108 906.063 548.777 902.191 548.777 892.325H535.619L540.553 878.348H572.627V878.382Z" fill="#10384D"></path>
    <path d="M987.559 848.2C1021.48 843.952 1026.69 865.603 1012.03 891.537C1001.78 909.66 983.619 918.498 962.785 916.066C934.549 912.777 945.96 879.341 958.193 864.816C964.875 856.902 977.177 849.468 987.559 848.166V848.2ZM985.88 863.822C975.292 865.638 965.355 883.795 966.348 893.627C967.548 905.549 983.584 901.129 989.375 894.415C996.606 886.021 1006.51 860.293 985.88 863.822Z" fill="#10384D"></path>
    <path d="M242.984 850.461C251.722 850.29 260.528 850.598 269.3 850.461C269.849 851.044 265.599 863.411 264.777 864.439C264.023 865.364 263.372 865.192 262.344 865.295C252.818 866.494 240.962 864.233 231.162 865.364C229.723 865.843 227.392 873.14 227.358 875.127H257.787C257.547 877.32 254.086 887.974 252.852 888.694L222.115 889.207C220.471 889.79 217.661 899.965 216.667 902.26H251.208L246.273 917.059H191.207L215.879 851.318C223.966 851.078 232.121 851.626 240.242 851.386C241.716 851.352 242.881 850.496 243.018 850.496L242.984 850.461Z" fill="#10384D"></path>
    <path d="M323.544 850.461V917.025H302.162L302.984 906.337H280.368C278.518 906.337 274.029 917.025 273.378 917.025H251.996L300.483 850.461H323.51H323.544ZM289.826 891.537H303.395C303.875 891.537 304.663 890.167 304.629 889.482L305.451 869.338L289.826 891.537Z" fill="#10384D"></path>
    <path d="M946.542 868.447L926.942 872.661C928.107 860.807 915.12 861.972 908.095 867.385C902.475 871.736 896.41 885.131 895.759 892.051C894.217 908.598 919.3 899.519 921.664 888.18L937.598 893.181C933.041 902.74 922.35 912.058 912.104 914.935C898.912 918.67 877.461 918.121 875.165 900.89C872.869 883.658 886.062 862.657 900.042 854.401C915.805 845.083 948.324 842.239 946.508 868.413L946.542 868.447Z" fill="#10384D"></path>
    <path d="M1271.35 847.995C1271.97 848.577 1266.52 863.48 1265.6 864.028C1258.71 864.918 1251.2 864.473 1244.63 866.049L1225.71 914.524H1205.56L1224.48 865.227H1203.92C1205.94 859.403 1207.62 853.134 1210.91 847.961H1271.32L1271.35 847.995Z" fill="#10384D"></path>
    <path d="M403.282 850.461C404.584 851.763 398.348 864.13 398.245 866.803L377.068 867.008L358.873 917.025H338.313L356.406 866.905H335.846C338.69 861.732 339.478 855.258 342.836 850.461H403.248H403.282Z" fill="#10384D"></path>
    <path d="M432.888 850.461L408.216 917.025H387.656L412.328 850.461H432.888Z" fill="#10384D"></path>
    <path d="M1300.96 847.995L1276.29 914.559H1255.73L1280.4 847.995H1300.96Z" fill="#10384D"></path>
    <path d="M1482.64 847.995L1456.73 914.559H1437.41L1462.49 847.995H1482.64Z" fill="#10384D"></path>
    <path d="M1202.31 848.817L1177.64 914.559H1157.11L1181.75 848.817H1202.31Z" fill="#10384D"></path>
    <path d="M633.45 884.96C633.45 889.927 630.092 894.072 629.338 898.937H602.199L607.133 884.96H633.45Z" fill="#10384D"></path>
    <path d="M225.645 891.64C225.953 891.914 227.735 899.416 227.392 899.759H219.991C220.676 897.395 222.389 888.933 225.645 891.64Z" fill="#10384D"></path>
    <path d="M242.984 850.461C242.984 850.461 241.682 851.284 240.208 851.352C232.121 851.592 223.966 851.044 215.845 851.284L242.984 850.461Z" fill="#10384D"></path>
    <path d="M1524.55 875.093C1524.55 875.093 1524 875.059 1523.76 875.093C1523.52 873.62 1523.79 872.215 1525.37 871.804C1525.47 872.455 1524.72 874.888 1524.55 875.093Z" fill="#10384D"></path>
    <path d="M1337.76 847.412C1364.73 844.158 1376.04 856.936 1365.69 882.733C1359.83 897.327 1347.94 910.482 1332.18 914.148C1270.91 928.502 1295.41 852.483 1337.73 847.412H1337.76ZM1335.26 863C1320.9 865.741 1304.04 903.802 1329.26 899.725C1343.14 897.464 1360.82 858.135 1335.26 863Z" fill="#10384D"></path>
    <path d="M766.609 916.203L792.481 849.605C805.879 850.873 821.984 847.995 835.039 849.879C858.032 853.168 838.192 886.022 822.498 885.816C822.361 888.146 824.999 887.974 826.507 890.441C830.174 896.505 829.968 908.289 830.756 915.381L808.517 915.86C806.838 914.661 805.707 895.922 804.234 892.188C803.103 889.345 798.237 887.426 796.832 890.098C792.926 897.635 790.836 908.289 787.203 916.203H766.644H766.609ZM801.972 875.95H813.897C820.476 875.95 828.049 864.884 819.482 862.966C817.769 862.589 807.386 862.418 806.838 863.274L802.007 875.95H801.972Z" fill="#10384D"></path>
    <path d="M727.169 849.639L726.346 916.203H704.964L705.786 905.514H683.17C681.32 905.514 676.831 916.203 676.18 916.203H654.798L704.518 849.639H727.134H727.169ZM707.431 890.715L709.076 867.693C704.416 873.14 699.687 879.889 695.746 885.987C694.821 887.426 693.416 888.899 693.45 890.681H707.431V890.715Z" fill="#10384D"></path>
    <path d="M778.945 849.639L754.307 916.203H733.748L758.419 849.639H778.945Z" fill="#10384D"></path>
    <path d="M1621.56 875.95C1622.69 877.012 1612.24 901.849 1610.35 904.589C1588.8 917.847 1542.06 925.007 1552.1 884.96C1558.85 858.033 1590.55 838.094 1617.44 848.406C1622.86 850.496 1628.14 862.041 1624.71 865.09C1623.92 865.775 1605.04 869.269 1604.32 868.516C1603.7 867.865 1605.07 862.144 1598.94 861.184C1585.23 858.992 1576.94 870.811 1573.28 882.287C1568.38 897.669 1574.51 903.596 1589.96 898.971C1595.41 897.327 1598.43 896.265 1598.56 889.893H1585.41L1590.34 875.915H1621.59L1621.56 875.95Z" fill="#10384D"></path>
    <path d="M161.601 851.284L153.377 874.305H175.17C178.905 867.042 181.51 859.129 183.805 851.284H204.365L179.282 917.025H159.956L169.002 890.749H146.798L137.751 917.025H117.191L142.274 851.284H161.601Z" fill="#10384D"></path>
    <path d="M849.636 959.745L846.347 981.122C849.362 979.273 859.437 959.745 860.739 959.745H873.486L871.841 981.945L884.177 959.745H897.335L873.486 1003.29H859.505L860.739 976.977C858.066 979.821 845.833 1003.29 844.291 1003.29H830.721C832.092 999.656 834.696 959.745 836.889 959.745H849.636Z" fill="#10384D"></path>
    <path d="M1337.11 958.923L1335.47 982.767C1341.57 975.607 1345.23 966.597 1350.68 958.923H1368.36C1366.03 963.925 1355.51 999.999 1353.59 1001.27C1351.81 1002.47 1345.37 1001.2 1342.87 1001.64L1351.5 972.866L1334.51 1001.51L1323.95 1001.64C1323.82 999.245 1327.48 972.078 1326.01 972.044L1315.73 1001.64H1304.21L1319.02 958.923H1337.11Z" fill="#10384D"></path>
    <path d="M664.7 1003.29C666.722 998.149 677.55 961.39 679.469 960.122C680.497 959.437 690.846 959.437 691.874 960.122C692.799 960.739 697.836 977.731 699.207 980.746C699.583 981.568 699.72 982.664 700.886 982.767C701.4 979.581 707.842 959.745 709.521 959.745H721.445L706.574 1003.22C706.094 1003.66 694.272 1003.46 693.484 1002.91C692.216 1002.09 686.699 984.069 686.117 981.088C682.587 982.904 678.955 1003.29 676.659 1003.29H664.734H664.7Z" fill="#10384D"></path>
    <path d="M594.009 1003.29C597.196 998.56 607.03 961.904 608.915 960.67C609.531 960.293 621.148 960.362 621.97 960.944C623.341 961.835 628.035 979.821 629.337 982.767C630.468 982.664 630.64 981.568 631.017 980.746C633.689 974.887 635.677 966.837 637.561 960.567H650.72L636.67 1003.22H622.861C622.073 1002.5 617.55 986.021 616.248 983.144C615.871 982.321 615.699 981.225 614.569 981.122L607.167 1003.32H594.009V1003.29Z" fill="#10384D"></path>
    <path d="M1125.86 1002.47L1140.32 958.855C1147.72 960.019 1170.51 956.285 1175.06 961.903C1180.92 969.166 1170.4 982.424 1162.04 982.767C1167.94 987.357 1167.01 995.785 1168.62 1002.47H1153C1151.8 999.656 1150.7 986.741 1148.92 985.61C1147.58 984.754 1145.39 984.548 1144.67 986.364C1142.55 991.571 1141.45 997.566 1138.61 1002.47H1125.86ZM1161.94 968.858C1161.26 967.864 1151.15 967.556 1150.6 968.036C1150.29 968.31 1149.16 974.99 1148.06 976.155C1154.26 976.36 1162.42 977.422 1161.97 968.858H1161.94Z" fill="#10384D"></path>
    <path d="M1014.05 1002.47L1028.2 961.15L1029.64 959.3C1032.34 957.964 1058.04 958.786 1061.51 960.362C1069.01 963.788 1063.53 976.018 1058.39 979.821C1056.4 981.294 1051.33 982.493 1051.05 982.767C1050.3 983.486 1053.49 985.85 1054.17 987.46C1056.19 992.188 1055.78 997.703 1057.63 1002.5H1041.19C1040.84 999.588 1039.13 987.289 1037.59 985.987C1036.05 984.685 1034.23 984.788 1033.13 986.638C1031.15 989.927 1029.53 998.491 1028.06 1002.5H1014.08L1014.05 1002.47ZM1050.13 968.892C1041.46 966.186 1037.31 967.453 1037.11 976.977C1042.66 977.148 1052.15 976.84 1050.13 968.892Z" fill="#10384D"></path>
    <path d="M764.964 978.656C765.684 979.341 759.687 996.641 759.002 997.361C756.774 999.69 743.342 1003.7 739.778 1004.04C704.586 1007.4 717.95 968.755 738.202 961.39C745.672 958.683 763.525 956.354 766.643 965.912C767.465 968.447 768.63 971.29 765.341 972.078C763.388 972.558 754.478 974.134 753.416 973.38C751.84 972.25 753.245 968.584 747.317 968.789C738.682 969.063 732.753 979.752 732.137 987.426C731.246 998.56 750.195 994.106 750.161 988.145L741.114 987.734L744.815 978.69H764.964V978.656Z" fill="#10384D"></path>
    <path d="M204.331 1004.11L219.099 961.767C235.856 961.972 259.088 955.257 252.235 980.917C249.939 989.55 240.242 1004.11 230.236 1004.11H204.331ZM221.601 994.243C230.819 995.237 234.519 992.736 237.603 984.377C239.385 979.547 242.195 972.558 235.102 971.29C234.04 971.119 229.688 970.982 229.105 971.359C228.077 972.01 222.355 991.366 221.601 994.243Z" fill="#10384D"></path>
    <path d="M1224.51 958.923C1223.89 960.191 1222.32 967.556 1221.98 967.864C1220.78 968.892 1202.96 966.905 1199.56 968.07C1197.78 968.687 1197.75 972.9 1196.58 974.545H1217.14C1217.18 975.881 1214.95 983.212 1214.57 983.452C1212.79 984.583 1198.47 982.596 1194.7 983.726C1192.33 984.445 1191.44 989.55 1190.83 991.777H1213.85L1210.56 1002.47H1173.56L1188.77 958.923H1224.55H1224.51Z" fill="#10384D"></path>
    <path d="M549.599 960.568C550.285 961.253 547.612 969.063 546.995 969.475C544.836 970.811 529.416 968.481 525.476 969.749C523.831 970.297 522.769 974.442 522.46 976.189H543.02C542.403 977.457 540.827 984.822 540.484 985.131C539.354 986.124 522.94 984.24 519.719 985.336C518.143 985.884 516.875 991.571 516.738 993.455H538.942C538.771 996.95 537.092 1001.09 535.242 1004.14H498.645L513.448 960.602H549.633L549.599 960.568Z" fill="#10384D"></path>
    <path d="M278.312 961.39C279.511 962.52 269.334 985.679 269.231 989.79C269.06 994.929 273.652 996.23 277.969 994.346C284.583 991.434 286.536 978.896 288.969 972.489C290.271 969.063 293.184 965.603 293.115 961.424H307.096C299.009 983.246 297.775 1007.02 267.998 1005C256.107 1004.18 253.434 998.594 256.176 987.357C258.163 979.17 262.652 969.475 265.565 961.424H278.312V961.39Z" fill="#10384D"></path>
    <path d="M1412.77 958.101C1412.5 959.506 1410.61 967.556 1410.23 967.864C1409.04 968.892 1391.22 966.905 1387.82 968.07C1386.08 968.652 1385.6 972.832 1385.67 974.545H1405.4C1405.44 975.881 1403.21 983.212 1402.83 983.452C1401.12 984.548 1385.49 982.904 1382.1 983.521L1379.09 991.777H1402.11C1401.7 992.942 1399.34 1001.64 1398.82 1001.64H1361.82L1376.62 958.101H1412.8H1412.77Z" fill="#10384D"></path>
    <path d="M1021.45 959.745C1021.82 960.088 1019.25 968.413 1018.88 968.652C1017.1 969.783 1000.1 968.07 996.502 968.721L993.487 975.333H1014.87C1014.22 976.909 1012.44 983.452 1011.61 984C1009.08 985.679 995.44 983.178 991.568 984.514C989.409 985.268 988.998 990.646 987.73 992.599H1010.76C1010.45 995.956 1008.91 999.656 1007.06 1002.47H970.459L985.263 959.745H1021.45Z" fill="#10384D"></path>
    <path d="M926.941 959.745L927.764 1002.47H913.783C913.44 1002.47 914.126 995.888 913.783 995.888H898.157C897.712 995.888 895.588 1003.29 893.634 1003.29H880.887C880.887 1001.33 882.463 999.656 883.491 998.08C891.989 985.028 902.612 972.421 911.693 959.711H926.907L926.941 959.745ZM914.605 986.021V972.044L905.559 985.576L914.605 985.987V986.021Z" fill="#10384D"></path>
    <path d="M588.252 960.568L589.897 1003.29H575.094C574.751 1003.29 575.436 996.71 575.094 996.71H560.702C559.057 996.71 556.624 1004.11 556.178 1004.11H542.198L543.192 1001.4L573.038 960.568H588.252ZM575.916 986.844C576.43 986.33 576.361 973.997 576.738 972.044L566.904 986.432C568.206 986.912 575.642 987.152 575.95 986.844H575.916Z" fill="#10384D"></path>
    <path d="M1260.66 958.923L1261.48 1001.64H1247.5C1247.16 1001.64 1247.85 995.066 1247.5 995.066H1231.88C1231.5 995.066 1229.34 1001.37 1228.01 1001.64C1226.77 1001.92 1217.11 1002.64 1215.84 1002.47C1214.71 1002.29 1214.4 1002.91 1214.64 1001.23L1245.45 958.889H1260.66V958.923ZM1248.36 985.199V971.222L1239.31 984.754L1248.36 985.165V985.199Z" fill="#10384D"></path>
    <path d="M462.391 973.62C461.946 974.134 449.781 976.635 449.335 976.189C448.273 975.127 451.22 969.851 443.202 970.4C438.644 970.708 436.143 973.174 433.881 976.772C430.283 982.561 425.246 995.339 436.588 994.312C443.476 993.661 445.84 986.09 446.526 986.021C448.582 985.85 454.681 989.79 457.559 989.344C452.248 1000.14 441.283 1005.93 429.29 1004.83C405.372 1002.67 416.919 972.249 431.209 964.233C439.021 959.848 455.743 956.388 460.986 965.74C461.911 967.385 463.453 972.318 462.391 973.62Z" fill="#10384D"></path>
    <path d="M351.436 973.654C351.059 974.168 339.82 976.361 338.826 976.258C338.004 976.155 338.621 971.496 334.474 970.605C324.571 968.481 318.198 981.773 317.889 989.858C317.615 996.744 327.347 995.34 331.356 991.811C333.069 990.304 334.2 987.015 336.256 986.912C337.25 986.844 345.68 989.858 345.748 990.578C334.954 1011.34 293.869 1012.13 306.753 980.335C312.51 966.083 327.758 957.176 343.178 961.15C347.393 962.246 353.561 970.639 351.471 973.654H351.436Z" fill="#10384D"></path>
    <path d="M1134.9 958.923C1133.67 960.328 1131.96 969.166 1131.55 969.509C1130.38 970.502 1119.28 968.31 1117.22 970.4C1114.17 973.483 1109.07 997.087 1106.15 1002.47H1093C1093.34 992.736 1102.42 979.786 1102.87 970.845C1102.93 969.132 1102.87 969.783 1101.63 969.577C1098.14 969.063 1093.54 971.29 1089.71 970.4L1093 958.889H1134.9V958.923Z" fill="#10384D"></path>
    <path d="M355.617 972.078C355.206 971.701 358.015 962.006 359.42 961.492L399.992 960.568C399.272 962.692 397.388 970.776 395.914 971.667C393.584 973.072 383.064 971.222 382.002 972.147L370.831 1004.11H358.084L368.775 972.078H355.617Z" fill="#10384D"></path>
    <path d="M980.362 959.745C978.649 961.527 977.621 969.166 976.285 970.057C974.229 971.427 965.32 969.749 962.373 970.502L951.613 1002.47H937.632L948.323 970.434H935.165L938.455 959.745H980.362Z" fill="#10384D"></path>
    <path d="M1313.3 958.923C1313.74 959.334 1310.73 968.755 1310.04 969.235C1307.98 970.605 1299.11 968.892 1296.13 969.714L1285.33 1001.68H1271.35L1282.04 969.646H1268.89L1272.18 958.957H1313.26L1313.3 958.923Z" fill="#10384D"></path>
    <path d="M486.309 960.568L475.618 992.599H496.178C496.315 996.71 493.882 1000.27 492.888 1004.11H458.348L473.562 960.568H486.309Z" fill="#10384D"></path>
    <path d="M672.102 960.568L657.299 1003.29H643.318L658.532 960.568H672.102Z" fill="#10384D"></path>
    <path d="M806.906 982.733C806.015 983.726 804.096 991.777 803.617 991.777H786.346L788.813 982.733H806.906Z" fill="#10384D"></path>
    <path d="M271.733 992.599C271.664 989.79 271.664 986.501 273.789 984.411C278.415 989.344 281.601 993.49 271.733 992.599Z" fill="#10384D"></path>
    <path d="M1406.19 1001.64C1408.9 996.641 1419.18 959.437 1421.1 958.204C1421.71 957.827 1432.51 957.895 1433.36 958.478C1434.74 959.403 1439.29 976.018 1440.7 979.101C1441.07 979.923 1441.25 981.02 1442.38 981.122C1443.3 978.245 1449.68 958.135 1451.01 958.135H1462.94L1448.03 1001.57C1445.67 1001.3 1436.35 1002.36 1435.08 1001.57C1434.05 1000.92 1428.91 981.396 1427.16 978.69C1425.04 981.396 1419.86 1001.71 1418.12 1001.71H1406.19V1001.64Z" fill="#10384D"></path>
    <path d="M1509.74 958.101C1510.29 958.615 1506.83 968.344 1506.32 968.652C1504.64 969.68 1495.32 968.07 1492.58 968.892L1481.71 1000.75L1467.8 1001.64L1478.49 968.79H1465.34L1468.62 958.101H1509.71H1509.74Z" fill="#10384D"></path>
    <path d="M236.267 974.648C238.494 978.176 232.121 994.552 224.891 991.777C226.707 988.385 229.003 976.6 231.024 974.511C232.189 973.312 235.719 973.791 236.267 974.648Z" fill="#10384D"></path>
  </g>
  <defs>
    <clipPath id="clip0_648_113">
      <rect width="1961" height="1305" fill="white"></rect>
    </clipPath>
  </defs>
</svg>
