<?xml version="1.0" encoding="UTF-8"?>
<svg xmlns="http://www.w3.org/2000/svg" width="1200" height="642" viewBox="0 0 1200 642" fill="none">
  <g clip-path="url(#clip0_599_469)">
    <path d="M422.96 439.987H387.56V556.505H411.689V515.082H425.047C438.906 515.082 450.177 512.248 456.606 507.998C465.373 502.08 470.799 490.661 470.799 476.826C470.799 461.657 464.705 451.238 456.272 446.321C451.012 442.987 441.745 440.07 422.876 440.07L422.96 439.987ZM439.324 490.328C436.151 492.328 429.222 492.995 423.294 492.995H411.689V462.49H424.212C431.977 462.49 438.071 463.157 441.745 466.408C444.417 468.908 445.753 473.159 445.753 477.493C445.753 483.577 443.582 487.911 439.324 490.328Z" fill="#10384D"></path>
    <path d="M483.239 439.987V556.505H547.777V533.585H507.535V439.987H483.239Z" fill="#10384D"></path>
    <path d="M557.796 439.987V506.331C557.796 523.667 558.798 535.585 565.727 545.587C571.989 554.838 584.93 559.422 598.789 559.422C612.649 559.422 624.755 554.505 631.851 545.587C638.614 537.002 640.618 524.667 640.618 506.497V439.987H616.489V509.164C616.489 514.915 616.322 522.333 614.319 527.167C611.647 533.585 606.053 535.919 599.123 535.919C592.194 535.919 586.85 533.252 584.429 527.001C582.592 522.416 582.091 515.915 582.091 509.498V439.987H557.796Z" fill="#10384D"></path>
    <path d="M768.19 556.505V439.987H733.792C721.352 488.161 717.428 506.831 714.924 520.75C712.085 506.581 707.66 487.911 695.053 439.987H659.152V556.505H682.446C682.446 496.412 682.279 480.91 681.945 466.741C687.873 492.662 692.047 508.664 703.903 556.505H724.441C738.134 501.663 742.976 481.41 746.065 466.741C745.397 493.995 745.397 519.916 745.397 556.505H768.023H768.19Z" fill="#10384D"></path>
    <path d="M867.126 468.575C867.126 457.489 861.198 448.905 854.102 444.821C848.675 441.654 839.073 439.987 828.136 439.987H787.644V556.505H827.802C841.495 556.505 850.929 554.505 856.94 550.421C864.872 545.17 870.132 535.585 870.132 523.333C870.132 508.164 862.868 497.913 850.595 494.579C862.2 489.161 867.126 480.743 867.126 468.491V468.575ZM811.772 461.657H827.468C832.895 461.657 837.404 462.157 839.658 464.824C841.829 467.158 842.83 469.908 842.83 473.409C842.83 477.993 840.994 481.493 838.071 483.827C836.068 485.327 832.144 486.327 827.635 486.327H811.772V461.74V461.657ZM838.656 533.085C836.652 534.252 832.227 535.085 827.218 535.085H811.689V507.164H827.385C832.645 507.164 836.819 507.998 839.324 509.998C842.83 512.498 844.751 515.915 844.751 521.25C844.751 526.834 842.58 530.834 838.656 533.168V533.085Z" fill="#10384D"></path>
    <path d="M910.123 439.987H885.661V556.505H910.123V439.987Z" fill="#10384D"></path>
    <path d="M929.159 439.987V556.505H953.287C953.287 505.997 953.287 492.995 953.12 481.91C961.553 499.58 967.147 510.331 990.19 556.505H1017.16V439.987H993.028C993.028 488.994 993.195 500.746 993.696 514.582C987.769 501.413 981.59 489.328 957.128 439.987H929.159Z" fill="#10384D"></path>
    <path d="M1080.28 460.99C1089.88 460.99 1095.8 466.408 1098.31 477.826L1121.1 470.575C1115.01 448.155 1102.23 437.236 1081.44 437.236C1048.88 437.236 1032.35 461.99 1032.35 499.663C1032.35 537.336 1049.38 559.256 1075.18 559.256C1087.46 559.256 1095.55 555.088 1101.48 545.587V556.672H1122.35V490.995H1078.36V513.082H1099.81C1099.48 518.833 1098.14 523 1096.14 526.25C1092.8 531.835 1086.7 535.835 1080.44 535.835C1065.75 535.835 1057.32 523.083 1057.32 498.329C1057.32 473.575 1065.25 460.99 1080.28 460.99Z" fill="#10384D"></path>
    <path d="M990.774 357.474H996.285L1005.3 371.726H1010.81L1001.29 357.057C1003.8 356.807 1005.89 355.973 1007.56 354.556C1009.23 353.14 1010.06 350.973 1010.06 347.972C1010.06 344.805 1009.14 342.388 1007.22 340.804C1005.3 339.221 1002.38 338.471 998.456 338.471H985.598V371.642H990.774V357.39V357.474ZM990.774 342.721H997.621C998.456 342.721 999.374 342.721 1000.21 342.888C1001.13 343.055 1001.88 343.221 1002.55 343.638C1003.21 343.971 1003.8 344.471 1004.22 345.138C1004.63 345.805 1004.88 346.722 1004.88 347.805C1004.88 349.139 1004.63 350.139 1004.13 350.889C1003.63 351.639 1002.96 352.139 1002.21 352.556C1001.38 352.89 1000.46 353.14 999.457 353.223C998.456 353.223 997.287 353.306 996.118 353.306H990.691V342.805L990.774 342.721Z" fill="#10384D"></path>
    <path d="M985.681 381.311C989.188 382.728 992.861 383.394 996.702 383.394C1000.54 383.394 1004.3 382.728 1007.72 381.311C1011.15 379.894 1014.15 377.893 1016.74 375.393C1019.33 372.809 1021.41 369.809 1022.92 366.392C1024.42 362.891 1025.17 359.14 1025.17 355.057C1025.17 350.973 1024.42 347.305 1022.92 343.888C1021.41 340.471 1019.33 337.47 1016.74 334.97C1014.15 332.47 1011.15 330.469 1007.72 329.052C1004.3 327.635 1000.63 326.885 996.702 326.885C992.778 326.885 989.104 327.635 985.681 329.052C982.175 330.469 979.169 332.47 976.581 334.97C973.993 337.47 971.906 340.471 970.403 343.888C968.9 347.305 968.148 351.056 968.148 355.057C968.148 359.057 968.9 362.891 970.403 366.392C971.906 369.892 973.993 372.893 976.581 375.393C979.169 377.977 982.258 379.894 985.681 381.311ZM973.241 355.057C973.241 351.639 973.826 348.472 974.995 345.555C976.163 342.638 977.833 340.054 979.921 337.887C982.008 335.72 984.512 334.053 987.351 332.803C990.19 331.553 993.279 330.969 996.702 330.969C1000.13 330.969 1003.05 331.553 1005.89 332.803C1008.72 334.053 1011.23 335.72 1013.32 337.887C1015.4 340.054 1017.07 342.555 1018.24 345.555C1019.41 348.472 1020 351.639 1020 355.057C1020 358.474 1019.41 361.724 1018.24 364.725C1017.07 367.642 1015.4 370.226 1013.32 372.393C1011.23 374.56 1008.72 376.227 1005.89 377.477C1003.05 378.727 999.958 379.31 996.702 379.31C993.446 379.31 990.273 378.727 987.351 377.477C984.512 376.227 982.008 374.56 979.921 372.393C977.833 370.226 976.163 367.642 974.995 364.725C973.826 361.724 973.241 358.557 973.241 355.057Z" fill="#10384D"></path>
    <path d="M385.473 321.384C385.473 324.552 386.892 327.219 389.48 328.636C390.232 329.052 391.651 329.886 394.323 329.886C398.581 329.886 406.178 327.969 419.87 319.718C423.544 317.551 455.604 297.797 455.27 284.045C455.103 279.545 453.099 275.877 449.593 273.71C441.745 268.793 428.971 272.71 425.047 274.46C396.076 287.546 385.473 309.716 385.389 321.468L385.473 321.384ZM444.083 282.462C444.083 282.462 444.834 282.878 444.834 284.212C444.75 285.545 441.411 291.463 427.969 301.631C414.444 311.883 401.419 318.217 396.076 319.217C397.412 310.883 406.262 294.213 429.388 283.795C431.977 282.628 436.485 281.628 439.992 281.628C441.661 281.628 443.164 281.878 444.083 282.462Z" fill="#10384D"></path>
    <path d="M746.066 301.215C748.487 301.215 751.576 300.381 755.5 298.214C760.342 295.464 765.602 290.963 770.361 285.545C780.213 274.294 787.059 260.125 779.879 253.874C772.783 247.623 759.591 256.124 749.656 267.376C744.897 272.793 741.14 278.544 738.969 283.712C735.379 292.463 737.55 296.881 740.054 299.048C741.39 300.214 743.311 301.215 745.982 301.215H746.066ZM757.504 274.294C763.682 267.293 769.359 263.625 772.282 262.542C771.614 265.626 768.691 271.71 762.513 278.711C756.335 285.712 750.658 289.379 747.736 290.463C748.403 287.379 751.326 281.378 757.504 274.377V274.294Z" fill="#10384D"></path>
    <path d="M970.57 19.1697C973.91 19.1697 976.665 17.4194 978.335 14.8357H1006.22V23.8371H1002.46C995.868 23.8371 990.524 29.1713 990.524 35.7557V52.675H1034.27V35.7557C1034.27 29.1713 1028.93 23.8371 1022.33 23.8371H1018.58V14.8357H1046.46C1048.22 17.3361 1050.97 19.1697 1054.23 19.1697C1059.49 19.1697 1063.83 14.919 1063.83 9.58486C1063.83 4.25068 1059.57 0 1054.23 0C1050.89 0 1048.13 1.75028 1046.46 4.33402H978.335C976.581 1.83362 973.826 0 970.57 0C965.31 0 960.969 4.25068 960.969 9.58486C960.969 14.919 965.227 19.1697 970.57 19.1697Z" fill="#10384D"></path>
    <path d="M1143.48 77.5957H1078.77V81.763H1048.63C1048.05 77.5124 1045.54 73.5951 1041.62 70.4279H1047.46V55.5089H977.583V70.4279H983.427C979.42 73.6784 976.999 77.5124 976.414 81.763H964.058C935.17 81.763 911.709 102.85 911.709 131.688V168.694H903.194V178.862H964.058V168.694H957.796V140.856C957.796 134.938 961.803 130.021 967.23 128.52C967.898 140.439 987.936 150.024 1012.65 150.024C1037.36 150.024 1058.07 140.106 1058.07 127.854H1078.86V132.021H1083.03L1136.97 132.188C1141.72 132.188 1145.65 136.105 1145.65 140.856V180.445H1149.82V539.169H1145.65V578.759C1145.65 583.51 1141.72 587.427 1136.97 587.427L1083.03 587.594H1078.86V591.761H429.806V587.594H425.631L371.697 587.427C366.938 587.427 363.014 583.51 363.014 578.759V539.169H358.84V447.488C383.886 420.4 406.846 392.646 411.605 382.894C412.524 381.061 414.861 376.227 412.106 372.476C411.021 370.976 408.683 367.975 399.583 369.059C405.594 366.642 412.69 363.475 421.624 359.141C422.709 365.392 424.63 371.142 428.971 375.893C434.147 381.561 442.162 384.395 449.76 383.228C453.35 382.644 456.523 381.311 459.361 380.061C469.464 375.81 496.18 363.808 505.698 359.557C511.209 366.558 524.483 381.144 541.348 384.061C547.109 385.061 552.453 385.561 557.629 385.561C594.615 385.561 615.237 361.391 622 344.472C621.916 352.973 622.417 359.807 623.753 363.725C627.426 374.893 642.204 382.144 660.154 381.727C674.515 381.227 688.374 373.143 695.304 369.059C699.645 376.893 710.582 392.312 738.134 392.312C751.492 392.312 762.012 383.394 771.28 375.476C774.035 373.143 776.79 370.809 779.545 368.725C794.907 357.307 812.44 341.221 827.969 326.469C831.893 329.803 834.899 332.47 838.906 336.137C836.402 346.389 833.646 358.724 835.483 370.892C837.404 383.644 845.836 398.23 860.53 401.981C863.035 402.647 865.623 402.897 868.128 402.897C878.481 402.897 888.416 397.813 897.767 392.146C920.142 378.477 950.616 356.473 956.21 323.302C956.21 323.302 956.937 319.946 955.121 318.117C953.305 316.288 949.697 317.384 949.697 317.384C940.096 319.968 931.998 325.218 924.149 330.386C921.812 331.886 919.558 333.386 917.22 334.803C905.364 341.971 895.763 344.472 887.664 342.305C885.911 341.888 885.243 341.388 884.993 341.054C884.492 340.471 883.907 338.637 886.162 333.136L905.114 286.879C905.949 284.795 907.285 281.545 906.533 277.961C905.281 271.96 899.687 269.46 896.013 267.793L894.761 267.209C888.249 264.125 882.905 257.791 879.566 249.206C876.644 241.705 875.558 233.454 874.556 224.202C874.556 224.202 874.557 220.202 870.632 219.535C865.79 218.785 864.12 222.119 864.12 222.119C856.272 236.121 833.312 261.208 791.902 301.131C784.137 308.633 760.927 326.469 750.908 330.303C754.081 326.635 760.76 321.051 766.02 316.717C776.456 308.049 789.397 297.297 797.746 285.379C806.429 272.96 815.529 258.124 813.776 239.455C812.774 229.287 805.176 220.952 795.325 219.118C770.946 214.618 747.067 231.87 737.884 239.538C723.356 251.623 713.838 270.626 705.406 287.296C698.81 300.381 692.549 312.883 685.953 317.217C691.129 279.545 700.647 242.539 714.256 207.033C729.034 203.949 798.831 183.613 807.848 169.36C808.099 168.944 832.478 127.937 824.129 117.769C823.043 116.435 819.954 113.685 814.11 116.018C802.254 120.769 759.006 133.521 735.796 140.356L733.125 141.189C736.381 128.771 741.808 106.1 740.472 102.266C739.72 100.099 737.717 98.599 735.212 98.1823C725.945 96.9321 692.632 112.935 677.52 134.105C675.433 137.022 674.598 142.023 673.596 149.357C673.262 151.691 672.845 154.941 672.511 155.858C672.01 157.108 670.173 157.525 665.915 158.192C664.913 158.359 663.912 158.525 662.91 158.692C649.635 161.359 635.108 165.443 627.927 175.611C624.588 180.445 618.66 208.283 617.575 223.619C615.738 220.618 613.4 217.785 610.311 215.118C598.706 205.366 568.984 199.282 542.016 217.535C529.326 226.119 521.311 242.205 518.973 264.042C515.717 293.297 540.68 310.383 551.284 317.634L552.703 318.551C555.458 320.468 555.041 321.968 554.874 322.551C554.206 324.802 551.033 327.219 547.193 327.302C541.515 327.469 536.089 321.968 532.832 312.383C531.831 309.299 528.825 307.132 524.984 306.716C521.895 306.299 519.558 307.632 517.888 308.466C514.966 310.049 511.96 311.8 508.954 313.55C503.527 316.8 498.017 320.051 492.423 322.135C494.845 314.8 498.602 304.215 502.526 293.213C513.129 263.792 525.151 230.453 526.237 216.284L526.988 207.116L518.723 211.2C509.706 215.618 502.275 216.701 495.763 217.618C485.828 219.035 476.393 220.368 467.126 232.62C466.792 232.37 466.374 232.12 466.041 231.954C460.029 228.203 448.675 221.202 431.058 221.869C399.249 222.952 361.01 280.545 350.908 339.721L348.32 195.531L392.402 145.356C392.402 145.356 393.488 142.939 392.235 139.772C390.983 136.605 388.562 136.022 388.562 136.022C382.801 135.105 340.221 128.771 318.764 142.106C300.48 153.358 243.29 230.453 221.248 260.708C217.658 244.706 210.561 214.367 205.469 196.531C195.283 160.526 187.017 139.022 181.006 139.189C172.49 139.439 142.935 148.69 124.233 157.775C105.03 167.11 72.7197 194.114 72.7197 194.114C72.7197 194.114 70.9664 195.698 71.1334 197.448C71.3004 199.282 73.4711 200.282 73.4711 200.282L110.207 217.785C95.5959 283.212 71.4673 381.394 62.5339 393.563C53.6005 405.648 25.1305 430.402 3.50657 447.988C1.16886 449.822 0 452.405 0 455.072V467.658C0 469.491 0 471.242 1.75329 472.909C3.42309 474.492 7.84805 473.325 7.84805 473.325C18.6182 470.992 73.4711 458.49 105.03 438.487C130.996 421.984 157.462 372.976 169.985 347.222C169.985 347.222 175.412 381.477 176.748 383.394C178.084 385.311 219.495 402.064 222.334 401.397C225.172 400.73 267.418 342.305 267.418 342.305L271.76 489.828C271.676 490.745 270.925 499.163 276.268 504.914C278.355 507.164 282.029 509.748 288.291 509.748C288.541 509.748 288.708 509.748 288.958 509.748C293.049 509.665 301.816 503.33 312.837 493.579V539.169H308.662V587.844C308.662 618.182 333.459 641.936 365.185 641.936H429.889V637.768H1078.77V641.936H1143.48C1175.2 641.936 1200 618.182 1200 587.844V539.169H1195.83V180.362H1200V131.688C1200 101.349 1175.2 77.5957 1143.48 77.5957ZM283.866 497.829C282.029 495.912 281.945 492.078 282.112 490.161L277.437 328.219C277.437 328.219 277.854 322.551 274.932 321.218C271.927 319.801 269.589 322.051 269.589 322.051L218.493 389.229L185.932 375.893L177.333 330.553C177.333 330.553 176.414 326.302 173.325 324.468C170.236 322.718 166.813 329.219 166.813 329.219C163.139 337.47 129.66 410.315 99.353 429.568C72.9702 446.321 26.8837 458.073 10.4362 461.907V455.573C19.7036 448.071 58.7769 415.9 70.7159 399.73C84.0743 381.561 117.303 233.12 121.06 216.118L121.645 211.784L87.4139 195.448C96.7648 187.947 115.55 173.528 128.574 167.193C143.352 160.025 166.646 153.191 175.078 150.857C178.501 155.942 186.934 170.194 195.199 199.448C202.212 224.036 213.066 273.127 213.317 274.044L214.569 277.378L221.248 278.294L223.085 275.711C253.225 233.954 308.328 160.776 323.941 151.107C337.884 142.523 364.517 143.94 378.293 145.44L338.969 190.28L337.55 192.031L341.14 395.98C341.14 395.98 341.14 399.23 343.978 400.814C346.733 402.314 349.322 400.897 349.322 400.897C371.947 388.562 393.905 379.477 401.92 378.894C391.568 400.23 302.233 495.412 288.374 499.163C285.118 499.413 284.033 498.079 283.699 497.746L283.866 497.829ZM460.363 241.122C463.953 243.372 469.965 247.123 473.722 241.455C481.069 230.537 487.08 229.62 497.015 228.286C501.858 227.62 507.535 226.786 514.047 224.619C510.123 240.955 500.104 268.709 492.507 290.046C486.162 307.632 481.152 321.551 479.733 327.886C479.733 327.886 478.23 331.72 480.985 333.887C484.492 336.637 505.281 328.052 514.047 322.801C516.886 321.134 519.724 319.468 522.48 317.967C522.73 317.884 522.981 317.717 523.148 317.634C529.994 336.22 541.849 337.971 546.942 338.054C554.957 337.971 562.304 332.886 564.392 325.969C566.145 320.134 563.891 314.3 558.213 310.383L556.794 309.383C546.942 302.632 526.404 288.629 528.908 265.542C530.328 252.457 534.753 235.121 547.443 226.536C570.737 210.784 595.199 216.785 603.131 223.452C608.641 228.12 611.48 234.121 612.983 244.122C613.985 251.04 610.728 258.291 607.89 263.125C606.053 260.708 603.632 257.791 600.376 254.541C595.617 249.873 585.181 244.539 576.832 247.289C573.325 248.456 570.319 251.373 568.399 255.541C566.228 260.291 565.894 265.792 567.564 269.793C569.902 275.461 576.247 279.128 581.34 282.128C582.425 282.712 583.427 283.295 584.262 283.879L586.85 285.545C590.691 287.963 594.364 290.296 597.537 293.13C609.226 303.632 616.239 322.551 613.567 336.054C610.478 351.223 588.353 381.894 543.018 373.976C526.571 371.059 513.296 352.723 511.876 350.723L508.62 346.972L504.696 348.722C503.194 349.389 467.293 365.558 455.187 370.642C452.682 371.726 450.344 372.726 448.007 373.059C443.832 373.726 439.324 372.143 436.569 369.059C432.728 364.808 431.726 358.057 430.975 350.889L430.223 343.388L423.461 346.722C406.512 355.14 395.325 360.057 387.059 362.641C379.795 364.891 367.188 366.725 362.012 362.474C361.177 361.808 358.756 359.807 359.424 353.056C365.686 292.13 405.176 233.621 431.142 232.704C445.919 232.12 454.853 237.871 460.28 241.205L460.363 241.122ZM664.663 169.194C665.498 169.027 666.416 168.86 667.251 168.777C672.261 167.943 679.19 166.86 681.862 159.942C682.613 158.109 682.947 155.358 683.615 151.107C684.033 147.857 684.867 141.856 685.702 140.522C697.307 124.27 719.516 113.018 729.368 109.851C727.614 119.519 723.022 139.522 720.768 145.857C720.017 148.024 720.518 150.441 722.104 152.108C723.69 153.774 726.112 154.441 728.282 153.775L738.468 150.774C760.259 144.356 799.499 132.771 815.112 127.104C813.275 136.105 803.089 157.358 798.748 164.193C793.404 172.527 732.624 193.197 711.167 197.365C708.078 198.032 705.573 200.115 704.488 202.949C689.877 240.872 679.858 280.628 674.682 320.968C674.348 323.385 675.183 325.802 676.852 327.469C678.439 329.052 680.693 329.886 682.947 329.552C696.64 327.886 704.905 311.466 714.423 292.38C722.354 276.544 731.371 258.625 744.229 247.956C752.244 241.288 772.949 226.036 793.07 229.787C798.33 230.703 802.505 235.371 803.006 240.872C804.342 254.541 798.581 265.876 788.812 279.795C781.298 290.546 769.443 300.381 759.007 309.049C744.646 320.968 735.128 328.886 739.303 337.137C740.472 339.554 742.726 341.138 745.481 341.554C760.342 344.222 798.497 309.299 798.915 308.883C832.728 276.294 854.018 253.79 865.707 238.371C866.625 243.455 867.794 248.373 869.631 253.207C873.889 264.292 881.152 272.71 890.086 276.961L891.505 277.628C892.924 278.294 895.93 279.628 896.097 280.378C896.18 280.878 895.512 282.545 895.262 283.295L876.31 329.552C874.89 332.97 871.3 341.888 876.978 348.305C879.399 351.056 882.572 352.139 884.826 352.723C895.846 355.557 908.119 352.723 922.48 343.971C924.901 342.471 927.322 340.971 929.743 339.387C934.335 336.387 938.76 333.47 943.352 331.219C934.753 355.223 910.541 372.309 892.173 383.561C882.488 389.479 872.302 394.563 862.951 392.146C852.933 389.562 847.088 378.977 845.669 369.559C844.166 359.307 846.337 349.056 849.426 336.72C850.01 334.387 849.259 331.886 847.506 330.219C841.495 324.635 837.821 321.468 831.476 316.05L827.218 312.967L823.795 316.217C807.765 331.469 789.23 348.722 773.283 360.641C770.361 362.808 767.439 365.308 764.433 367.809C755.75 375.143 747.568 382.144 738.051 382.144C713.672 382.144 706.324 368.059 703.235 362.058C702.066 359.891 700.647 357.14 697.224 357.14C695.304 357.14 693.884 357.974 690.294 360.141C684.283 363.725 671.76 371.226 659.821 371.559C647.047 372.059 635.775 367.309 633.605 360.724C628.929 346.389 636.276 277.127 655.646 233.621C655.646 233.621 657.149 230.537 655.479 228.12C653.809 225.703 650.47 225.869 650.47 225.869C648.215 225.869 645.46 225.869 642.622 225.953C638.28 225.953 631.768 226.119 627.677 226.036C628.595 214.868 633.02 186.78 636.443 181.946C640.367 176.361 649.134 172.444 664.913 169.277L664.663 169.194ZM623.502 242.539C623.168 240.372 622.835 238.205 622.25 235.954C625.339 236.454 630.933 236.454 642.622 236.288H642.956C633.104 261.292 626.425 293.547 623.419 319.968C620.998 307.132 614.152 294.13 604.467 285.379C600.626 281.962 596.452 279.294 592.361 276.794L589.856 275.211C588.854 274.544 587.769 273.96 586.6 273.21C583.26 271.21 578.167 268.293 577.166 265.876C576.665 264.792 576.748 262.292 577.833 259.958C578.585 258.374 579.503 257.458 580.088 257.208C583.177 256.207 589.606 258.625 593.029 261.958C599.541 268.376 602.046 273.044 602.713 274.294C602.713 274.294 604.968 277.211 607.222 277.544C610.729 277.961 612.398 275.461 612.398 275.461C615.571 271.543 625.506 257.374 623.419 242.539H623.502ZM355.416 370.476C362.096 375.893 372.198 375.893 379.962 374.726C372.448 377.727 363.181 381.894 351.576 387.978L351.158 364.891C352.411 367.309 353.914 369.142 355.416 370.392V370.476ZM425.631 637.768H365.101C336.214 637.768 312.753 616.682 312.753 587.844V543.337H358.84V578.759C358.84 585.843 364.6 591.594 371.697 591.594L425.631 591.761V637.768ZM1195.83 587.844C1195.83 616.682 1172.36 637.768 1143.48 637.768H1082.95V591.761L1136.88 591.594C1143.98 591.594 1149.74 585.843 1149.74 578.759V543.337H1195.83V587.844ZM1195.83 176.195H1149.74V140.772C1149.74 133.688 1143.98 127.937 1136.88 127.937L1082.95 127.77V81.763H1143.48C1172.36 81.763 1195.83 102.85 1195.83 131.688V176.195Z" fill="#10384D"></path>
    <path d="M948.445 247.373C948.445 233.287 935.921 216.618 933.751 213.951C933.584 213.701 933.333 213.701 933.166 213.951C930.996 216.618 918.055 233.287 918.055 247.373C918.055 262.709 925.903 266.792 933.083 266.792C939.762 266.792 948.445 262.709 948.445 247.373ZM939.011 254.457C944.187 246.956 945.606 236.621 945.606 244.289C945.606 259.625 939.261 263.709 930.244 263.709C925.819 263.709 934.669 260.625 939.011 254.457Z" fill="#10384D"></path>
  </g>
  <defs>
    <clipPath id="clip0_599_469">
      <rect width="1200" height="641.935" fill="white"></rect>
    </clipPath>
  </defs>
</svg>
