<?xml version="1.0" encoding="UTF-8"?>
<svg xmlns="http://www.w3.org/2000/svg" width="6500" height="3478" viewBox="0 0 6500 3478" fill="none">
  <g clip-path="url(#clip0_651_373)">
    <path d="M5285.01 463.263C5279.23 467.405 5281.94 479.688 5261.8 476.546C4816.74 249.878 4325.76 128.688 3832.29 58.06L3401.72 14.2832C3668.96 20.0677 3946.84 57.7743 4209.14 109.192C4580.5 181.963 4946.86 294.369 5285.01 463.263Z" fill="#034783"></path>
    <path d="M5950.04 1392C5955.19 671.671 4643.3 78.3118 3019.85 66.6946C1396.4 55.0774 76.1562 629.602 71.0015 1349.93C65.8467 2070.26 1377.74 2663.62 3001.19 2675.24C4624.64 2686.85 5944.88 2112.33 5950.04 1392Z" fill="#95C7E9"></path>
    <path d="M610.887 1387.22C615.529 736.135 2003.27 218.241 3710.45 230.381C3875.28 231.524 4037.03 237.665 4194.79 248.235C3901.84 211.028 3589.97 189.818 3266.25 187.533C1559.14 175.392 171.398 692.644 166.756 1342.8C162.614 1923.32 1262.55 2413.58 2713.49 2520.56C1488.08 2355.45 607.174 1907.61 610.887 1387.22Z" fill="white"></path>
    <path d="M3187.69 0C3801.86 0 4820.81 207.957 5261.8 476.545L5377.78 413.415C5453.98 459.263 5523.54 501.754 5594.03 550.102C6061.87 871.322 6344.32 1369.43 5933.96 1877.76C5515.83 2395.8 4611.64 2644.03 3974.97 2728.58C3241.54 2825.99 2479.32 2789.22 1760.96 2615.54L1818.09 2309.17L1917.93 2265.39C1917.93 2265.39 1876.08 2515.77 1868.01 2565.69C2090.54 2606.68 2316.28 2641.03 2542.24 2658.31C3459.5 2728.37 4894.44 2598.11 5620.45 1977.88C6320.32 1380 5782.06 795.766 5152.11 492.828C3981.4 -70.0571 1981.99 -82.9116 816.705 499.826C342.437 736.849 -180.394 1198.25 221.388 1755.43C491.052 2129.35 1015.38 2322.88 1437.73 2463.35C1406.81 2475.92 1344.46 2501.2 1344.46 2501.2C1344.46 2501.2 157.471 2177.27 13.2126 1453.85C-137.259 699.357 1033.66 293.583 1639.62 145.97C2180.66 14.2828 2796.34 0 3187.69 0Z" fill="#020303"></path>
    <path d="M6497.71 1646.31C6465.58 2065.01 6012.52 2487.71 5686.72 2714.02C4565.15 3493.29 3046.22 3597.26 1746.67 3264.12C1733.39 3260.69 1646.83 3235.62 1646.83 3235.62L1611.13 3477.93L776.497 2761.58C776.497 2761.58 1271.69 2533.05 1268.69 2530.13C1265.12 2526.63 -0.0722656 2200.84 -0.0722656 1370.79C-0.0722656 1372.36 18.1386 1473.91 21.4951 1486.84C146.686 1964.95 712.366 2272.61 1131.36 2428.5C1179.99 2446.57 1344.39 2501.27 1344.39 2501.27L1817.95 2309.17L1760.81 2615.54C2479.18 2789.21 3241.47 2825.99 3974.83 2728.58C4611.5 2644.03 5515.68 2395.8 5933.82 1877.76C6344.1 1369.43 6061.72 871.321 5593.88 550.101C5523.4 501.683 5446.7 463.69 5377.64 413.415C5440.13 429.983 5572.1 504.325 5634.59 537.961C5942.32 703.713 6541.35 1076.35 6497.64 1646.31H6497.71Z" fill="#034783"></path>
    <path d="M1746.67 3264.12L1728.6 3395.23C1728.6 3395.23 1629.12 3472.43 1611.13 3477.93L1646.83 3235.62L1746.67 3264.12Z" fill="#020303"></path>
    <path d="M1582.63 3135.79L1554.42 3330.68L933.682 2783.07L1717.54 2435.22L1672.4 2680.45C1895.57 2736.44 2122.03 2784.07 2350.56 2814.07C3212.68 2927.19 4220.07 2865.56 5037.13 2556.69C5557.46 2360.02 6208.77 1949.1 6212.34 1300.73C6212.84 1204.68 6124.21 990.583 6132.21 997.224C6259.9 1103.49 6400.59 1339.8 6412.44 1506.98C6452.22 2065.65 5782.49 2581.47 5346.86 2823.42C4340.9 3382.24 3162.62 3462.08 2044.97 3240.41C1908.79 3213.41 1582.56 3135.72 1582.56 3135.72L1582.63 3135.79Z" fill="#A51F16"></path>
    <path d="M4412.18 1285.31C4452.81 1283.95 4512.73 1274.74 4566.93 1211.54C4583.57 1254.53 4621.92 1276.95 4675.7 1275.38C4724.76 1273.74 4766.18 1255.39 4801.96 1219.39L4793.96 1252.53C4688.12 1285.17 4607.35 1317.73 4607.5 1410.85C4607.5 1438.06 4618.07 1462.56 4637.85 1481.7C4661.49 1504.48 4695.62 1517.33 4732.19 1517.33C4733.97 1517.33 4735.69 1517.33 4737.47 1517.26C4843.38 1513.69 4910.08 1453.63 4935.72 1338.65L5066.98 751.132L4905.3 756.559L4832.17 1081.71C4819.53 1121.41 4794.75 1169.12 4748.61 1170.69C4740.54 1170.9 4734.12 1168.76 4729.33 1164.19C4722.62 1157.69 4719.05 1146.05 4718.98 1130.48C4718.98 1122.34 4720.05 1113.63 4722.12 1105.99L4799.89 760.13L4639.28 765.486L4566.08 1090.85C4561.5 1111.42 4558.79 1129.98 4557.93 1145.98C4540.79 1171.9 4519.94 1185.4 4495.8 1186.26C4479.09 1186.9 4468.45 1184.26 4462.24 1178.33C4456.95 1173.26 4454.38 1165.12 4454.38 1153.48C4454.38 1143.69 4455.67 1133.7 4458.6 1121.91L4582.5 574.097L4417.46 600.377L4368.26 817.904C4366.26 810.905 4362.47 804.692 4356.97 799.336C4342.19 785.054 4316.26 778.483 4279.84 779.697C4097.59 785.839 4000.82 993.797 4001.04 1141.55C4001.04 1144.55 4001.11 1147.48 4001.18 1150.34C3988.47 1174.9 3965.97 1204.11 3930.48 1205.25C3913.77 1205.9 3903.13 1203.25 3896.91 1197.33C3891.63 1192.26 3889.06 1184.11 3889.06 1172.47C3889.06 1162.69 3890.34 1152.69 3893.27 1140.91L4017.18 593.093L3852.14 619.373L3802.93 836.9C3800.93 829.902 3797.15 823.688 3791.65 818.332C3776.87 804.05 3750.94 797.48 3714.52 798.694C3532.27 804.835 3435.5 1012.79 3435.72 1160.55C3435.72 1163.55 3435.79 1166.48 3435.86 1169.4C3423.15 1193.97 3400.65 1223.11 3365.16 1224.32C3348.45 1224.89 3337.73 1222.32 3331.52 1216.32C3326.24 1211.25 3323.66 1203.11 3323.66 1191.47C3323.66 1181.69 3324.95 1171.69 3327.88 1159.91L3405.65 814.048L3245.04 819.404L3171.91 1144.55C3159.27 1184.26 3134.49 1231.96 3088.35 1233.53C3080 1233.82 3073.21 1231.61 3068.43 1226.96C3062.14 1220.89 3058.79 1210.25 3058.79 1196.33C3058.79 1187.61 3059.79 1178.9 3061.93 1168.83L3139.7 822.974L2979.09 828.33L2905.89 1153.69C2900.1 1179.9 2897.24 1201.47 2897.32 1219.54C2897.32 1258.89 2908.24 1289.24 2929.6 1309.87C2950.09 1329.66 2979.73 1339.44 3015.51 1338.3C3056.79 1336.94 3117.49 1325.37 3172.91 1242.82C3181.69 1300.73 3219.97 1331.3 3281.46 1329.37C3348.3 1327.16 3404.29 1295.66 3447.93 1235.89C3468.78 1291.09 3517.34 1321.37 3581.9 1319.3C3643.89 1317.23 3696.88 1285.88 3739.59 1226.11C3750.23 1277.88 3789.01 1306.38 3846.85 1304.38C3872.49 1303.52 3949.69 1300.95 4013.11 1216.25C4033.82 1271.88 4082.45 1302.3 4147.3 1300.23C4209.28 1298.16 4262.28 1266.81 4304.98 1207.04C4315.62 1258.81 4354.4 1287.31 4412.25 1285.31H4412.18ZM4773.25 1345.65C4756.61 1416.71 4722.47 1423.35 4712.33 1423.64C4700.91 1423.99 4689.05 1419.42 4680.7 1411.43C4675.27 1406.14 4671.98 1399.93 4671.98 1394.79C4671.98 1350.65 4706.84 1318.52 4785.03 1290.95L4773.18 1345.72L4773.25 1345.65ZM3737.23 1125.91V1130.55C3723.16 1186.9 3678.67 1213.54 3651.67 1214.47C3642.53 1214.75 3628.68 1215.25 3617.9 1204.82C3606.4 1193.76 3600.54 1172.26 3600.54 1140.98C3600.54 1091.42 3616.75 1022.15 3641.11 968.516C3670.89 902.887 3708.95 866.037 3748.3 864.68C3749.01 864.68 3749.73 864.68 3750.44 864.68C3780.94 864.68 3788.15 887.461 3789.72 895.46L3737.37 1125.91H3737.23ZM4302.55 1106.92V1111.56C4288.48 1167.9 4243.99 1194.54 4217 1195.47C4207.86 1195.76 4194 1196.26 4183.22 1185.83C4171.72 1174.76 4165.86 1153.26 4165.86 1121.98C4165.79 1072.42 4182.08 1003.15 4206.43 949.52C4236.21 883.89 4274.27 847.041 4313.62 845.684C4314.34 845.684 4315.05 845.684 4315.77 845.684C4346.26 845.684 4353.4 868.465 4355.04 876.463L4302.7 1106.92H4302.55Z" fill="black"></path>
    <path d="M1155.28 1453.49L1322.9 980.585L1290.47 1451.63L1473.73 1449.35L1559.35 609.447L1369.46 611.732L1149.57 1192.04L1154.64 615.517L1152.78 614.874C1123.36 604.805 1091.8 599.592 1061.52 600.091C889.406 602.377 672.803 740.348 674.803 892.317C675.731 964.303 733.863 1013.94 816.633 1012.72H819.633L819.276 1009.72C818.847 1006.51 817.348 1003.72 815.419 1000.15C810.492 990.94 802.208 975.515 801.636 932.166C799.922 803.121 855.126 718.067 965.748 679.361L710.868 1459.2L825.775 1457.92L976.104 962.589L959.678 1455.7L1155.43 1453.56L1155.28 1453.49Z" fill="black"></path>
    <path d="M1785.81 1795.49C1782.24 1748.93 1753.46 1728.36 1697.9 1732.65C1547.71 1744.29 1512.15 1916.11 1518.5 1997.52C1518.5 1998.23 1518.64 1998.88 1518.72 1999.52V2000.3C1508.93 2023.73 1497.29 2039.73 1473.44 2041.58C1463.8 2042.37 1456.87 2040.51 1452.16 2036.01C1448.01 2032.01 1445.66 2025.8 1445.02 2017.16C1443.66 1999.88 1448.8 1972.17 1454.3 1942.75C1460.94 1907.04 1468.44 1866.55 1466.01 1835.55C1461.94 1783.28 1430.16 1756.85 1376.46 1761C1345.46 1763.42 1319.97 1776.21 1298.69 1800.06L1323.54 1627.88L1211.56 1651.23L1160.78 2005.09L1160.5 2006.3C1152.28 2042.01 1128.29 2068.29 1102.29 2070.29C1092.22 2071.08 1085.51 2070 1081.08 2066.93C1076.51 2063.79 1074.08 2058.22 1073.44 2049.37C1072.94 2042.65 1073.3 2035.73 1074.58 2027.51L1104.65 1818.06L1148.21 1814.7L1152.57 1781.06L1109.08 1784.42L1125.36 1672.51L1013.38 1695.87L999.027 1792.99L975.032 1794.85L970.676 1828.48L994.6 1826.63L966.605 2021.51C964.034 2039.94 963.32 2055.01 964.248 2067.65C966.462 2096.07 975.96 2117.42 992.6 2131.21C1005.67 2142.06 1022.88 2147.63 1042.66 2147.63C1045.45 2147.63 1048.3 2147.49 1051.23 2147.27C1077.66 2145.2 1115.01 2135.21 1147.14 2100.14L1142 2136.06L1252.05 2127.56L1285.05 1896.25C1287.62 1879.19 1305.76 1835.34 1333.11 1833.27C1349.39 1831.98 1358.1 1842.12 1359.82 1864.12C1361.46 1885.61 1355.89 1918.68 1350.53 1950.6C1344.82 1984.31 1338.96 2019.23 1340.82 2043.51C1342.03 2059.15 1347.18 2081.29 1365.03 2097.78C1381.74 2113.28 1405.45 2119.99 1435.52 2117.71C1462.08 2115.64 1500.79 2106.57 1532.78 2052.37C1552 2089.22 1588.85 2105.78 1642.48 2101.64C1714.18 2096.07 1754.6 2057.51 1762.6 1986.95L1763.46 1979.45L1758.1 1984.74C1737.96 2004.38 1705.04 2025.16 1676.9 2027.37C1648.41 2029.51 1633.12 2012.73 1630.27 1975.74C1629.84 1970.31 1629.91 1963.81 1630.05 1957.38C1722.04 1944.1 1791.74 1871.9 1785.81 1795.63V1795.49ZM1706.97 1774.28C1707.54 1774.28 1708.11 1774.28 1708.61 1774.28C1713.39 1774.28 1716.82 1776.06 1719.39 1779.78C1722.11 1783.78 1723.75 1790.06 1724.46 1798.92C1728.75 1854.48 1686.47 1909.25 1633.19 1918.18C1644.34 1848.84 1674.62 1776.92 1707.04 1774.42L1706.97 1774.28Z" fill="black"></path>
    <path d="M4938.29 1922.68C4930.79 1922.96 4923.94 1926.53 4918.94 1932.82C4914.08 1938.96 4911.51 1946.89 4911.8 1955.24C4912.44 1972.38 4924.58 1985.45 4939.65 1985.45C4939.93 1985.45 4940.29 1985.45 4940.58 1985.45C4948.08 1985.16 4955 1981.67 4960.07 1975.52C4965.07 1969.45 4967.71 1961.53 4967.36 1953.24C4966.71 1935.82 4953.72 1922.32 4938.22 1922.68H4938.29Z" fill="black"></path>
    <path d="M5467.34 1925.03C5465.91 1926.18 5463.05 1926.82 5458.55 1926.96C5453.62 1927.18 5448.55 1925.82 5448.13 1914.82C5447.77 1905.9 5450.41 1891.68 5453.2 1876.62C5456.62 1858.19 5460.48 1837.27 5459.91 1820.98C5459.41 1806.49 5455.41 1795.49 5448.05 1788.28C5441.34 1781.71 5431.91 1778.49 5420.63 1778.85C5403.56 1779.49 5389.85 1788.56 5378.85 1806.63C5373.5 1789.35 5361.57 1780.71 5344.07 1781.28C5330.93 1781.78 5319.79 1786.85 5310.44 1796.78L5312.29 1784.28L5261.37 1786.13L5254.02 1835.55C5245.38 1839.91 5237.59 1842.34 5231.45 1842.55C5231.17 1842.55 5230.88 1842.55 5230.67 1842.55C5228.81 1803.7 5213.6 1784.71 5185.46 1785.56C5123.33 1787.85 5100.69 1865.98 5100.83 1915.32C5087.19 1933.46 5073.77 1945.6 5052.98 1946.32C5045.41 1946.6 5040.84 1945.24 5037.77 1941.89C5034.2 1937.89 5032.27 1930.75 5031.92 1919.39C5031.2 1900.18 5035.2 1873.54 5042.06 1851.62C5049.2 1828.91 5058.34 1814.7 5065.91 1814.41C5067.84 1814.27 5069.27 1815.13 5070.34 1816.91C5071.62 1818.98 5072.34 1822.2 5072.48 1826.34C5072.7 1832.27 5071.7 1839.27 5069.55 1846.98L5069.05 1848.76L5070.62 1849.84C5074.91 1852.91 5079.41 1854.41 5083.48 1854.26C5089.05 1854.05 5093.98 1851.12 5097.19 1846.05C5100.55 1840.84 5102.12 1833.34 5101.83 1824.48C5101.48 1814.2 5098.62 1805.99 5093.33 1800.2C5086.69 1792.92 5076.48 1789.49 5062.77 1789.92C5033.77 1790.99 5010.56 1809.13 4995.64 1842.55C4982.86 1871.19 4979.14 1904.54 4979.86 1924.46C4981.57 1972.24 5008.06 1982.81 5031.2 1982.81C5032.13 1982.81 5033.13 1982.81 5034.06 1982.81C5060.77 1981.88 5084.19 1967.53 5103.76 1940.25C5110.47 1965.74 5128.47 1978.59 5156.32 1977.67C5197.67 1976.17 5227.24 1931.25 5230.38 1865.62C5237.31 1863.9 5244.09 1861.62 5250.59 1858.69L5233.59 1973.38L5284.51 1971.52L5302.08 1852.69C5304.22 1843.12 5310.65 1820.7 5323.93 1820.27C5325.29 1820.13 5327.29 1820.48 5329 1823.56C5330.29 1825.91 5331.08 1829.34 5331.22 1833.2C5331.36 1836.2 5331.15 1838.91 5330.65 1841.77L5311.65 1970.45L5362.57 1968.6L5380.14 1849.76C5384.57 1829.98 5392.42 1818.06 5401.06 1817.7C5406.78 1817.41 5409.99 1822.7 5410.35 1833.12C5410.78 1844.27 5407.85 1861.19 5405.06 1877.62C5402.06 1895.04 5398.99 1913.11 5399.49 1925.82C5400.49 1953.46 5413.63 1968.95 5435.7 1968.1C5456.41 1967.31 5469.91 1952.03 5471.69 1927.11L5472.12 1920.89L5467.26 1924.82L5467.34 1925.03ZM5198.81 1867.4C5194.82 1911.32 5179.6 1938.89 5167.61 1939.32C5162.04 1939.53 5159.18 1938.39 5157.18 1935.32C5154.82 1931.6 5153.61 1924.82 5153.18 1913.18C5152.54 1895.68 5156.61 1870.12 5163.32 1849.62C5170.75 1826.91 5180.32 1813.2 5188.96 1812.91C5189.17 1812.91 5189.39 1812.91 5189.6 1812.91C5193.82 1812.91 5197.39 1814.7 5198.81 1829.34C5192.74 1833.48 5189.53 1841.19 5189.89 1850.69C5190.24 1859.48 5193.17 1865.05 5198.81 1867.33V1867.4Z" fill="black"></path>
    <path d="M2516.74 1541.54C2514.1 1470.91 2475.75 1412.21 2411.05 1379.07L2470.54 1377.15L2564.31 973.657C2584.8 971.015 2606.58 969.301 2615.08 969.015C2646.93 967.944 2671.93 976.014 2689.43 992.868C2710.78 1013.51 2721.71 1048 2721.78 1095.42C2721.99 1242.1 2649.29 1283.31 2610.8 1284.52C2584.8 1285.45 2563.66 1275.74 2535.6 1250.17L2532.81 1247.6L2531.31 1251.1C2521.17 1275.1 2516.17 1295.45 2516.24 1313.23C2516.24 1333.8 2522.89 1350.58 2535.81 1363.08C2560.31 1386.72 2602.16 1390.43 2633.01 1389.5C2740.84 1385.93 2805.55 1325.8 2840.83 1275.88C2886.67 1211.11 2902.96 1138.05 2902.89 1091.35C2902.74 1015.15 2852.4 930.523 2756.27 912.456C2824.19 872.607 2865.96 808.62 2865.82 743.919C2865.82 705.141 2850.75 670.148 2822.4 642.796C2792.12 613.517 2731.99 579.524 2617.8 583.166C2509.67 586.737 2399.69 616.159 2316 663.935C2226.44 715.067 2177.16 780.911 2177.24 849.468C2177.24 879.462 2189.95 908.171 2212.8 930.309C2241.15 957.732 2281.72 972.586 2324.07 971.229H2326.99L2326.64 968.23C2326.28 965.231 2324.78 962.517 2322.92 959.089C2318.28 950.519 2310.5 936.236 2310.43 898.03C2310.21 733.064 2453.4 642.011 2595.01 637.369C2648.79 635.655 2690.57 647.653 2715.92 672.148C2734.42 690.001 2744.2 714.353 2744.2 742.562C2744.34 836.4 2656.79 912.099 2581.45 914.598L2578.02 914.741L2631.86 680.574L2457.75 707.64L2455.97 707.926L2307 1349.79C2286.29 1347.58 2264.36 1346.8 2241.72 1347.58C2123.03 1351.72 1992.34 1409.21 1916.57 1490.69C1907.79 1500.12 1899.93 1509.76 1893 1519.4C1898.79 1503.12 1903.57 1485.55 1907 1466.41L2018.91 852.611L1850.87 859.681L1788.38 1199.47C1776.88 1241.03 1753.1 1291.02 1705.04 1293.02C1694.18 1293.59 1685.83 1289.59 1680.33 1281.38C1675.54 1274.24 1672.83 1264.1 1672.26 1251.1C1671.9 1242.6 1672.69 1233.53 1674.47 1225.46L1740.89 864.251L1573.99 871.25L1511.5 1211.25C1506.58 1238.6 1504.58 1261.1 1505.36 1279.95C1507.15 1322.3 1520.5 1354.58 1545.07 1375.79C1567.06 1394.79 1597.56 1404.07 1633.41 1402.57C1684.61 1400.43 1727.11 1380.79 1762.96 1342.65L1755.89 1377.93C1646.91 1412.85 1564.14 1447.63 1568.21 1544.68C1571.13 1614.53 1637.12 1654.45 1701.54 1654.45C1703.68 1654.45 1705.9 1654.45 1708.04 1654.3C1776.31 1651.45 1827.94 1626.02 1862.58 1578.61C1857.3 1595.46 1854.94 1612.24 1855.51 1628.74C1858.15 1698.94 1897.15 1728.93 1981.99 1725.93H1984.99L1984.49 1722.86C1983.99 1719.93 1982.49 1717.29 1980.56 1714.01C1975.7 1705.72 1967.63 1691.8 1966.2 1654.52C1963.63 1586.1 1983.49 1527.19 2023.55 1484.05C2071.76 1432.28 2148.24 1403.07 2244.72 1399.71C2367.84 1395.43 2384.7 1489.98 2386.2 1530.83C2391.2 1662.94 2295.57 1772.78 2205.37 1784.99L2272.22 1441.92L2101.39 1468.98L1972.27 2127.21L2139.24 2121.35L2196.73 1828.7L2200.23 1828.55C2297.71 1825.13 2384.13 1788.06 2443.69 1724C2492.46 1671.59 2519.03 1605.1 2516.6 1541.54H2516.74ZM1738.25 1475.48C1723.89 1549.75 1688.54 1556.97 1678.04 1557.4C1667.33 1557.9 1656.55 1554.32 1647.62 1547.54C1639.84 1541.61 1634.84 1533.9 1634.55 1527.4C1632.62 1481.27 1667.76 1447.42 1748.32 1417.92L1738.25 1475.41V1475.48Z" fill="black"></path>
    <path d="M4268.7 1615.45C4249.49 1597.6 4223.21 1589.17 4190.65 1590.46C4173.79 1591.1 4154.22 1593.67 4117.66 1615.38L4156.08 1417.92L4010.82 1441.99L3923.91 1887.76C3904.56 1934.39 3888.92 1965.03 3849.28 1966.6C3837.14 1967.17 3828 1964.53 3822.07 1959.1C3816.29 1953.74 3813.29 1945.46 3812.93 1933.75C3812.22 1911.75 3820.5 1876.9 3829.36 1839.91C3840.07 1795.13 3852.14 1744.36 3850.85 1705.08C3849.78 1673.44 3840.14 1648.95 3822.14 1632.17C3803.15 1614.46 3774.58 1605.96 3739.59 1607.24C3686.95 1609.31 3645.03 1634.17 3611.61 1683.3C3598.76 1636.09 3564.69 1613.24 3510.27 1615.38C3466.71 1617.1 3430.79 1633.02 3400.87 1663.94L3408.58 1623.74L3266.68 1629.31L3211.19 1916.39C3202.97 1944.82 3182.83 1992.66 3139.63 1994.38C3124.99 1994.95 3115.56 1992.81 3109.99 1987.59C3105.28 1983.17 3102.78 1976.1 3102.49 1965.95C3102.21 1957.38 3103.06 1948.6 3105.28 1938.25L3164.12 1633.31L3022.22 1638.88L2966.87 1925.46C2956.88 1960.38 2936.52 2002.3 2896.1 2003.88C2888.75 2004.16 2882.89 2002.3 2878.53 1998.23C2872.89 1992.95 2869.68 1983.74 2869.25 1971.52C2868.96 1963.96 2869.61 1956.24 2871.25 1947.39L2930.1 1642.45L2788.19 1648.02L2732.85 1934.68C2719.92 1979.67 2687 2012.09 2652.65 2013.44C2638.01 2014.02 2628.58 2011.87 2623.01 2006.66C2618.3 2002.23 2615.8 1995.16 2615.51 1985.02C2615.23 1976.45 2616.08 1967.67 2618.3 1957.31L2712.14 1474.48L2566.88 1498.48L2479.82 1944.82C2475.47 1967.95 2473.54 1986.95 2474.11 2002.88C2475.25 2037.51 2485.68 2064.29 2505.18 2082.36C2522.67 2098.57 2546.95 2107.07 2575.88 2107.07C2577.8 2107.07 2579.8 2107.07 2581.8 2106.93C2624.01 2105.28 2683.78 2089.64 2731.56 2025.66C2743.92 2073.15 2781.12 2099 2834.76 2097C2871.04 2095.57 2924.1 2085.14 2970.59 2012.73C2980.16 2063.29 3014.79 2089.93 3068.78 2087.79C3115.2 2085.93 3155.34 2068.08 3188.26 2034.73L3179.84 2078.15L3321.74 2072.58L3377.08 1785.99C3391.8 1734.57 3417.86 1704.37 3448.64 1703.15C3455.21 1702.79 3460.71 1704.79 3465 1708.79C3471.35 1714.72 3475.14 1725.15 3475.57 1738.14C3475.85 1745.71 3475.21 1752.5 3473.49 1759.64L3413.79 2069L3555.69 2063.43L3611.04 1776.85C3625.39 1726.72 3651.1 1696.15 3679.74 1695.01C3688.6 1694.58 3695.74 1696.94 3701.02 1701.87C3708.16 1708.51 3712.02 1719.93 3712.59 1735.93C3713.52 1763.28 3704.74 1802.99 3695.45 1844.98C3686.1 1887.33 3676.39 1931.1 3677.46 1961.81C3678.1 1982.17 3683.81 2010.95 3707.09 2032.66C3727.73 2051.87 3757.44 2060.86 3795.29 2059.36C3830.14 2058.01 3881.2 2048.15 3925.98 1979.88C3943.19 2027.23 3989.68 2051.79 4057.67 2049.01C4250.06 2041.44 4313.91 1859.4 4309.91 1738.86C4307.98 1680.66 4293.98 1639.09 4268.35 1615.31L4268.7 1615.45ZM4107.95 1956.46C4090.45 1957.1 4077.52 1953.67 4069.38 1946.1C4062.96 1940.17 4059.53 1931.53 4059.17 1920.61C4058.96 1914.47 4059.67 1907.68 4061.31 1900.9L4105.8 1676.23C4115.52 1665.73 4145.37 1660.16 4158.8 1659.66C4168.58 1659.23 4177.36 1662.59 4184.86 1669.52C4199 1682.66 4208.07 1708.79 4209.07 1739.43C4212.93 1853.98 4156.65 1954.53 4107.95 1956.46Z" fill="black"></path>
    <path d="M5006.21 1696.72C5052.77 1694.87 5075.98 1660.3 5074.84 1627.1C5074.19 1608.03 5066.41 1590.1 5053.41 1578.03C5040.7 1566.18 5023.78 1560.39 5004.49 1561.11C4960.29 1562.82 4926.01 1590.03 4895.87 1615.81L4905.58 1564.97L4763.68 1570.54L4708.33 1856.76C4666.27 1904.61 4622.06 1947.6 4546.08 1950.6C4521.51 1951.6 4506.01 1947.82 4495.87 1938.39C4484.73 1928.03 4479.16 1910.11 4478.16 1882.04C4477.81 1872.26 4478.31 1860.69 4478.81 1849.34C4599 1837.05 4693.84 1749.28 4690.62 1652.73C4689.77 1626.31 4682.05 1606.67 4667.2 1592.89C4649.13 1576.03 4620.06 1568.32 4580.86 1569.89C4385.61 1577.61 4329.48 1792.7 4332.9 1895.68C4334.4 1940.89 4347.76 1975.45 4372.47 1998.45C4396.75 2021.01 4431.89 2032.44 4477.09 2032.44C4480.73 2032.44 4484.45 2032.44 4488.16 2032.23C4568.07 2029.08 4635.7 1994.81 4694.69 1927.61L4676.91 2019.59L4818.81 2014.02L4883.66 1675.73C4906.51 1654.73 4922.51 1641.95 4949.36 1640.88C4958.64 1640.31 4961 1647.73 4964.14 1660.52C4968.07 1676.37 4973.43 1698.01 5006.21 1696.72ZM4590.07 1621.45C4595.93 1621.17 4600.35 1622.6 4603.71 1625.74C4608.92 1630.59 4611.71 1639.81 4612.14 1653.95C4614.49 1724.29 4555.72 1792.2 4485.59 1801.27C4502.3 1713.65 4545.51 1623.17 4590.07 1621.45Z" fill="black"></path>
    <path d="M4404.96 1275.45C4446.24 1274.1 4507.09 1263.88 4560.72 1199.11C4577.15 1247.03 4618.57 1267.17 4668.49 1265.53C4705.12 1264.31 4753.54 1253.67 4799.75 1203.11L4789.03 1247.46C4686.77 1278.88 4602.85 1310.66 4603 1403.64C4603.07 1468.63 4664.56 1509.55 4730.19 1507.33C4801.25 1504.98 4893.8 1474.84 4925.94 1330.8L5056.48 746.633L4900.37 751.846L4827.6 1075.14C4811.53 1125.63 4783.61 1164.55 4741.61 1165.98C4716.83 1166.83 4709.26 1146.05 4709.26 1123.06C4709.26 1115.06 4710.33 1106.06 4712.48 1097.99L4789.53 755.56L4634.49 760.773L4561.72 1084.06C4557.29 1104.2 4554.44 1122.84 4553.58 1139.48C4537.3 1164.33 4515.8 1180.62 4488.95 1181.54C4458.81 1182.54 4444.81 1174.05 4444.74 1146.05C4444.74 1137.05 4445.81 1127.06 4449.03 1113.92L4572.08 570.026L4412.75 595.378L4360.33 827.045V823.046C4360.33 794.052 4334.41 772.913 4273.06 774.984C4085.67 781.269 3996.61 999.153 3996.83 1134.13C3996.83 1137.34 3996.9 1140.48 3997.04 1143.55C3980.11 1176.62 3955.69 1199.47 3923.7 1200.54C3893.56 1201.54 3879.56 1193.04 3879.49 1165.05C3879.49 1156.05 3880.56 1146.05 3883.78 1132.91L4006.82 589.023L3847.5 614.374L3795.08 846.041V842.042C3795.08 813.048 3769.15 791.91 3707.81 793.981C3520.41 800.265 3431.36 1018.15 3431.57 1153.12C3431.57 1156.33 3431.65 1159.48 3431.79 1162.55C3414.86 1195.61 3390.44 1218.47 3358.52 1219.54C3328.38 1220.54 3314.38 1212.04 3314.31 1184.04C3314.31 1175.05 3315.38 1165.05 3318.6 1151.91L3395.65 809.477L3240.61 814.691L3167.84 1137.98C3151.77 1188.47 3123.85 1227.39 3081.85 1228.82C3058.14 1229.61 3049.5 1211.9 3049.5 1188.9C3049.5 1179.9 3050.57 1170.9 3052.72 1160.83L3129.77 818.404L2974.73 823.617L2901.96 1146.91C2896.6 1171.05 2893.39 1193.18 2893.46 1212.18C2893.6 1296.16 2944.24 1330.44 3008.87 1328.23C3054.07 1326.73 3114.35 1311.66 3168.12 1227.89C3174.69 1289.66 3213.47 1321.3 3274.89 1319.3C3319.17 1317.8 3385.94 1302.73 3442.21 1222.82C3464.35 1287.95 3518.84 1311.16 3575.26 1309.23C3651.75 1306.66 3702.24 1258.96 3734.52 1211.9C3743.23 1267.6 3782.01 1296.23 3840.14 1294.31C3884.35 1292.81 3950.98 1281.24 4007.32 1203.18C4029.32 1268.81 4084.02 1292.09 4140.58 1290.16C4217.07 1287.59 4267.56 1239.89 4299.84 1192.83C4308.55 1248.53 4347.33 1277.17 4405.46 1275.24L4404.96 1275.45ZM4768.75 1339.08C4754.83 1398.5 4726.9 1418.42 4705.34 1419.21C4681.63 1420 4662.2 1401.64 4662.2 1387.64C4662.13 1333.66 4713.76 1302.95 4781.61 1279.67L4768.75 1339.08ZM3732.8 1119.13V1124.13C3718.88 1179.54 3674.81 1209.04 3644.61 1210.04C3625.25 1210.68 3590.76 1210.82 3590.62 1133.91C3590.47 1039.93 3649.46 858.039 3740.94 854.968C3773.22 853.897 3783.01 876.535 3785.15 888.461L3732.73 1119.13H3732.8ZM4298.13 1100.13V1105.13C4284.2 1160.55 4240.14 1190.04 4209.93 1191.04C4190.57 1191.68 4156.08 1191.83 4155.94 1114.91C4155.8 1020.93 4214.78 839.043 4306.27 835.972C4338.55 834.901 4348.33 857.539 4350.47 869.465L4298.06 1100.13H4298.13Z" fill="#A61D14"></path>
    <path d="M1146.21 1443.7L1319.68 954.09L1286.12 1441.78L1464.08 1439.56L1549.14 605.019L1364.03 607.233L1139.43 1199.9L1144.64 610.304C1116.01 600.52 1085.15 595.235 1054.3 595.664C873.98 598.02 668.304 740.348 670.232 885.176C671.232 959.875 732.221 1003.94 809.349 1002.94C808.064 992.797 792.495 985.013 791.71 925.096C789.996 796.123 845.771 706.855 962.678 668.006L707.297 1449.42L816.491 1448.2L972.176 935.237L955.108 1445.92L1146.14 1443.78L1146.21 1443.7Z" fill="#A61D14"></path>
    <path d="M2008.55 848.255L1846.01 855.111L1783.88 1193.04C1769.24 1245.89 1741.82 1286.74 1698.04 1288.59C1672.26 1289.66 1663.47 1268.1 1662.47 1244.1C1662.12 1235.75 1662.83 1226.32 1664.76 1217.89L1730.53 859.967L1569.13 866.751L1507 1204.68C1502.43 1229.96 1500.08 1253.03 1500.86 1272.81C1504.58 1360.36 1558.78 1395.71 1626.05 1392.86C1664.19 1391.29 1714.18 1379.72 1760.24 1326.66L1750.96 1373C1645.69 1406.71 1559.57 1440.56 1563.64 1537.54C1566.49 1605.31 1632.27 1647.45 1700.61 1644.59C1774.6 1641.45 1869.79 1609.24 1897.15 1458.77L2008.41 848.255H2008.55ZM1733.75 1468.77C1721.75 1530.9 1693.47 1551.97 1671.04 1552.9C1646.41 1553.97 1625.34 1534.97 1624.77 1520.4C1622.41 1464.13 1674.9 1431.64 1744.6 1406.71L1733.75 1468.77Z" fill="#A61D14"></path>
    <path d="M1776.03 1788.49C1773.31 1753.78 1755.6 1723.08 1690.97 1728.08C1542.07 1739.57 1507.86 1910.32 1514 1990.09C1514.07 1991.24 1514.29 1992.31 1514.36 1993.45C1503.86 2018.52 1491.58 2035.01 1466.51 2037.01C1444.73 2038.73 1436.59 2027.44 1435.23 2010.16C1432.23 1971.31 1460.58 1884.76 1456.23 1828.55C1451.94 1773.07 1416.02 1752.86 1369.53 1756.43C1347.03 1758.14 1315.47 1766.21 1287.55 1801.85L1313.26 1624.1L1206.85 1646.31L1156.14 1999.66H1156C1147.79 2035.16 1123.72 2063.58 1095.37 2065.72C1075.01 2067.29 1065.09 2061.79 1063.59 2042.37C1063.09 2036.16 1063.3 2029.16 1064.8 2019.94L1095.15 1808.34L1138.72 1804.99L1142.36 1776.78L1098.8 1780.14L1115.01 1668.66L1008.6 1690.87L994.243 1788.21L970.319 1790.06L966.677 1818.27L990.673 1816.41L962.178 2014.59C959.821 2031.51 958.821 2046.94 959.821 2060.15C964.32 2118.42 1000.39 2140.71 1043.95 2137.35C1070.16 2135.35 1110.44 2125.28 1144 2084.22L1138 2125.85L1242.55 2117.78L1275.19 1888.54C1278.12 1869.48 1297.33 1825.48 1325.68 1823.27C1343.82 1821.84 1353.53 1833.7 1355.32 1856.55C1358.75 1900.9 1332.68 1988.74 1336.32 2035.87C1339.39 2075.36 1364.89 2112.5 1428.09 2107.57C1457.01 2105.36 1495.08 2094.14 1525.72 2039.23C1544.71 2080.36 1584.2 2095.5 1634.98 2091.57C1693.04 2087.07 1743.53 2059.44 1752.67 1979.24C1730.96 2000.45 1697.4 2020.44 1669.83 2022.59C1644.41 2024.59 1623.7 2012.23 1620.34 1968.53C1619.84 1962.31 1619.98 1954.6 1620.2 1947.6C1706.97 1936.03 1782.1 1868.83 1775.88 1788.35L1776.03 1788.49ZM1699.68 1764.43C1713.47 1763.35 1718.68 1774.14 1720.04 1791.42C1724.54 1849.69 1679.33 1906.9 1622.84 1914.04C1632.98 1846.98 1663.33 1767.21 1699.68 1764.43Z" fill="#A61D14"></path>
    <path d="M4931.22 1918.25C4917.3 1918.75 4906.73 1932.18 4907.3 1948.1C4907.87 1964.03 4919.37 1976.24 4933.29 1975.74C4947.22 1975.24 4958.14 1962.17 4957.57 1946.25C4957 1930.32 4945.15 1917.75 4931.22 1918.25Z" fill="#A61D14"></path>
    <path d="M5451.55 1922.54C5442.06 1922.89 5438.7 1916.82 5438.34 1907.82C5437.63 1887.61 5451.2 1843.27 5450.12 1814.06C5449.05 1785.14 5433.77 1773.78 5413.56 1774.49C5401.85 1774.92 5384.92 1779.49 5370.71 1806.77C5366.43 1784.49 5353.79 1776.28 5337 1776.85C5325.93 1777.28 5311.87 1780.99 5299.22 1798.85L5302.01 1779.92L5256.52 1781.56L5249.31 1830.2C5240.66 1834.7 5231.81 1837.84 5224.38 1838.12C5223.45 1838.12 5222.17 1838.2 5220.88 1837.55C5219.53 1799.63 5205.53 1780.21 5178.32 1781.21C5114.97 1783.49 5095.91 1866.4 5096.33 1909.18C5082.69 1927.53 5068.55 1941.17 5045.91 1941.96C5030.77 1942.53 5022.92 1936.96 5022.06 1912.39C5020.63 1872.26 5038.77 1805.42 5058.7 1804.7C5064.7 1804.49 5067.77 1810.13 5068.05 1819.2C5068.27 1825.34 5067.27 1832.63 5065.05 1840.7C5068.98 1843.48 5072.77 1844.77 5076.27 1844.62C5085.41 1844.27 5092.69 1835.34 5092.05 1817.63C5091.48 1800.99 5083.91 1784.64 5055.77 1785.64C4991.64 1787.99 4973.93 1875.47 4975.43 1917.39C4976.93 1958.24 4997.07 1974.17 5026.78 1973.1C5058.91 1971.95 5081.48 1951.39 5097.83 1926.61C5103.33 1957.31 5123.26 1968.88 5149.04 1967.95C5187.89 1966.53 5218.03 1923.46 5220.6 1856.41C5229.88 1854.34 5238.74 1851.12 5246.81 1847.05L5229.52 1963.53L5275.02 1961.88L5292.3 1845.05C5296.37 1826.84 5304.37 1810.99 5316.65 1810.49C5323.58 1810.2 5326.43 1818.06 5326.72 1826.06C5326.86 1829.34 5326.65 1832.2 5326.08 1835.12L5307.51 1960.67L5353 1959.03L5370.28 1842.19C5374.35 1823.98 5382.35 1808.49 5393.71 1808.06C5401.28 1807.77 5405.35 1814.13 5405.78 1826.06C5406.63 1849.19 5393.99 1894.18 5394.92 1918.75C5395.64 1939.32 5403.99 1959.31 5428.34 1958.46C5445.13 1957.89 5459.84 1946.1 5461.77 1919.96C5459.91 1921.46 5456.77 1922.32 5451.41 1922.54H5451.55ZM5194.53 1858.41C5191.03 1901.25 5176.1 1934.32 5160.61 1934.89C5148.61 1935.32 5144.33 1930.03 5143.4 1906.18C5142.11 1870.76 5159.32 1803.92 5181.75 1803.13C5189.96 1802.85 5193.32 1808.49 5194.53 1823.63C5188.96 1826.7 5185.1 1833.41 5185.46 1843.48C5185.75 1850.69 5187.82 1856.76 5194.53 1858.33V1858.41Z" fill="#A61D14"></path>
    <path d="M2506.89 1534.47C2504.32 1466.56 2468.04 1403.71 2392.91 1369.58L2461.18 1367.36L2554.88 964.088C2575.59 961.303 2598.59 959.518 2607.8 959.232C2691.78 956.447 2717.14 1015.22 2717.28 1088.35C2717.42 1167.76 2687.64 1277.38 2603.73 1280.17C2577.31 1281.02 2555.38 1271.31 2526.6 1245.1C2516.32 1269.45 2511.75 1289.45 2511.75 1306.16C2511.82 1369.86 2576.31 1381.36 2625.72 1379.72C2817.83 1373.43 2893.17 1184.61 2893.03 1084.28C2892.89 1005.94 2839.04 921.311 2741.2 906.743C2815.9 865.608 2856.04 798.479 2855.97 736.849C2855.82 651.152 2779.84 573.24 2610.73 578.739C2393.34 585.88 2172.52 698.143 2172.74 842.327C2172.81 912.313 2240.94 963.945 2316.85 961.446C2315.71 952.091 2300.71 944.235 2300.64 890.889C2300.36 718.496 2453.26 631.942 2587.8 627.514C2697.07 623.944 2739.7 675.79 2739.78 735.349C2739.92 813.69 2666.43 907.028 2574.38 910.028L2567.45 910.242L2621.15 676.504L2450.97 702.999L2301.86 1345.44C2281.15 1343.08 2258.72 1342.15 2234.66 1343.01C2047.33 1349.51 1845.87 1486.05 1851.01 1621.53C1853.8 1694.87 1897.36 1718.86 1974.7 1716.15C1973.2 1707.01 1958.35 1699.37 1956.42 1647.45C1950.57 1492.62 2055.9 1396.14 2237.58 1389.86C2336.28 1386.43 2379.06 1448.13 2381.84 1523.55C2385.91 1632.52 2308 1768.85 2195.02 1780.92L2261.79 1437.99L2096.61 1464.13L1968.49 2117.21L2129.96 2111.57L2187.45 1818.91L2193.02 1818.7C2394.91 1811.7 2511.75 1663.8 2506.82 1534.47H2506.89Z" fill="#A61D14"></path>
    <path d="M4183.58 1585.96C4164.65 1586.68 4144.8 1590.1 4106.73 1613.6L4145.58 1414L4005.97 1437.06L3919.27 1881.54C3899.99 1928.11 3883.99 1960.38 3842.28 1962.03C3813.86 1963.17 3803.86 1948.6 3803.15 1926.61C3801.5 1877.4 3843.42 1769.21 3841.07 1698.01C3838.71 1627.67 3793.22 1600.39 3732.59 1602.81C3697.52 1604.17 3646.68 1615.88 3603.4 1682.73C3591.19 1628.6 3553.48 1608.96 3503.27 1610.96C3470.14 1612.24 3427.72 1621.88 3389.37 1665.59L3398.29 1619.45L3261.89 1624.81L3206.76 1910.04C3193.97 1954.31 3169.55 1988.52 3132.77 1989.95C3106.28 1991.02 3093.64 1983.59 3092.85 1958.96C3092.56 1951.03 3093.21 1942.25 3095.71 1930.68L3153.91 1629.09L3017.51 1634.45L2962.52 1919.18C2949.81 1963.67 2926.24 1998.09 2889.32 1999.52C2868.46 2000.3 2860.39 1984.81 2859.68 1964.6C2859.39 1956.67 2860.11 1948.74 2861.68 1939.89L2919.88 1638.24L2783.48 1643.59L2728.49 1928.32C2715.71 1972.81 2682.78 2007.59 2645.79 2009.02C2619.3 2010.09 2606.66 2002.66 2605.87 1978.02C2605.58 1970.1 2606.23 1961.31 2608.73 1949.74L2701.85 1470.7L2562.24 1493.77L2475.54 1938.25C2471.54 1959.53 2469.32 1979.02 2469.9 1995.66C2472.4 2069.5 2517.96 2099.43 2574.8 2097.21C2613.58 2095.71 2676.36 2082.07 2725.99 2012.37C2737.42 2066.86 2778.34 2089.22 2827.76 2087.29C2867.54 2085.72 2920.24 2072.22 2965.16 1998.23C2972.66 2052.51 3007.72 2080.22 3061.71 2078.07C3095.14 2076.79 3142.84 2066.58 3185.69 2019.09L3176.19 2068.29L3312.6 2062.93L3367.58 1778.21C3380.3 1733.72 3404.65 1694.87 3441.57 1693.44C3462.42 1692.58 3470.64 1711.65 3471.28 1731C3471.57 1738.93 3470.85 1746 3469.21 1753.07L3410.15 2059.15L3546.55 2053.79L3601.54 1769.07C3614.25 1724.58 3638.61 1686.58 3672.74 1685.3C3695.45 1684.37 3707.38 1699.79 3708.31 1728.79C3710.16 1785.06 3671.17 1894.9 3673.17 1954.67C3674.81 2004.8 3705.88 2052.87 3788.29 2049.65C3826.21 2048.15 3876.63 2035.58 3919.91 1966.74C3934.76 2015.37 3979.11 2042.15 4050.74 2039.37C4251.56 2031.44 4303.84 1834.84 4300.41 1732C4296.7 1620.31 4249.92 1583.46 4183.58 1586.03V1585.96ZM4100.95 1951.96C4066.81 1953.31 4050.24 1938.96 4049.39 1913.47C4049.17 1907.32 4049.89 1900.25 4051.53 1893.11L4096.16 1667.73C4106.23 1655.88 4138.3 1650.23 4151.51 1649.73C4185.65 1648.38 4203.14 1689.08 4204.57 1732.15C4207.64 1824.48 4162.51 1949.53 4100.88 1951.89L4100.95 1951.96Z" fill="#A61D14"></path>
    <path d="M4998.92 1686.87C5045.34 1685.01 5066.05 1650.81 5064.98 1620.03C5063.84 1586.6 5040.06 1554.97 4997.42 1556.68C4951.93 1558.47 4916.87 1588.03 4884.59 1615.67L4895.09 1560.68L4758.68 1566.04L4703.62 1850.91C4657.92 1902.83 4613.78 1943.25 4539.01 1946.25C4493.52 1948.03 4470.31 1934.89 4468.31 1875.05C4467.95 1864.48 4468.52 1852.12 4469.02 1839.77C4582.5 1829.13 4684.13 1746.79 4680.7 1645.66C4679.2 1601.67 4657.99 1562.04 4573.65 1565.32C4379.4 1572.96 4324.91 1787.28 4328.26 1888.4C4331.55 1987.74 4391.68 2025.87 4480.73 2022.37C4575.15 2018.66 4642.49 1970.03 4691.91 1910.97L4672.84 2009.52L4809.24 2004.16L4873.88 1667.09C4896.87 1645.95 4913.51 1632.1 4941.93 1630.95C4970.36 1629.81 4945.79 1688.94 4998.78 1686.8L4998.92 1686.87ZM4582.86 1611.67C4600.85 1610.96 4607 1624.81 4607.78 1646.81C4610.21 1719.79 4548.08 1789.99 4475.24 1797.28C4491.3 1709.51 4534.58 1613.6 4582.86 1611.67Z" fill="#A61D14"></path>
    <path d="M4601.85 2960.89C4596.71 2957.18 4560.72 2850.42 4568.5 2839.92C4575.15 2830.92 4613.28 2829.21 4615.42 2825.99C4622.21 2816.14 4608.28 2792.36 4592.07 2792.14C4556.79 2791.71 4482.59 2815.35 4453.81 2837.99C4402.11 2846.63 4307.12 2854.77 4261.7 2875.34C4249.78 2880.77 4239.49 2884.98 4244.56 2900.84C4253.06 2927.62 4318.12 2898.34 4329.19 2905.33C4342.4 2913.62 4370.33 3038.16 4383.54 3054.16C4391.18 3063.45 4400.89 3062.8 4411.39 3060.66C4419.82 3057.87 4422.03 3051.16 4423.24 3043.23C4427.1 3017.38 4367.11 2898.34 4372.9 2890.34C4393.32 2881.63 4428.96 2883.41 4446.6 2874.63C4457.6 2869.13 4457.31 2857.2 4459.45 2855.77C4461.45 2854.42 4474.09 2862.06 4482.52 2861.2C4491.8 2860.27 4517.23 2850.2 4522.51 2854.84C4527.58 2859.27 4559.43 2977.89 4555.43 2983.25C4549.65 2991.03 4527.87 2988.75 4523.3 3001.39C4519.73 3011.31 4522.94 3029.95 4533.94 3032.45C4540.94 3034.02 4665.27 2989.25 4669.41 2983.32C4699.98 2939.33 4605.5 2963.47 4601.85 2960.89Z" fill="#FEFDFD"></path>
    <path d="M1807.8 2903.62C1791.81 2892.55 1694.97 2887.27 1690.61 2883.05C1706.25 2828.28 1694.47 2818.49 1756.6 2827.92C1780.31 2831.56 1840.16 2866.77 1854.01 2846.7C1870.72 2822.57 1827.16 2802.78 1809.66 2796.21C1792.66 2789.86 1683.9 2767.5 1676.33 2772.15L1606.34 2966.89C1603.06 3009.53 1624.62 3024.95 1660.48 3037.88C1684.68 3046.59 1776.03 3076.44 1776.38 3036.31C1776.81 2997.39 1663.05 3010.6 1655.33 2985.6C1654.4 2982.68 1667.4 2928.4 1669.69 2926.4C1679.9 2917.47 1802.09 2955.32 1811.16 2939.4C1814.23 2933.97 1814.45 2908.26 1807.73 2903.62H1807.8Z" fill="#FEFDFD"></path>
    <path d="M2164.31 2912.4C2182.31 2914.76 2269.22 2954.61 2253.79 2901.84C2243.65 2867.06 2110.39 2870.34 2079.4 2861.49L2062.9 2873.7C2068.54 2935.83 1984.92 3070.09 2040.33 3114.65C2058.12 3128.93 2173.45 3148.57 2188.95 3138.64C2191.16 3137.22 2196.59 3120.08 2195.8 3115.72C2190.95 3088.51 2094.39 3093.65 2069.4 3082.08C2064.47 3076.3 2075.04 3020.24 2082.75 3014.31C2094.97 3004.89 2228.51 3050.3 2224.3 3000.53C2204.23 2959.75 2124.6 2986.39 2104.11 2972.53C2093.04 2965.11 2102.61 2914.12 2104.82 2911.98C2107.18 2909.69 2154.46 2911.12 2164.31 2912.33V2912.4Z" fill="#FEFDFD"></path>
    <path d="M4800.96 2704.95C4786.32 2719.59 4859.81 2832.99 4857.95 2861.7C4827.6 2847.99 4794.96 2837.42 4765.11 2822.71C4739.69 2810.21 4633.06 2729.66 4623.71 2780.72C4657.06 2829.28 4673.91 2919.55 4702.05 2963.97C4723.76 2998.17 4752.25 2981.82 4742.19 2938.18C4738.11 2920.4 4692.12 2844.56 4701.12 2833.21C4743.83 2849.85 4856.45 2919.05 4897.01 2911.83C4936.51 2904.83 4885.8 2805.07 4873.52 2778.5C4858.09 2745.3 4844.88 2693.38 4800.96 2704.95Z" fill="#FEFDFD"></path>
    <path d="M5086.69 2707.95C5067.12 2693.59 4953.36 2755.08 4964.64 2793.14C4984.93 2825.64 5040.06 2749.87 5050.63 2761.94C5053.48 2784.57 5043.41 2805.35 5025.78 2818.99C4940.65 2885.2 4920.01 2708.3 4969.29 2677.02C4987.28 2665.6 5041.41 2675.67 5036.34 2651.46C5006.64 2615.32 4943 2633.68 4919.01 2669.53C4855.02 2765.22 4943.36 2952.47 5061.41 2847.42C5089.62 2822.28 5111.04 2725.73 5086.62 2707.8L5086.69 2707.95Z" fill="#FEFDFD"></path>
    <path d="M3920.41 3131.72C3909.77 3129 3903.84 3090.37 3902.56 3078.37C3900.91 3063.16 3903.27 3071.01 3912.13 3067.73C3932.91 3060.16 4051.31 3048.81 4014.46 3012.88C3997.75 2996.6 3921.62 3032.67 3894.99 3025.67C3899.63 3014.38 3887.92 2979.1 3890.84 2975.39C3910.2 2950.68 4010.25 2976.32 4015.82 2942.83C4021.03 2911.83 3953.9 2915.76 3936.05 2920.62C3921.7 2924.54 3887.77 2939.83 3856.64 2941.11C3832.78 2942.04 3847.85 2976.89 3850.35 2995.46C3856.71 3042.02 3851.57 3154.28 3907.2 3166.71C3930.76 3171.99 4022.96 3161.42 4034.53 3139.93C4061.1 3090.58 3929.27 3134.07 3920.41 3131.79V3131.72Z" fill="#FEFDFD"></path>
    <path d="M3815.5 2955.54C3814.29 2953.61 3796.22 2947.33 3792.43 2948.18C3761.58 2955.04 3780.72 3033.74 3772.79 3046.09C3768.94 3052.09 3679.03 3064.3 3663.24 3075.66C3657.75 3075.73 3655.32 2984.53 3649.25 2975.39C3642.46 2965.18 3619.89 2965.18 3612.9 2975.39C3602.97 2989.89 3621.18 3089.37 3623.89 3114.79C3626.18 3136.57 3615.18 3182.56 3638.32 3193.56C3684.6 3215.56 3659.39 3121.15 3667.46 3111.93C3673.53 3104.94 3762.23 3092.72 3777.44 3082.87C3792.65 3108.15 3775.87 3172.07 3813.29 3175.64C3821.5 3176.42 3829.57 3175.85 3834.85 3168.49C3839.43 3162.14 3818.64 3043.09 3816.64 3022.1C3815.14 3006.38 3820.36 2963.11 3815.57 2955.61L3815.5 2955.54Z" fill="#FDFDFD"></path>
    <path d="M2450.97 2925.26C2378.34 2915.9 2318.42 2931.69 2272.72 2990.67C2170.31 3123 2336.85 3211.91 2431.97 3113.72C2417.33 3066.09 2378.41 3106.79 2349.99 3110.79C2248.72 3125.22 2292.72 3001.24 2363.2 2974.18C2422.12 2951.54 2414.76 2996.1 2435.69 2996.96C2464.25 2998.1 2461.04 2981.6 2461.11 2961.47C2461.11 2954.32 2461.11 2947.18 2461.11 2940.11C2459.68 2939.04 2466.97 2927.33 2450.97 2925.26Z" fill="#FEFDFD"></path>
    <path d="M3174.91 3008.31C3087.35 3073.3 3080.28 3228.27 3220.18 3210.27C3243.75 3207.27 3298.53 3184.13 3296.24 3157.57C3292.39 3113.29 3236.82 3162.78 3219.18 3166.5C3086.28 3194.49 3197.97 2990.25 3258.68 3027.17C3261.03 3028.59 3289.1 3073.51 3301.74 3035.24C3329.66 2950.54 3215.54 2978.03 3174.91 3008.24V3008.31Z" fill="#FDFDFD"></path>
    <path d="M3049.64 2982.89C3016.79 2978.75 2970.44 2982.89 2935.52 2982.89C2903.46 2982.89 2945.45 3045.09 2981.87 3025.67C2975.52 3045.59 2980.01 3163.28 2974.8 3168.21C2973.37 3169.57 2947.52 3166.49 2937.02 3169.64C2916.74 3175.64 2911.03 3197.35 2932.09 3207.27C2944.02 3212.84 3043.65 3206.49 3064.36 3204.2C3072.85 3203.27 3085.92 3202.42 3088.92 3193.06C3100.92 3155 3029.08 3172.49 3024.72 3168.21C3019.65 3163.14 3024.65 3031.59 3032.5 3026.17C3040.57 3020.6 3096.28 3048.09 3096.42 3007.88C3096.42 2991.53 3061.71 2984.39 3049.72 2982.89H3049.64Z" fill="#FDFDFD"></path>
    <path d="M2635.01 2948.18C2597.01 2942.9 2536.24 2933.19 2500.32 2932.33C2489.68 2932.11 2463.18 2941.68 2461.11 2940.11C2474.89 2946.61 2474.89 2954.97 2461.11 2961.47C2491.03 2974.53 2520.03 2986.46 2553.88 2982.82C2564.73 2993.1 2539.17 3140.79 2546.38 3170.49C2549.17 3181.99 2578.8 3182.71 2587.8 3173.49C2602.3 3158.57 2600.59 3020.81 2603.8 2989.89C2633.22 2986.46 2711.49 3020.67 2711.28 2972.04C2711.21 2952.9 2653.58 2950.68 2634.94 2948.11L2635.01 2948.18Z" fill="#FDFCFC"></path>
    <path d="M2461.11 2940.11C2461.11 2947.25 2461.11 2954.4 2461.11 2961.47C2474.89 2954.97 2474.89 2946.61 2461.11 2940.11Z" fill="#FDFCFC"></path>
    <path d="M1985.56 3048.16C1954.64 3038.45 1902.79 3057.02 1869.22 3039.52C1861.58 3028.59 1929.64 2873.27 1917.93 2837.85C1912.64 2821.85 1890.36 2821.71 1879.44 2832.99C1871.37 2841.42 1810.02 3044.95 1812.88 3056.3C1821.59 3091.3 1950.49 3096.44 1978.06 3088.3C1997.2 3082.66 2006.91 3054.87 1985.49 3048.16H1985.56Z" fill="#FDFCFC"></path>
    <path d="M3359.66 3250.48C3396.51 3275.26 3418.86 3191.7 3409.86 3182.49C3389.51 3161.57 3334.88 3233.84 3359.66 3250.48Z" fill="#FBF7F6"></path>
    <path d="M2839.18 3118.36C2902.81 3108.72 2916.31 3047.66 2871.18 3004.31C2845.32 2979.46 2741.77 2939.61 2726.7 2980.96C2719.42 3001.03 2706.07 3178.35 2713.99 3189.85C2721.06 3200.13 2743.34 3200.13 2750.41 3189.85C2760.56 3175.14 2742.84 3126.36 2764.13 3132.64C2773.98 3135.57 2809.05 3155.5 2820.12 3162.28C2838.68 3173.56 2867.75 3210.56 2889.03 3200.49C2935.09 3178.64 2834.11 3125.15 2839.18 3118.36ZM2797.98 3088.15C2732.92 3095.58 2773.62 3045.38 2767.91 3004.31C2829.97 3013.17 2903.67 3076.08 2797.98 3088.15Z" fill="#FEFDFD"></path>
    <path d="M4168.87 2897.69C4143.66 2892.34 4102.23 3018.67 4094.02 3041.38C4092.09 3046.66 4082.74 3046.31 4080.88 3052.3C4078.6 3059.8 4071.81 3120.72 4074.24 3124.43C4076.88 3128.57 4101.66 3134.79 4109.3 3129.57C4120.02 3122.15 4121.23 3081.58 4134.01 3068.44C4144.73 3057.45 4191.58 3042.73 4205.64 3053.52C4212.79 3059.02 4260.99 3141.14 4271.99 3085.15C4274.06 3074.59 4179.36 2899.91 4168.87 2897.69ZM4180.22 3018.38L4144.66 3025.67L4158.94 2975.82C4172.08 2977.03 4185.5 3012.38 4180.15 3018.38H4180.22Z" fill="#FDFDFD"></path>
    <path d="M5380.35 2639.25C5374.64 2631.18 5379.92 2603.25 5364.64 2594.4C5338.43 2579.19 5327.43 2594.4 5343.15 2619.39C5339.93 2621.96 5317.08 2613.54 5315.72 2611.25C5311.29 2603.82 5316.22 2575.47 5313.08 2560.48C5302.01 2507.56 5224.1 2537.34 5239.02 2584.04C5243.31 2597.54 5261.95 2608.61 5263.59 2616.97C5266.73 2633.18 5205.39 2715.02 5291.58 2725.09C5344.65 2731.3 5362.64 2681.09 5376.35 2677.17C5385.99 2674.45 5417.27 2693.23 5421.63 2672.81C5425.92 2652.74 5384.49 2645.03 5380.42 2639.25H5380.35ZM5282.01 2654.74C5295.65 2612.04 5315.15 2652.74 5343.07 2655.17C5338.29 2698.52 5264.45 2709.59 5282.01 2654.74Z" fill="#FDFCFB"></path>
    <path d="M5746.07 2419.65C5740.78 2419.22 5691.15 2345.88 5678.44 2337.88C5676.44 2333.59 5729.22 2321.24 5714.08 2298.82C5701.79 2280.61 5611.59 2332.59 5606.95 2359.23C5601.74 2389.08 5652.09 2352.45 5656.8 2355.8C5657.59 2356.38 5658.51 2367.16 5664.01 2373.3C5672.23 2382.44 5721.15 2433.36 5721.07 2437.72C5721.07 2440.5 5677.3 2477.21 5710.65 2484.06C5720.5 2486.06 5798.27 2422.36 5799.63 2416.22C5808.7 2374.44 5749.43 2419.93 5746.07 2419.65Z" fill="#FDFBFB"></path>
    <path d="M5856.76 2305.81C5852.98 2302.6 5891.68 2242.76 5822.98 2229.04C5788.35 2222.12 5694.44 2249.61 5720.86 2288.39C5730.79 2302.96 5815.63 2394.58 5825.91 2397.37C5838.62 2400.79 5842.19 2396.87 5849.62 2387.65C5853.05 2371.3 5810.27 2357.37 5828.2 2344.95C5855.05 2326.38 5919.39 2343.81 5928.03 2323.52C5942.82 2289.03 5866.33 2313.81 5856.76 2305.74V2305.81ZM5796.13 2319.95C5786.28 2304.67 5741.07 2281.82 5765.92 2268.75C5779.06 2261.89 5818.27 2250.33 5827.62 2263.75C5839.91 2281.32 5808.91 2309.24 5796.2 2319.95H5796.13Z" fill="#FDFCFC"></path>
    <path d="M5571.67 2401.79C5548.96 2388.51 5539.39 2382.58 5535.39 2415.93C5532.75 2437.64 5539.68 2549.19 5550.68 2565.33C5556.96 2574.47 5563.18 2579.76 5574.82 2576.62C5595.67 2571.05 5569.96 2530.98 5580.03 2513.99C5581.24 2511.99 5615.31 2485.85 5617.59 2485.63C5621.66 2485.28 5694.94 2539.34 5685.44 2494.78C5683.87 2487.56 5583.67 2408.79 5571.6 2401.79H5571.67ZM5592.74 2476.85L5571.46 2483.99V2448.36C5581.17 2450.5 5598.53 2470.07 5592.74 2476.85Z" fill="#FCFAFA"></path>
  </g>
  <defs>
    <clipPath id="clip0_651_373">
      <rect width="6500" height="3477.86" fill="white"></rect>
    </clipPath>
  </defs>
</svg>
