<?xml version="1.0" encoding="UTF-8"?>
<svg xmlns="http://www.w3.org/2000/svg" width="1200" height="256" viewBox="0 0 1200 256" fill="none">
  <path d="M337.13 46.9615C324.912 24.8171 303.532 9.16323 277.569 3.05442C268.788 0.763613 259.243 0 249.698 0C180.21 0 106.904 53.4521 79.4146 122.558H50.3977L82.8508 185.937L153.484 122.558H123.703C123.703 122.176 124.085 121.794 124.085 121.413C124.849 119.122 125.994 116.831 126.758 114.54C153.866 54.9793 261.915 -23.6717 339.039 50.3977L337.13 46.9615Z" fill="#0973B9"></path>
  <path d="M256.188 58.7974L185.555 122.176H215.336C215.336 122.558 214.954 122.94 214.954 123.322C214.19 125.613 213.045 127.903 212.281 130.194C185.173 189.755 77.1238 268.406 0 194.337C3.43621 200.827 7.63602 206.172 11.8358 211.136C7.25422 206.172 3.05441 200.445 0 194.337L1.909 197.773C14.1266 219.917 35.5075 235.571 61.4699 241.68C70.2514 243.971 79.7964 244.734 89.3414 244.734C158.829 244.734 232.135 191.282 259.625 122.176H288.641L256.188 58.7974Z" fill="#F7941D"></path>
  <path d="M836.144 77.5055C838.816 67.1969 838.435 63.3789 837.289 59.1791H920.904C943.812 59.1791 949.92 67.9605 944.193 89.7231L932.739 136.303C927.394 158.065 917.086 166.847 894.177 166.847H810.563C813.618 162.647 815.908 158.447 818.581 148.52L836.144 77.5055ZM859.434 148.902H880.814C887.687 148.902 888.832 147.375 890.741 140.121L904.486 85.5233C906.395 78.2691 905.632 76.7419 898.759 76.7419H877.378L859.434 148.902Z" fill="#0973B9"></path>
  <path d="M1032.01 87.8142C1051.1 87.8142 1056.44 95.832 1051.1 117.595L1042.32 151.957C1040.41 159.975 1040.79 163.411 1042.32 166.847H1002.61V158.066H1002.23C998.409 164.938 994.591 166.847 983.901 166.847H955.647C937.703 166.847 934.648 159.593 938.848 142.794L940.375 137.066C944.575 120.649 951.448 113.013 969.392 113.013H1005.66C1011.39 113.013 1012.92 111.486 1013.68 108.05C1014.44 104.613 1013.68 103.086 1008.34 103.086H968.629C961.374 103.086 957.175 104.232 951.829 106.522L956.411 87.8142H1032.01ZM990.773 128.667C984.664 128.667 981.992 129.812 980.846 135.539L978.556 144.703C977.028 150.43 979.319 151.193 985.428 151.575H994.591C1002.23 151.575 1003.37 150.43 1005.66 140.503L1008.34 129.43L990.773 128.667Z" fill="#0973B9"></path>
  <path d="M1075.15 166.465C1056.44 166.465 1051.48 155.393 1055.68 137.83L1063.7 105.759C1066.37 94.6865 1065.22 91.6321 1063.7 87.4323H1107.99L1093.86 144.321C1092.71 149.284 1093.86 150.811 1098.82 150.811H1113.33C1117.15 150.811 1118.29 150.429 1119.82 143.939L1130.13 101.941C1132.42 92.0139 1132.04 90.4867 1130.51 87.0505H1173.66L1151.89 173.337C1148.08 188.228 1138.53 195.864 1124.02 195.864H1040.79L1045.75 176.392C1049.19 178.301 1052.62 180.21 1062.17 180.21H1102.26C1109.13 180.21 1111.04 178.301 1111.8 174.483L1116 158.065H1115.62C1112.57 163.029 1110.28 165.701 1100.73 165.701H1075.15V166.465Z" fill="#0973B9"></path>
  <path d="M435.253 80.56C430.671 78.2692 427.235 77.1238 419.599 77.1238H379.892C373.401 77.1238 371.874 77.8874 370.729 81.7054L369.201 87.8142C368.056 92.014 369.583 92.3958 376.074 92.3958H405.472C423.035 92.3958 431.053 98.5046 426.853 114.158L420.363 140.503C416.163 157.302 407.763 166.847 387.91 166.847H310.022L315.749 145.084C319.185 146.993 323.003 149.284 331.021 149.284H370.729C377.219 149.284 378.746 148.521 379.51 144.703L381.419 137.448C382.564 133.63 381.419 132.867 374.928 132.867H341.33C324.912 132.867 319.949 127.521 324.531 109.577L330.639 85.5234C334.839 68.7242 345.148 59.9427 359.656 59.9427H440.98L435.253 80.56Z" fill="#74BF44"></path>
  <path d="M520.395 87.8142C539.485 87.8142 544.83 95.832 539.485 117.595L530.703 151.957C528.794 159.975 529.176 163.411 530.703 166.847H490.996V158.066H490.614C486.796 164.938 482.978 166.847 472.288 166.847H444.034C426.09 166.847 423.035 159.593 427.235 142.794L428.762 137.066C432.962 120.649 439.835 113.013 457.779 113.013H494.05C499.777 113.013 501.304 111.486 502.068 108.05C502.832 104.613 502.068 103.086 496.723 103.086H457.016C449.761 103.086 445.562 104.232 440.216 106.522L444.798 87.8142H520.395ZM479.16 128.667C473.051 128.667 470.379 129.812 469.233 135.539L466.942 144.703C465.415 150.43 467.706 151.193 473.815 151.575H482.978C490.614 151.575 491.759 150.43 494.05 140.503L496.723 129.43H479.16V128.667Z" fill="#74BF44"></path>
  <path d="M589.5 87.8142L587.973 97.3592H588.355C591.409 92.3958 594.464 87.8142 600.954 87.8142H636.462C646.389 87.8142 647.534 90.105 648.298 96.2138H648.679C650.207 93.1594 652.879 87.8142 659.752 87.8142H687.241C700.223 87.8142 710.531 91.6322 703.659 118.74L696.023 148.52C693.35 159.593 694.496 162.647 696.023 166.847H650.97C654.407 162.647 657.079 159.593 659.752 148.52L669.679 108.813C670.824 104.613 669.297 103.086 666.242 103.086H653.261C650.207 103.086 647.916 104.613 646.77 108.813L636.844 148.52C634.171 159.593 635.316 162.647 636.844 166.847H591.791C595.227 162.647 597.9 159.593 600.573 148.52L610.499 108.813C611.645 104.613 610.118 103.086 607.063 103.086H594.082C591.028 103.086 588.737 104.613 587.591 108.813L577.665 148.52C574.992 159.593 576.137 162.647 577.665 166.847H532.612C536.048 162.647 538.721 159.593 541.393 148.52L552.084 105.759C554.756 94.6866 553.611 91.6322 552.084 87.4324L589.5 87.8142Z" fill="#74BF44"></path>
  <path d="M746.039 135.539L744.13 142.794C742.984 148.521 744.893 150.811 751.384 150.811H789.564C797.2 150.811 801.4 150.43 808.272 147.375L800.636 166.083H721.222C703.277 166.083 700.223 158.829 704.422 142.03L712.058 110.722C716.258 94.3049 723.131 86.6688 741.075 86.6688H801.782C819.726 86.6688 822.781 93.9231 818.581 110.722L812.472 134.776L746.039 135.539ZM777.728 120.267L780.401 109.577C781.546 104.995 780.783 103.086 776.201 103.086H759.784C755.584 103.086 753.675 104.995 752.529 109.577L749.857 120.267H777.728Z" fill="#74BF44"></path>
  <path d="M314.604 221.444L316.895 212.663C317.658 208.845 318.04 207.318 317.658 205.791H329.876C329.112 207.318 328.349 208.845 327.203 212.663L320.713 238.244C319.949 242.062 319.567 243.589 319.949 245.116H307.731C308.495 243.589 309.259 242.062 310.404 238.244L313.077 227.935H305.441L302.768 238.244C302.004 242.062 301.623 243.589 302.004 245.116H289.787C290.55 243.589 291.314 242.062 292.459 238.244L298.95 212.663C299.714 208.845 300.095 207.318 299.714 205.791H311.931C311.168 207.318 310.404 208.845 309.259 212.663L306.968 221.444H314.604Z" fill="#0973B9"></path>
  <path d="M335.221 233.28L334.457 235.953C334.076 237.862 334.457 239.007 335.985 239.007H345.53C347.439 239.007 348.584 239.007 350.493 237.862L347.82 244.734H327.967C323.385 244.734 323.003 242.062 324.531 235.953L327.585 224.499C329.112 218.39 331.021 215.717 335.603 215.717H350.875C355.456 215.717 355.838 218.39 354.311 224.499L352.02 233.28H335.221ZM343.621 227.935L344.766 224.117C345.148 222.59 345.148 221.826 344.002 221.826H339.803C338.657 221.826 338.275 222.59 337.894 224.117L336.748 227.935H343.621Z" fill="#0973B9"></path>
  <path d="M379.51 216.099C384.473 216.099 385.619 219.154 383.328 226.79L380.273 239.389C379.51 242.443 379.51 243.589 379.892 244.734H369.965L370.347 241.68C369.201 244.352 368.056 244.734 365.383 244.734H358.129C353.547 244.734 353.166 242.062 354.693 235.953L355.075 234.044C356.602 227.935 358.511 225.262 363.092 225.262H372.256C373.783 225.262 374.165 224.881 374.546 223.353C374.928 222.208 374.547 221.444 373.401 221.444H363.474C361.565 221.444 360.42 221.826 359.274 222.59L361.565 215.717H379.51V216.099ZM368.056 230.989C366.529 230.989 365.765 231.371 365.383 233.28L364.62 236.716C364.238 238.625 364.62 239.007 366.147 239.007H368.438C370.347 239.007 370.729 238.625 371.492 234.807L372.637 230.608L368.056 230.989Z" fill="#0973B9"></path>
  <path d="M394.018 209.609H403.945L402.418 216.099H410.436L408.909 221.826H400.891L397.073 237.098C396.691 239.007 396.691 239.389 398.6 239.389H402.036C403.945 239.389 405.472 238.625 405.854 238.244L403.563 245.116H390.964C387.91 245.116 385.619 243.207 387.146 236.335L390.582 222.208H386.382L387.91 216.481H392.109L394.018 209.609Z" fill="#0973B9"></path>
  <path d="M413.108 222.59C414.254 218.772 413.872 217.626 413.49 216.099H424.562L418.835 238.244C417.69 242.062 418.072 243.207 418.454 244.734H406.236C407.381 243.207 408.145 242.062 408.909 238.244L413.108 222.59ZM427.235 205.791L425.326 213.427H415.399L417.308 205.791H427.235Z" fill="#0973B9"></path>
  <path d="M438.689 216.099L438.307 219.154C439.071 217.626 440.216 216.099 441.743 216.099H449.761C454.343 216.099 455.488 220.299 453.961 226.408L450.907 237.862C449.761 241.68 450.143 242.825 450.525 244.352H438.307C439.453 242.825 440.216 241.68 440.98 237.862L444.416 223.735C444.798 221.826 444.416 221.444 443.271 221.444H439.453C438.307 221.444 437.544 222.208 437.162 223.735L433.726 237.862C432.58 241.68 432.962 242.825 433.344 244.352H421.126C422.272 242.825 423.035 241.68 423.799 237.862L427.617 222.208C428.762 218.39 428.38 217.245 427.999 215.717H438.689V216.099Z" fill="#0973B9"></path>
  <path d="M469.997 241.68C469.233 242.825 468.47 244.734 466.561 244.734H458.543C453.961 244.734 453.198 240.916 454.343 235.953L457.016 225.262C458.161 219.917 460.834 216.481 465.415 216.481H473.433C475.342 216.481 476.106 217.245 475.724 219.535L476.869 216.481H486.796C486.032 217.626 484.887 219.154 483.742 224.117L478.396 245.116C476.487 253.134 473.815 255.807 468.851 255.807H449.761L451.67 248.552C453.198 249.698 453.961 250.079 455.87 250.079H464.652C466.942 250.079 467.324 249.316 468.47 245.88L469.997 241.68ZM474.578 224.117C474.96 222.59 474.96 221.826 473.815 221.826H469.997C468.851 221.826 468.47 222.59 468.088 224.117L464.652 237.098C464.27 238.625 464.27 239.389 465.415 239.389H469.233C470.379 239.389 470.76 238.625 471.142 237.098L474.578 224.117Z" fill="#0973B9"></path>
  <path d="M515.813 212.281C514.667 212.281 514.286 212.663 513.904 213.427C513.904 213.808 513.904 214.954 514.286 216.099L517.722 226.79L520.395 223.735C521.158 222.972 521.158 222.208 522.304 219.154H526.885L526.122 222.208C525.74 224.117 524.594 225.644 523.831 226.79L519.631 231.371L521.158 235.571C521.922 237.48 522.685 237.862 524.213 237.862C525.74 237.862 525.74 237.48 526.885 237.098L524.213 244.352H513.522C511.995 244.352 510.849 243.207 510.468 240.916C508.94 242.825 507.413 244.352 503.977 244.352H497.105C492.141 244.352 490.996 241.298 492.523 235.571L494.05 230.226C495.577 224.499 497.868 221.444 501.304 221.444H503.977L502.45 216.481C502.068 215.336 501.686 213.808 502.45 211.899C503.595 207.318 505.886 205.409 509.322 205.409H527.649L525.74 213.045C524.594 212.281 524.212 211.899 521.54 211.899L515.813 212.281ZM502.832 235.571C502.45 237.48 502.45 238.244 503.977 238.244H505.886C507.413 238.244 508.177 237.48 508.941 236.716L505.122 226.026L502.832 235.571Z" fill="#0973B9"></path>
  <path d="M547.121 234.426L544.066 239.771C543.684 240.534 543.302 241.298 542.921 242.062C542.539 243.589 542.539 243.589 542.921 244.734H535.285C537.575 241.68 538.339 240.534 540.248 237.48L557.811 207.7L557.047 205.409H569.265L570.41 239.007C570.41 240.916 570.792 242.825 571.556 244.352H557.811C558.574 242.825 558.956 242.825 558.956 241.68C559.338 240.916 559.338 239.771 559.338 238.625L558.956 233.662L547.121 234.426ZM558.956 227.935L558.575 214.954L550.939 227.935H558.956Z" fill="#0973B9"></path>
  <path d="M578.81 222.59C579.955 218.772 579.574 217.626 579.192 216.099H590.264L584.537 238.244C583.392 242.062 583.773 243.207 584.155 244.734H571.938C573.083 243.207 573.847 242.062 574.61 238.244L578.81 222.59ZM592.937 205.791L591.028 213.427H581.101L583.01 205.791H592.937Z" fill="#0973B9"></path>
  <path d="M604.391 216.099L603.627 220.681C605.536 217.245 606.682 216.099 610.118 216.099H615.081L612.79 225.644C611.645 224.499 611.645 224.117 608.59 224.117C604.772 224.117 603.627 225.262 602.482 229.08L600.191 238.244C599.045 242.062 599.427 243.207 599.809 244.734H587.591C588.737 243.207 589.5 242.062 590.264 238.244L594.082 222.59C595.227 218.772 594.846 217.626 594.464 216.099H604.391Z" fill="#0973B9"></path>
  <path d="M657.079 237.862C656.316 241.68 655.934 243.207 656.316 244.734H644.098C644.862 243.207 645.625 241.68 646.77 237.862L653.261 212.281C654.025 208.463 654.407 206.936 654.025 205.409H676.169C680.369 205.409 682.66 206.936 680.751 214.954L679.224 221.063C677.315 229.08 673.878 230.608 670.06 230.608H659.37L657.079 237.862ZM660.515 224.499H665.861C667.388 224.499 667.77 223.735 668.533 221.063L670.06 215.717C670.824 213.045 670.442 212.281 668.915 212.281H663.57L660.515 224.499Z" fill="#0973B9"></path>
  <path d="M685.332 212.281C686.478 208.463 686.096 207.318 685.714 205.791H696.786L688.387 238.244C687.241 242.062 687.623 243.207 688.005 244.734H675.787C676.933 243.207 677.696 242.062 678.46 238.244L685.332 212.281Z" fill="#0973B9"></path>
  <path d="M709.386 244.734L709.768 241.68C709.004 243.207 707.859 244.734 706.332 244.734H698.314C693.732 244.734 692.587 240.534 694.114 234.426L697.168 222.972C698.314 219.154 697.932 218.008 697.55 216.481H708.622L703.277 237.098C702.895 239.007 703.277 239.389 704.423 239.389H708.241C709.386 239.389 710.15 238.626 710.531 237.098L713.968 222.972C715.113 219.154 714.731 218.008 714.349 216.481H725.422L719.695 238.625C718.549 242.443 718.931 243.589 719.313 245.116H709.386V244.734Z" fill="#0973B9"></path>
  <path d="M738.021 216.099L737.257 219.535C738.021 217.626 739.166 216.099 740.694 216.099H749.475C751.766 216.099 752.148 216.863 752.148 219.154C752.529 218.008 753.675 216.099 755.202 216.099H762.074C765.511 216.099 767.801 217.626 765.129 227.171L762.456 237.862C761.311 241.68 761.693 242.825 762.074 244.352H750.62C751.766 242.825 752.529 241.68 753.293 237.862L757.111 223.353C757.493 221.826 757.111 221.444 756.347 221.444H752.911C752.148 221.444 751.384 222.208 751.002 223.353L747.184 237.862C746.039 241.68 746.421 242.825 746.802 244.352H735.348C736.494 242.825 737.257 241.68 738.021 237.862L741.839 223.353C742.221 221.826 741.839 221.444 741.075 221.444H737.639C736.876 221.444 736.112 222.208 735.73 223.353L731.912 237.862C730.767 241.68 731.149 242.825 731.53 244.352H720.076C721.222 242.825 721.985 241.68 722.749 237.862L726.567 222.208C727.712 218.39 727.331 217.245 727.331 215.717H738.021V216.099Z" fill="#0973B9"></path>
  <path d="M763.983 244.734C764.747 243.589 765.511 242.443 766.274 239.389L773.528 211.136C774.292 208.081 774.292 206.936 773.91 205.791H784.601L781.164 218.772C781.546 217.626 782.692 216.099 784.601 216.099H792.618C797.2 216.099 797.964 219.917 796.818 224.881L794.146 235.571C792.618 240.916 790.328 244.352 785.746 244.352H777.346C776.201 244.352 776.201 243.207 775.819 241.298L774.292 244.352L763.983 244.734ZM776.965 237.098C776.583 238.626 776.965 239.389 777.728 239.389H781.546C782.692 239.389 783.073 238.626 783.455 237.098L786.891 224.117C787.273 222.59 786.891 221.826 786.128 221.826H782.31C781.164 221.826 780.783 222.59 780.401 224.117L776.965 237.098Z" fill="#0973B9"></path>
  <path d="M801.4 222.59C802.545 218.772 802.163 217.626 801.782 216.099H812.854L807.127 238.244C805.981 242.062 806.363 243.207 806.745 244.734H794.527C795.673 243.207 796.436 242.062 797.2 238.244L801.4 222.59ZM815.526 205.791L813.617 213.427H803.691L805.6 205.791H815.526Z" fill="#0973B9"></path>
  <path d="M826.98 216.099L826.599 219.154C827.362 217.626 828.508 216.099 830.035 216.099H838.053C842.634 216.099 843.78 220.299 842.252 226.408L839.198 237.862C838.053 241.68 838.435 242.825 838.816 244.352H826.599C827.744 242.825 828.508 241.68 829.271 237.862L832.707 223.735C833.089 221.826 832.708 221.444 831.562 221.444H827.744C826.599 221.444 825.835 222.208 825.453 223.735L822.017 237.862C820.872 241.68 821.253 242.825 821.635 244.352H809.418C810.563 242.825 811.327 241.68 812.09 237.862L815.908 222.208C817.054 218.39 816.672 217.245 816.672 215.717H826.98V216.099Z" fill="#0973B9"></path>
  <path d="M858.288 241.68C857.525 242.825 856.761 244.734 854.852 244.734H846.834C842.253 244.734 841.489 240.916 842.634 235.953L845.307 225.262C846.452 219.917 849.125 216.481 853.707 216.481H861.724C863.633 216.481 864.397 217.245 864.015 219.535L865.161 216.481H875.087C874.324 217.626 873.178 219.154 872.033 224.117L866.688 245.116C864.779 253.134 862.106 255.807 857.143 255.807H837.289L839.198 248.552C840.725 249.698 841.489 250.079 843.398 250.079H852.943C855.234 250.079 855.616 249.316 856.761 245.88L858.288 241.68ZM862.87 224.117C863.252 222.59 863.252 221.826 862.106 221.826H858.288C857.143 221.826 856.761 222.59 856.379 224.117L852.943 237.098C852.561 238.625 852.561 239.389 853.707 239.389H857.525C858.67 239.389 859.052 238.625 859.434 237.098L862.87 224.117Z" fill="#0973B9"></path>
  <path d="M931.212 238.244C933.503 238.244 935.03 237.862 936.176 237.098L933.503 244.734H909.449C910.213 243.207 910.977 241.68 912.122 237.862L918.613 212.281C919.376 208.463 919.758 206.936 919.376 205.409H943.048L941.903 213.045C940.757 212.663 939.993 211.899 937.321 211.899H928.921L926.63 221.063H933.885C936.175 221.063 937.703 220.681 938.848 219.917L936.557 228.317C935.412 227.935 934.648 227.171 931.976 227.171H924.721L922.049 237.48L931.212 238.244Z" fill="#0973B9"></path>
  <path d="M945.339 212.281C946.484 208.463 946.102 207.318 946.102 205.791H957.175L948.775 238.244C947.63 242.062 948.011 243.207 948.393 244.734H936.176C937.321 243.207 938.085 242.062 938.848 238.244L945.339 212.281Z" fill="#0973B9"></path>
  <path d="M964.047 233.662L963.283 236.335C962.902 238.244 963.283 239.389 964.811 239.389H974.356C976.265 239.389 977.41 239.389 979.319 238.244L976.646 245.116H956.793C952.211 245.116 951.829 242.443 953.357 236.335L956.411 224.881C957.938 218.772 959.847 216.099 964.429 216.099H979.701C984.282 216.099 984.664 218.772 983.137 224.881L980.846 233.662H964.047ZM972.447 227.935L973.592 224.117C973.974 222.59 973.974 221.826 972.828 221.826H968.629C967.483 221.826 967.101 222.59 966.72 224.117L965.574 227.935H972.447Z" fill="#0973B9"></path>
  <path d="M993.446 236.335C993.064 238.244 993.446 239.389 994.973 239.389H999.936C1003.37 239.389 1004.14 238.625 1005.66 237.862L1002.99 244.734H987.337C982.755 244.734 981.992 240.916 983.137 235.953L985.81 225.262C986.955 219.917 989.628 216.481 994.209 216.481H1009.86L1009.1 223.735C1008.72 222.59 1007.19 222.208 1004.9 222.208H999.173C997.645 222.208 996.882 222.972 996.118 225.262L993.446 236.335Z" fill="#0973B9"></path>
  <path d="M1018.26 210.372L1028.19 209.99L1026.66 216.099H1034.68L1033.15 221.826H1025.14L1021.32 237.098C1020.94 239.007 1020.94 239.389 1022.84 239.389H1026.28C1028.19 239.389 1029.72 238.625 1030.1 238.244L1027.81 245.116H1015.21C1012.15 245.116 1009.86 243.207 1011.39 236.335L1014.83 222.208H1010.63L1012.15 216.481H1016.35L1018.26 210.372Z" fill="#0973B9"></path>
  <path d="M1047.66 216.099L1046.9 220.681C1048.81 217.245 1049.95 216.099 1053.39 216.099H1058.35L1056.06 225.644C1054.92 224.499 1054.92 224.117 1051.86 224.117C1048.04 224.117 1046.9 225.262 1045.75 229.08L1043.46 238.244C1042.32 242.062 1042.7 243.207 1042.7 244.734H1030.48C1031.63 243.207 1032.39 242.062 1033.15 238.244L1036.97 222.59C1038.12 218.772 1037.73 217.626 1037.35 216.099H1047.66Z" fill="#0973B9"></path>
  <path d="M1059.5 222.59C1060.64 218.772 1060.26 217.626 1059.88 216.099H1070.95L1065.22 238.244C1064.08 242.062 1064.46 243.207 1064.84 244.734H1052.62C1053.77 243.207 1054.53 242.062 1055.3 238.244L1059.5 222.59ZM1074.01 205.791L1072.1 213.427H1062.17L1064.08 205.791H1074.01Z" fill="#0973B9"></path>
  <path d="M1080.11 236.335C1079.73 238.244 1080.11 239.389 1081.64 239.389H1086.6C1090.04 239.389 1090.8 238.625 1092.33 237.862L1089.66 244.734H1074.01C1069.42 244.734 1068.66 240.916 1069.81 235.953L1072.48 225.262C1073.62 219.917 1076.3 216.481 1080.88 216.481H1096.53L1095.77 223.735C1095.39 222.59 1093.86 222.208 1091.57 222.208H1085.84C1084.31 222.208 1083.55 222.972 1082.79 225.262L1080.11 236.335Z" fill="#0973B9"></path>
  <path d="M1120.59 216.099C1125.55 216.099 1126.69 219.154 1124.4 226.79L1121.35 239.389C1120.59 242.443 1120.59 243.589 1120.97 244.734H1111.04L1111.42 241.68C1110.28 244.352 1109.13 244.734 1106.46 244.734H1099.2C1094.62 244.734 1094.24 242.062 1095.77 235.953L1096.15 234.044C1097.68 227.935 1099.59 225.262 1104.17 225.262H1113.33C1114.86 225.262 1115.24 224.881 1115.62 223.353C1116 222.208 1115.62 221.444 1114.48 221.444H1104.17C1102.26 221.444 1101.11 221.826 1099.97 222.59L1102.26 215.717H1120.59V216.099ZM1109.13 230.989C1107.6 230.989 1106.84 231.371 1106.46 233.28L1105.7 236.716C1105.31 238.625 1105.7 239.007 1107.22 239.007H1109.51C1111.42 239.007 1111.8 238.625 1112.57 234.807L1113.71 230.608L1109.13 230.989Z" fill="#0973B9"></path>
  <path d="M1132.8 212.281C1133.95 208.463 1133.57 207.318 1133.18 205.791H1144.26L1135.86 238.244C1134.71 242.062 1135.09 243.207 1135.48 244.734H1123.26C1124.4 243.207 1125.17 242.062 1125.93 238.244L1132.8 212.281Z" fill="#0973B9"></path>
  <path d="M627.68 233.662C631.498 233.662 634.553 230.99 634.935 227.553C635.317 224.117 632.262 221.444 628.826 221.444C625.008 221.444 621.953 224.117 621.572 227.553C621.19 230.608 623.862 233.662 627.68 233.662Z" fill="#F7941D"></path>
  <path d="M892.65 233.662C896.468 233.662 899.523 230.99 899.904 227.553C900.286 224.117 897.232 221.444 893.796 221.444C889.978 221.444 886.923 224.117 886.541 227.553C886.16 230.99 888.832 233.662 892.65 233.662Z" fill="#F7941D"></path>
  <path d="M1200 69.106C1200 74.833 1195.42 79.4146 1189.31 79.4146C1183.2 79.4146 1178.62 74.833 1178.62 69.106C1178.62 63.379 1183.2 58.7974 1189.31 58.7974C1195.42 58.7974 1200 63.379 1200 69.106ZM1181.29 69.106C1181.29 73.6876 1184.73 77.5056 1189.31 77.5056C1193.89 77.5056 1197.33 73.6876 1197.33 69.106C1197.33 64.5244 1193.89 60.7064 1189.31 60.7064C1184.73 61.0882 1181.29 64.5244 1181.29 69.106ZM1187.78 74.4512H1185.49V64.1426C1186.26 64.1426 1187.78 63.7608 1189.31 63.7608C1191.22 63.7608 1191.98 64.1426 1192.75 64.5244C1193.51 64.9062 1193.89 65.6698 1193.89 66.8152C1193.89 67.9606 1192.75 68.7242 1191.6 69.106C1192.75 69.4878 1193.13 70.2514 1193.51 71.7786C1193.89 73.3058 1193.89 74.0694 1194.27 74.4512H1191.98C1191.6 74.0694 1191.6 73.3058 1191.22 71.7786C1190.84 70.6332 1190.46 70.2514 1188.93 70.2514H1187.78V74.4512ZM1187.78 68.7242H1188.93C1190.07 68.7242 1191.22 68.3424 1191.22 67.197C1191.22 66.4334 1190.46 65.6698 1188.93 65.6698C1188.16 65.6698 1187.78 65.6698 1187.78 65.6698V68.7242Z" fill="#0973B9"></path>
</svg>
