<?xml version="1.0" encoding="UTF-8"?>
<svg xmlns="http://www.w3.org/2000/svg" width="1200" height="304" viewBox="0 0 1200 304" fill="none">
  <path d="M387.537 126.481C390.29 136.187 397.357 139.689 406.708 139.689C410.844 139.689 419.129 139.054 419.129 133.015C419.129 126.329 410.996 125.06 406.251 124.109C386.459 120.137 363 114.568 363 88.6345C363 77.9771 368.049 67.4719 376.486 61.2678C385.076 55.0636 396.279 52.9956 406.708 52.9956C424.952 52.9956 442.588 60.7857 449.046 79.728L422.351 88.1651C419.294 80.0578 413.47 77.1905 405.325 77.1905C401.024 77.1905 394.896 78.4592 394.896 84.1939C394.896 89.9286 402.559 91.0325 406.555 91.984C416.515 94.0521 427.096 95.8029 436.32 100.738C446.597 106.46 451.951 116.648 451.951 128.574C451.951 154.825 426.792 165.33 405.02 165.33C383.249 165.33 363.291 155.776 357.62 132.076L387.537 126.506V126.481Z" fill="#10384D"></path>
  <path d="M562.395 124.73C562.395 137.456 561.024 147.644 550.9 156.068C541.854 163.389 530.803 165.292 519.752 165.292C510.097 165.292 497.511 163.059 489.391 157.489C478.188 149.851 476.044 139.511 476.044 126.456V54.5433H508.867V122.637C508.867 126.291 508.702 131.226 510.858 134.563C513.307 138.065 518.217 139.498 522.366 139.498C526.045 139.498 530.663 138.382 533.417 135.844C537.565 132.19 537.096 126.456 537.096 121.368V54.5433H562.395V124.705V124.73Z" fill="#10384D"></path>
  <path d="M628.813 100.7C636.172 100.7 645.066 100.218 645.066 90.0427C645.066 79.8674 637.085 79.5375 629.739 79.5375H620.376V100.7H628.813ZM620.376 163.706H587.706V54.556H630.64C640.93 54.556 652.425 54.8732 661.471 60.2907C671.291 66.3299 677.127 77.1523 677.127 88.9262C677.127 99.2664 673.283 109.137 665.467 115.659C657.347 122.497 646.905 124.083 636.781 124.083H620.363V163.706H620.376Z" fill="#10384D"></path>
  <path d="M780.199 163.706H701.208V54.5687H780.199V79.7025H732.799V95.6125H771.153V119.96H732.799V137.62H780.199V163.706Z" fill="#10384D"></path>
  <path d="M849.828 98.6321C856.895 98.6321 865.332 97.5156 865.332 88.1269C865.332 84.4729 863.48 80.9712 860.257 79.2204C857.504 77.7867 854.129 77.7867 851.059 77.7867H838.016V98.6321H849.828ZM863.48 163.706L848.141 122.028H838.016V163.706H805.346V54.556H858.874C868.085 54.556 878.21 55.8374 886.025 61.2423C894.767 66.9643 898.916 76.6702 898.916 87.3276C898.916 101.652 892.775 110.241 880.354 116.128L899.372 163.706H863.48Z" fill="#10384D"></path>
  <path d="M958.42 54.5687H925.902V163.718H958.42V54.5687Z" fill="#10384D"></path>
  <path d="M1016.86 109.607C1016.86 120.112 1017.94 140.31 1032.67 140.31C1047.4 140.31 1048.47 120.099 1048.47 109.607C1048.47 99.1143 1046.94 77.6345 1032.67 77.6345C1018.39 77.6345 1016.86 98.9494 1016.86 109.607ZM1082.97 109.455C1082.97 140.475 1064.57 165.304 1032.67 165.304C1000.76 165.304 982.348 140.488 982.348 109.455C982.348 76.8352 1000.61 52.9702 1032.67 52.9702C1064.73 52.9702 1082.97 76.8352 1082.97 109.455Z" fill="#10384D"></path>
  <path d="M1150.47 98.6321C1157.52 98.6321 1165.96 97.5156 1165.96 88.1269C1165.96 84.4729 1164.12 80.9712 1160.9 79.2204C1158.13 77.7867 1154.76 77.7867 1151.69 77.7867H1138.66V98.6321H1150.47ZM1164.12 163.706L1148.78 122.028H1138.66V163.706H1105.97V54.556H1159.51C1168.71 54.556 1178.84 55.8374 1186.67 61.2423C1195.41 66.9643 1199.54 76.6702 1199.54 87.3276C1199.54 101.652 1193.42 110.241 1180.98 116.128L1200 163.706H1164.11H1164.12Z" fill="#10384D"></path>
  <path d="M363 189.639H375.547L378.757 218.109C379.442 224.123 379.62 229.059 379.886 233.651C380.331 227.27 381.358 218.833 381.701 216.32L385.951 189.639H396.596L401.176 217.653C401.709 220.888 401.874 224.034 402.66 233.639C402.749 231.393 403.257 221.332 403.954 216.308L407.329 189.626H417.644L407.164 249.523H396.786L391.851 220.165C391.495 218.097 390.633 212.984 390.455 206.691C390.125 210.916 389.326 217.564 388.907 220.165L383.972 249.523H373.581L363.012 189.626L363 189.639Z" fill="#10384D"></path>
  <path d="M484.722 226.902L481.525 210.928C481.005 208.492 480.574 206.259 480.307 200.88C479.952 203.379 479.622 206.716 478.912 210.396L475.791 226.915H484.71L484.722 226.902ZM487.235 189.639L500.303 249.536H488.351L486.017 236.608H474.598L472.34 249.536H461.695L474.928 189.639H487.222H487.235Z" fill="#10384D"></path>
  <path d="M569.233 249.536H557.371V200.956H547.944V189.639H578.927V200.956H569.233V249.536Z" fill="#10384D"></path>
  <path d="M643.67 214.062H657.614V224.035H643.67V239.031H661.864V249.536H631.82V189.639H661.864V200.157H643.67V214.062Z" fill="#10384D"></path>
  <path d="M729.031 216.13H732.33C736.91 216.13 738.737 212.984 738.737 207.338C738.737 201.146 736.136 199.078 732.33 199.078H729.031V216.13ZM717.435 189.639H732.33C738.559 189.639 742.099 190.007 745.131 192.874C750.498 198.089 750.498 205.181 750.498 207.427C750.498 218.731 745.652 221.878 742.962 223.59L751.704 249.536H739.232L732.749 226.014H729.018V249.536H717.422V189.639H717.435Z" fill="#10384D"></path>
  <path d="M874.391 196.833C870.914 196.833 870.141 200.157 870.141 202.047C870.141 205.447 872.488 209.139 873.439 210.662C874.987 209.761 878.286 207.972 878.286 202.314C878.286 201.058 878.108 196.833 874.391 196.833ZM871.092 240.642C874.898 240.642 876.548 238.764 877.499 237.585C874.213 233.639 870.661 228.703 867.971 223.578C863.568 226.724 863.569 231.203 863.569 232.37C863.569 236.772 865.89 240.629 871.092 240.629V240.642ZM896.036 216.764C895.769 223.324 893.701 230.048 889.971 236.252C891.189 237.788 892.394 239.399 894.906 239.399C895.414 239.399 895.68 239.31 896.124 239.221V249.105C894.818 249.549 893.612 249.993 891.62 249.993C886.863 249.993 884.439 247.037 883.044 245.222C879.669 247.747 876.218 250.437 868.935 250.437C856.476 250.437 852.848 240.388 852.848 232.751C852.848 221.256 860.282 217.12 863.315 215.508C861.145 211.639 859.509 207.427 859.509 203.024C859.509 196.909 862.96 188.738 872.741 188.738C882.523 188.738 886.177 195.653 886.177 203.024C886.177 211.639 881.153 215.229 877.169 218.021C878.895 221.078 882.092 226.014 884.439 228.437C886.774 224.491 887.637 219.987 888.157 215.42L896.036 216.764Z" fill="#10384D"></path>
  <path d="M1025.09 226.902L1021.88 210.928C1021.36 208.492 1020.93 206.259 1020.68 200.88C1020.32 203.379 1019.98 206.716 1019.28 210.396L1016.17 226.915H1025.09V226.902ZM1027.6 189.639L1040.67 249.536H1028.73L1026.39 236.608H1014.95L1012.71 249.536H1002.06L1015.3 189.639H1027.59H1027.6Z" fill="#10384D"></path>
  <path d="M1106.3 189.639H1094.44V249.536H1106.3V189.639Z" fill="#10384D"></path>
  <path d="M1176.93 216.13H1180.22C1184.81 216.13 1186.63 212.984 1186.63 207.338C1186.63 201.146 1184.04 199.078 1180.22 199.078H1176.93V216.13ZM1165.34 189.639H1180.23C1186.46 189.639 1190.02 190.007 1193.05 192.874C1198.4 198.089 1198.4 205.181 1198.4 207.427C1198.4 218.731 1193.56 221.878 1190.88 223.59L1199.62 249.536H1187.16L1180.66 226.014H1176.95V249.536H1165.35V189.639H1165.34Z" fill="#10384D"></path>
  <path d="M151.551 248.445C121.736 248.445 95.5234 233.144 80.2605 209.977C75.9087 208.822 72.7749 207.084 70.2248 205.663C66.9133 203.81 64.9087 202.681 59.948 202.681C54.9872 202.681 52.9572 203.798 49.6458 205.663C45.4462 208.01 39.7115 211.233 29.4347 211.233C19.7035 211.233 14.0576 208.353 9.92151 206.056C31.7819 262.984 86.9341 303.407 151.564 303.407C216.193 303.407 271.384 262.946 293.231 205.993C289.083 208.302 283.411 211.233 273.578 211.233C263.746 211.233 257.554 208.01 253.355 205.663C250.043 203.81 248.039 202.681 243.065 202.681C238.092 202.681 236.075 203.798 232.763 205.663C230.251 207.071 227.155 208.771 222.892 209.926C207.629 233.106 181.404 248.445 151.576 248.445H151.551Z" fill="#10384D"></path>
  <path d="M66.3932 158.669C64.6804 157.996 62.8153 157.59 59.948 157.59C54.9618 157.59 52.9572 158.707 49.6458 160.572C45.4463 162.919 39.7116 166.142 29.4348 166.142C19.158 166.142 13.4106 162.919 9.22374 160.572C6.17876 158.872 4.14878 157.831 0 157.654C0.329873 166.154 1.33217 174.49 3.00691 182.572C10.7716 183.282 15.5421 185.921 19.1453 187.938C22.4567 189.791 24.4613 190.92 29.4348 190.92C34.4082 190.92 36.4128 189.804 39.7243 187.938C43.9238 185.591 49.6712 182.369 59.948 182.369C63.3355 182.369 66.1902 182.737 68.6896 183.295C67.1037 176.799 66.1775 170.049 66.1775 163.071C66.1775 161.587 66.3044 160.128 66.3805 158.656L66.3932 158.669Z" fill="#10384D"></path>
  <path d="M234.412 183.282C236.899 182.749 239.716 182.381 243.053 182.381C253.329 182.381 259.077 185.604 263.276 187.951C266.588 189.804 268.592 190.933 273.566 190.933C278.539 190.933 280.557 189.816 283.881 187.951C287.497 185.934 292.28 183.269 300.121 182.572C301.795 174.49 302.785 166.154 303.115 157.654C298.915 157.806 296.873 158.859 293.802 160.572C289.603 162.919 283.855 166.142 273.578 166.142C263.302 166.142 257.554 162.919 253.355 160.572C250.043 158.719 248.039 157.59 243.065 157.59C240.261 157.59 238.409 157.984 236.722 158.618C236.798 160.102 236.925 161.574 236.925 163.084C236.925 170.049 235.998 176.799 234.425 183.282H234.412Z" fill="#10384D"></path>
  <path d="M151.551 25.7047C177.509 69.8949 196.464 90.6769 206.767 99.926C208.302 100.433 210.04 100.713 212.527 100.713C217.513 100.713 219.517 99.5961 222.842 97.7311C227.041 95.3839 232.788 92.1613 243.065 92.1613C253.342 92.1613 259.089 95.3839 263.289 97.7311C266.6 99.5835 268.605 100.713 273.578 100.713C278.552 100.713 280.569 99.5961 283.893 97.7311C286.025 96.5385 288.575 95.1302 291.899 94.0264C269.201 38.8488 214.937 0 151.576 0C88.2155 0 33.9387 38.8615 11.241 94.0518C14.527 95.1556 17.0391 96.5638 19.1579 97.7438C22.4693 99.5961 24.4739 100.725 29.4474 100.725C34.4209 100.725 36.4255 99.6088 39.7369 97.7438C43.9364 95.3966 49.6838 92.174 59.9606 92.174C70.2374 92.174 75.9721 95.3966 80.1716 97.7438C83.4831 99.5961 85.4877 100.725 90.4611 100.725C93.0874 100.725 94.889 100.395 96.4876 99.8245C106.815 90.5246 125.719 69.7427 151.576 25.7174L151.551 25.7047Z" fill="#10384D"></path>
  <path d="M243.053 137.278C253.329 137.278 259.077 140.5 263.276 142.847C266.588 144.7 268.592 145.829 273.566 145.829C278.539 145.829 280.557 144.713 283.881 142.847C287.865 140.627 293.269 137.658 302.569 137.341C301.795 129.107 300.374 121.076 298.344 113.273C296.796 113.781 295.464 114.529 293.802 115.468C289.603 117.815 283.855 121.038 273.579 121.038C263.302 121.038 257.554 117.815 253.355 115.468C250.043 113.616 248.039 112.487 243.065 112.487C238.092 112.487 236.075 113.603 232.763 115.468C230.619 116.673 228.043 118.094 224.681 119.198C228.297 125.161 231.165 131.619 233.233 138.432C235.973 137.734 239.196 137.29 243.065 137.29L243.053 137.278Z" fill="#10384D"></path>
  <path d="M70.2248 115.455C66.9134 113.603 64.9088 112.474 59.948 112.474C54.9872 112.474 52.9572 113.59 49.6458 115.455C45.4463 117.803 39.7116 121.025 29.4348 121.025C19.158 121.025 13.4106 117.803 9.22373 115.455C7.58705 114.542 6.28025 113.806 4.77045 113.299C2.74046 121.089 1.31947 129.12 0.558228 137.328C9.79466 137.658 15.1868 140.615 19.158 142.835C22.4694 144.687 24.474 145.816 29.4475 145.816C34.4209 145.816 36.4255 144.7 39.7369 142.835C43.9365 140.488 49.6839 137.265 59.9607 137.265C63.8684 137.265 67.1164 137.735 69.8822 138.445C71.9503 131.645 74.8176 125.187 78.4081 119.224C74.9952 118.107 72.3943 116.673 70.2375 115.455H70.2248Z" fill="#10384D"></path>
  <path d="M200.867 123.245C227.028 165.127 204.762 225.671 147.922 223.666C185.299 196.122 193.242 166.713 200.867 123.245Z" fill="#10384D"></path>
</svg>
