<?xml version="1.0" encoding="UTF-8"?>
<svg xmlns="http://www.w3.org/2000/svg" width="7968" height="2989" viewBox="0 0 7968 2989" fill="none">
  <g clip-path="url(#clip0_599_176)">
    <path d="M1112.92 1434.49C1109.65 1487.73 1109.01 1543.21 1104.77 1596.28C1096.42 1700.71 1087.01 1824.13 1070.61 1927.02C1055.57 2021.39 1010.42 2088.69 1076.04 2180.33C1141.68 2272.01 1359.69 2338.6 1464.04 2303.2C1605.66 2255.16 1574.01 2081.34 1619.45 1969.13C1778.61 1916.53 1934.93 1857.02 2076.4 1766.17C2075.16 1905.35 1996.18 2061.34 2109.58 2176.72C2125.01 2192.41 2173.59 2228.82 2193.38 2242.32C2266.22 2291.99 2321.46 2313.29 2412.02 2304.33L2836.22 2222.08C3038.34 2344.65 3357.66 2352.09 3509.21 2147.71C3552.24 2231.52 3625.15 2268.13 3712.69 2292.72C3791.5 2314.85 3845.42 2327.12 3919.65 2283.73C3960.81 2259.67 3978.61 2235.07 3991.09 2188.94C4070.93 2218.79 4160.96 2251.21 4248.06 2238.45C4271.11 2235.07 4293.11 2210.29 4313.02 2215.13C4323.53 2217.69 4348.75 2240.87 4363.23 2248.58C4521.55 2332.87 4714.96 2354.02 4763.44 2139.25C4780.84 2139.61 4820.8 2191.4 4838.24 2205.54C4941.42 2289.23 5069.31 2336.87 5201.32 2311.16C5331.03 2285.89 5461.22 2226.77 5576.62 2164.57C5632.69 2264.52 5843.75 2330.9 5947.29 2301.31C5985.72 2290.33 6029.82 2230.64 6042.3 2230.43C6057.47 2230.17 6083.96 2254.35 6102.45 2261.87C6229.18 2313.41 6407.56 2350.69 6453.7 2180.78C6509.49 2239.58 6575.07 2265.42 6652.82 2284.56C6725.36 2302.42 6780.74 2315.75 6852.37 2284.48C6903.11 2262.32 6930.12 2223.01 6947.88 2172.42C6962.51 2172.78 6984.31 2201.85 6999.07 2212.53C7189.14 2350.14 7484.44 2357.28 7666.45 2201.67C7778.62 2105.78 7928.1 1887.13 7857.42 1736.78C7958.32 1567.19 7965.62 1289.82 7798.53 1157.35C7620.61 1016.29 7286.37 977.636 7121.12 1159.9C7109.2 1162.51 7040.87 1112.84 7021.53 1103.85C6886.83 1041.22 6702.31 1022.61 6648.74 1194.09C6638.99 1193.91 6600.62 1160.66 6583.82 1151.1C6493.81 1099.87 6322.86 1043.49 6220.57 1065.04C6180.29 1073.53 6152.91 1099.66 6124.4 1126.66C5997.69 1066.36 5832.91 1006.4 5734.23 1143.86C5622.73 1060.68 5483.12 1029.61 5344.68 1036.39C5198.45 1043.55 5037.08 1085.68 4903.14 1142.99C4717.13 1070.15 4480.41 954.166 4336.98 1158.08C4311.57 1194.2 4287.01 1245.31 4269.11 1285.23C4250.17 1278.14 4250.2 1252.16 4240.47 1235.12C4197.76 1160.33 4143.22 1132.29 4063.45 1105.04C3970.1 1073.15 3789.34 1030.94 3701.42 1079.14C3688.22 1086.37 3662.52 1115.3 3650.51 1116.39C3635.94 1117.71 3551.72 1072.88 3521.86 1065.29C3405.54 1035.74 3279.82 1061.9 3255.8 1194.02C3143.16 1100.94 2903.64 989.456 2800.34 1149.72C2781.98 1178.21 2782.73 1216.98 2757.58 1235.47C2737.89 1166.64 2660.08 1120.71 2597.1 1092.98C2500.51 1050.46 2360.65 1009.93 2271.61 1085.66C2207.03 1007.38 2152.23 928.136 2053.75 889.146C1922.29 837.106 1779.96 849.576 1644.77 878.776C1644.43 855.806 1621.44 821.116 1602.54 808.916C1565.74 785.166 1519.67 771.416 1482.62 774.556C1442.79 777.926 1409.12 797.316 1403.72 800.256C1391.68 806.816 1376.48 814.996 1369.82 821.256C1359.93 830.536 1350.98 838.826 1337.64 850.336C1288.63 892.656 1294.48 1000.08 1187.75 978.456C1188.36 1010.76 1212.37 1021.36 1237.53 1032.3C1159.62 1080.64 1137.84 1153.23 1129.53 1238.63C1129.53 1238.63 1115.85 1373.16 1112.92 1434.49Z" fill="#10384D"></path>
    <path d="M1648.21 962.986C1692.96 954.376 1791.68 941.086 1828.98 938.216C1983.13 926.366 2072.29 981.936 2163.04 1104.9C2208.44 1166.41 2243.24 1236.59 2260.87 1311.26C2262.87 1319.72 2274.86 1319.94 2277.33 1311.6L2313.6 1188.8C2313.78 1188.2 2314.02 1187.6 2314.32 1187.04C2351.23 1117.71 2409.35 1134.99 2473.21 1151.8C2540.23 1169.44 2682.66 1220.02 2674.25 1305.67C2674.18 1306.34 2674.04 1307 2673.85 1307.64C2611.8 1507.51 2543.33 1707.31 2502.5 1912.62C2501.32 1918.56 2506.56 1923.85 2512.5 1922.71C2594.09 1907.05 2698.99 1893.46 2749.72 1939.04C2755.84 1944.54 2765.39 1939.55 2764.01 1931.45L2754.86 1877.87C2754.81 1877.58 2754.77 1877.29 2754.75 1877C2750.88 1826.78 2751.39 1776.27 2757.33 1726.25C2773.02 1594.29 2798.55 1446.15 2834.56 1317.97C2869.35 1194.14 2880.16 1125.07 3036.1 1178.58C3106.69 1202.8 3237.63 1276.6 3222.35 1341.42C3207.1 1406.15 3158.8 1568.18 3141.88 1633.11C3114.46 1738.33 3082.51 1857.19 3094.56 1966.71C3096.24 1981.96 3115.54 1988.05 3125.55 1976.42C3141.33 1958.07 3158.27 1931.26 3160.7 1925.53C3255.5 1702.01 3291.46 1411.32 3349.93 1183.62C3350.11 1182.93 3350.37 1182.24 3350.69 1181.61C3395.19 1094.78 3505.52 1157.81 3574.49 1188.35C3606.9 1202.7 3658.98 1224.24 3680.51 1255.64C3684.19 1261.01 3692.43 1260.07 3695.14 1254.15L3725.15 1188.63C3725.45 1187.99 3725.81 1187.36 3726.24 1186.8C3770.76 1128.3 3890.92 1158.01 3955.43 1172.9C4048.01 1194.28 4138.32 1217.49 4165.79 1319.44C4185.31 1391.9 4186.59 1482.23 4199.58 1559.44C4200.8 1566.69 4210 1569.23 4214.66 1563.56C4250.47 1519.99 4272.92 1462.33 4300.89 1413.74C4335.52 1353.57 4419.81 1192.67 4468.98 1158.66C4528.42 1117.54 4603.63 1141.3 4667.89 1158.15C4744.47 1178.23 4826.51 1206.28 4892.07 1251.06C4894.62 1252.8 4897.86 1253.03 4900.61 1251.62C5071.18 1164.37 5284.78 1119.15 5476.84 1138.28C5615.8 1152.12 5708.63 1242.89 5759.88 1364.79C5763 1372.22 5773.73 1371.68 5775.94 1363.93C5801.21 1275.23 5794.21 1141.62 5917.14 1154.8C5985.99 1162.18 6121.09 1214.61 6159.01 1279.15C6161.89 1284.06 6168.78 1284.8 6172.59 1280.57C6183.5 1268.48 6178.57 1245.43 6183.18 1228.2C6213.81 1113.6 6337.24 1159.21 6418.46 1184.99C6501.65 1211.4 6576.39 1234.01 6601.14 1326C6606.76 1346.88 6626.23 1491.67 6640.06 1547.15C6642.12 1555.4 6653.68 1555.8 6656.46 1547.77C6691.84 1445.51 6703.53 1328.64 6740.22 1228.75C6748.48 1206.26 6765.76 1170.25 6787.99 1160.35C6853.84 1131.04 7023.55 1193.88 7063.69 1253.95C7082.85 1282.62 7076.17 1307.18 7073.2 1334.88C7072.29 1343.36 7083.06 1347.76 7088.36 1341.09C7153.96 1258.49 7235.37 1162.5 7340.06 1139.37C7502.41 1103.5 7794.58 1185.16 7821.95 1375.9C7831.58 1442.99 7828.87 1614.38 7786.38 1667.86C7767.28 1691.9 7744 1694.37 7717.37 1693.75C7710.17 1693.58 7705.99 1701.89 7710.43 1707.57C7754.99 1764.61 7797.73 1801.45 7770.18 1883.88C7734.32 1991.16 7612.99 2148.88 7508.51 2194.78C7343.17 2267.42 7040.35 2207.61 6967.23 2022.63C6967.09 2022.28 6966.97 2021.92 6966.87 2021.55L6931.43 1890.63C6929.13 1882.13 6917.03 1882.25 6914.9 1890.8L6848.66 2156.8C6848.51 2157.4 6848.3 2158.01 6848.03 2158.58C6812.46 2234.42 6716.26 2207.06 6651.09 2188.26C6550.74 2159.31 6531.91 2134.53 6491.13 2041.15C6465.84 1983.23 6445.2 1918.35 6430.08 1856.62C6429.2 1853.02 6426.09 1850.42 6422.39 1850.17C6409.7 1849.31 6413.87 1849.9 6412.31 1863.11C6400.97 1959.58 6368.97 2053.54 6360.15 2150.66C6360.12 2150.98 6360.07 2151.31 6360.01 2151.62C6341.77 2245.81 6235.02 2211.19 6169.21 2188.39C6070.66 2154.26 6058.15 2120.08 6062.82 2020.19C6066.11 1949.8 6080 1861.1 6088.9 1789.17C6098.86 1708.68 6116.74 1628.34 6125.4 1547.63C6126.45 1537.84 6112.77 1534.35 6108.98 1543.43C6108.89 1543.64 6108.81 1543.86 6108.74 1544.08C6043.18 1739.42 6018.79 1961.72 5957.73 2155.74C5950.57 2178.49 5935.95 2210.78 5909.52 2215.36C5866.29 2222.85 5759.59 2194.21 5720.49 2172.03C5702.04 2161.56 5670.75 2130.64 5666.2 2110.14C5654.57 2057.74 5674.34 1939.08 5682.01 1880.47C5693.2 1794.94 5711.36 1709.51 5726.86 1624.57C5728.28 1616.77 5719.18 1611.43 5713.04 1616.44L5580.15 1724.76C5576.4 1727.82 5575.99 1733.32 5579.16 1736.97C5635.74 1802.1 5673.84 1888.9 5632.8 1972.31C5576.75 2086.22 5360.68 2172.44 5242.79 2204.84C5135.48 2234.34 5097.33 2242.02 4994.31 2192.19C4921.28 2156.87 4824.6 2093.68 4825.06 2003.97C4825.47 1923.39 4842.68 1814.45 4851.33 1731.11C4862.08 1627.51 4885.79 1524.41 4883.75 1419.45C4871.79 1417.52 4872.85 1433.4 4869.35 1442.24C4779.01 1670.2 4734.65 1927.68 4655.53 2157.54C4645.94 2185.4 4627.98 2210.4 4596.91 2215.06C4550.82 2221.98 4449.22 2196.46 4410.85 2169.37C4324.06 2108.1 4388.7 2001.11 4393.76 1913.17C4394.28 1904.17 4382.33 1900.59 4377.78 1908.38C4373.7 1915.36 4370.22 1923 4367.4 1927.96C4345.28 1966.91 4272.04 2123.87 4247.51 2139.95C4208.53 2165.5 4080.14 2132.85 4041.99 2106.43C3992.92 2072.46 3967.35 1928.92 3955.86 1857.29C3954.39 1848.11 3940.99 1847.52 3939.13 1856.63C3938.18 1861.3 3938.04 1866.49 3936.93 1871.35C3917.45 1956.62 3915.75 2048.92 3901.64 2134.62C3896.97 2162.96 3882.76 2209.73 3849.66 2215.38C3776.27 2227.91 3613.7 2183.97 3604.42 2095.49C3589.76 1955.66 3627.83 1810.94 3638.02 1672.44C3639.54 1651.83 3636.97 1630.75 3637.86 1610.17C3626.1 1608.2 3626.24 1624.64 3623.72 1633.23C3574.96 1799.78 3499.58 2088.65 3336.29 2175.52C3189.63 2253.55 2939.68 2220.91 2830.29 2088.21C2825.78 2082.74 2816.99 2084.77 2815.41 2091.68C2811.07 2110.68 2806.55 2129.16 2785.63 2138.43C2784.97 2138.72 2784.25 2138.94 2783.55 2139.08L2395.45 2214.73C2332.8 2237.77 2164.3 2120.33 2152.83 2068.69C2139.93 2010.6 2159.77 1901.41 2168.8 1839.18C2184.44 1731.41 2212.19 1625.03 2229.44 1517.41C2230.83 1508.71 2219.82 1503.78 2214.33 1510.67L2186.36 1545.72C2163.08 1574.9 2137.28 1602.08 2108.62 1625.99C1966.57 1744.5 1803.25 1806.12 1626.36 1862.38L1617.73 1865.14L1611.29 1867.2C1588 1874.61 1563.01 1881.34 1533.83 1891.61C1531.07 1892.58 1528.92 1894.92 1528.24 1897.77C1504.87 1996.4 1498.92 2105.35 1457.98 2197.37C1457.6 2198.22 1457.11 2199.03 1456.51 2199.74C1439.21 2220.19 1409.58 2225.15 1383.93 2223.22C1307.92 2217.48 1152.53 2174.24 1141.68 2084.46C1141.56 2083.5 1141.62 2082.51 1141.81 2081.55C1187.93 1858.84 1197.21 1631.4 1221.05 1407.12C1228.6 1336.12 1228.45 1245.57 1247.78 1176.75C1254.44 1153.04 1269.18 1117.69 1290.18 1104.49C1304.81 1095.29 1391.01 1054.42 1425.35 1039.45C1430.99 1036.99 1434.85 1039.73 1437.26 1047.3L1438.96 1053.49C1440.43 1062.69 1439.44 1056.45 1441.31 1073.84C1443.07 1090.26 1438.38 1115.8 1438.38 1115.8C1444.45 1119.13 1460.67 1076.65 1462.15 1062.68C1464.12 1044.07 1465.96 1034.8 1470.95 1018.07C1472.94 1011.4 1481.98 1010.53 1487.17 1015.18C1497.26 1024.21 1511.24 1040.36 1521.93 1066.7C1524.01 1071.83 1519.94 1103.21 1519.94 1103.21C1519.94 1103.21 1543.67 1098.35 1547.68 1065.8C1550.55 1042.48 1548.82 1008.15 1547.7 984.486C1546.69 963.126 1573.91 980.196 1578.55 986.996C1581.53 991.366 1584.77 996.486 1588.17 1002.42C1589.67 1005.03 1600.6 1038.72 1600.6 1038.72C1609.12 1020.19 1613.47 1000.11 1613.62 996.236C1613.96 987.106 1613.88 979.086 1612.97 974.656C1612.97 974.656 1635.09 965.556 1648.18 963.036L1648.21 962.986Z" fill="white"></path>
    <path d="M2657.83 1825.7H2606.3L2667.17 1652.62C2671.1 1700.34 2662.19 1778.54 2657.83 1825.7Z" fill="white"></path>
    <path d="M7491.8 1419.39C7486.32 1509.52 7496.83 1588.96 7566.58 1651.48L7309.16 1693C7306.84 1681.02 7311.77 1672.64 7315.68 1662.25C7334.81 1611.4 7419.92 1455.3 7462.39 1427.29C7472.75 1420.46 7478.49 1416.97 7491.8 1419.39Z" fill="#10384D"></path>
    <path d="M7383.84 1916.95C7393.15 1925.29 7319.82 2020.42 7292.45 2004.51C7253.67 1959.84 7263.93 1896.21 7267.62 1842.25C7304.16 1870.55 7333.62 1911.73 7383.84 1916.95Z" fill="#10384D"></path>
    <path d="M7973.54 2074.46C7956.39 2133.05 7935.93 2192.61 7911.1 2248.39C7903.07 2266.43 7870.43 2339.27 7861.54 2348.17C7846.64 2363.07 7795.51 2365.15 7774.25 2364.62L7849.56 2083.32L7973.53 2074.47L7973.54 2074.46Z" fill="#10384D"></path>
    <path d="M1077.01 1371.19L1025.83 1345.06L1024.69 1346.96C1022.78 1373.68 1012.25 1397.1 1000.99 1422.14C1000.57 1423.07 1000.07 1423.93 999.57 1424.79L1034.27 1442.51C1054.05 1454.36 1079.84 1448.01 1091.6 1428.4C1103.35 1408.79 1096.79 1383.04 1077.02 1371.19H1077.01Z" fill="#10384D"></path>
    <path d="M869.47 1330.75C870.7 1328.19 872.11 1325.68 873.7 1323.19C874.17 1322.45 876.87 1318.34 878.75 1315.98C878.58 1313.47 878.78 1309.14 878.63 1307.72C877.26 1294.56 875.24 1279.71 877.65 1266.49C877.59 1266.84 877.89 1264.87 878.33 1262.63C878.31 1262.62 878.29 1262.61 878.27 1262.6C876.12 1262.06 873.97 1261.53 871.82 1260.99C854.33 1256.63 845.27 1244.66 842.87 1231.19L309.94 923.496C296.53 915.756 279.23 920.396 271.49 933.796L254.35 963.486C246.61 976.896 251.25 994.196 264.65 1001.94L745.12 1279.34L816.5 1308.5C835.82 1310.02 846.13 1333.96 865.28 1331.82C866.55 1331.68 868 1331.22 869.47 1330.75Z" fill="#10384D"></path>
    <path d="M1068.54 1381.28L301.359 938.342C287.9 930.572 270.69 935.183 262.919 948.642L262.914 948.651C255.143 962.11 259.755 979.32 273.214 987.091L1040.4 1430.03C1053.86 1437.8 1071.07 1433.19 1078.84 1419.73L1078.84 1419.72C1086.62 1406.26 1082 1389.05 1068.54 1381.28Z" fill="white"></path>
    <path d="M1047.88 1291.75C1055.68 1344.7 1028.1 1418.02 1005.13 1438.19C979.39 1460.79 923.71 1489.43 923.71 1489.43L913.09 1636.53C915 1642.84 924.66 1636.35 925.14 1651.8C925.55 1664.82 918.75 1721.41 912.48 1730.76C911.04 1732.91 907.65 1733.64 906.8 1734.9C902.74 1740.93 892.32 1819.34 889.14 1834.87C881.83 1870.6 873.32 1906.76 864.62 1942.24C861.41 1955.32 842.67 2011.78 844.8 2019.46C845.42 2021.69 850.26 2021.5 851.33 2024.42C853.67 2030.78 844.98 2089.76 841.93 2098.53C836.74 2113.49 809.27 2105.81 806.12 2109.98C801.46 2132.43 794.08 2154.47 788.95 2176.77C784.24 2197.26 775.56 2229.04 774.61 2248.97C774.43 2252.69 774.34 2254.81 775.89 2258.41C776.5 2259.83 793.67 2282.3 795.05 2283.09C802.43 2287.28 817.79 2280.02 824.44 2287.38L799.91 2299.45C798.09 2302.14 801.04 2315.48 804.07 2317.37C809.23 2320.58 828.52 2317.92 829.01 2329.1L798.32 2335.41L797.31 2341.92C798.56 2343.34 829.94 2348.83 829.01 2359.05L788.72 2357.39C783.4 2370.26 756.39 2386.97 754.41 2398.77C752.06 2412.74 752.05 2483.33 754.81 2496.68C756.09 2502.85 773.44 2511.95 778.1 2525.94C784.21 2544.33 775.27 2553.58 776.92 2565.41C779.43 2583.46 814.22 2612.84 830.61 2621.85C869.49 2643.22 901.92 2632.54 942.27 2642.62C1020.99 2662.27 1039.22 2722.32 1037.61 2792.39C1037.09 2814.78 1027.43 2822.39 1006.89 2829.89C965.77 2844.91 866.79 2856.12 825.29 2845.15C770.21 2830.6 756.7 2753.95 705.31 2748.8C674.27 2745.69 649.08 2750.08 621.84 2729.22C590.26 2705.04 598.24 2639.89 606.32 2605.53C608.83 2594.86 617.39 2578.24 618.28 2569.59C619.26 2560.09 613.27 2553.48 614.08 2542.34C614.82 2532.07 620.02 2517.6 627.46 2509.95C631.33 2505.97 641.18 2502.22 642.85 2496.67C644.06 2492.64 644.97 2479.21 645.55 2473.54C653.79 2393.34 652.59 2312.01 659.26 2231.85C655.87 2202.74 663.49 2165.6 659.18 2137.54C658.7 2134.41 660.51 2134.07 655.78 2134.37C638.71 2135.45 621.48 2138.11 604.05 2136.45L600.92 2142.39C586.06 2254.73 561.59 2365.9 546.24 2478.14C544.69 2489.49 538.02 2533.17 540.85 2540.33C547.23 2556.5 557.95 2558.01 557.41 2582.71C557.03 2599.84 541.86 2613.78 541.54 2618.92C541.14 2625.39 549.26 2653.41 550.44 2664.01C553.11 2688.09 556.16 2741.51 538.78 2759.96C531.51 2767.68 495.45 2785.58 484.83 2788.17C475.97 2790.33 467.56 2788.27 458.91 2789.36C424.8 2793.67 402.8 2846.05 369.87 2859.31C319.56 2879.56 212.12 2850.94 163.87 2828.06C145.35 2819.28 136.99 2816.44 140.36 2794.41C141.09 2789.66 144.41 2787.02 144.87 2783.7C151.17 2738.46 153.03 2696.33 200.12 2671.13C259.35 2639.42 307.45 2687.48 357.95 2649.05C369.68 2640.13 393.64 2609.29 394.1 2595.3C394.27 2590.24 390.01 2585.4 389.49 2578.5C388.3 2562.65 393.53 2550.53 406.63 2540.97C410.99 2537.79 418.62 2536 421.29 2533.42C432.19 2522.86 434.6 2442.72 441.79 2424.23C442.95 2402.72 415.21 2393 414.55 2371.92H382.84C387.12 2360.35 404.25 2361.22 410.99 2356.78C416.66 2353.05 414.62 2336.46 416.75 2329.19C413.8 2329.65 391.73 2323.5 394.17 2320.58L424.28 2315.84C439.99 2307.97 418.15 2303.38 411.18 2296.98C408.96 2294.95 406.91 2294.14 407.76 2290.6C422.69 2290.26 442.18 2301.87 451.36 2285.78C460.01 2234.29 467.06 2182.41 468.79 2130.21C456.74 2126.27 425.2 2130.97 418.05 2121.45C408.25 2108.42 422.48 2055.56 419.59 2037.5C421.53 2029.07 426.73 2028.9 434.94 2029.53L428.15 1931.09C346.67 1933.76 307.13 2020.06 294.49 2085.17C288.58 2086.16 290.98 2084.39 289.76 2082.12C267.98 2041.55 266.04 1979.39 274.09 1935.38C235.04 1962.78 210.86 2012.67 201.61 2057.35C197.06 2053.19 193.82 2043.86 191.47 2038.07C179.2 2007.76 173.01 1978.68 172.16 1946.09C149.26 1966.04 129.02 1992.09 112.9 2017.41C111.04 2020.33 98.34 2046.69 95.2 2044.52C87.35 2000.4 88.12 1948.83 100.81 1905.41C105.41 1889.68 114.18 1875.67 120.06 1860.5C89.82 1875.61 59.72 1891.3 33.98 1912.89C23.47 1921.7 15.05 1932.73 5.53998 1941.66C3.79998 1943.29 2.01 1946.22 0 1942.85C8.06 1853.85 45.84 1758.69 149.53 1740.64C143.86 1733.9 129.58 1730.62 120.55 1728.45C97.48 1722.9 81.01 1721.68 57.54 1723.32C54.9 1723.51 50.27 1724.65 52.15 1720.36C52.94 1718.55 66.3 1706.74 69.18 1704.34C118.57 1663.16 188.05 1647.52 251.44 1665.76C255.85 1661.61 217.93 1634.49 213.66 1631.93L147.27 1595.18C250.29 1583.09 358.02 1591.7 445.09 1648.69L454.9 1632.58C426.4 1614.28 411.97 1598.21 414.45 1564.05C415.23 1553.36 420.61 1541.47 421.15 1531.7C422.24 1511.8 396.39 1480.55 386.17 1462.53C372.25 1437.97 358.28 1413.24 346.41 1387.73C340.85 1386.63 336.86 1391.02 331.74 1391.75C285.9 1398.27 243.67 1340.12 246.83 1300.83C247.56 1291.72 255.79 1279.05 255.47 1275.6C255.05 1271.09 240.05 1247.53 236.75 1239.91C189.61 1130.8 196.19 1040.17 287.96 956.776C298.71 947.016 352.4 908.666 354.63 901.956C363.08 876.546 360.15 866.456 380.6 843.036C393.64 828.106 416.56 819.926 419.11 800.246C426.13 746.036 393.75 679.676 362 635.836C324.56 584.136 272.08 552.986 237.46 496.706C231.55 487.106 224.98 468.446 218.56 461.056C216.08 458.206 216.51 458.596 214.17 461.116C204.89 471.086 195.63 487.816 186.41 498.976C184.97 500.716 186.46 502.906 181.26 501.676C172.26 474.726 166.21 446.576 165.35 418.226L135.94 439.606C141.29 379.076 156.64 325.746 207.35 285.616C223.37 272.936 241.96 263.626 260.19 254.226L265.04 225.656C261.82 223.106 245.49 241.036 246.92 231.016C248.83 217.616 258.19 201.436 262.6 188.406C257.63 184.606 242.24 173.406 242.79 167.146C243.4 160.126 265.52 142.836 274.11 142.166C266.45 135.706 259.87 127.256 249.21 126.156L280.89 113.326C272.17 95.2865 256.13 83.5065 240.15 71.6065C276.38 59.5065 314.69 53.0265 353.4 54.4365C342.03 32.5065 323.21 16.6765 301.32 4.16648C369.35 -8.85352 440.29 8.64648 488.19 56.5965L487.06 13.8165C531.72 21.2865 561.47 52.7565 585.61 86.5465C590.91 87.4465 588.57 84.3065 588.91 81.1865C591.28 59.7265 592.96 39.3565 592.36 18.0965C626.97 43.0365 652.69 78.4665 654.67 120.786L720.32 86.5565L718.1 114.376L772.42 97.2565L763.38 140.036C789.59 133.666 815.34 129.396 842.66 131.516L792.99 188.496L831.32 227.766C814.31 235.996 796.48 238.876 777.96 242.706C787.73 287.566 750.47 324.766 713.56 346.536C746.29 361.956 779.2 377.926 809.86 396.786C852.13 422.796 916.69 467.786 857.33 514.476C820.31 543.586 802.57 522.536 766.66 520.066C759.97 519.606 753.3 520.196 746.69 521.326C722.61 525.406 588.66 542.726 578.18 601.696C573.11 630.246 580.96 686.046 584.73 716.466C588.77 749.096 596.26 781.466 600.32 814.086C602.37 816.086 635.78 819.116 646.07 822.016C659.21 825.716 694.59 862.126 712.81 872.486C745.39 891.016 797.71 902.246 818.66 930.536C823.48 937.046 839.36 963.036 844.08 967.096C849.71 971.936 863.3 978.396 871.86 984.456C916.55 1016.07 930.97 1031.77 981.45 1111.97C993.46 1112.43 1003.34 1109.8 1013.42 1117.49C1020.21 1122.66 1047.44 1168.86 1046.71 1175.64C1046.04 1181.84 1034.21 1179.81 1036.97 1187.68C1050.61 1210.84 1068.5 1242.24 1081.6 1265.65L1084.73 1271.49L1129.57 1238.65V1278.43L1090.35 1298.39C1079.07 1304.13 1065.58 1303.38 1055.01 1296.43L1047.92 1291.77L1047.88 1291.75ZM620.66 177.486C621.77 156.666 620.66 134.316 620.66 113.286C620.66 111.376 617.25 95.6065 613.89 95.1065C610.63 114.806 592.73 127.606 583.3 144.296C566.3 119.926 549.83 91.1365 527.76 70.5165C525.58 68.4765 524.84 66.4265 521 67.2965C522.83 89.1765 514.41 110.646 508.55 131.456C478.97 87.2665 434.94 48.9265 380.58 35.1865C389.55 53.5265 403.15 69.8465 405.47 90.8065C371.66 89.0665 337.27 84.6165 303.56 88.6865L321.64 109.026L346.57 125.026C333.86 127.386 319.92 128.136 309.17 135.736L330.68 153.936C330.74 156.476 299.34 166.786 294.5 177.506C292.93 180.996 295.85 180.396 297.34 181.126C310 187.416 319.82 181.956 332.99 180.706C306.3 207.476 295.27 242.686 295.65 279.146C273.24 292.426 244.37 300.226 224.24 316.536C204.74 332.346 194.3 355.186 181.23 375.386L212.92 362.566C206.53 382.626 201.53 403.456 201.64 424.606L233.31 386.096C238.42 419.826 253.33 456.086 272.27 485.186C297.1 523.316 337.15 549.746 368.13 582.926C408.6 626.276 434.06 681.226 448.54 737.006L458.67 713.426L462.12 710.246L493.84 781.946C497.72 781.046 498.88 772.466 499.6 769.236C501.6 760.166 501.51 750.306 504 741.316L559.48 829.036C557.58 816.106 566.49 799.296 566.09 787.496C565.82 779.476 559.67 764.176 557.95 754.536C550.25 711.376 534.65 612.776 554.55 575.076C562.1 560.766 577.7 551.506 588.94 540.186C562.28 549.076 537.42 562.296 528.93 589.376C505.22 543.876 459.37 531.216 416.98 506.836C383.28 487.456 322.77 450.426 306.09 416.866C279.82 363.996 330.15 306.456 390.23 318.116C396.91 319.416 415.36 330.666 425.29 334.206C463.69 347.906 492.7 349.016 524.44 321.966C548.04 301.856 563.57 273.886 570.84 244.886C575.09 241.966 598.48 270.406 604.77 272.696C606.5 256.826 612.76 239.106 621.97 225.796C625.73 220.356 628.44 213.676 636.5 214.936L633.09 234.166C664.89 194.516 724.87 211.116 770.14 212.756L745.26 194.586L770.14 169.996C750.72 168.216 734.82 182.416 715.78 182.796L729.36 148.586L708.51 155.616L684.07 169.956C686.94 163.676 687.31 154.256 686.33 147.466C685.9 144.516 687.6 143.766 682.98 144.326L621.74 182.786C614.58 183.606 620.59 178.516 620.65 177.466L620.66 177.486ZM729.4 281.266C754.96 257.926 737.3 230.436 706.73 223.516C724.6 240.366 738.49 255.596 729.4 281.266ZM647.84 304.826C666.73 322.616 690.17 312.436 704.41 295.126C730.4 263.526 701.91 216.746 668.22 232.076C671.98 237.776 680.29 240.286 684.98 245.106C711.52 272.326 685.15 312.006 647.83 304.826H647.84ZM664.16 262.526C664.16 256.806 659.26 252.176 653.2 252.176C647.14 252.176 642.24 256.806 642.24 262.526C642.24 268.246 647.14 272.876 653.2 272.876C659.26 272.876 664.16 268.246 664.16 262.526ZM388.07 374.756C423.93 415.616 524.89 437.746 578.77 439.586C620.32 441.006 663.12 433.596 704.92 444.516C740.31 453.756 788.96 500.116 823.22 495.136C836.54 493.196 848.91 476.806 843.17 463.686C837.08 449.756 786.3 421.076 770.83 412.216C716.8 381.256 651.21 357.746 608.17 313.386C600.56 305.536 592.67 292.476 585.39 285.686C583.53 283.946 583.43 282.596 579.9 283.396C570.43 310.516 533.41 348.826 505.11 359.326C472.82 371.306 445.05 364.646 413.94 353.506C389.34 344.696 378.64 330.276 349.91 345.376C321.86 360.116 315.15 387.106 330.36 413.206C345.41 439.036 402.87 473.596 430.59 489.706C464.66 509.516 503.56 522.486 528.94 553.006C531.58 548.366 534.83 544.666 539.11 541.226C564.65 520.716 636.41 499.236 669.98 493.676L733.91 486.706C725.06 484.496 716.82 479.766 707.69 478.296C696.05 476.426 679.94 473.196 669.12 471.946C634 467.866 622.39 489.426 595.02 502.036C519.94 536.636 440.82 490.816 401.41 429.556C396.96 422.646 394.86 413.246 390.69 407.586C385.4 400.396 373.1 398.086 371.47 388.266C366.85 385.186 360.14 399.866 360.16 403.226C355.81 406.306 340.17 378.436 362.61 363.796C367.5 360.606 389.1 352.676 386.16 360.386C383.87 366.386 381.85 367.636 388.09 374.756H388.07ZM616.1 456.736C608.81 459.826 600.14 459.296 592.24 458.956C538.93 456.646 489.65 454.266 440.17 433.596C435.74 431.746 432.18 429.146 428.15 426.786C426.42 428.486 437.47 440.926 439.4 442.886C487.62 491.736 549.54 513.356 609.14 466.186C612.27 463.716 616.79 461.296 616.11 456.746L616.1 456.736ZM484.34 813.817L459.86 771.296C454.62 796.736 435.45 854.286 451.82 876.226C478.99 912.646 586.68 934.066 626.72 961.356C667.08 988.876 683.01 1004.84 734.55 1062.65C736.72 1065.08 780 1117.47 780 1117.47C770.51 1071.94 770.23 1056.16 759.13 1030.96C749.21 1008.42 719.06 991.206 703.43 972.346L633.08 910.406L626.33 918.937C606.77 902.187 590.1 876.616 587.38 850.846C586.65 858.566 586.37 869.836 586.65 875.096C587.09 883.266 586.41 891.517 586.66 899.677C585.18 901.237 579.7 894.086 565.29 877.596C544.19 853.456 552.11 861.527 533.61 832.927L521.07 813.016L516.43 803.406L502.84 835.486L498.32 831.216L484.34 813.826V813.817ZM823.17 1013.95C819.56 971.456 823.79 942.366 789.08 925.656C751.96 907.786 718.69 900.187 685.28 873.937C673.13 864.387 662.36 850.246 648.6 842.256C638.42 836.346 626.27 834.056 616.22 827.836L611.6 830.167C615.73 851.117 620.74 862.696 634.32 879.286C658.02 908.246 692.62 930.677 719.22 957.427C730.86 969.127 751.4 990.736 759.13 1004.84L746.47 943.036C746.47 943.036 746.25 939.656 750.32 939.396C763.64 938.566 767.73 948.007 778.13 957.937C796.86 975.817 807.4 988.866 823.17 1013.95ZM410.25 860.786L408.88 856.886C375.56 890.186 376.19 918.986 406.58 953.196C453.32 1005.83 507.32 1005.33 559.12 1052.17C564.53 1040.59 559.3 1036.6 562.4 1024C567.35 1003.86 576.71 997.167 591.58 998.317C605.15 999.367 617.45 1006.77 626.02 1017.35L651.89 1049.32C633.93 1024.03 647.78 994.606 618.19 982.206C568 961.176 500.62 956.996 454.09 929.706C435.45 918.776 435.51 907.216 427.89 890.266C423.21 879.866 413.06 873.086 416.79 859.016L410.26 860.776L410.25 860.786ZM1021.67 1166.87C1008.36 1143.86 1018.86 1123.96 986.09 1133.42C953.45 1142.84 921.14 1159.24 913.33 1164.95C873.06 1194.38 854.71 1202.77 892.33 1209.44C895.09 1209.93 921.38 1216.54 926.45 1222.41C951.22 1202.15 989.73 1174.76 1021.67 1166.87ZM967.74 1240.46C995.95 1236.26 1056.95 1278.18 1056.95 1278.18C1051 1267.45 1017.68 1198.59 1011.07 1197.41C985.37 1209.43 975.26 1214.7 953.3 1231.89L967.74 1240.46ZM427.18 1218.04C369.46 1231.54 332.08 1238.41 294.44 1279.45C275.97 1299.59 274.13 1313.26 289.02 1336.03C296.09 1346.85 311.45 1368.6 326.13 1362.87C335.66 1359.14 357.36 1339.41 368.54 1332.34C400.28 1312.27 392.64 1308.36 429.88 1299.76C457.41 1293.4 490.95 1293.15 489.78 1258.51C488.58 1222.85 461.62 1209.99 427.18 1218.05V1218.04ZM588.45 1082.04L826.35 1227.2L842.99 1209.62C871.72 1181.1 893.98 1161.35 899 1156.97C911.88 1145.76 933.96 1140.82 950.14 1135.36L967.7 1129.43C953.56 1079.5 883.89 1008.05 836.65 979.586L835.48 1045.46C835.48 1045.46 832.59 1048.12 830.76 1045.98C815.29 1027.93 801.2 1005.17 790.96 994.906C779.22 983.146 763.38 954.166 772.02 990.966C779.07 1053.97 795.08 1081.11 788.94 1143.6L784.44 1144.66C761.82 1111.52 694.78 1048.48 663.08 1030C651.25 1023.11 679.53 1084.55 665.75 1077.28C641.2 1064.33 589.01 989.656 580.8 1023.38C574.4 1049.65 581.05 1060.91 573.28 1086.95C533 1017.26 470.83 1044.29 411.19 993.776C392.26 977.746 378.09 960.046 363.6 940.456C311.9 973.056 257.08 1021.86 243.51 1081.56C230.26 1139.82 251.47 1203.38 279.81 1254.91C335.43 1210.58 371.91 1197.74 445.33 1192.85C457.84 1153.27 398.63 1116.29 412.66 1114.98C437.09 1112.69 464.58 1197.41 464.58 1197.41C523.66 1204.13 530.99 1304.07 471.12 1317.13L485.28 1355.71C533.64 1339.18 552.82 1370.39 560.39 1395.55C565.87 1413.75 560.46 1433.87 546.19 1446.42C538.58 1453.11 532.46 1457.26 523.14 1463.66L540.77 1492.75C540.77 1492.75 570.01 1474.71 605.96 1461.43C649.38 1445.4 700.76 1441.29 751.42 1426.91C768.03 1422.2 813.85 1399.31 823.48 1388.03C825.23 1385.98 793.09 1363.75 767.43 1332.65C745.41 1305.96 714.2 1306.72 720.72 1295.5C736.23 1268.81 809.31 1286.41 859.5 1323.3C869.7 1330.8 871.74 1293.42 872.08 1286.69C873.18 1265.31 851.6 1256.41 833.44 1244.12C833.44 1244.12 820.97 1235.6 826.32 1227.19L588.45 1082.04ZM844.86 1233.61C849.65 1238.4 881.4 1259.89 886.09 1264.27C893.46 1271.16 895.74 1294.93 885.94 1323.08C885.82 1323.42 873.36 1350.31 853.38 1339.99C843.12 1334.7 803.25 1305.04 787.45 1300.62C756.69 1292.02 745.81 1292.25 751.57 1303.94C753.06 1306.97 820.18 1362.65 826.04 1365.7C829.11 1367.3 849.23 1371.87 851.42 1379.76C854.63 1391.33 845.39 1390.07 842.75 1393.4C840.48 1396.26 837.54 1399.51 834.46 1401.76C801.68 1425.69 788.44 1439 748.63 1450.08C685.41 1467.68 589.7 1472.99 541.88 1522.79C536.37 1523.7 502.68 1468.47 501.49 1461.58C495.56 1453.02 508.05 1456.05 522.66 1440.94C522.66 1440.94 540.12 1430.46 543.02 1419.14C546.56 1405.31 541.62 1376.24 519.32 1371.35C497.02 1366.46 472.79 1378.9 472.79 1378.9C472.79 1378.9 456.39 1329.31 455.17 1321.31C416.58 1328.98 413.66 1333.38 382.11 1355.87C376.77 1359.68 358.92 1369.25 362.46 1376.03C381.33 1413.43 405.95 1448.52 426.11 1485.09C435.75 1502.56 439.99 1520.98 437.83 1541.51C436.64 1552.81 433.55 1562.17 433.16 1573.74C432.07 1606.11 462.77 1611.07 489.81 1604.62C501.61 1601.81 504.79 1595.14 513.9 1592.89C533.95 1587.95 588.22 1606.09 615.32 1605.26C674.51 1603.45 775.13 1534.39 829.79 1507.05C877.22 1483.32 860.04 1482.29 935.27 1450.79C952.45 1443.6 993.8 1419.61 1002.21 1403.67C1014.87 1379.65 1026.2 1343.85 1029.01 1325.71C1030.14 1318.4 1032.65 1298.27 1029.59 1291.54C1014.11 1257.58 950.4 1247.82 907.94 1237.3C905.71 1236.75 885.33 1225.29 866.33 1223.35C859.68 1222.67 851.8 1223.57 844.71 1224.67C844.71 1224.67 838.12 1226.87 844.88 1233.63L844.86 1233.61ZM524.49 1366.01L903.78 1503.13C840.64 1527.82 785.03 1566.48 724.9 1596.25C669.63 1623.61 636.25 1633.94 572.63 1622.32C564.71 1620.87 549.11 1614.02 542.64 1614.43C537.55 1614.75 528.17 1622.22 521.58 1624.58C514.13 1627.24 487.71 1632.32 484.72 1634.69C480.58 1637.98 480.65 1650.7 488.14 1650.79C547.13 1653.35 605.62 1655.96 664.54 1652.65C669.2 1651.11 667.33 1643.9 671.46 1639.93C681.52 1630.27 698.88 1636.39 710.15 1635.95C750.23 1634.38 789.99 1632.56 830.14 1631.49C843.22 1631.14 853.04 1624.95 867.03 1630.9C869.82 1632.09 869.54 1635.37 871.37 1635.76C873.83 1636.28 883.77 1636.4 885.34 1635.5L903.77 1503.15L524.49 1366.01ZM148.39 1826.23C164.44 1824.62 183 1827.41 199.35 1826.23C194.06 1832.94 184.59 1835.97 177.88 1841.26C138.96 1871.93 119.9 1918.36 115.56 1965.32C140.41 1933.37 171.09 1905.95 206.12 1884.01C199.09 1915.34 195.46 1948.82 202.73 1980.29C231.17 1924.71 287.52 1883.6 349.99 1866.91C353.49 1868.84 349.42 1871.8 347.76 1873.42C326.55 1894.14 296.74 1929.35 296.74 1959.97V1995.28L320.71 1956.94C337.94 1939.18 356.19 1921.78 380.59 1912.94C392.45 1908.64 419.6 1906.43 426.54 1902.86C428.34 1901.93 429.18 1901.99 430.02 1899.72C435.16 1885.71 433.33 1850.74 434.92 1833.73C437.47 1806.49 447.26 1762.27 446 1737.29C445.8 1733.39 440.54 1730.13 439.55 1724.47C436.56 1707.49 445.08 1693.55 432.63 1677.51C413.05 1652.3 329.94 1626.42 297.21 1621.42C278.37 1618.54 259.11 1617.96 240.12 1616.54L258.26 1628.26C289.12 1655.83 317.79 1686.43 335.25 1723.49L275.27 1697.8C226.07 1679.87 173.63 1684.03 124.6 1700C122.86 1707.18 131.32 1703.23 136.53 1704.76C163.13 1712.56 193.13 1735.3 203.87 1759.88C126.28 1757.61 61.5599 1806.02 40.8199 1875.44C69.7599 1854.42 111.45 1829.93 148.39 1826.22V1826.23ZM826.76 1655.06L721.4 1657.18L718.1 1660.33L750.86 1717.08L780.35 1674.31C785.33 1687.06 799.56 1712.81 799.56 1712.81L826.76 1655.05V1655.06ZM869.81 1662.54V1714.97L891.37 1712.87L901.55 1660.43C896.04 1658.98 871.52 1657.29 869.81 1662.54ZM665.97 1674.3C598.83 1678.68 531.41 1676.58 464.36 1672.16L469.13 1716.88C530.26 1722.49 591.85 1721.27 653.27 1721.35C656.88 1720.66 662.02 1719.32 663.32 1715.68C666.13 1707.82 663.68 1684.23 665.97 1674.3ZM733.9 1747.05C737.67 1743.66 702.83 1682.5 697.28 1675.75C695.32 1673.37 695.02 1671.31 690.89 1672.18C694.96 1686.31 681.54 1729.81 688.77 1739.43C693.67 1745.94 724.77 1747.66 733.91 1747.05H733.9ZM844.9 1740.64V1672.17L819.57 1717.78L808.66 1744.9L844.9 1740.64ZM788.06 1746.87L777.46 1723.53C768.01 1735.17 764.02 1746.48 764.02 1746.48C764.02 1746.48 772.43 1747.15 788.06 1746.86V1746.87ZM462.12 1836.93C534.03 1830.55 597.53 1800.83 641 1746L471.02 1743.72L462.12 1836.93ZM876.6 1742.79L867.56 1742.77L864.37 1760.11L847.17 1762.05C848.3 1776.27 858.95 1786.43 865.33 1798.4L869.83 1797.34L876.6 1742.79ZM628.92 1791.25C598.31 1819.76 545.1 1845.34 502.98 1853.09C494.51 1854.65 461.71 1855.91 458.61 1860.38C453.13 1879.75 453.95 2028.02 461.94 2032.87C478.13 2034.8 494.57 2036.71 510.82 2038.05C553.03 2041.54 600.06 2045.15 642.2 2046.61C647.65 2046.8 664.65 2048.01 667.19 2044.58C668.86 2026.62 679.86 2000.59 679.23 1983.39C678.92 1975.08 665.51 1962.59 666.08 1951.58C666.49 1943.68 674.17 1924.01 676.24 1914.04C683.67 1878.22 690.14 1842.19 698.33 1806.52C700.97 1795.01 703.72 1782.04 708.94 1771.65C708.75 1767.75 681.55 1767.15 675.58 1764.71C669.06 1762.06 669.13 1754.88 662.72 1753.55C659.31 1754.27 634.85 1785.72 628.92 1791.24V1791.25ZM814.93 2016.19C833.06 1955.35 847.76 1893.56 860.81 1831.5C860.71 1822.8 846.56 1809.33 841.46 1800.59C834.85 1789.24 832.37 1777.38 825.48 1766.6L802.08 1768.67C787.53 1814.81 778.64 1863 760.52 1908.08C747.42 1940.67 735.24 1961.61 702.06 1979.64L690.97 2034.91L695.56 2037.23L814.93 2016.19ZM776.94 1770.6H730.51C722.68 1785.34 719.29 1803.87 715.07 1820.21C705.55 1857.02 687.88 1911.55 684.28 1947.39C681.1 1979.08 711.78 1953.05 721.48 1941.81C741.79 1918.28 756.68 1859.54 764.98 1828.83C767.14 1820.84 780.21 1773.71 776.95 1770.59L776.94 1770.6ZM686.36 2102.27C729.63 2092.73 773.62 2088.43 817.86 2084.22L826.59 2041.56L822.1 2038.89L692.36 2057.67C689.5 2058.54 689.09 2060.16 688.6 2062.68C687.66 2067.49 684.98 2100.77 686.36 2102.27ZM661.4 2070.2L447.7 2053.22C444.87 2054.05 444.45 2055.97 443.98 2058.41C441.62 2070.73 442.84 2089.36 441.7 2102.29C504.33 2104.52 572.57 2116.14 635.1 2110.58C638.86 2110.25 655.59 2107.18 657.1 2105.19C661.61 2093.86 662.05 2082.21 661.4 2070.2ZM776.94 2112.99C763.84 2112.03 689.89 2120.45 686.65 2129.31L681.91 2343.1L670.33 2514.28L671.84 2517.64C681.9 2523.8 722.72 2526.15 726.68 2513.78C732.23 2475.53 719.55 2420.2 729.92 2384.18C734.8 2367.24 759.25 2359 767.87 2342.99C742.06 2335.64 759.16 2327.21 776.96 2329.1V2305.56L749.77 2307.67L770.3 2291.49C770.43 2289.59 761.69 2274.79 759.95 2273.46C753.64 2268.65 745.74 2275.1 745.04 2263.83C744.28 2251.69 750.15 2224.22 752.65 2210.9C758.83 2177.88 769.77 2145.76 776.95 2112.98L776.94 2112.99ZM575.36 2136.52L498.37 2132.26L473.4 2329.1C467.44 2326.61 460.73 2323.03 459.79 2316.27C457.76 2314.89 452.78 2318.69 451.79 2320.52C447.44 2328.53 472.31 2333.29 466.62 2337.64L445.53 2337.57L441.72 2346.2L466.62 2351.55C461.94 2360.19 440.2 2357.12 439.29 2366.6C438.41 2375.87 466.01 2390.98 468.84 2400.82C467.01 2452.18 450.05 2502.23 448.9 2553.42C458.8 2560.3 508.08 2561.31 511.5 2550.16L575.35 2136.52H575.36ZM653.55 2526.49C642.32 2525.57 639.11 2555.44 651.57 2564.15C669.04 2576.36 708.82 2578.18 728.87 2571.49C749.87 2564.49 763.76 2543.53 746.36 2525.99C729.62 2545 683.78 2545.48 662.93 2534.16C659.8 2532.46 655.29 2526.62 653.55 2526.48V2526.49ZM424.97 2558.15C406.35 2576.09 421.36 2592.84 441.78 2599.73C466.58 2608.1 540.22 2619.61 529.54 2576.72C528.88 2574.06 526.93 2569.71 524.03 2568.94C522.24 2568.46 495.36 2576.52 487.87 2577.04C463.7 2578.71 442.76 2574.09 424.97 2558.16V2558.15ZM753.68 2581.93C750.45 2582.4 745.53 2586.17 741.21 2587.43C732.91 2589.84 710.04 2591.18 712.21 2598.85C716.27 2613.2 760.41 2596.15 761.22 2589.07C761.83 2583.71 759.21 2581.12 753.68 2581.93ZM693.05 2594.52C676.05 2595.72 659.61 2591.08 644.41 2584.27C639.84 2584.6 635.93 2600.28 634.87 2604.65C631.36 2619.18 625.75 2660.2 632.27 2672.26C644.88 2695.55 716.36 2703.81 740.56 2715.47C775.46 2732.29 793.33 2781.99 832.35 2795.66C866.84 2807.75 963.64 2800.61 998.46 2787.65C1012.06 2782.59 1009.14 2766.72 1007.94 2753.88C1004.57 2717.65 981.7 2686.8 946.12 2673.19C919.93 2663.17 908.03 2667.16 882.3 2665.01C873.07 2664.24 855.41 2657.95 848.31 2658.62C843.95 2659.03 837.85 2666.13 834.66 2669.29C828.26 2675.63 812.08 2698.87 807.59 2701.63C800.34 2706.1 768.45 2687.84 761.28 2683.03C731.62 2663.18 698.85 2629.34 693.04 2594.5L693.05 2594.52ZM724.85 2620.13C727.37 2624.88 730.66 2634.32 737.31 2634.32C741.02 2634.32 777.1 2616.59 777.06 2612.66L771.32 2605.86C755.74 2610.31 741.86 2620.93 724.84 2620.14L724.85 2620.13ZM516.16 2628.95C482.22 2628.78 448 2623 416.75 2610.33L410 2626.51C421.35 2625.87 440.06 2635.19 449.74 2634.85C454.5 2634.68 468.04 2624.8 468.98 2636.17C469.92 2647.54 446.82 2685.27 438.34 2695.04C429.24 2705.53 378.88 2750.01 365.03 2741.77C353.99 2703.57 291.84 2687.51 254.95 2686.36C197.59 2684.56 168.88 2738.8 177.82 2787.05C182.02 2795.61 261.95 2816.5 275.86 2818.54C294.07 2821.2 318.19 2822.83 336.47 2821.35C379.9 2817.82 402.65 2772.37 441.75 2756.04C465.27 2746.21 514.69 2740.69 522.66 2714.79C526.95 2700.85 524.86 2674.89 522.97 2660C522.44 2655.83 517.66 2629.89 516.16 2628.98V2628.95ZM804.1 2637.18C801.58 2619.58 769.12 2635.4 758.73 2640.35C756.2 2641.56 746.37 2645.86 747.57 2648.92C765.15 2671.49 784.89 2643.45 804.1 2637.18ZM446.05 2650.28L401 2640.35C395.19 2645.93 392.85 2647.96 401.39 2650.62C412.57 2654.09 429.11 2656.35 436.05 2665.11C441.52 2665.36 448.41 2653.42 446.05 2650.28ZM831.3 2652.23C822.02 2647.34 775.57 2664.25 777.06 2672.3C777.98 2677.31 794.57 2682.57 799.69 2681.26C807.33 2679.31 824.76 2658.33 831.3 2652.23ZM371.51 2671.44L411.57 2692.59L425.78 2680.96C426.97 2675.97 393.83 2663.65 388.27 2663.07C380.69 2662.28 372.04 2662.41 371.52 2671.44H371.51ZM357.15 2685.06C354.71 2685.12 344.26 2687.36 344.36 2689.66C355.52 2692.78 369.66 2716.75 376.08 2719.74C380.26 2721.68 402.24 2709.95 396.58 2702.41C390.95 2694.9 366.89 2684.85 357.15 2685.07V2685.06Z" fill="#10384D"></path>
    <path d="M543.63 210.636L489.97 172.546C454.57 154.306 409.28 158.306 370.47 161.536L351.13 159.326C415.06 121.216 531.59 123.256 543.63 210.646V210.636Z" fill="#10384D"></path>
    <path d="M1125.24 1396.35C1125.24 1396.35 1099.29 1414.09 1094.7 1408.93C1094.7 1408.93 1085.84 1443.35 1065.22 1446.79L1125.24 1429.58V1396.35Z" fill="#10384D"></path>
    <path d="M626.81 379.617C630.65 383.007 625.04 389.497 619.97 388.777C603.14 386.397 570.93 380.047 563.82 370.127C559.41 363.977 569.19 354.577 575.24 352.827C595.85 346.857 616.18 370.207 626.81 379.607V379.617Z" fill="#10384D"></path>
    <path d="M1520.01 1022.04C1520.01 1022.04 1509.04 973.786 1502.76 960.046C1487.4 926.476 1448.53 913.246 1433.33 905.786C1417.39 897.956 1436.11 923.646 1438.78 932.366C1451.07 972.646 1458.03 1000.38 1450.98 1039.68L1389.97 951.026L1375.91 932.846C1364.32 924.786 1317.45 1008.94 1225.75 994.826C1291.26 972.656 1310.74 930.026 1324.51 906.136C1361.58 847.956 1377.82 843.706 1425.29 813.416C1427.17 812.216 1434.87 809.746 1443.77 807.206C1462.69 801.806 1482.37 799.596 1502.02 800.496L1520.02 801.326C1549.17 804.406 1544.35 806.506 1571.83 818.196C1592.39 833.026 1601.66 856.256 1601.66 856.256C1578.98 840.636 1571.42 836.606 1555.3 838.616C1538.31 840.736 1535.05 846.486 1528.59 853.736C1562.85 870.866 1582 902.616 1573.44 940.406C1573.44 940.406 1560.34 897.076 1503.39 888.706C1503.39 888.706 1546.46 948.996 1520.02 1022.04H1520.01Z" fill="white" stroke="#10384D" stroke-miterlimit="10"></path>
    <path d="M399.71 179.077L370.81 174.907L392.19 168.997C459.19 158.767 543.65 197.197 517.68 270.897C481.68 373.057 303.41 307.187 377.89 203.167C384.23 194.317 392.54 187.227 399.71 179.087V179.077Z" fill="#10384D"></path>
    <path d="M429.97 274.806C438.807 274.806 445.97 268.167 445.97 259.976C445.97 251.786 438.807 245.146 429.97 245.146C421.133 245.146 413.97 251.786 413.97 259.976C413.97 268.167 421.133 274.806 429.97 274.806Z" fill="white"></path>
    <path d="M453.1 294.506C485.86 293.356 507.06 250.836 492.77 225.786C474.13 193.116 419.2 183.706 397.48 218.216C403.86 217.976 407.78 213.146 414.3 212.186C457.77 205.796 495.87 245.436 467.4 282.026L453.1 294.516V294.506Z" fill="white"></path>
    <path d="M323.36 753.036C378.05 797.736 397.49 841.756 397.49 914.196C397.49 1023.32 314.2 1111.77 211.45 1111.77C169.16 1111.77 143.5 1111.77 98.62 1085.27C98.62 1085.27 86.2899 1083.09 73.5899 1084.81C73.5899 1084.81 47.72 1072.93 32 1057.73C19.2 1045.35 18.8599 1038.12 29.2699 1013.58C39.6799 989.036 201.56 711.016 201.56 711.016C201.56 711.016 213.56 674.426 248.19 689.926C273.43 701.226 281.45 703.226 289.55 717.446C289.55 717.446 307.8 740.316 323.37 753.036H323.36Z" fill="#10384D"></path>
    <path d="M315.42 762.806C366.34 804.426 384.44 845.416 384.44 912.866C384.44 1014.47 306.88 1096.83 211.21 1096.83C171.83 1096.83 147.94 1096.83 106.16 1072.16C106.16 1072.16 94.68 1070.13 82.85 1071.73C82.85 1071.73 58.76 1060.67 44.12 1046.51C32.2 1034.98 50.14 1024.47 59.83 1001.62C69.52 978.766 220.25 712.156 220.25 712.156C220.25 712.156 226.92 696.286 259.16 710.716C282.66 721.236 276.73 725.986 284.26 739.226C284.26 739.226 300.91 750.956 315.41 762.806H315.42Z" fill="white" stroke="#10384D" stroke-miterlimit="10"></path>
    <path d="M289.95 740.476L102.22 1078.16C107.6 1084.49 102.26 1086.01 98.05 1083.68C93.85 1081.34 92.3199 1076 94.6599 1071.79L282.39 734.106C284.73 729.906 290.07 728.376 294.28 730.716C298.48 733.056 300.01 738.396 289.95 740.476Z" fill="#10384D"></path>
    <path d="M558.86 1404.59H600.87" stroke="#10384D" stroke-width="9" stroke-linecap="round" stroke-linejoin="round"></path>
    <path d="M543.34 1431.99H588.08" stroke="#10384D" stroke-width="9" stroke-linecap="round" stroke-linejoin="round"></path>
    <path d="M502.25 1373.54L543.34 1332.45" stroke="#10384D" stroke-width="9" stroke-linecap="round" stroke-linejoin="round"></path>
    <path d="M502.25 1404.59L577.13 1373.54" stroke="#10384D" stroke-width="9" stroke-linecap="round" stroke-linejoin="round"></path>
    <path d="M1443.02 2136.02C1438.49 2175.95 1424.44 2182.22 1424.44 2182.22C1268.49 2170.26 1232.97 2134.92 1196.18 2115.88C1159.39 2096.85 1183.92 2031.89 1183.92 2031.89C1183.92 2031.89 1261.58 1290.89 1269.75 1220.75C1277.92 1150.61 1314.71 1145.73 1314.71 1145.73C1384.2 1102.51 1499.21 1042.58 1651.91 1014.77C1789.92 989.637 1971.71 943.067 2081.08 1062.6C2138.64 1125.51 2228.41 1266.67 2214.06 1387.66C2213.06 1396.12 2206.75 1420.41 2201.66 1431.08C2108.64 1625.93 1813.37 1783.94 1484.34 1850.55C1484.34 1850.55 1447.55 2096.1 1443.03 2136.02H1443.02ZM1687.03 1317.5C1680.89 1320.77 1676.44 1326.44 1674.56 1333.13L1619.69 1528.12C1732.68 1480.75 1800.57 1443.05 1870.06 1359.13C1884.45 1341.75 1895.11 1311.57 1888.28 1298.55C1869.33 1262.4 1687.03 1317.5 1687.03 1317.5Z" fill="#10384D" stroke="white" stroke-miterlimit="10"></path>
    <path d="M2402.96 1170.44C2402.96 1170.44 2353.66 1164 2346.62 1195.49C2339.58 1226.98 2266.76 1514.81 2236.26 1688.99C2205.76 1863.17 2183.46 1982.9 2183.46 1982.9V2017.33C2183.46 2017.33 2172.89 2042.44 2201.06 2067.84C2229.23 2093.24 2292.23 2147.23 2292.23 2147.23C2292.23 2147.23 2316.09 2173.05 2379.47 2168.36C2442.86 2163.66 2694.05 2115.89 2694.05 2115.89L2745.7 2108.97C2745.7 2108.97 2773.87 2105.83 2762.13 2067.84C2750.39 2029.85 2719.87 1980.55 2719.87 1980.55C2719.87 1980.55 2708.13 1945.34 2649.44 1952.38C2590.75 1959.42 2461.63 1973.51 2461.63 1973.51C2461.63 1973.51 2426.42 1978.21 2433.46 1954.73C2440.5 1931.25 2574.08 1457.04 2574.08 1457.04L2621.27 1311.58C2621.27 1311.58 2639.53 1266.59 2606.28 1248.11C2541.45 1212.08 2402.94 1170.45 2402.94 1170.45L2402.96 1170.44Z" fill="#10384D" stroke="white" stroke-miterlimit="10"></path>
    <path d="M2964.04 1195.49C2964.04 1195.49 2924.13 1187.78 2914.74 1212.07C2905.35 1236.36 2834.92 1482.71 2823.18 1573.17C2811.44 1663.63 2780.92 1912.47 2832.57 2006.38C2884.22 2100.28 2945.69 2156.87 3095.5 2182.23C3245.31 2207.59 3360.78 2109.68 3379.56 2083.85C3398.34 2058.03 3492.25 1952.01 3555.95 1703.54C3555.95 1703.54 3635.45 1395.17 3644.84 1345.11C3654.23 1295.05 3658.93 1276.27 3614.32 1255.14C3569.72 1234.01 3492.24 1194.32 3492.24 1194.32C3492.24 1194.32 3426.06 1164.02 3401.63 1194.32C3377.2 1224.62 3379.55 1224.62 3374.86 1259.83C3370.17 1295.04 3337.3 1457.03 3337.3 1457.03L3278.61 1694.14C3278.61 1694.14 3229.31 1872.56 3205.83 1917.16C3182.35 1961.76 3156.53 2013.41 3126.01 2027.5C3095.49 2041.59 3074.36 2034.54 3064.97 2025.15C3055.58 2015.76 3029.41 1994.55 3050.71 1846.69C3072.01 1698.83 3137.75 1482.85 3137.75 1482.85L3168.27 1377.61C3168.27 1377.61 3191.75 1308.7 3144.79 1278.4C3097.84 1248.09 3033.8 1213.11 2964.02 1195.48L2964.04 1195.49Z" fill="#10384D" stroke="white" stroke-miterlimit="10"></path>
    <path d="M3799.79 1180.86C3799.79 1180.86 3743.45 1165.93 3734.06 1243.41C3724.67 1320.89 3684.76 1511.04 3661.28 1773.97C3637.8 2036.9 3637.8 2076.81 3637.8 2076.81C3637.8 2076.81 3633.84 2097.94 3651.08 2114.37C3668.32 2130.8 3724.66 2172.62 3778.66 2182.23L3832.65 2191.84C3832.65 2191.84 3853.78 2198.88 3858.47 2128.45C3863.16 2058.02 3933.59 1640.15 3933.59 1640.15C3933.59 1640.15 3935.94 1590.85 3945.33 1619.02C3954.72 1647.19 4022.8 1982.9 4022.8 1982.9L4034.54 2034.55C4034.54 2034.55 4050.97 2067.42 4072.1 2072.11C4093.23 2076.8 4175.39 2100.28 4175.39 2100.28C4175.39 2100.28 4205.91 2123.76 4231.73 2079.15C4257.55 2034.55 4519.38 1582.45 4519.38 1582.45L4419.54 1989.94L4403.11 2076.8C4403.11 2076.8 4384.33 2114.36 4433.63 2133.14C4482.93 2151.92 4569.79 2168.92 4569.79 2168.92C4569.79 2168.92 4600.31 2189.48 4616.74 2126.09C4633.17 2062.7 4823.33 1420.12 4823.33 1420.12L4856.2 1318.51C4856.2 1318.51 4881.65 1266.86 4809.06 1245.73C4736.47 1224.6 4574.48 1169.88 4574.48 1169.88C4574.48 1169.88 4506.4 1154.18 4468.84 1201.13C4431.28 1248.08 4306.86 1473.45 4306.86 1473.45L4180.09 1717.6L4130.79 1388.94L4122.15 1337.12C4120.8 1329.04 4119.62 1320.9 4119.24 1312.72C4118.46 1295.82 4106.46 1246.16 3996.42 1219.92C3905.51 1198.24 3799.77 1180.85 3799.77 1180.85L3799.79 1180.86Z" fill="#10384D" stroke="white" stroke-miterlimit="10"></path>
    <path d="M5234.95 1180.86C5380.84 1146.49 5530.41 1180.86 5530.41 1180.86C5530.41 1180.86 5667.93 1225.68 5718.22 1381.91C5768.51 1538.15 5652.49 1611.98 5619.62 1644.84C5586.75 1677.7 5474.07 1728.03 5474.07 1728.03C5474.07 1728.03 5488.16 1703.53 5565.63 1792.74C5643.1 1881.95 5593.8 1959.42 5565.63 1992.29C5537.46 2025.16 5431.82 2088.54 5276.87 2149.58C5121.93 2210.62 5056.2 2173.06 5056.2 2173.06C5056.2 2173.06 4978.73 2137.85 4915.34 2093.24C4851.95 2048.64 4860.98 2006.31 4860.98 2006.31L4884.83 1804.48L4929.43 1271.57C4929.43 1271.57 5089.07 1215.23 5234.95 1180.85V1180.86ZM5147.98 1951.74C5205.32 1935.34 5270.67 1906.33 5310.33 1862.36C5314.08 1858.2 5312.38 1851.54 5307.13 1849.62C5280.76 1839.97 5184.86 1857.09 5167.44 1859.63L5140.54 1945.93C5139.8 1950.15 5143.86 1952.92 5147.98 1951.74ZM5356.03 1423.98C5337.81 1426.12 5282.54 1438.46 5267.81 1454.34C5256.57 1466.46 5246.02 1514.75 5234.95 1565.17C5234.89 1577.84 5250.37 1573.4 5268.39 1566.04C5346.15 1534.3 5393.27 1502.46 5441.42 1436.38C5446.41 1429.53 5439.42 1424.3 5431.07 1422.83C5405.92 1418.41 5390.89 1419.88 5356.03 1423.98Z" fill="#10384D" stroke="white" stroke-miterlimit="10"></path>
    <path d="M5931.41 1191.76L5891.5 1180.02C5891.5 1180.02 5846.9 1170.63 5839.85 1234.01C5832.81 1297.4 5788.2 1496.65 5788.2 1496.65C5788.2 1496.65 5742.69 1739.17 5730.23 1842.25C5717.77 1945.33 5706.03 2001.67 5706.03 2062.71C5706.03 2123.75 5748.29 2140.18 5748.29 2140.18L5860.98 2173.05C5860.98 2173.05 5910.28 2196.53 5931.41 2095.58C5952.54 1994.63 6055.83 1506.33 6112.18 1377.21C6129.03 1338.59 6148.02 1300.94 6120.84 1280.96C6058.72 1235.29 5931.42 1191.75 5931.42 1191.75L5931.41 1191.76Z" fill="#10384D" stroke="white" stroke-miterlimit="10"></path>
    <path d="M6314.07 1191.76C6314.07 1191.76 6227.21 1161.24 6213.12 1255.15C6199.03 1349.05 6108.55 1856.96 6105.13 2006.31C6105.13 2006.31 6102.78 2039.26 6105.13 2074.47C6105.13 2074.47 6095.77 2107.33 6134.49 2126.11C6173.21 2144.89 6267.11 2180.14 6274.16 2175.43C6281.2 2170.72 6307.03 2187.15 6314.07 2116.72C6321.11 2046.29 6412.67 1656.59 6412.67 1656.59L6531.46 2025.16C6531.46 2025.16 6548.83 2109.67 6619.25 2133.15C6689.68 2156.63 6760.11 2175.43 6760.11 2175.43C6760.11 2175.43 6809.41 2175.41 6814.1 2114.37C6818.8 2053.33 7030.08 1318.53 7030.08 1318.53C7030.08 1318.53 7055.9 1259.84 6973.74 1229.32C6891.57 1198.8 6905.66 1194.02 6854.01 1187.02C6802.36 1180.02 6795.32 1210.54 6795.32 1210.54C6795.32 1210.54 6774.19 1248.1 6741.32 1393.65C6708.45 1539.2 6646.14 1788.24 6646.14 1788.24L6558.2 1334.96C6558.2 1334.96 6543.13 1261.26 6464.3 1238.71C6368.58 1211.33 6314.05 1191.76 6314.05 1191.76H6314.07Z" fill="#10384D" stroke="white" stroke-miterlimit="10"></path>
    <path d="M7681.87 1649.83C7685.56 1650.91 7699.29 1653.01 7703.1 1653.5C7741.29 1658.48 7765.76 1655.24 7774.25 1588.5C7784.96 1504.37 7797.69 1440.6 7774.25 1370.17C7750.81 1299.74 7724.98 1221.57 7511.35 1165.58C7297.72 1109.59 7121.65 1365.48 7121.65 1365.48C7121.65 1365.48 6963.99 1580.31 6971.4 1813.87C6978.81 2047.44 7116.95 2133.14 7116.95 2133.14C7116.95 2133.14 7426.94 2278.69 7566.57 2109.66C7706.2 1940.63 7727.33 1874.9 7727.33 1874.9C7727.33 1874.9 7757.85 1832.64 7706.2 1773.95L7654.55 1715.26C7654.55 1715.26 7640.46 1680.11 7555.95 1692.99C7471.44 1705.87 7365.79 1712.91 7365.79 1712.91L7324.12 1719.95C7324.12 1719.95 7260.15 1719.95 7281.28 1759.86C7302.41 1799.77 7324.12 1832.64 7324.12 1832.64L7349.36 1863.16C7349.36 1863.16 7363.45 1877.25 7401.01 1877.25H7430.39C7445.14 1877.25 7459.8 1874.87 7473.79 1870.21L7384.65 1994.63C7384.65 1994.63 7360.21 2042.4 7297.72 2043.93C7279.86 2044.37 7264.67 2035.67 7252.83 2024.29C7234.22 2006.39 7223.75 1981.67 7221.95 1955.91C7215.63 1865.69 7217.71 1585.63 7455.01 1374.86C7455.01 1374.86 7527.79 1312.8 7532.48 1420.12C7534.84 1474.14 7537.21 1508.15 7538.97 1528.61C7541.11 1553.47 7552.33 1576.78 7570.89 1593.46C7577.69 1599.57 7585.94 1605.89 7595.87 1611.96C7629.47 1632.49 7658.57 1642.96 7681.88 1649.81L7681.87 1649.83Z" fill="#10384D" stroke="white" stroke-miterlimit="10"></path>
    <path d="M1337 1167.82C1337 1167.82 1321.95 1166.71 1321.24 1204.48C1320.53 1242.25 1289.78 1566.89 1289.78 1566.89L1254.99 1941.8L1243.25 2031.9C1243.25 2031.9 1217.43 2059.77 1217.43 2031.9V2004.03L1279.09 1319.87L1289.03 1204.48C1289.03 1204.48 1295.35 1176.08 1310.34 1171.1C1332.73 1163.67 1337.01 1167.82 1337.01 1167.82H1337Z" fill="white" stroke="#10384D" stroke-miterlimit="10"></path>
    <path d="M1877.75 1413.97C1855.75 1442.92 1826.71 1474.73 1760 1520.45C1760 1520.45 1792.8 1497.29 1819.1 1471.61C1835.17 1455.92 1868.53 1419.01 1887.83 1383.76C1903.28 1355.54 1918.62 1327.46 1918.16 1293.01C1917.43 1238.38 1890.39 1237.8 1836.69 1237.8C1738.17 1237.8 1604.79 1293.26 1604.79 1293.26L1606.1 1282.35C1606.1 1282.35 1725.16 1225.93 1867.59 1222.53C1885.54 1222.1 1903.55 1226.98 1917.43 1238.38C1943.1 1259.45 1954.3 1313.22 1877.74 1413.98L1877.75 1413.97Z" fill="white" stroke="#10384D" stroke-miterlimit="10"></path>
    <path d="M2367.75 1195.49C2367.75 1195.49 2302.02 1440.61 2264.46 1633.11C2226.9 1825.61 2215.6 1899.36 2215.6 1899.36C2215.6 1899.36 2204.3 1952.39 2215.6 1992.3C2215.6 1992.3 2224.51 2011.08 2236.27 1992.3C2248.03 1973.52 2248.03 1971.17 2255.07 1884.31C2262.11 1797.45 2290.28 1600.25 2320.8 1473.48C2351.32 1346.71 2379.49 1264.73 2391.23 1217.59C2402.97 1170.45 2367.75 1195.5 2367.75 1195.5V1195.49Z" fill="white" stroke="#10384D" stroke-miterlimit="10"></path>
    <path d="M2958.12 1233.18C2958.12 1233.18 2955.12 1191.48 2928.24 1223.22C2901.36 1254.96 2825.32 1669.76 2822 1724.54C2818.68 1779.32 2813.7 1787.62 2822 1859C2830.3 1930.38 2836.94 1968.56 2850.22 1985.16C2863.5 2001.76 2868.48 1996.78 2875.12 1985.16C2881.76 1973.54 2853.54 1863.98 2853.54 1807.54C2853.54 1751.1 2865.16 1531.98 2911.64 1382.58L2958.12 1233.18Z" fill="white" stroke="#10384D" stroke-miterlimit="10"></path>
    <path d="M3432.88 1211.3C3432.88 1211.3 3428.07 1190.74 3412.4 1201.02C3405.55 1205.51 3401.38 1213.11 3400.13 1221.2C3395.84 1248.84 3382.99 1329.61 3368.14 1402.5C3349.88 1492.14 3336.6 1563.43 3336.6 1563.43L3291.78 1739.16C3291.78 1739.16 3259.09 1852.36 3227.29 1910.46C3195.5 1968.56 3188.86 1966.9 3190.52 1976.86C3192.18 1986.82 3193.84 2004.83 3208.78 1995.82C3223.72 1986.82 3298.42 1845.72 3328.3 1701.3C3358.18 1556.88 3429.56 1249.18 3432.88 1211.3Z" fill="white" stroke="#10384D" stroke-miterlimit="10"></path>
    <path d="M3780.17 1258.91C3780.17 1258.91 3776.99 1230.25 3791.32 1219.1C3805.65 1207.95 3797.69 1193.11 3791.32 1198.14C3784.95 1203.17 3761.06 1192.35 3754.7 1228.02C3748.33 1263.69 3721.26 1464.33 3711.71 1548.72C3702.16 1633.12 3695.79 1727.07 3695.79 1727.07L3689.42 1854.46V1959.56L3702.16 1929.3C3702.16 1929.3 3736.79 1533.31 3757.89 1410.18C3775.89 1305.15 3780.18 1258.9 3780.18 1258.9L3780.17 1258.91Z" fill="white" stroke="#10384D" stroke-miterlimit="10"></path>
    <path d="M5430.87 1532.48C5467.8 1500.85 5471.43 1497.01 5495.73 1463.77C5508.34 1446.52 5516.53 1409.28 5506.56 1384.05C5498.23 1362.97 5469.61 1343.7 5426.83 1343.7C5315.12 1343.7 5221.18 1407.53 5221.18 1407.53L5213.78 1414C5213.78 1414 5322.57 1357.25 5398.34 1356.34C5468.63 1355.5 5484.62 1374.74 5490.39 1384.62C5501.33 1403.33 5497.23 1434.77 5485.35 1456.47C5470.5 1483.58 5446.62 1508.67 5433.99 1520.46C5421.36 1532.25 5392.73 1557.51 5379.26 1566.77C5365.79 1576.03 5430.88 1532.49 5430.88 1532.49L5430.87 1532.48Z" fill="white" stroke="#10384D" stroke-miterlimit="10"></path>
    <path d="M5332.72 1896.96C5332.72 1896.96 5373.47 1865.66 5382.11 1852.43C5393.29 1835.31 5390.87 1809.82 5377.01 1795.33C5362.46 1780.11 5347.76 1771.25 5321.13 1771.25C5256.11 1771.25 5144.4 1807.65 5144.4 1807.65L5136.48 1815.15C5136.48 1815.15 5239.36 1788.42 5283.39 1785.95C5325.25 1783.6 5341.44 1787.15 5350.56 1792.05C5358.93 1796.54 5365.44 1804.06 5368.9 1812.9C5368.9 1812.9 5386.28 1841.92 5332.71 1896.96H5332.72Z" fill="white" stroke="#10384D" stroke-miterlimit="10"></path>
    <path d="M3952.14 1578.35L4044.17 1998.27L3996.44 1582.45L3952.14 1578.35Z" fill="white" stroke="#10384D" stroke-miterlimit="10"></path>
    <path d="M4191 1731.85V1788.31L4452.15 1295.54L4499.92 1223.88L4515.84 1204.77C4515.84 1204.77 4523.8 1180.88 4507.88 1190.44C4491.96 1199.99 4436.22 1278.02 4436.22 1278.02L4342.27 1446.81L4190.99 1731.85H4191Z" fill="white" stroke="#10384D" stroke-miterlimit="10"></path>
    <path d="M4517.84 1555.1L4569.14 1565.94C4569.14 1565.94 4567.21 1578.35 4557.26 1601.28C4539.72 1641.68 4453.75 1972.31 4442.61 2032.82C4431.46 2093.33 4428.28 2107.66 4428.28 2107.66C4428.28 2107.66 4424.76 2122.59 4413.95 2099.7C4403.14 2076.81 4533.38 1590.14 4533.38 1590.14L4519.42 1582.46L4517.86 1555.11L4517.84 1555.1Z" fill="white" stroke="#10384D" stroke-miterlimit="10"></path>
    <path d="M4975.57 1267.31C4974.88 1262.41 4946.43 1283.63 4946.43 1283.63L4909.13 1766.23L4890.48 1998.28L4911.46 2022.68C4911.46 2022.68 4988.4 1358.23 4975.57 1267.31Z" fill="white" stroke="#10384D" stroke-miterlimit="10"></path>
    <path d="M5750.65 1865.52C5760.04 1755.18 5837.42 1252.08 5863.34 1222.28C5889.26 1192.48 5896.21 1222.28 5896.21 1222.28C5896.21 1222.28 5853.95 1387.45 5823.43 1537.28C5792.91 1687.11 5776.48 1788.32 5776.48 1788.32L5769.44 1833.78L5750.66 1865.53L5750.65 1865.52Z" fill="white" stroke="#10384D" stroke-miterlimit="10"></path>
    <path d="M6134.5 1952.01C6156.79 1693 6221.27 1252.07 6247.19 1222.28C6273.11 1192.48 6280.06 1222.28 6280.06 1222.28C6280.06 1222.28 6237.79 1353.01 6214.18 1504.08C6184.65 1693.01 6159.36 1923.6 6159.36 1923.6L6156.8 1952.01H6134.51H6134.5Z" fill="white" stroke="#10384D" stroke-miterlimit="10"></path>
    <path d="M6602.92 2100.91L6569.02 2006.3C6569.02 2006.3 6480.76 1712.92 6469.02 1674.48C6465.4 1662.63 6462.01 1654.15 6459.04 1648.1C6454.5 1638.84 6444.98 1633.1 6434.66 1633.1H6429.9C6423.75 1633.1 6419.43 1639.14 6421.41 1644.96L6558.22 2046.27L6569.01 2074.45L6602.91 2100.9L6602.92 2100.91Z" fill="white" stroke="#10384D" stroke-miterlimit="10"></path>
    <path d="M6675.95 1773.97C6723.26 1505.66 6790.59 1237.16 6817.45 1208.21C6844.31 1179.26 6850.3 1209.26 6850.3 1209.26C6850.3 1209.26 6824.98 1300.46 6775.83 1460.66C6757.79 1519.46 6724.95 1668.03 6724.95 1668.03L6709.4 1757.07L6675.94 1773.97H6675.95Z" fill="white" stroke="#10384D" stroke-miterlimit="10"></path>
    <path d="M7316.87 1209.03C7316.87 1209.03 7215.74 1287.61 7166.01 1367.73C7116.28 1447.85 7081.3 1528.92 7066.23 1580.52C7051.21 1631.95 7036.16 1711.71 7034.78 1761.45C7033.4 1811.19 7044.45 1829.13 7029.25 1842.26C7014.05 1855.39 6993.33 1854 6991.95 1842.26C6990.57 1830.52 6991.95 1784.93 6991.95 1784.93C6991.95 1784.93 6998.86 1666.12 7030.63 1587.38C7062.4 1508.64 7082.61 1447.49 7146.67 1360.82C7210.73 1274.15 7316.88 1209.03 7316.88 1209.03H7316.87Z" fill="white" stroke="#10384D" stroke-miterlimit="10"></path>
    <path d="M7453.32 1351.15C7453.32 1351.15 7467.13 1324.9 7508.58 1316.61C7508.99 1316.53 7509.41 1316.45 7509.82 1316.37C7540.57 1310.65 7569.89 1332.23 7574.69 1363.14C7576.1 1372.22 7577.25 1383.73 7577.66 1398.12C7579.04 1446.47 7572.97 1539.95 7610.81 1568.04C7630.58 1582.71 7645.49 1592.01 7678.5 1595.67C7699.38 1597.99 7722.21 1590.96 7733.76 1606.72C7738.16 1612.73 7739.21 1626.15 7733.76 1633.1C7727.66 1640.88 7721.76 1643.66 7689.99 1639.68C7670.57 1637.24 7634.48 1621.33 7611.14 1607.37C7590.22 1594.85 7573.36 1576.23 7563.85 1553.79C7558.49 1541.14 7555.8 1525.98 7554.47 1509.6C7550.63 1462.45 7553.1 1438.84 7552.14 1418.14C7551.81 1411.04 7552.36 1403.92 7551.72 1396.84C7546.57 1339.32 7527.88 1316.08 7453.33 1351.16L7453.32 1351.15Z" fill="white" stroke="#10384D" stroke-miterlimit="10"></path>
    <path d="M6511.77 2704.58L6556.73 2554.67C6812.19 2481.64 6627.4 2680.21 6511.77 2704.58ZM6611.52 2791.67C6745.4 2715.54 6897.49 2636.8 6767.82 2469.69C6673.05 2347.56 6537.27 2422.86 6420.64 2468.55C6391.01 2489.77 6368.76 2658.27 6363.06 2701.28C6356.99 2747.11 6334.03 2922.96 6349.62 2953.51C6358.02 2969.97 6427.64 2991.46 6441.59 2979.07C6460.45 2962.31 6469.61 2865.96 6478.65 2834.01L6495.01 2829.01C6495.42 2839.12 6500.26 2847.04 6506.94 2854.26C6525.6 2874.42 6615.16 2952.72 6636.85 2965.27C6668.8 2983.76 6768.35 2978.01 6760.37 2941.9C6759.33 2937.17 6703.25 2885.57 6691.36 2873.85C6664.52 2847.4 6631.47 2827.72 6611.51 2791.65L6611.52 2791.67Z" fill="#10384D"></path>
    <path d="M6201.55 2415.15C6229.11 2406.84 6341.93 2450.81 6337.88 2492.87C6323.32 2563.98 6298.66 2632.35 6281.41 2702.7C6272.18 2740.35 6225.16 2974.11 6213.15 2983.04C6201.27 2991.87 6129.1 2965.81 6116.79 2953.79C6101.97 2939.33 6104.15 2927.18 6104.23 2907.65C6104.57 2817.74 6151.67 2529.7 6181.72 2445.62C6185.58 2434.83 6189.21 2418.87 6201.55 2415.15Z" fill="#10384D"></path>
    <path d="M5938.67 2853.84L5749.51 2880.64C5736.18 2901.83 5717.39 2980.61 5692.55 2985.61C5653.43 2967.75 5598.11 2964.05 5609.97 2911.45C5628.71 2828.36 5714.01 2657.74 5754.38 2574.55C5770.67 2540.98 5819.66 2432.31 5842.54 2413.8C5870.12 2391.49 6030.31 2413.53 6059.61 2438.7C6090.06 2464.86 6062.92 2561.12 6071.64 2601.06C6052.51 2723.07 6069.32 2849.48 6062.16 2973.03L6049.73 2985.45C5946.44 2997.81 5932.14 2944.68 5938.68 2853.83L5938.67 2853.84ZM5930.34 2547.07C5917.89 2548.99 5914.6 2562.51 5909.42 2571.79C5875.98 2631.69 5844.25 2692.78 5814.06 2754.31L5930.34 2746.08V2547.07Z" fill="#10384D"></path>
    <path d="M5105.96 2399.91C5181.48 2389.48 5235.23 2420.33 5277.87 2481.19C5365.66 2606.49 5237.68 2685.63 5141.46 2741.87L5204.66 2811.78C5222.54 2815.55 5316.43 2701.74 5316.35 2800.03C5316.32 2843.71 5291.77 2848.44 5274.62 2881.93L5323.7 2940.13C5304.85 2967.69 5270.11 2976.9 5238.58 2968.14C5222.72 2963.74 5203.08 2936.69 5188.39 2938.04C5179.68 2938.84 5143.05 2960.4 5124.75 2965.9C5050.59 2988.21 4985.45 2996.13 4917.48 2948.78C4788.12 2858.66 4877.61 2770.64 4974.73 2707.93C4980.26 2689.59 4957.38 2677.07 4948.5 2660.77C4877.67 2530.7 4973.7 2418.19 5105.95 2399.93L5105.96 2399.91ZM5059.86 2607.22C5060.91 2616.97 5069.72 2643.36 5079.83 2646.2C5102 2652.42 5167.29 2599.7 5176.5 2578.1C5189.82 2546.87 5192.86 2497.95 5147.2 2507.07C5110.58 2514.38 5055.53 2566.97 5059.85 2607.22H5059.86ZM5047.26 2796.81C5022.95 2802.52 4970.75 2866.09 4983.44 2895.33C5034.29 2903.73 5070.19 2884.28 5116.35 2870.39C5102.26 2857.99 5061.31 2793.51 5047.25 2796.81H5047.26Z" fill="#10384D"></path>
    <path d="M4410.35 2812.44C4352.59 2820.24 4327.03 2781.31 4318.99 2729.55C4366.15 2722.36 4477.09 2688.16 4518.33 2708.79C4526.53 2712.89 4557.83 2747.22 4561.85 2756.5C4588.33 2817.62 4498.5 2937.88 4446.6 2968.81C4373.01 3012.67 4217.29 2980.25 4176.07 2901.21C4108.51 2771.67 4185.85 2534.33 4293.94 2443.26C4349.54 2396.41 4391.13 2392.61 4460.61 2409.85C4504.39 2420.71 4567.42 2447.9 4585.34 2492.63C4597.99 2524.2 4603.89 2667.66 4571.35 2678.7C4524.54 2687.75 4472.02 2665.4 4461.93 2615.83C4455.23 2582.93 4468.52 2541.32 4439.49 2514.04C4353.78 2567.05 4286.76 2726.39 4288.6 2823.35C4291.21 2960.37 4387.72 2900.69 4410.35 2812.43V2812.44Z" fill="#10384D"></path>
    <path d="M3986.72 2737.78C3997.72 2630.39 4029.27 2526.28 4057.19 2422.52C4077.91 2393.63 4182.49 2438.98 4190.41 2471.61L4062.1 2974.62C3891.51 3004.87 3905.76 2819.74 3849.71 2712.92L3799.89 2969.96L3787.7 2982.51C3747.77 2974.84 3677.92 2970.82 3679.11 2916.12C3693.75 2820.23 3698.94 2722.54 3713.54 2626.68C3721.22 2576.26 3732.24 2480.87 3747.82 2437.02C3755.32 2415.9 3770.08 2413.35 3790.59 2414.72C3812.46 2416.17 3902.49 2448.71 3916 2464.32C3940.77 2492.95 3958.9 2658.61 3970.12 2708.8C3972.76 2720.62 3969.94 2734.41 3986.72 2737.78Z" fill="#10384D"></path>
    <path d="M3693.78 2466.34C3701.1 2474.31 3703.74 2486.84 3700.85 2497.41L3586.19 2963.89C3570.12 3008.72 3464.62 2966.15 3464.32 2924.65C3488.64 2775.2 3497.9 2607.47 3540.57 2462.34C3558.08 2402.8 3558.35 2403.41 3621.19 2426.96C3635.6 2432.36 3685.36 2457.16 3693.78 2466.34Z" fill="#10384D"></path>
    <path d="M3469.63 2416.67C3482 2427.64 3515.95 2506.46 3505.08 2513.89C3475.97 2525 3375.62 2514.27 3363.21 2535.85L3255.09 2985.75C3177.97 2976.89 3133.88 2980.66 3139.49 2891.09C3142.89 2836.67 3156.39 2765.17 3165.52 2709.78C3174.49 2655.37 3190.44 2601.81 3197.69 2547.1C3194.88 2544.19 3133.54 2564.3 3118.51 2564.22C3079.2 2564.01 3047.3 2493.38 3032.03 2460.8C3036.91 2439.3 3159.31 2425.69 3185.14 2422.57C3227.36 2417.47 3275.64 2417.46 3318.29 2414.54C3354.21 2412.08 3441.28 2391.55 3469.63 2416.68V2416.67Z" fill="#10384D"></path>
    <path d="M2867.31 2968.15L2844.27 2853.49L2668.02 2880.6L2611.33 2985.71C2557.57 2967.15 2512.1 2964.22 2530.74 2896.88C2557.18 2801.34 2630.23 2652.85 2675.62 2560.65C2700.95 2509.2 2726.84 2451.92 2765.86 2410.27C2797.87 2394.55 2959.82 2415.11 2982.5 2442.7C2986.75 2447.88 2989.59 2453.25 2990 2460.07L2980.27 2964.3C2968.66 3004.44 2895.44 2982.89 2867.32 2968.15H2867.31ZM2840.58 2547.07L2732.54 2750.16C2732.47 2764.5 2827.5 2738.43 2840.58 2746.08V2547.07Z" fill="#10384D"></path>
    <path d="M2342.29 2671.45C2426.71 2646.22 2474.96 2659.1 2490.42 2750.52C2488.66 2770.77 2333.51 2782.09 2308.55 2791.22L2284.1 2862.11C2368.67 2864.57 2454.73 2814.21 2474.59 2931.98C2472.4 2942.21 2452.03 2947.11 2442.31 2949.64C2417.67 2956.05 2262.27 2987.14 2248.51 2985.14C2219.18 2980.87 2146.68 2927.64 2150.57 2891.08L2210.37 2461.04L2223.23 2449C2300.89 2438.41 2384.67 2410.76 2462.57 2406.05C2533.71 2401.75 2560.18 2411.73 2573.24 2486.82C2580.64 2529.35 2539.84 2524.59 2503.43 2529.73C2475.44 2533.69 2404.96 2532.21 2383.58 2542.75C2360.97 2553.89 2348.17 2644.41 2342.3 2671.46L2342.29 2671.45Z" fill="#10384D"></path>
    <path d="M2042.69 2986.03C2030.46 2994.62 1939.79 2962.78 1930.62 2945.03L1951.84 2804.16L1844.71 2813.23C1838.74 2818.15 1823.69 2943.83 1818.71 2965.55C1816.77 2974.01 1815.82 2983.49 1805.61 2986.11C1789.63 2990.2 1703.62 2963.74 1695.35 2939.34L1769.93 2415.23C1790.14 2401.47 1911.17 2454.79 1917.65 2478.18C1927.08 2512.2 1860.73 2688.57 1868.82 2696.29L1976.55 2687.8C1983.89 2652.52 2029.69 2418.87 2042.64 2409.72C2069.93 2390.46 2161.89 2435.24 2183.46 2461.22L2042.68 2986.03H2042.69Z" fill="#10384D"></path>
    <path d="M2604.54 750.826C2604.81 730.766 2614.02 636.836 2617.33 568.646C2617.49 565.396 2615.36 562.546 2612.23 561.676L2516.45 535.106C2512.34 534.046 2507.7 535.576 2505.69 539.326C2456 632.166 2438.18 673.716 2395.92 752.756C2387.74 768.066 2375.6 793.076 2368.47 807.966C2367.14 810.736 2362.98 809.716 2363.08 806.646C2363.86 783.346 2365.38 737.856 2365.52 734.316C2366.81 703.046 2366.99 672.786 2368.35 644.126C2370.03 608.646 2373.84 554.816 2366.11 528.566C2357.02 497.726 2279.8 478.966 2245.32 482.006C2240.05 482.466 2236.13 487.046 2236.26 492.336C2237.75 553.326 2240.16 577.096 2242.83 638.516C2243.44 652.596 2248.39 733.646 2249.21 747.766C2252.55 805.186 2264.73 919.596 2268.36 945.746C2268.79 948.816 2275.64 960.676 2278.57 961.666C2295.02 967.226 2350.63 985.146 2389.2 986.946C2392.77 987.116 2396.07 985.066 2397.7 981.876L2495.85 789.916C2500.24 782.556 2505.46 784.186 2505.81 792.756C2507.31 829.576 2518.01 922.956 2523.48 951.526C2524.93 959.086 2536.79 966.166 2544.29 967.926C2591.55 979.066 2631.61 990.676 2645.86 992.406C2649.66 992.866 2653.19 990.346 2654.95 986.946L2880.53 548.806C2881.96 545.886 2882.33 542.486 2881.13 539.456C2870.71 513.136 2805.6 471.136 2776.89 484.536C2774.83 485.496 2773.32 487.346 2772.32 489.386L2606.66 812.456C2605.54 814.636 2602.24 813.776 2602.33 811.326L2604.54 750.816V750.826Z" fill="#10384D"></path>
    <path d="M3922.98 985.077C3899.05 989.097 3842.55 995.507 3835.36 991.767C3829.04 988.477 3808.75 967.457 3802.27 960.637C3783.67 941.087 3747.15 894.647 3731.4 872.197C3728.14 867.547 3723.45 858.977 3717.78 858.737C3714.4 858.587 3711.93 864.417 3711.03 869.267C3705.67 898.107 3699.22 949.287 3693.52 988.867C3692.23 997.797 3683.44 1003.57 3674.69 1001.38C3653.48 996.067 3621.24 988.627 3598.68 980.757C3591.92 978.397 3586.72 973.027 3584.32 966.277C3578.85 950.887 3578.91 933.827 3579.33 917.497C3581.71 825.337 3605.93 689.337 3623.75 596.757C3628.37 572.757 3636.36 503.837 3654.47 494.557C3678.26 482.357 3747.48 512.057 3777.18 536.657C3783.03 541.507 3785.84 549.087 3784.34 556.527L3749.28 711.887C3748.4 716.287 3753.78 719.157 3756.93 715.957L3959.29 498.647C3980.93 484.227 4001.78 499.217 4016.6 520.647C4030.18 540.297 4044.16 558.397 4044.16 573.917C4043.53 584.187 4038.08 611.497 4025.72 623.687L3829.59 819.277C3828.14 826.107 3859.82 869.377 3867.12 879.587C3881.32 899.437 3915.94 939.557 3929.9 959.827C3932.06 962.967 3933.81 966.927 3934.93 970.927C3936.16 975.277 3934.34 980.117 3930.43 982.387C3928.47 983.527 3925.99 984.547 3922.96 985.057L3922.98 985.077Z" fill="#10384D"></path>
    <path d="M4049.25 594.347C4049.25 594.347 4008.1 809.847 3996.66 922.187C3995.57 932.877 3998.55 943.727 4005.55 951.887C4020.8 969.687 4042.07 985.856 4070.34 1001.83C4080.98 1007.84 4220.42 982.257 4284.69 974.187C4291.13 973.377 4295.49 967.277 4294.16 960.927C4288.58 934.217 4266.95 903.127 4260.19 898.817C4252.49 893.917 4190 899.686 4124.85 905.986C4120.77 906.376 4117.57 902.546 4118.67 898.596L4133.25 836.846C4133.98 834.236 4136.08 832.277 4138.75 831.807C4162.23 827.677 4262.62 823.377 4297.74 813.147C4304.07 811.297 4307.79 804.817 4306.28 798.397C4299.37 768.987 4289.42 730.417 4273.45 728.507C4252.6 726.017 4198.69 726.627 4178.21 726.957C4174.16 727.027 4171.22 723.187 4172.29 719.277L4201.04 613.657C4201.77 610.987 4204.16 609.106 4206.93 609.046L4373.18 597.527C4380.8 596.757 4386.21 589.347 4384.27 581.937C4369.08 523.876 4369.66 502.556 4348.13 501.166C4318.26 499.236 4248.77 507.627 4197.37 513.537C4163 517.487 4105.73 520.787 4073.12 529.587C4065.75 531.577 4060.23 537.647 4058.78 545.137L4049.26 594.337L4049.25 594.347Z" fill="#10384D"></path>
    <path d="M3389.94 844.476C3387.96 851.886 3378.89 884.496 3377.59 891.266C3377.2 893.276 3378.67 895.146 3380.71 895.236C3385.85 895.466 3420.99 888.826 3424.39 888.496C3456.8 885.336 3490.63 883.166 3502.96 884.006C3523.6 885.416 3545.01 936.976 3546.68 945.736C3549.97 963.046 3546.01 964.066 3517.55 967.946C3456.81 976.236 3403.16 985.826 3342.11 991.706C3334.23 992.466 3324.91 986.396 3313.74 981.126C3297.49 973.456 3268.74 953.976 3260.95 945.736C3249.73 933.896 3259.55 895.906 3261.35 869.266C3266.93 786.666 3304.13 583.086 3334.72 507.196C3339.73 494.776 3344.17 482.316 3359.27 482.396C3381.4 490.446 3446.02 507.026 3470.84 529.156C3477.85 535.406 3480.44 545.236 3478.02 554.306L3389.95 844.466L3389.94 844.476Z" fill="#10384D"></path>
    <path d="M4604.44 837.966L4753.61 978.116C4756.35 980.756 4756.73 985.126 4754.27 988.026C4734.84 1010.85 4672.25 1011.61 4655.74 1004.73C4640.63 998.426 4535.84 909.846 4500.38 869.316C4498.15 866.766 4494.02 867.206 4492.44 870.206C4480.39 893.196 4472.18 987.826 4465.73 1006.19C4465.07 1008.07 4463.52 1009.39 4461.56 1009.76C4446.54 1012.58 4395.3 998.346 4384.64 996.116C4361.51 991.296 4368.58 978.126 4371.53 937.656C4376.38 871.166 4387.55 789.506 4397.75 723.006C4403.51 685.456 4414.15 592.316 4419.76 578.816C4431.67 550.146 4491.61 532.766 4522.16 523.496C4610.24 496.766 4689.32 480.266 4755.21 556.836C4778.44 583.826 4811.24 641.156 4808.95 676.806C4804.2 750.676 4667.63 817.586 4604.43 837.956L4604.44 837.966ZM4638.67 706.146C4651.13 695.876 4687.63 664.016 4691.04 640.926C4692.08 633.856 4688 626.976 4681.73 623.546C4647.9 605.076 4600.62 622.916 4568.39 632.946C4562.93 634.646 4558.66 638.936 4556.91 644.376L4519.4 768.136C4531.4 778.486 4622.9 719.136 4638.67 706.146Z" fill="#10384D"></path>
    <path d="M3237.62 537.366L3227.36 986.586C3227.24 991.966 3222.46 996.026 3217.13 995.216C3193.49 991.596 3146.05 985.396 3124.54 978.636C3121.69 977.736 3119.7 975.156 3119.44 972.176C3116.37 937.456 3115.28 907.346 3115.17 873.956L2941.03 894.446C2941.03 894.446 2903.4 957.206 2892.69 982.136C2890.35 987.576 2884.51 990.576 2878.71 989.376C2854.49 984.396 2833.99 970.436 2809.6 955.076C2803.32 951.116 2800.37 943.536 2802.36 936.386C2812.2 901.036 2845.27 831.786 2855.66 808.366C2880.14 753.146 2910.96 687.706 2938.78 634.296C2956.07 601.106 3024.17 486.116 3031.66 482.406C3043.83 476.366 3159.09 481.406 3212.89 501.256C3224.64 505.596 3237.92 524.846 3237.63 537.366H3237.62ZM3109.3 779.406L3106.37 603.536C3106.37 600.456 3102.41 599.136 3100.59 601.626C3074.24 637.566 3054.29 675.556 3044.46 692.376C3022.42 730.096 3010.11 753.246 2992.88 785.856C2990.65 790.076 2993.96 795.096 2998.71 794.726L3103.43 785.736C3106.74 785.486 3109.3 782.726 3109.3 779.406Z" fill="#10384D"></path>
  </g>
  <defs>
    <clipPath id="clip0_599_176">
      <rect width="7968" height="2988.49" fill="white"></rect>
    </clipPath>
  </defs>
</svg>
